<?xml version="1.0" encoding="UTF-8"?>
<!-- Generated by jsxcad -->
<!DOCTYPE svg PUBLIC "-//W3C//DTD SVG 1.1 Tiny//EN" "http://www.w3.org/Graphics/SVG/1.1/DTD/svg11-tiny.dtd">
<svg viewBox="-250 -250 500 500" width="500" height="500" xmlns="http://www.w3.org/2000/svg"><path d="M26.38450042558371,-93.82224933690543L-157.04558310070774,-43.376756684533156L-157.15875891135843,-42.65772960661076zM-157.46879422437104,-40.688013532661024L26.38450042558371,-93.82224933690543L-157.15875891135843,-42.65772960661076zM151.60776626393817,-129.47152483679224L-153.74005895020875,-64.37736942386702L-157.04558310070774,-43.376756684533156zM22.575747431432834,-88.0852143618399L-157.46879422437104,-40.688013532661024L-157.89429362610943,-37.9847400904123zM23.697231476072083,-85.67571176060166L-157.89429362610943,-37.9847400904123L-158.32209760122555,-35.2668138698743zM26.644456324778663,-84.48893711474122L-158.32209760122555,-35.2668138698743L-158.63674561697957,-33.267803826171985zM-158.7522272498817,-32.53412361372065L26.644456324778663,-84.48893711474122L-158.63674561697957,-33.267803826171985zM-157.04558310070774,-43.376756684533156L26.38450042558371,-93.82224933690543L30.28795147066862,-95.630963169934zM26.38450042558371,-93.82224933690543L-157.46879422437104,-40.688013532661024L23.56356597288429,-91.06492781180167zM-157.46879422437104,-40.688013532661024L22.575747431432834,-88.0852143618399L23.56356597288429,-91.06492781180167zM-157.89429362610943,-37.9847400904123L23.697231476072083,-85.67571176060166L22.575747431432834,-88.0852143618399zM-153.74005895020875,-64.37736942386702L151.60776626393817,-129.47152483679224L148.16920955895355,-150.14819473564788zM-158.32209760122555,-35.2668138698743L26.644456324778663,-84.48893711474122L23.697231476072083,-85.67571176060166zM26.644456324778663,-84.48893711474122L-158.7522272498817,-32.53412361372065L30.63313023441253,-84.8556706599581zM-179.68161239412777,107.25912013128152L-61.9789000900042,-71.14288228615685L-155.87019080233782,-44.92373483942051z" style="fill:rgb(83,212,212)"/><path d="M30.28795147066862,-95.630963169934L29.06755507579898,-87.84542135423462L32.95100938743423,-89.64337222815578z" style="fill:rgb(158,48,222)"/><path d="M29.06755507579898,-87.84542135423462L23.56356597288429,-91.06492781180167L26.265118822022174,-85.09455746057816z" style="fill:rgb(212,85,213)"/><path d="M34.24473860286175,-96.01336475298808L32.95100938743423,-89.64337222815578L36.891486040193826,-90.01351404240977z" style="fill:rgb(96,32,206)"/><path d="M29.06755507579898,-87.84542135423462L30.28795147066862,-95.630963169934L26.38450042558371,-93.82224933690543z" style="fill:rgb(158,48,222)"/><path d="M23.56356597288429,-91.06492781180167L29.06755507579898,-87.84542135423462L26.38450042558371,-93.82224933690543z" style="fill:rgb(212,85,213)"/><path d="M32.95100938743423,-89.64337222815578L34.24473860286175,-96.01336475298808L30.28795147066862,-95.630963169934z" style="fill:rgb(96,32,206)"/><path d="M39.8446949134139,-88.85100829628404L34.24473860286175,-96.01336475298808L36.891486040193826,-90.01351404240977z" style="fill:rgb(42,41,169)"/><path d="M26.265118822022174,-85.09455746057816L22.575747431432834,-88.0852143618399L25.28942288814808,-82.1153378454926zM22.575747431432834,-88.0852143618399L26.265118822022174,-85.09455746057816L23.56356597288429,-91.06492781180167z" style="fill:rgb(243,133,180)"/><path d="M34.24473860286175,-96.01336475298808L39.8446949134139,-88.85100829628404L37.20628846689482,-94.86136473223264z" style="fill:rgb(42,41,169)"/><path d="M41.01432510750763,-86.45477825468394L37.20628846689482,-94.86136473223264L39.8446949134139,-88.85100829628404z" style="fill:rgb(11,74,121)"/><path d="M-71.71144479106027,81.17207506334853L-42.7889938174903,-35.439058451769185L-61.9789000900042,-71.14288228615685z" style="fill:rgb(247,158,158)"/><path d="M37.20628846689482,-94.86136473223264L41.01432510750763,-86.45477825468394L38.3739855631107,-92.47097762629802z" style="fill:rgb(11,74,121)"/><path d="M34.24473860286175,-96.01336475298808L151.60776626393817,-129.47152483679224L30.28795147066862,-95.630963169934zM37.20628846689482,-94.86136473223264L151.7257004752861,-128.76235801687866L34.24473860286175,-96.01336475298808zM38.3739855631107,-92.47097762629802L152.0488401367701,-126.81926383714712L37.20628846689482,-94.86136473223264zM152.9387322514997,-121.46818159700952L38.3739855631107,-92.47097762629802L37.418054541378815,-89.47558960172262zM151.60776626393817,-129.47152483679224L34.24473860286175,-96.01336475298808L151.7257004752861,-128.76235801687866zM153.26706509199397,-119.49385165573219L37.418054541378815,-89.47558960172262L34.58279585055607,-86.68349263889016zM153.38759592326232,-118.76907879043542L34.58279585055607,-86.68349263889016L30.63313023441253,-84.8556706599581zM160.94539872625458,-73.32263496767203L-158.7522272498817,-32.53412361372065L-165.96659080420665,13.300076603910945zM151.7257004752861,-128.76235801687866L37.20628846689482,-94.86136473223264L152.0488401367701,-126.81926383714712zM152.0488401367701,-126.81926383714712L38.3739855631107,-92.47097762629802L152.49248792915515,-124.15152530617821zM38.3739855631107,-92.47097762629802L152.9387322514997,-121.46818159700952L152.49248792915515,-124.15152530617821zM37.418054541378815,-89.47558960172262L153.26706509199397,-119.49385165573219L152.9387322514997,-121.46818159700952zM34.58279585055607,-86.68349263889016L153.38759592326232,-118.76907879043542L153.26706509199397,-119.49385165573219zM112.8583295052104,-59.75597908868078L-165.96659080420665,13.300076603910945L-166.09299525908187,14.103146736298337zM-158.7522272498817,-32.53412361372065L160.94539872625458,-73.32263496767203L153.38759592326232,-118.76907879043542zM-166.43932207940537,16.30342576145458L112.8583295052104,-59.75597908868078L-166.09299525908187,14.103146736298337zM109.10460854146267,-53.402921053602405L-166.43932207940537,16.30342576145458L-166.91475373583643,19.32393294550092zM-64.60950509951314,-29.973750800375225L14.821954206944435,9.511582158512786L13.966606726940878,-51.11822681361663zM110.60847358609782,-50.67866234363868L-166.91475373583643,19.32393294550092L-167.39290946282912,22.361744653537574z" style="fill:rgb(83,212,212)"/><path d="M-42.7889938174903,-35.439058451769185L-71.71144479106027,81.17207506334853L-49.259936212967894,116.64869813381362zM13.966606726940878,-51.11822681361663L17.803848143822407,15.415601899960532L16.781961467390133,-45.22613533194676z" style="fill:rgb(247,158,158)"/><path d="M114.06217350324283,-49.28794170963009L-167.39290946282912,22.361744653537574L-167.74468423842737,24.596635556889726zM-167.87381257717163,25.417013038185765L114.06217350324283,-49.28794170963009L-167.74468423842737,24.596635556889726zM14.821954206944435,9.511582158512786L-64.60950509951314,-29.973750800375225L-68.48517751014244,30.680773932751393zM-61.9789000900042,-71.14288228615685L-179.68161239412777,107.25912013128152L-71.71144479106027,81.17207506334853z" style="fill:rgb(83,212,212)"/><path d="M59.14090190122697,-52.727790730254206L64.17650095546011,-7.927320595793839L61.768158756456884,-46.699667809842474z" style="fill:rgb(247,158,158)"/><path d="M14.113207191886158,-40.72671252702047L61.460081439704844,-13.968636626410666L59.14090190122697,-52.727790730254206zM-165.96659080420665,13.300076603910945L112.8583295052104,-59.75597908868078L117.10055135397943,-61.70495024455488zM112.8583295052104,-59.75597908868078L-166.43932207940537,16.30342576145458L109.9334885715463,-56.722781844406555zM-166.43932207940537,16.30342576145458L109.10460854146267,-53.402921053602405L109.9334885715463,-56.722781844406555zM-166.91475373583643,19.32393294550092L110.60847358609782,-50.67866234363868L109.10460854146267,-53.402921053602405z" style="fill:rgb(83,212,212)"/><path d="M17.803848143822407,15.415601899960532L13.966606726940878,-51.11822681361663L14.821954206944435,9.511582158512786z" style="fill:rgb(247,158,158)"/><path d="M61.460081439704844,-13.968636626410666L14.113207191886158,-40.72671252702047L14.660344204016477,-1.9438632163690677zM-167.39290946282912,22.361744653537574L114.06217350324283,-49.28794170963009L110.60847358609782,-50.67866234363868zM114.06217350324283,-49.28794170963009L-167.87381257717163,25.417013038185765L118.54559627621585,-49.61880754901331z" style="fill:rgb(83,212,212)"/><path d="M-65.09724272197099,36.34573193699903L14.821954206944435,9.511582158512786L-68.48517751014244,30.680773932751393z" style="fill:rgb(127,37,217)"/><path d="M148.16920955895355,-150.14819473564788L180.81989386274594,38.91048043007682L150.22458729600564,-143.83358566549867zM64.17650095546011,-7.927320595793839L59.14090190122697,-52.727790730254206L61.460081439704844,-13.968636626410666z" style="fill:rgb(247,158,158)"/><path d="M14.821954206944435,9.511582158512786L-65.09724272197099,36.34573193699903L17.803848143822407,15.415601899960532zM17.610823800175098,3.960970933782157L61.460081439704844,-13.968636626410666L14.660344204016477,-1.9438632163690677z" style="fill:rgb(127,37,217)"/><path d="M117.10055135397943,-61.70495024455488L115.26729920620564,-53.4871111085425L119.48590781473983,-55.42357995887933z" style="fill:rgb(158,48,222)"/><path d="M-71.71144479106027,81.17207506334853L-153.93395630033532,140.86830273485197L-49.259936212967894,116.64869813381362z" style="fill:rgb(127,37,217)"/><path d="M115.26729920620564,-53.4871111085425L109.9334885715463,-56.722781844406555L112.36265232709614,-50.46204742410153z" style="fill:rgb(212,85,213)"/><path d="M121.54321819219608,-62.05551321998536L119.48590781473983,-55.42357995887933L123.9076495977011,-55.76051345504312z" style="fill:rgb(96,32,206)"/><path d="M61.460081439704844,-13.968636626410666L17.610823800175098,3.960970933782157L64.17650095546011,-7.927320595793839z" style="fill:rgb(127,37,217)"/><path d="M115.26729920620564,-53.4871111085425L117.10055135397943,-61.70495024455488L112.8583295052104,-59.75597908868078z" style="fill:rgb(158,48,222)"/><path d="M109.9334885715463,-56.722781844406555L115.26729920620564,-53.4871111085425L112.8583295052104,-59.75597908868078z" style="fill:rgb(212,85,213)"/><path d="M119.48590781473983,-55.42357995887933L121.54321819219608,-62.05551321998536L117.10055135397943,-61.70495024455488z" style="fill:rgb(96,32,206)"/><path d="M127.36247289151304,-54.40056262202216L121.54321819219608,-62.05551321998536L123.9076495977011,-55.76051345504312z" style="fill:rgb(42,41,169)"/><path d="M112.36265232709614,-50.46204742410153L109.10460854146267,-53.402921053602405L111.54522342734901,-47.14385851156391z" style="fill:rgb(243,133,180)"/><path d="M-153.93395630033532,140.86830273485197L-71.71144479106027,81.17207506334853L-179.68161239412777,107.25912013128152z" style="fill:rgb(127,37,217)"/><path d="M109.10460854146267,-53.402921053602405L112.36265232709614,-50.46204742410153L109.9334885715463,-56.722781844406555z" style="fill:rgb(243,133,180)"/><path d="M121.54321819219608,-62.05551321998536L127.36247289151304,-54.40056262202216L125.01080787128573,-60.706674588381716z" style="fill:rgb(42,41,169)"/><path d="M128.91986142079415,-51.69297033425645L125.01080787128573,-60.706674588381716L127.36247289151304,-54.40056262202216z" style="fill:rgb(11,74,121)"/><path d="M171.50874729004013,-9.803287088855077L-167.87381257717163,25.417013038185765L-175.96215931107702,76.80379176646365zM121.54321819219608,-62.05551321998536L160.94539872625458,-73.32263496767203L117.10055135397943,-61.70495024455488z" style="fill:rgb(83,212,212)"/><path d="M125.01080787128573,-60.706674588381716L128.91986142079415,-51.69297033425645L126.56930010131879,-58.00460163385911z" style="fill:rgb(11,74,121)"/><path d="M125.01080787128573,-60.706674588381716L161.07831444718215,-72.52338414603673L121.54321819219608,-62.05551321998536zM29.73430960391418,26.447438878874156L-175.96215931107702,76.80379176646365L-176.1042549060289,77.70654741088187zM-176.49363789493913,80.1803787983906L29.73430960391418,26.447438878874156L-176.1042549060289,77.70654741088187zM160.94539872625458,-73.32263496767203L121.54321819219608,-62.05551321998536L161.07831444718215,-72.52338414603673zM126.56930010131879,-58.00460163385911L161.4425675239842,-70.33306822793382L125.01080787128573,-60.706674588381716zM161.07831444718215,-72.52338414603673L125.01080787128573,-60.706674588381716L161.4425675239842,-70.33306822793382zM25.454695213429485,33.44909520458442L-176.49363789493913,80.1803787983906L-177.0283374993467,83.57741683971264zM161.4425675239842,-70.33306822793382L126.56930010131879,-58.00460163385911L161.94281672365727,-67.32497846897746zM162.44617572396422,-64.29818891111013L126.56930010131879,-58.00460163385911L125.7811681763523,-54.66504524558497zM26.7297489779392,36.59137740485273L-177.0283374993467,83.57741683971264L-177.56628603970648,86.99510872752549zM-167.87381257717163,25.417013038185765L171.50874729004013,-9.803287088855077L162.95267429869025,-61.25252051912634zM126.56930010131879,-58.00460163385911L162.44617572396422,-64.29818891111013L161.94281672365727,-67.32497846897746zM162.81664790112714,-62.07046770510199L125.7811681763523,-54.66504524558497L122.84243872843332,-51.58996510562383zM162.95267429869025,-61.25252051912634L122.84243872843332,-51.58996510562383L118.54559627621585,-49.61880754901331zM30.06487793327454,38.315980574731604L-177.56628603970648,86.99510872752549L-177.9621692398197,89.51022442256165zM-178.10751394979127,90.43362653032226L30.06487793327454,38.315980574731604L-177.9621692398197,89.51022442256165zM125.7811681763523,-54.66504524558497L162.81664790112714,-62.07046770510199L162.44617572396422,-64.29818891111013zM122.84243872843332,-51.58996510562383L162.95267429869025,-61.25252051912634L162.81664790112714,-62.07046770510199zM-175.96215931107702,76.80379176646365L29.73430960391418,26.447438878874156L34.13425111524338,24.43728849832943zM29.73430960391418,26.447438878874156L-176.49363789493913,80.1803787983906L26.559807062741992,29.739544468828058zM-176.49363789493913,80.1803787983906L25.454695213429485,33.44909520458442L26.559807062741992,29.739544468828058zM-177.0283374993467,83.57741683971264L26.7297489779392,36.59137740485273L25.454695213429485,33.44909520458442zM-177.56628603970648,86.99510872752549L30.06487793327454,38.315980574731604L26.7297489779392,36.59137740485273zM30.06487793327454,38.315980574731604L-178.10751394979127,90.43362653032226L34.573301078431506,38.142921417788024z" style="fill:rgb(83,212,212)"/><path d="M34.13425111524338,24.43728849832943L32.73612872791431,32.46555358042247L37.11067938586312,30.46872902689398z" style="fill:rgb(158,48,222)"/><path d="M32.73612872791431,32.46555358042247L26.559807062741992,29.739544468828058L29.585047193349062,35.747272751227214z" style="fill:rgb(212,85,213)"/><path d="M38.60195162072454,24.23916794023431L37.11067938586312,30.46872902689398L41.55757517969592,30.28341738624623z" style="fill:rgb(96,32,206)"/><path d="M32.73612872791431,32.46555358042247L34.13425111524338,24.43728849832943L29.73430960391418,26.447438878874156z" style="fill:rgb(158,48,222)"/><path d="M26.559807062741992,29.739544468828058L32.73612872791431,32.46555358042247L29.73430960391418,26.447438878874156z" style="fill:rgb(212,85,213)"/><path d="M37.11067938586312,30.46872902689398L38.60195162072454,24.23916794023431L34.13425111524338,24.43728849832943z" style="fill:rgb(96,32,206)"/><path d="M44.90001380832438,31.96825180714376L38.60195162072454,24.23916794023431L41.55757517969592,30.28341738624623z" style="fill:rgb(42,41,169)"/><path d="M29.585047193349062,35.747272751227214L25.454695213429485,33.44909520458442L28.495224950350863,39.452028590089284zM25.454695213429485,33.44909520458442L29.585047193349062,35.747272751227214L26.559807062741992,29.739544468828058z" style="fill:rgb(243,133,180)"/><path d="M25.454695213429485,33.44909520458442L29.773214843899684,42.59637331483497L28.495224950350863,39.452028590089284z" style="fill:rgb(243,180,133)"/><path d="M38.60195162072454,24.23916794023431L44.90001380832438,31.96825180714376L41.95516125795769,25.915157438272303z" style="fill:rgb(42,41,169)"/><path d="M29.773214843899684,42.59637331483497L25.454695213429485,33.44909520458442L26.7297489779392,36.59137740485273z" style="fill:rgb(243,180,133)"/><path d="M178.53961569792827,32.4746011381111L-178.10751394979127,90.43362653032226L-182.55908444890878,118.71528592152546zM38.60195162072454,24.23916794023431L171.50874729004013,-9.803287088855077L34.13425111524338,24.43728849832943z" style="fill:rgb(83,212,212)"/><path d="M180.81989386274594,38.91048043007682L148.16920955895355,-150.14819473564788L178.53961569792827,32.4746011381111z" style="fill:rgb(247,158,158)"/><path d="M-178.36512289968573,124.10100816285042L178.53961569792827,32.4746011381111L-182.55908444890878,118.71528592152546z" style="fill:rgb(127,37,217)"/><path d="M41.95516125795769,25.915157438272303L171.6596903406891,-8.895637813342008L38.60195162072454,24.23916794023431zM43.28901949031708,29.0338865121872L172.07343370984367,-6.407728592190545L41.95516125795769,25.915157438272303zM173.21403420370032,0.4509121085188221L43.28901949031708,29.0338865121872L42.224630961396656,32.76849427966442zM171.50874729004013,-9.803287088855077L38.60195162072454,24.23916794023431L171.6596903406891,-8.895637813342008zM173.63531185911944,2.9841356794536935L42.224630961396656,32.76849427966442L39.03204911116714,36.109212466101894zM173.79002449695608,3.9144431401887174L39.03204911116714,36.109212466101894L34.573301078431506,38.142921417788024zM171.6596903406891,-8.895637813342008L41.95516125795769,25.915157438272303L172.07343370984367,-6.407728592190545zM-178.10751394979127,90.43362653032226L178.53961569792827,32.4746011381111L173.79002449695608,3.9144431401887174zM172.07343370984367,-6.407728592190545L43.28901949031708,29.0338865121872L172.6418492944058,-2.989736407011235zM43.28901949031708,29.0338865121872L173.21403420370032,0.4509121085188221L172.6418492944058,-2.989736407011235zM42.224630961396656,32.76849427966442L173.63531185911944,2.9841356794536935L173.21403420370032,0.4509121085188221zM39.03204911116714,36.109212466101894L173.79002449695608,3.9144431401887174L173.63531185911944,2.9841356794536935z" style="fill:rgb(83,212,212)"/><path d="M178.53961569792827,32.4746011381111L-178.36512289968573,124.10100816285042L180.81989386274594,38.91048043007682z" style="fill:rgb(127,37,217)"/></svg>
