solid JSxCAD
facet normal 0 0 -1
outer loop
vertex 20 -20 1
vertex -20 20 1
vertex 20 20 1
endloop
endfacet
facet normal 0 0 -1
outer loop
vertex -20 20 1
vertex 20 -20 1
vertex -20 -20 1
endloop
endfacet
facet normal 0 0 1
outer loop
vertex -9.38186 11.83135 0
vertex -8.48528 8.48528 0
vertex -7.96764 10.41713 0
endloop
endfacet
facet normal 0 0 1
outer loop
vertex -9.38186 11.83135 0
vertex -10.41713 7.96764 0
vertex -8.48528 8.48528 0
endloop
endfacet
facet normal 0 0 0.9999999999999999
outer loop
vertex -11.31371 11.31371 0
vertex -10.41713 7.96764 0
vertex -9.38186 11.83135 0
endloop
endfacet
facet normal 0 0 1
outer loop
vertex -10.41713 7.96764 0
vertex -11.31371 11.31371 0
vertex -11.83135 9.38186 0
endloop
endfacet
facet normal 0.25882014260670183 -0.965925532213041 0
outer loop
vertex -10.41713 7.96764 -19
vertex -8.48528 8.48528 0
vertex -10.41713 7.96764 0
endloop
endfacet
facet normal 0.2588201426067022 -0.965925532213041 0
outer loop
vertex -8.48528 8.48528 0
vertex -10.41713 7.96764 -19
vertex -8.48528 8.48528 -19
endloop
endfacet
facet normal -0.7071067811865472 -0.7071067811865477 0
outer loop
vertex -11.83135 9.38186 -19
vertex -10.41713 7.96764 0
vertex -11.83135 9.38186 0
endloop
endfacet
facet normal -0.7071067811865472 -0.7071067811865477 0
outer loop
vertex -10.41713 7.96764 0
vertex -11.83135 9.38186 -19
vertex -10.41713 7.96764 -19
endloop
endfacet
facet normal -0.9659255322130407 0.2588201426067032 0
outer loop
vertex -11.31371 11.31371 -19
vertex -11.83135 9.38186 0
vertex -11.31371 11.31371 0
endloop
endfacet
facet normal -0.9659255322130407 0.2588201426067032 0
outer loop
vertex -11.83135 9.38186 0
vertex -11.31371 11.31371 -19
vertex -11.83135 9.38186 -19
endloop
endfacet
facet normal -0.2588201426067026 0.9659255322130408 0
outer loop
vertex -9.38186 11.83135 0
vertex -11.31371 11.31371 -19
vertex -11.31371 11.31371 0
endloop
endfacet
facet normal -0.2588201426067026 0.9659255322130408 0
outer loop
vertex -11.31371 11.31371 -19
vertex -9.38186 11.83135 0
vertex -9.38186 11.83135 -19
endloop
endfacet
facet normal 0 0 -1
outer loop
vertex -8.48528 8.48528 -19
vertex -9.38186 11.83135 -19
vertex -7.96764 10.41713 -19
endloop
endfacet
facet normal 0 0 -0.9999999999999999
outer loop
vertex -10.41713 7.96764 -19
vertex -9.38186 11.83135 -19
vertex -8.48528 8.48528 -19
endloop
endfacet
facet normal -2.0511578983039325e-15 0 -0.9999999999999999
outer loop
vertex -10.41713 7.96764 -19
vertex -11.31371 11.31371 -19
vertex -9.38186 11.83135 -19
endloop
endfacet
facet normal 2.051150646398647e-15 0 -0.9999999999999999
outer loop
vertex -11.31371 11.31371 -19
vertex -10.41713 7.96764 -19
vertex -11.83135 9.38186 -19
endloop
endfacet
facet normal 0.7071067811865483 0.7071067811865468 0
outer loop
vertex -7.96764 10.41713 -19
vertex -9.38186 11.83135 0
vertex -7.96764 10.41713 0
endloop
endfacet
facet normal 0.7071067811865477 0.7071067811865477 0
outer loop
vertex -9.38186 11.83135 0
vertex -7.96764 10.41713 -19
vertex -9.38186 11.83135 -19
endloop
endfacet
facet normal 0.965925532213041 -0.25882014260670183 0
outer loop
vertex -8.48528 8.48528 -19
vertex -7.96764 10.41713 0
vertex -8.48528 8.48528 0
endloop
endfacet
facet normal 0.965925532213041 -0.25882014260670183 0
outer loop
vertex -7.96764 10.41713 0
vertex -8.48528 8.48528 -19
vertex -7.96764 10.41713 -19
endloop
endfacet
facet normal 0 0 1
outer loop
vertex 10.41713 -7.96764 0
vertex 11.31371 -11.31371 0
vertex 11.83135 -9.38186 0
endloop
endfacet
facet normal 0 0 0.9999999999999999
outer loop
vertex 10.41713 -7.96764 0
vertex 9.38186 -11.83135 0
vertex 11.31371 -11.31371 0
endloop
endfacet
facet normal 0 0 0.9999999999999999
outer loop
vertex 8.48528 -8.48528 0
vertex 9.38186 -11.83135 0
vertex 10.41713 -7.96764 0
endloop
endfacet
facet normal 0 0 1
outer loop
vertex 9.38186 -11.83135 0
vertex 8.48528 -8.48528 0
vertex 7.96764 -10.41713 0
endloop
endfacet
facet normal 0 0 1
outer loop
vertex -8.48528 -8.48528 0
vertex -9.38186 -11.83135 0
vertex -7.96764 -10.41713 0
endloop
endfacet
facet normal 0 0 0.9999999999999999
outer loop
vertex -10.41713 -7.96764 0
vertex -9.38186 -11.83135 0
vertex -8.48528 -8.48528 0
endloop
endfacet
facet normal 0 0 0.9999999999999999
outer loop
vertex -10.41713 -7.96764 0
vertex -11.31371 -11.31371 0
vertex -9.38186 -11.83135 0
endloop
endfacet
facet normal 0 0 0.9999999999999999
outer loop
vertex -11.31371 -11.31371 0
vertex -10.41713 -7.96764 0
vertex -11.83135 -9.38186 0
endloop
endfacet
facet normal 0 0 0.9999999999999999
outer loop
vertex 11.31371 11.31371 0
vertex 10.41713 7.96764 0
vertex 11.83135 9.38186 0
endloop
endfacet
facet normal 0 0 0.9999999999999999
outer loop
vertex 9.38186 11.83135 0
vertex 10.41713 7.96764 0
vertex 11.31371 11.31371 0
endloop
endfacet
facet normal 0 0 1
outer loop
vertex 9.38186 11.83135 0
vertex 8.48528 8.48528 0
vertex 10.41713 7.96764 0
endloop
endfacet
facet normal 0 0 1
outer loop
vertex 8.48528 8.48528 0
vertex 9.38186 11.83135 0
vertex 7.96764 10.41713 0
endloop
endfacet
facet normal 0 0 -1
outer loop
vertex -6.56431 8.07835 1
vertex -6.85744 12.17675 1
vertex -6.10918 10.17058 1
endloop
endfacet
facet normal 0 0 -1
outer loop
vertex -8.07835 6.56431 1
vertex -6.85744 12.17675 1
vertex -6.56431 8.07835 1
endloop
endfacet
facet normal 0 0 -1
outer loop
vertex -8.07835 6.56431 1
vertex -8.57153 13.4599 1
vertex -6.85744 12.17675 1
endloop
endfacet
facet normal 0 0 -0.9999999999999999
outer loop
vertex -10.17058 6.10918 1
vertex -8.57153 13.4599 1
vertex -8.07835 6.56431 1
endloop
endfacet
facet normal 0 0 -1
outer loop
vertex -10.17058 6.10918 1
vertex -10.70724 13.61265 1
vertex -8.57153 13.4599 1
endloop
endfacet
facet normal 0 0 -1
outer loop
vertex -12.17675 6.85744 1
vertex -10.70724 13.61265 1
vertex -10.17058 6.10918 1
endloop
endfacet
facet normal 0 0 -1
outer loop
vertex -12.17675 6.85744 1
vertex -12.5865 12.5865 1
vertex -10.70724 13.61265 1
endloop
endfacet
facet normal 0 0 -1
outer loop
vertex -13.4599 8.57153 1
vertex -12.5865 12.5865 1
vertex -12.17675 6.85744 1
endloop
endfacet
facet normal 0 0 -1
outer loop
vertex -12.5865 12.5865 1
vertex -13.4599 8.57153 1
vertex -13.61265 10.70724 1
endloop
endfacet
facet normal 0 0 -1
outer loop
vertex 13.4599 8.57153 1
vertex 12.5865 12.5865 1
vertex 13.61265 10.70724 1
endloop
endfacet
facet normal 0 0 -1
outer loop
vertex 12.17675 6.85744 1
vertex 12.5865 12.5865 1
vertex 13.4599 8.57153 1
endloop
endfacet
facet normal 0 0 -1
outer loop
vertex 12.17675 6.85744 1
vertex 10.70724 13.61265 1
vertex 12.5865 12.5865 1
endloop
endfacet
facet normal 0 0 -1
outer loop
vertex 10.17058 6.10918 1
vertex 10.70724 13.61265 1
vertex 12.17675 6.85744 1
endloop
endfacet
facet normal 0 0 -1
outer loop
vertex 10.17058 6.10918 1
vertex 8.57153 13.4599 1
vertex 10.70724 13.61265 1
endloop
endfacet
facet normal 0 0 -0.9999999999999999
outer loop
vertex 8.07835 6.56431 1
vertex 8.57153 13.4599 1
vertex 10.17058 6.10918 1
endloop
endfacet
facet normal 0 0 -1
outer loop
vertex 8.07835 6.56431 1
vertex 6.85744 12.17675 1
vertex 8.57153 13.4599 1
endloop
endfacet
facet normal 0 0 -1
outer loop
vertex 6.56431 8.07835 1
vertex 6.85744 12.17675 1
vertex 8.07835 6.56431 1
endloop
endfacet
facet normal 0 0 -1
outer loop
vertex 6.85744 12.17675 1
vertex 6.56431 8.07835 1
vertex 6.10918 10.17058 1
endloop
endfacet
facet normal 0 0 -1
outer loop
vertex 12.5865 -12.5865 1
vertex 13.4599 -8.57153 1
vertex 13.61265 -10.70724 1
endloop
endfacet
facet normal 0 0 -1
outer loop
vertex 12.5865 -12.5865 1
vertex 12.17675 -6.85744 1
vertex 13.4599 -8.57153 1
endloop
endfacet
facet normal 0 0 -1
outer loop
vertex 10.70724 -13.61265 1
vertex 12.17675 -6.85744 1
vertex 12.5865 -12.5865 1
endloop
endfacet
facet normal 0 0 -0.9999999999999999
outer loop
vertex 10.70724 -13.61265 1
vertex 10.17058 -6.10918 1
vertex 12.17675 -6.85744 1
endloop
endfacet
facet normal 0 0 -0.9999999999999999
outer loop
vertex 8.57153 -13.4599 1
vertex 10.17058 -6.10918 1
vertex 10.70724 -13.61265 1
endloop
endfacet
facet normal 0 0 -1
outer loop
vertex 8.57153 -13.4599 1
vertex 8.07835 -6.56431 1
vertex 10.17058 -6.10918 1
endloop
endfacet
facet normal 0 0 -1
outer loop
vertex 6.85744 -12.17675 1
vertex 8.07835 -6.56431 1
vertex 8.57153 -13.4599 1
endloop
endfacet
facet normal 0 0 -1
outer loop
vertex 6.85744 -12.17675 1
vertex 6.56431 -8.07835 1
vertex 8.07835 -6.56431 1
endloop
endfacet
facet normal 0 0 -1
outer loop
vertex 6.56431 -8.07835 1
vertex 6.85744 -12.17675 1
vertex 6.10918 -10.17058 1
endloop
endfacet
facet normal 0 0 -1
outer loop
vertex -6.85744 -12.17675 1
vertex -6.56431 -8.07835 1
vertex -6.10918 -10.17058 1
endloop
endfacet
facet normal 0 0 -1
outer loop
vertex -6.85744 -12.17675 1
vertex -8.07835 -6.56431 1
vertex -6.56431 -8.07835 1
endloop
endfacet
facet normal 0 0 -1
outer loop
vertex -8.57153 -13.4599 1
vertex -8.07835 -6.56431 1
vertex -6.85744 -12.17675 1
endloop
endfacet
facet normal 0 0 -1
outer loop
vertex -8.57153 -13.4599 1
vertex -10.17058 -6.10918 1
vertex -8.07835 -6.56431 1
endloop
endfacet
facet normal 0 0 -1
outer loop
vertex -10.70724 -13.61265 1
vertex -10.17058 -6.10918 1
vertex -8.57153 -13.4599 1
endloop
endfacet
facet normal 0 0 -0.9999999999999999
outer loop
vertex -10.70724 -13.61265 1
vertex -12.17675 -6.85744 1
vertex -10.17058 -6.10918 1
endloop
endfacet
facet normal 0 0 -1
outer loop
vertex -12.5865 -12.5865 1
vertex -12.17675 -6.85744 1
vertex -10.70724 -13.61265 1
endloop
endfacet
facet normal 0 0 -1
outer loop
vertex -12.5865 -12.5865 1
vertex -13.4599 -8.57153 1
vertex -12.17675 -6.85744 1
endloop
endfacet
facet normal 0 0 -1
outer loop
vertex -13.4599 -8.57153 1
vertex -12.5865 -12.5865 1
vertex -13.61265 -10.70724 1
endloop
endfacet
facet normal -1.7916936135352658e-16 0 1
outer loop
vertex -12.17675 -6.85744 3.2
vertex -8.07835 -6.56431 3.2
vertex -10.17058 -6.10918 3.2
endloop
endfacet
facet normal 0 0 1
outer loop
vertex -12.17675 -6.85744 3.2
vertex -6.56431 -8.07835 3.2
vertex -8.07835 -6.56431 3.2
endloop
endfacet
facet normal 0 0 1
outer loop
vertex -13.4599 -8.57153 3.2
vertex -6.56431 -8.07835 3.2
vertex -12.17675 -6.85744 3.2
endloop
endfacet
facet normal 0 0 1
outer loop
vertex -13.4599 -8.57153 3.2
vertex -6.10918 -10.17058 3.2
vertex -6.56431 -8.07835 3.2
endloop
endfacet
facet normal 0 0 1
outer loop
vertex -13.61265 -10.70724 3.2
vertex -6.10918 -10.17058 3.2
vertex -13.4599 -8.57153 3.2
endloop
endfacet
facet normal 0 0 1
outer loop
vertex -13.61265 -10.70724 3.2
vertex -6.85744 -12.17675 3.2
vertex -6.10918 -10.17058 3.2
endloop
endfacet
facet normal 0 0 1
outer loop
vertex -12.5865 -12.5865 3.2
vertex -6.85744 -12.17675 3.2
vertex -13.61265 -10.70724 3.2
endloop
endfacet
facet normal 0 0 1
outer loop
vertex -12.5865 -12.5865 3.2
vertex -8.57153 -13.4599 3.2
vertex -6.85744 -12.17675 3.2
endloop
endfacet
facet normal -3.583364659941845e-16 0 0.9999999999999999
outer loop
vertex -8.57153 -13.4599 3.2
vertex -12.5865 -12.5865 3.2
vertex -10.70724 -13.61265 3.2
endloop
endfacet
facet normal 0 0 1
outer loop
vertex 8.07835 -6.56431 3.2
vertex 12.17675 -6.85744 3.2
vertex 10.17058 -6.10918 3.2
endloop
endfacet
facet normal 3.339542866504713e-17 0 1
outer loop
vertex 6.56431 -8.07835 3.2
vertex 12.17675 -6.85744 3.2
vertex 8.07835 -6.56431 3.2
endloop
endfacet
facet normal 0 0 1
outer loop
vertex 6.56431 -8.07835 3.2
vertex 13.4599 -8.57153 3.2
vertex 12.17675 -6.85744 3.2
endloop
endfacet
facet normal 0 0 1
outer loop
vertex 6.10918 -10.17058 3.2
vertex 13.4599 -8.57153 3.2
vertex 6.56431 -8.07835 3.2
endloop
endfacet
facet normal 0 0 1
outer loop
vertex 6.10918 -10.17058 3.2
vertex 13.61265 -10.70724 3.2
vertex 13.4599 -8.57153 3.2
endloop
endfacet
facet normal 0 0 1
outer loop
vertex 6.85744 -12.17675 3.2
vertex 13.61265 -10.70724 3.2
vertex 6.10918 -10.17058 3.2
endloop
endfacet
facet normal 0 0 0.9999999999999999
outer loop
vertex 6.85744 -12.17675 3.2
vertex 12.5865 -12.5865 3.2
vertex 13.61265 -10.70724 3.2
endloop
endfacet
facet normal 0 0 1
outer loop
vertex 8.57153 -13.4599 3.2
vertex 12.5865 -12.5865 3.2
vertex 6.85744 -12.17675 3.2
endloop
endfacet
facet normal 3.1354440774491144e-16 0 0.9999999999999999
outer loop
vertex 12.5865 -12.5865 3.2
vertex 8.57153 -13.4599 3.2
vertex 10.70724 -13.61265 3.2
endloop
endfacet
facet normal -3.1354440774491144e-16 0 0.9999999999999999
outer loop
vertex -12.5865 12.5865 3.2
vertex -8.57153 13.4599 3.2
vertex -10.70724 13.61265 3.2
endloop
endfacet
facet normal 0 0 1
outer loop
vertex -12.5865 12.5865 3.2
vertex -6.85744 12.17675 3.2
vertex -8.57153 13.4599 3.2
endloop
endfacet
facet normal 0 0 1
outer loop
vertex -13.61265 10.70724 3.2
vertex -6.85744 12.17675 3.2
vertex -12.5865 12.5865 3.2
endloop
endfacet
facet normal 0 0 1
outer loop
vertex -13.61265 10.70724 3.2
vertex -6.10918 10.17058 3.2
vertex -6.85744 12.17675 3.2
endloop
endfacet
facet normal 0 0 1
outer loop
vertex -13.4599 8.57153 3.2
vertex -6.10918 10.17058 3.2
vertex -13.61265 10.70724 3.2
endloop
endfacet
facet normal 0 0 1
outer loop
vertex -13.4599 8.57153 3.2
vertex -6.56431 8.07835 3.2
vertex -6.10918 10.17058 3.2
endloop
endfacet
facet normal 0 0 1
outer loop
vertex -12.17675 6.85744 3.2
vertex -6.56431 8.07835 3.2
vertex -13.4599 8.57153 3.2
endloop
endfacet
facet normal 0 0 1
outer loop
vertex -12.17675 6.85744 3.2
vertex -8.07835 6.56431 3.2
vertex -6.56431 8.07835 3.2
endloop
endfacet
facet normal 0 0 1
outer loop
vertex -8.07835 6.56431 3.2
vertex -12.17675 6.85744 3.2
vertex -10.17058 6.10918 3.2
endloop
endfacet
facet normal 3.583364659941845e-16 0 0.9999999999999999
outer loop
vertex 8.57153 13.4599 3.2
vertex 12.5865 12.5865 3.2
vertex 10.70724 13.61265 3.2
endloop
endfacet
facet normal 0 0 1
outer loop
vertex 6.85744 12.17675 3.2
vertex 12.5865 12.5865 3.2
vertex 8.57153 13.4599 3.2
endloop
endfacet
facet normal 0 0 0.9999999999999999
outer loop
vertex 6.85744 12.17675 3.2
vertex 13.61265 10.70724 3.2
vertex 12.5865 12.5865 3.2
endloop
endfacet
facet normal 0 0 1
outer loop
vertex 6.10918 10.17058 3.2
vertex 13.61265 10.70724 3.2
vertex 6.85744 12.17675 3.2
endloop
endfacet
facet normal 0 0 1
outer loop
vertex 6.10918 10.17058 3.2
vertex 13.4599 8.57153 3.2
vertex 13.61265 10.70724 3.2
endloop
endfacet
facet normal 0 0 0.9999999999999999
outer loop
vertex 6.56431 8.07835 3.2
vertex 13.4599 8.57153 3.2
vertex 6.10918 10.17058 3.2
endloop
endfacet
facet normal 0 0 1
outer loop
vertex 6.56431 8.07835 3.2
vertex 12.17675 6.85744 3.2
vertex 13.4599 8.57153 3.2
endloop
endfacet
facet normal 0 0 0.9999999999999999
outer loop
vertex 8.07835 6.56431 3.2
vertex 12.17675 6.85744 3.2
vertex 6.56431 8.07835 3.2
endloop
endfacet
facet normal 1.7916936135352658e-16 0 1
outer loop
vertex 12.17675 6.85744 3.2
vertex 8.07835 6.56431 3.2
vertex 10.17058 6.10918 3.2
endloop
endfacet
facet normal 0.977147523435049 0.21256226721775048 0
outer loop
vertex -6.10918 -10.17058 1
vertex -6.56431 -8.07835 3.2
vertex -6.10918 -10.17058 3.2
endloop
endfacet
facet normal 0.9771475234350491 0.21256226721774985 0
outer loop
vertex -6.56431 -8.07835 3.2
vertex -6.10918 -10.17058 1
vertex -6.56431 -8.07835 1
endloop
endfacet
facet normal 0.9369501415086227 -0.3494630628935941 0
outer loop
vertex -6.85744 -12.17675 1
vertex -6.10918 -10.17058 3.2
vertex -6.85744 -12.17675 3.2
endloop
endfacet
facet normal 0.9369501415086227 -0.3494630628935941 0
outer loop
vertex -6.10918 -10.17058 3.2
vertex -6.85744 -12.17675 1
vertex -6.10918 -10.17058 1
endloop
endfacet
facet normal 0.5992771572478202 -0.8005416221540087 0
outer loop
vertex -8.57153 -13.4599 1
vertex -6.85744 -12.17675 3.2
vertex -8.57153 -13.4599 3.2
endloop
endfacet
facet normal 0.5992771572478205 -0.8005416221540084 0
outer loop
vertex -6.85744 -12.17675 3.2
vertex -8.57153 -13.4599 1
vertex -6.85744 -12.17675 1
endloop
endfacet
facet normal 0.07133965070130742 -0.997452081173735 0
outer loop
vertex -10.70724 -13.61265 1
vertex -8.57153 -13.4599 3.2
vertex -10.70724 -13.61265 3.2
endloop
endfacet
facet normal 0.07133965070130718 -0.9974520811737352 0
outer loop
vertex -8.57153 -13.4599 3.2
vertex -10.70724 -13.61265 1
vertex -8.57153 -13.4599 1
endloop
endfacet
facet normal -0.4792476932023262 -0.8776796958801366 0
outer loop
vertex -12.5865 -12.5865 1
vertex -10.70724 -13.61265 3.2
vertex -12.5865 -12.5865 3.2
endloop
endfacet
facet normal -0.4792476932023262 -0.8776796958801366 0
outer loop
vertex -10.70724 -13.61265 3.2
vertex -12.5865 -12.5865 1
vertex -10.70724 -13.61265 1
endloop
endfacet
facet normal -0.8776796958801366 -0.47924769320232635 0
outer loop
vertex -13.61265 -10.70724 1
vertex -12.5865 -12.5865 3.2
vertex -13.61265 -10.70724 3.2
endloop
endfacet
facet normal -0.8776796958801366 -0.47924769320232635 0
outer loop
vertex -12.5865 -12.5865 3.2
vertex -13.61265 -10.70724 1
vertex -12.5865 -12.5865 1
endloop
endfacet
facet normal -0.9974520811737351 0.07133965070130832 0
outer loop
vertex -13.4599 -8.57153 1
vertex -13.61265 -10.70724 3.2
vertex -13.4599 -8.57153 3.2
endloop
endfacet
facet normal -0.9974520811737352 0.07133965070130685 0
outer loop
vertex -13.61265 -10.70724 3.2
vertex -13.4599 -8.57153 1
vertex -13.61265 -10.70724 1
endloop
endfacet
facet normal 0.965925532213041 0.25882014260670183 0
outer loop
vertex -7.96764 -10.41713 -19
vertex -8.48528 -8.48528 0
vertex -7.96764 -10.41713 0
endloop
endfacet
facet normal 0.965925532213041 0.25882014260670183 0
outer loop
vertex -8.48528 -8.48528 0
vertex -7.96764 -10.41713 -19
vertex -8.48528 -8.48528 -19
endloop
endfacet
facet normal 0.7071067811865472 -0.7071067811865477 0
outer loop
vertex 10.41713 7.96764 -19
vertex 11.83135 9.38186 0
vertex 10.41713 7.96764 0
endloop
endfacet
facet normal 0.7071067811865472 -0.7071067811865477 0
outer loop
vertex 11.83135 9.38186 0
vertex 10.41713 7.96764 -19
vertex 11.83135 9.38186 -19
endloop
endfacet
facet normal 0.7071067811865477 -0.7071067811865477 0
outer loop
vertex -9.38186 -11.83135 -19
vertex -7.96764 -10.41713 0
vertex -9.38186 -11.83135 0
endloop
endfacet
facet normal 0.7071067811865483 -0.7071067811865468 0
outer loop
vertex -7.96764 -10.41713 0
vertex -9.38186 -11.83135 -19
vertex -7.96764 -10.41713 -19
endloop
endfacet
facet normal -0.2588201426067026 -0.9659255322130408 0
outer loop
vertex -11.31371 -11.31371 -19
vertex -9.38186 -11.83135 0
vertex -11.31371 -11.31371 0
endloop
endfacet
facet normal -0.2588201426067026 -0.9659255322130408 0
outer loop
vertex -9.38186 -11.83135 0
vertex -11.31371 -11.31371 -19
vertex -9.38186 -11.83135 -19
endloop
endfacet
facet normal -0.9659255322130407 -0.2588201426067032 0
outer loop
vertex -11.83135 -9.38186 -19
vertex -11.31371 -11.31371 0
vertex -11.83135 -9.38186 0
endloop
endfacet
facet normal -0.9659255322130407 -0.2588201426067032 0
outer loop
vertex -11.31371 -11.31371 0
vertex -11.83135 -9.38186 -19
vertex -11.31371 -11.31371 -19
endloop
endfacet
facet normal -0.7071067811865472 0.7071067811865477 0
outer loop
vertex -10.41713 -7.96764 0
vertex -11.83135 -9.38186 -19
vertex -11.83135 -9.38186 0
endloop
endfacet
facet normal -0.7071067811865472 0.7071067811865477 0
outer loop
vertex -11.83135 -9.38186 -19
vertex -10.41713 -7.96764 0
vertex -10.41713 -7.96764 -19
endloop
endfacet
facet normal -0.7071067811865477 0.7071067811865477 0
outer loop
vertex 9.38186 11.83135 -19
vertex 7.96764 10.41713 0
vertex 9.38186 11.83135 0
endloop
endfacet
facet normal -0.7071067811865483 0.7071067811865468 0
outer loop
vertex 7.96764 10.41713 0
vertex 9.38186 11.83135 -19
vertex 7.96764 10.41713 -19
endloop
endfacet
facet normal -2.051150646398647e-15 0 -0.9999999999999999
outer loop
vertex 11.31371 -11.31371 -19
vertex 10.41713 -7.96764 -19
vertex 11.83135 -9.38186 -19
endloop
endfacet
facet normal 2.0511578983039325e-15 0 -0.9999999999999999
outer loop
vertex 9.38186 -11.83135 -19
vertex 10.41713 -7.96764 -19
vertex 11.31371 -11.31371 -19
endloop
endfacet
facet normal -1.0255789491519658e-15 0 -1
outer loop
vertex 9.38186 -11.83135 -19
vertex 8.48528 -8.48528 -19
vertex 10.41713 -7.96764 -19
endloop
endfacet
facet normal 0 0 -1
outer loop
vertex 8.48528 -8.48528 -19
vertex 9.38186 -11.83135 -19
vertex 7.96764 -10.41713 -19
endloop
endfacet
facet normal 0 0 -1
outer loop
vertex -9.38186 -11.83135 -19
vertex -8.48528 -8.48528 -19
vertex -7.96764 -10.41713 -19
endloop
endfacet
facet normal 1.0255789491519658e-15 0 -1
outer loop
vertex -9.38186 -11.83135 -19
vertex -10.41713 -7.96764 -19
vertex -8.48528 -8.48528 -19
endloop
endfacet
facet normal 0 0 -0.9999999999999999
outer loop
vertex -11.31371 -11.31371 -19
vertex -10.41713 -7.96764 -19
vertex -9.38186 -11.83135 -19
endloop
endfacet
facet normal 0 0 -1
outer loop
vertex -10.41713 -7.96764 -19
vertex -11.31371 -11.31371 -19
vertex -11.83135 -9.38186 -19
endloop
endfacet
facet normal 0 0 -1
outer loop
vertex 10.41713 7.96764 -19
vertex 11.31371 11.31371 -19
vertex 11.83135 9.38186 -19
endloop
endfacet
facet normal 2.0511578983039325e-15 0 -0.9999999999999999
outer loop
vertex 10.41713 7.96764 -19
vertex 9.38186 11.83135 -19
vertex 11.31371 11.31371 -19
endloop
endfacet
facet normal 0 0 -0.9999999999999999
outer loop
vertex 8.48528 8.48528 -19
vertex 9.38186 11.83135 -19
vertex 10.41713 7.96764 -19
endloop
endfacet
facet normal 0 0 -1
outer loop
vertex 9.38186 11.83135 -19
vertex 8.48528 8.48528 -19
vertex 7.96764 10.41713 -19
endloop
endfacet
facet normal 0.4792476932023262 -0.8776796958801366 0
outer loop
vertex 10.70724 -13.61265 1
vertex 12.5865 -12.5865 3.2
vertex 10.70724 -13.61265 3.2
endloop
endfacet
facet normal 0.4792476932023262 -0.8776796958801366 0
outer loop
vertex 12.5865 -12.5865 3.2
vertex 10.70724 -13.61265 1
vertex 12.5865 -12.5865 1
endloop
endfacet
facet normal -0.07133965070130721 -0.9974520811737352 0
outer loop
vertex 8.57153 -13.4599 1
vertex 10.70724 -13.61265 3.2
vertex 8.57153 -13.4599 3.2
endloop
endfacet
facet normal -0.07133965070130739 -0.997452081173735 0
outer loop
vertex 10.70724 -13.61265 3.2
vertex 8.57153 -13.4599 1
vertex 10.70724 -13.61265 1
endloop
endfacet
facet normal -0.5992771572478205 -0.8005416221540084 0
outer loop
vertex 6.85744 -12.17675 1
vertex 8.57153 -13.4599 3.2
vertex 6.85744 -12.17675 3.2
endloop
endfacet
facet normal -0.5992771572478202 -0.8005416221540087 0
outer loop
vertex 8.57153 -13.4599 3.2
vertex 6.85744 -12.17675 1
vertex 8.57153 -13.4599 1
endloop
endfacet
facet normal -0.8005416221540085 0.5992771572478204 0
outer loop
vertex -12.17675 -6.85744 1
vertex -13.4599 -8.57153 3.2
vertex -12.17675 -6.85744 3.2
endloop
endfacet
facet normal -0.8005416221540093 0.5992771572478194 0
outer loop
vertex -13.4599 -8.57153 3.2
vertex -12.17675 -6.85744 1
vertex -13.4599 -8.57153 1
endloop
endfacet
facet normal 0.2588201426067022 0.965925532213041 0
outer loop
vertex -8.48528 -8.48528 -19
vertex -10.41713 -7.96764 0
vertex -8.48528 -8.48528 0
endloop
endfacet
facet normal 0.25882014260670183 0.965925532213041 0
outer loop
vertex -10.41713 -7.96764 0
vertex -8.48528 -8.48528 -19
vertex -10.41713 -7.96764 -19
endloop
endfacet
facet normal -0.349463062893594 0.9369501415086227 0
outer loop
vertex -10.17058 -6.10918 1
vertex -12.17675 -6.85744 3.2
vertex -10.17058 -6.10918 3.2
endloop
endfacet
facet normal -0.349463062893594 0.9369501415086227 0
outer loop
vertex -12.17675 -6.85744 3.2
vertex -10.17058 -6.10918 1
vertex -12.17675 -6.85744 1
endloop
endfacet
facet normal 0.21256226721775 0.9771475234350491 0
outer loop
vertex -8.07835 -6.56431 1
vertex -10.17058 -6.10918 3.2
vertex -8.07835 -6.56431 3.2
endloop
endfacet
facet normal 0.21256226721775062 0.9771475234350488 0
outer loop
vertex -10.17058 -6.10918 3.2
vertex -8.07835 -6.56431 1
vertex -10.17058 -6.10918 1
endloop
endfacet
facet normal -0.349463062893594 -0.9369501415086227 0
outer loop
vertex -12.17675 6.85744 1
vertex -10.17058 6.10918 3.2
vertex -12.17675 6.85744 3.2
endloop
endfacet
facet normal -0.349463062893594 -0.9369501415086227 0
outer loop
vertex -10.17058 6.10918 3.2
vertex -12.17675 6.85744 1
vertex -10.17058 6.10918 1
endloop
endfacet
facet normal -0.8005416221540093 -0.5992771572478194 0
outer loop
vertex -13.4599 8.57153 1
vertex -12.17675 6.85744 3.2
vertex -13.4599 8.57153 3.2
endloop
endfacet
facet normal -0.8005416221540085 -0.5992771572478204 0
outer loop
vertex -12.17675 6.85744 3.2
vertex -13.4599 8.57153 1
vertex -12.17675 6.85744 1
endloop
endfacet
facet normal -0.9974520811737352 -0.07133965070130682 0
outer loop
vertex -13.61265 10.70724 1
vertex -13.4599 8.57153 3.2
vertex -13.61265 10.70724 3.2
endloop
endfacet
facet normal -0.997452081173735 -0.07133965070130834 0
outer loop
vertex -13.4599 8.57153 3.2
vertex -13.61265 10.70724 1
vertex -13.4599 8.57153 1
endloop
endfacet
facet normal -0.8776796958801366 0.47924769320232635 0
outer loop
vertex -12.5865 12.5865 1
vertex -13.61265 10.70724 3.2
vertex -12.5865 12.5865 3.2
endloop
endfacet
facet normal -0.8776796958801366 0.47924769320232635 0
outer loop
vertex -13.61265 10.70724 3.2
vertex -12.5865 12.5865 1
vertex -13.61265 10.70724 1
endloop
endfacet
facet normal -0.4792476932023262 0.8776796958801366 0
outer loop
vertex -10.70724 13.61265 1
vertex -12.5865 12.5865 3.2
vertex -10.70724 13.61265 3.2
endloop
endfacet
facet normal -0.4792476932023262 0.8776796958801366 0
outer loop
vertex -12.5865 12.5865 3.2
vertex -10.70724 13.61265 1
vertex -12.5865 12.5865 1
endloop
endfacet
facet normal 0.349463062893594 -0.9369501415086227 0
outer loop
vertex 10.17058 6.10918 1
vertex 12.17675 6.85744 3.2
vertex 10.17058 6.10918 3.2
endloop
endfacet
facet normal 0.349463062893594 -0.9369501415086227 0
outer loop
vertex 12.17675 6.85744 3.2
vertex 10.17058 6.10918 1
vertex 12.17675 6.85744 1
endloop
endfacet
facet normal 0.4792476932023262 0.8776796958801366 0
outer loop
vertex 12.5865 12.5865 1
vertex 10.70724 13.61265 3.2
vertex 12.5865 12.5865 3.2
endloop
endfacet
facet normal 0.4792476932023262 0.8776796958801366 0
outer loop
vertex 10.70724 13.61265 3.2
vertex 12.5865 12.5865 1
vertex 10.70724 13.61265 1
endloop
endfacet
facet normal 0.8776796958801366 0.47924769320232635 0
outer loop
vertex 13.61265 10.70724 1
vertex 12.5865 12.5865 3.2
vertex 13.61265 10.70724 3.2
endloop
endfacet
facet normal 0.8776796958801366 0.47924769320232635 0
outer loop
vertex 12.5865 12.5865 3.2
vertex 13.61265 10.70724 1
vertex 12.5865 12.5865 1
endloop
endfacet
facet normal 0.9974520811737351 -0.07133965070130832 0
outer loop
vertex 13.4599 8.57153 1
vertex 13.61265 10.70724 3.2
vertex 13.4599 8.57153 3.2
endloop
endfacet
facet normal 0.9974520811737352 -0.07133965070130685 0
outer loop
vertex 13.61265 10.70724 3.2
vertex 13.4599 8.57153 1
vertex 13.61265 10.70724 1
endloop
endfacet
facet normal 0.8005416221540085 -0.5992771572478204 0
outer loop
vertex 12.17675 6.85744 1
vertex 13.4599 8.57153 3.2
vertex 12.17675 6.85744 3.2
endloop
endfacet
facet normal 0.8005416221540093 -0.5992771572478194 0
outer loop
vertex 13.4599 8.57153 3.2
vertex 12.17675 6.85744 1
vertex 13.4599 8.57153 1
endloop
endfacet
facet normal 0.07133965070130721 0.9974520811737352 0
outer loop
vertex -8.57153 13.4599 1
vertex -10.70724 13.61265 3.2
vertex -8.57153 13.4599 3.2
endloop
endfacet
facet normal 0.07133965070130739 0.997452081173735 0
outer loop
vertex -10.70724 13.61265 3.2
vertex -8.57153 13.4599 1
vertex -10.70724 13.61265 1
endloop
endfacet
facet normal -0.07133965070130742 0.997452081173735 0
outer loop
vertex 10.70724 13.61265 1
vertex 8.57153 13.4599 3.2
vertex 10.70724 13.61265 3.2
endloop
endfacet
facet normal -0.07133965070130718 0.9974520811737352 0
outer loop
vertex 8.57153 13.4599 3.2
vertex 10.70724 13.61265 1
vertex 8.57153 13.4599 1
endloop
endfacet
facet normal -0.25882014260670183 -0.965925532213041 0
outer loop
vertex 8.48528 8.48528 0
vertex 10.41713 7.96764 -19
vertex 10.41713 7.96764 0
endloop
endfacet
facet normal -0.2588201426067022 -0.965925532213041 0
outer loop
vertex 10.41713 7.96764 -19
vertex 8.48528 8.48528 0
vertex 8.48528 8.48528 -19
endloop
endfacet
facet normal 0.2588201426067026 0.9659255322130408 0
outer loop
vertex 11.31371 11.31371 -19
vertex 9.38186 11.83135 0
vertex 11.31371 11.31371 0
endloop
endfacet
facet normal 0.2588201426067026 0.9659255322130408 0
outer loop
vertex 9.38186 11.83135 0
vertex 11.31371 11.31371 -19
vertex 9.38186 11.83135 -19
endloop
endfacet
facet normal 0.9659255322130407 0.2588201426067032 0
outer loop
vertex 11.83135 9.38186 -19
vertex 11.31371 11.31371 0
vertex 11.83135 9.38186 0
endloop
endfacet
facet normal 0.9659255322130407 0.2588201426067032 0
outer loop
vertex 11.31371 11.31371 0
vertex 11.83135 9.38186 -19
vertex 11.31371 11.31371 -19
endloop
endfacet
facet normal 0.21256226721775062 -0.9771475234350488 0
outer loop
vertex -10.17058 6.10918 1
vertex -8.07835 6.56431 3.2
vertex -10.17058 6.10918 3.2
endloop
endfacet
facet normal 0.21256226721775 -0.9771475234350491 0
outer loop
vertex -8.07835 6.56431 3.2
vertex -10.17058 6.10918 1
vertex -8.07835 6.56431 1
endloop
endfacet
facet normal 0.5992771572478205 0.8005416221540084 0
outer loop
vertex -6.85744 12.17675 1
vertex -8.57153 13.4599 3.2
vertex -6.85744 12.17675 3.2
endloop
endfacet
facet normal 0.5992771572478202 0.8005416221540087 0
outer loop
vertex -8.57153 13.4599 3.2
vertex -6.85744 12.17675 1
vertex -8.57153 13.4599 1
endloop
endfacet
facet normal -0.21256226721775 -0.9771475234350491 0
outer loop
vertex 8.07835 6.56431 1
vertex 10.17058 6.10918 3.2
vertex 8.07835 6.56431 3.2
endloop
endfacet
facet normal -0.21256226721775062 -0.9771475234350488 0
outer loop
vertex 10.17058 6.10918 3.2
vertex 8.07835 6.56431 1
vertex 10.17058 6.10918 1
endloop
endfacet
facet normal -0.5992771572478202 0.8005416221540087 0
outer loop
vertex 8.57153 13.4599 1
vertex 6.85744 12.17675 3.2
vertex 8.57153 13.4599 3.2
endloop
endfacet
facet normal -0.5992771572478205 0.8005416221540084 0
outer loop
vertex 6.85744 12.17675 3.2
vertex 8.57153 13.4599 1
vertex 6.85744 12.17675 1
endloop
endfacet
facet normal 0.9369501415086227 0.3494630628935941 0
outer loop
vertex -6.10918 10.17058 1
vertex -6.85744 12.17675 3.2
vertex -6.10918 10.17058 3.2
endloop
endfacet
facet normal 0.9369501415086227 0.3494630628935941 0
outer loop
vertex -6.85744 12.17675 3.2
vertex -6.10918 10.17058 1
vertex -6.85744 12.17675 1
endloop
endfacet
facet normal -0.9369501415086227 0.3494630628935941 0
outer loop
vertex 6.85744 12.17675 1
vertex 6.10918 10.17058 3.2
vertex 6.85744 12.17675 3.2
endloop
endfacet
facet normal -0.9369501415086227 0.3494630628935941 0
outer loop
vertex 6.10918 10.17058 3.2
vertex 6.85744 12.17675 1
vertex 6.10918 10.17058 1
endloop
endfacet
facet normal -0.965925532213041 -0.25882014260670183 0
outer loop
vertex 7.96764 10.41713 0
vertex 8.48528 8.48528 -19
vertex 8.48528 8.48528 0
endloop
endfacet
facet normal -0.965925532213041 -0.25882014260670183 0
outer loop
vertex 8.48528 8.48528 -19
vertex 7.96764 10.41713 0
vertex 7.96764 10.41713 -19
endloop
endfacet
facet normal 0.9771475234350491 -0.21256226721774976 0
outer loop
vertex -6.56431 8.07835 1
vertex -6.10918 10.17058 3.2
vertex -6.56431 8.07835 3.2
endloop
endfacet
facet normal 0.977147523435049 -0.21256226721775057 0
outer loop
vertex -6.10918 10.17058 3.2
vertex -6.56431 8.07835 1
vertex -6.10918 10.17058 1
endloop
endfacet
facet normal -0.977147523435049 -0.21256226721775048 0
outer loop
vertex 6.10918 10.17058 1
vertex 6.56431 8.07835 3.2
vertex 6.10918 10.17058 3.2
endloop
endfacet
facet normal -0.9771475234350491 -0.21256226721774985 0
outer loop
vertex 6.56431 8.07835 3.2
vertex 6.10918 10.17058 1
vertex 6.56431 8.07835 1
endloop
endfacet
facet normal 0.7071067811865476 -0.7071067811865476 0
outer loop
vertex -8.07835 6.56431 1
vertex -6.56431 8.07835 3.2
vertex -8.07835 6.56431 3.2
endloop
endfacet
facet normal 0.7071067811865476 -0.7071067811865476 0
outer loop
vertex -6.56431 8.07835 3.2
vertex -8.07835 6.56431 1
vertex -6.56431 8.07835 1
endloop
endfacet
facet normal -0.7071067811865476 -0.7071067811865476 0
outer loop
vertex 6.56431 8.07835 1
vertex 8.07835 6.56431 3.2
vertex 6.56431 8.07835 3.2
endloop
endfacet
facet normal -0.7071067811865476 -0.7071067811865476 0
outer loop
vertex 8.07835 6.56431 3.2
vertex 6.56431 8.07835 1
vertex 8.07835 6.56431 1
endloop
endfacet
facet normal -0.9369501415086227 -0.3494630628935941 0
outer loop
vertex 6.10918 -10.17058 1
vertex 6.85744 -12.17675 3.2
vertex 6.10918 -10.17058 3.2
endloop
endfacet
facet normal -0.9369501415086227 -0.3494630628935941 0
outer loop
vertex 6.85744 -12.17675 3.2
vertex 6.10918 -10.17058 1
vertex 6.85744 -12.17675 1
endloop
endfacet
facet normal -0.21256226721775062 0.9771475234350488 0
outer loop
vertex 10.17058 -6.10918 1
vertex 8.07835 -6.56431 3.2
vertex 10.17058 -6.10918 3.2
endloop
endfacet
facet normal -0.21256226721775 0.9771475234350491 0
outer loop
vertex 8.07835 -6.56431 3.2
vertex 10.17058 -6.10918 1
vertex 8.07835 -6.56431 1
endloop
endfacet
facet normal 0.349463062893594 0.9369501415086227 0
outer loop
vertex 12.17675 -6.85744 1
vertex 10.17058 -6.10918 3.2
vertex 12.17675 -6.85744 3.2
endloop
endfacet
facet normal 0.349463062893594 0.9369501415086227 0
outer loop
vertex 10.17058 -6.10918 3.2
vertex 12.17675 -6.85744 1
vertex 10.17058 -6.10918 1
endloop
endfacet
facet normal 0.8005416221540093 0.5992771572478194 0
outer loop
vertex 13.4599 -8.57153 1
vertex 12.17675 -6.85744 3.2
vertex 13.4599 -8.57153 3.2
endloop
endfacet
facet normal 0.8005416221540085 0.5992771572478204 0
outer loop
vertex 12.17675 -6.85744 3.2
vertex 13.4599 -8.57153 1
vertex 12.17675 -6.85744 1
endloop
endfacet
facet normal 0.9974520811737352 0.07133965070130682 0
outer loop
vertex 13.61265 -10.70724 1
vertex 13.4599 -8.57153 3.2
vertex 13.61265 -10.70724 3.2
endloop
endfacet
facet normal 0.997452081173735 0.07133965070130834 0
outer loop
vertex 13.4599 -8.57153 3.2
vertex 13.61265 -10.70724 1
vertex 13.4599 -8.57153 1
endloop
endfacet
facet normal 0.8776796958801366 -0.47924769320232635 0
outer loop
vertex 12.5865 -12.5865 1
vertex 13.61265 -10.70724 3.2
vertex 12.5865 -12.5865 3.2
endloop
endfacet
facet normal 0.8776796958801366 -0.47924769320232635 0
outer loop
vertex 13.61265 -10.70724 3.2
vertex 12.5865 -12.5865 1
vertex 13.61265 -10.70724 1
endloop
endfacet
facet normal -0.965925532213041 0.25882014260670183 0
outer loop
vertex 8.48528 -8.48528 -19
vertex 7.96764 -10.41713 0
vertex 8.48528 -8.48528 0
endloop
endfacet
facet normal -0.965925532213041 0.25882014260670183 0
outer loop
vertex 7.96764 -10.41713 0
vertex 8.48528 -8.48528 -19
vertex 7.96764 -10.41713 -19
endloop
endfacet
facet normal -0.2588201426067022 0.965925532213041 0
outer loop
vertex 10.41713 -7.96764 0
vertex 8.48528 -8.48528 -19
vertex 8.48528 -8.48528 0
endloop
endfacet
facet normal -0.25882014260670183 0.965925532213041 0
outer loop
vertex 8.48528 -8.48528 -19
vertex 10.41713 -7.96764 0
vertex 10.41713 -7.96764 -19
endloop
endfacet
facet normal 0.7071067811865472 0.7071067811865477 0
outer loop
vertex 11.83135 -9.38186 -19
vertex 10.41713 -7.96764 0
vertex 11.83135 -9.38186 0
endloop
endfacet
facet normal 0.7071067811865472 0.7071067811865477 0
outer loop
vertex 10.41713 -7.96764 0
vertex 11.83135 -9.38186 -19
vertex 10.41713 -7.96764 -19
endloop
endfacet
facet normal 0.9659255322130407 -0.2588201426067032 0
outer loop
vertex 11.31371 -11.31371 -19
vertex 11.83135 -9.38186 0
vertex 11.31371 -11.31371 0
endloop
endfacet
facet normal 0.9659255322130407 -0.2588201426067032 0
outer loop
vertex 11.83135 -9.38186 0
vertex 11.31371 -11.31371 -19
vertex 11.83135 -9.38186 -19
endloop
endfacet
facet normal 0.2588201426067026 -0.9659255322130408 0
outer loop
vertex 9.38186 -11.83135 -19
vertex 11.31371 -11.31371 0
vertex 9.38186 -11.83135 0
endloop
endfacet
facet normal 0.2588201426067026 -0.9659255322130408 0
outer loop
vertex 11.31371 -11.31371 0
vertex 9.38186 -11.83135 -19
vertex 11.31371 -11.31371 -19
endloop
endfacet
facet normal -0.7071067811865483 -0.7071067811865468 0
outer loop
vertex 7.96764 -10.41713 -19
vertex 9.38186 -11.83135 0
vertex 7.96764 -10.41713 0
endloop
endfacet
facet normal -0.7071067811865477 -0.7071067811865477 0
outer loop
vertex 9.38186 -11.83135 0
vertex 7.96764 -10.41713 -19
vertex 9.38186 -11.83135 -19
endloop
endfacet
facet normal -0.9771475234350491 0.21256226721774976 0
outer loop
vertex 6.56431 -8.07835 1
vertex 6.10918 -10.17058 3.2
vertex 6.56431 -8.07835 3.2
endloop
endfacet
facet normal -0.977147523435049 0.21256226721775057 0
outer loop
vertex 6.10918 -10.17058 3.2
vertex 6.56431 -8.07835 1
vertex 6.10918 -10.17058 1
endloop
endfacet
facet normal 0.7071067811865476 0.7071067811865476 0
outer loop
vertex -6.56431 -8.07835 1
vertex -8.07835 -6.56431 3.2
vertex -6.56431 -8.07835 3.2
endloop
endfacet
facet normal 0.7071067811865476 0.7071067811865476 0
outer loop
vertex -8.07835 -6.56431 3.2
vertex -6.56431 -8.07835 1
vertex -8.07835 -6.56431 1
endloop
endfacet
facet normal -0.7071067811865476 0.7071067811865476 0
outer loop
vertex 8.07835 -6.56431 1
vertex 6.56431 -8.07835 3.2
vertex 8.07835 -6.56431 3.2
endloop
endfacet
facet normal -0.7071067811865476 0.7071067811865476 0
outer loop
vertex 6.56431 -8.07835 3.2
vertex 8.07835 -6.56431 1
vertex 6.56431 -8.07835 1
endloop
endfacet
facet normal -1 0 0
outer loop
vertex -20 20 0
vertex -20 -20 1
vertex -20 20 1
endloop
endfacet
facet normal -1 0 0
outer loop
vertex -20 -20 1
vertex -20 20 0
vertex -20 -20 0
endloop
endfacet
facet normal 0 1 0
outer loop
vertex -20 20 0
vertex 20 20 1
vertex 20 20 0
endloop
endfacet
facet normal 0 1 0
outer loop
vertex 20 20 1
vertex -20 20 0
vertex -20 20 1
endloop
endfacet
facet normal 1 0 0
outer loop
vertex 20 -20 0
vertex 20 20 1
vertex 20 -20 1
endloop
endfacet
facet normal 1 0 0
outer loop
vertex 20 20 1
vertex 20 -20 0
vertex 20 20 0
endloop
endfacet
facet normal 0 -1 0
outer loop
vertex -20 -20 1
vertex 20 -20 0
vertex 20 -20 1
endloop
endfacet
facet normal 0 -1 0
outer loop
vertex 20 -20 0
vertex -20 -20 1
vertex -20 -20 0
endloop
endfacet
facet normal 0 0 1
outer loop
vertex -20 20 1
vertex 20 -20 1
vertex 20 20 1
endloop
endfacet
facet normal 0 0 1
outer loop
vertex 20 -20 1
vertex -20 20 1
vertex -20 -20 1
endloop
endfacet
facet normal 0 0 -1
outer loop
vertex 20 -20 0
vertex -20 20 0
vertex 20 20 0
endloop
endfacet
facet normal 0 0 -1
outer loop
vertex -20 20 0
vertex 20 -20 0
vertex -20 -20 0
endloop
endfacet
facet normal -1 0 0
outer loop
vertex -3.2 3 -1
vertex -3.2 -3 0
vertex -3.2 3 0
endloop
endfacet
facet normal -1 0 0
outer loop
vertex -3.2 -3 0
vertex -3.2 3 -1
vertex -3.2 -3 -1
endloop
endfacet
facet normal 0 1 0
outer loop
vertex -3.2 3 -1
vertex 3.2 3 0
vertex 3.2 3 -1
endloop
endfacet
facet normal 0 1 0
outer loop
vertex 3.2 3 0
vertex -3.2 3 -1
vertex -3.2 3 0
endloop
endfacet
facet normal 1 0 0
outer loop
vertex 3.2 -3 -1
vertex 3.2 3 0
vertex 3.2 -3 0
endloop
endfacet
facet normal 1 0 0
outer loop
vertex 3.2 3 0
vertex 3.2 -3 -1
vertex 3.2 3 -1
endloop
endfacet
facet normal 0 -1 0
outer loop
vertex -3.2 -3 0
vertex 3.2 -3 -1
vertex 3.2 -3 0
endloop
endfacet
facet normal 0 -1 0
outer loop
vertex 3.2 -3 -1
vertex -3.2 -3 0
vertex -3.2 -3 -1
endloop
endfacet
facet normal 0 0 1
outer loop
vertex -3.2 3 0
vertex 3.2 -3 0
vertex 3.2 3 0
endloop
endfacet
facet normal 0 0 1
outer loop
vertex 3.2 -3 0
vertex -3.2 3 0
vertex -3.2 -3 0
endloop
endfacet
facet normal 0 0 -1
outer loop
vertex 3.2 -3 -1
vertex -3.2 3 -1
vertex 3.2 3 -1
endloop
endfacet
facet normal 0 0 -1
outer loop
vertex -3.2 3 -1
vertex 3.2 -3 -1
vertex -3.2 -3 -1
endloop
endfacet
facet normal -1 0 0
outer loop
vertex -3.2 3 -1
vertex -3.2 -3 0
vertex -3.2 3 0
endloop
endfacet
facet normal -1 0 0
outer loop
vertex -3.2 -3 0
vertex -3.2 3 -1
vertex -3.2 -3 -1
endloop
endfacet
facet normal 0 1 0
outer loop
vertex -3.2 3 -1
vertex 3.2 3 0
vertex 3.2 3 -1
endloop
endfacet
facet normal 0 1 0
outer loop
vertex 3.2 3 0
vertex -3.2 3 -1
vertex -3.2 3 0
endloop
endfacet
facet normal 1 0 0
outer loop
vertex 3.2 -3 -1
vertex 3.2 3 0
vertex 3.2 -3 0
endloop
endfacet
facet normal 1 0 0
outer loop
vertex 3.2 3 0
vertex 3.2 -3 -1
vertex 3.2 3 -1
endloop
endfacet
facet normal 0 -1 0
outer loop
vertex -3.2 -3 0
vertex 3.2 -3 -1
vertex 3.2 -3 0
endloop
endfacet
facet normal 0 -1 0
outer loop
vertex 3.2 -3 -1
vertex -3.2 -3 0
vertex -3.2 -3 -1
endloop
endfacet
facet normal 0 0 1
outer loop
vertex -3.2 3 0
vertex 3.2 -3 0
vertex 3.2 3 0
endloop
endfacet
facet normal 0 0 1
outer loop
vertex 3.2 -3 0
vertex -3.2 3 0
vertex -3.2 -3 0
endloop
endfacet
facet normal 0 0 -1
outer loop
vertex 3.2 -3 -1
vertex -3.2 3 -1
vertex 3.2 3 -1
endloop
endfacet
facet normal 0 0 -1
outer loop
vertex -3.2 3 -1
vertex 3.2 -3 -1
vertex -3.2 -3 -1
endloop
endfacet
facet normal -0.18375252174034615 -0.9829725381484794 0
outer loop
vertex -3.01029 -10.58008 -12
vertex -1.01495 -10.95308 -5
vertex -3.01029 -10.58008 -5
endloop
endfacet
facet normal -0.18375252174034606 -0.9829725381484793 0
outer loop
vertex -1.01495 -10.95308 -5
vertex -3.01029 -10.58008 -12
vertex -1.01495 -10.95308 -12
endloop
endfacet
facet normal -0.361238989617977 -0.9324732663083606 0
outer loop
vertex -4.90312 -9.8468 -12
vertex -3.01029 -10.58008 -5
vertex -4.90312 -9.8468 -5
endloop
endfacet
facet normal -0.36123898961797674 -0.9324732663083609 0
outer loop
vertex -3.01029 -10.58008 -5
vertex -4.90312 -9.8468 -12
vertex -3.01029 -10.58008 -12
endloop
endfacet
facet normal -0.5264331349287968 -0.8502165338600747 0
outer loop
vertex -6.62898 -8.77819 -12
vertex -4.90312 -9.8468 -5
vertex -6.62898 -8.77819 -5
endloop
endfacet
facet normal -0.5264331349287973 -0.8502165338600743 0
outer loop
vertex -4.90312 -9.8468 -5
vertex -6.62898 -8.77819 -12
vertex -4.90312 -9.8468 -12
endloop
endfacet
facet normal -0.6736956238813088 -0.7390089352390635 0
outer loop
vertex -8.1291 -7.41065 -12
vertex -6.62898 -8.77819 -5
vertex -8.1291 -7.41065 -5
endloop
endfacet
facet normal -0.6736956238813093 -0.7390089352390627 0
outer loop
vertex -6.62898 -8.77819 -5
vertex -8.1291 -7.41065 -12
vertex -6.62898 -8.77819 -12
endloop
endfacet
facet normal -0.7980176291080616 -0.6026341042728565 0
outer loop
vertex -9.35239 -5.79075 -12
vertex -8.1291 -7.41065 -5
vertex -9.35239 -5.79075 -5
endloop
endfacet
facet normal -0.7980176291080611 -0.6026341042728571 0
outer loop
vertex -8.1291 -7.41065 -5
vertex -9.35239 -5.79075 -12
vertex -8.1291 -7.41065 -12
endloop
endfacet
facet normal -0.8952414128740875 -0.4455814321481624 0
outer loop
vertex -10.25719 -3.97366 -12
vertex -10.24408 -4 -5
vertex -10.25719 -3.97366 -5
endloop
endfacet
facet normal -0.8951628023477797 -0.44573933783358205 -7.41402822535208e-7
outer loop
vertex -10.25719 -3.97366 -12
vertex -9.35239 -5.79075 -5
vertex -10.24408 -4 -5
endloop
endfacet
facet normal -0.8952414117366337 -0.44558143158202973 0.00005040940374075662
outer loop
vertex -10.24408 -4 -12
vertex -9.35239 -5.79075 -5
vertex -10.25719 -3.97366 -12
endloop
endfacet
facet normal -0.8951628023480249 -0.44573933783370623 0
outer loop
vertex -9.35239 -5.79075 -5
vertex -10.24408 -4 -12
vertex -9.35239 -5.79075 -12
endloop
endfacet
facet normal 0 1 0
outer loop
vertex 0 -4 -12
vertex 10.24408 -4 -5
vertex 10.24408 -4 -12
endloop
endfacet
facet normal 0 1 0
outer loop
vertex 0 -4 -12
vertex 0 -4 -5
vertex 10.24408 -4 -5
endloop
endfacet
facet normal 0 1 0
outer loop
vertex -10.24408 -4 -12
vertex 0 -4 -5
vertex 0 -4 -12
endloop
endfacet
facet normal 0 1 0
outer loop
vertex 0 -4 -5
vertex -10.24408 -4 -12
vertex -10.24408 -4 -5
endloop
endfacet
facet normal 0.8951628023480249 -0.44573933783370623 0
outer loop
vertex 9.35239 -5.79075 -5
vertex 9.35239 -5.79075 -12
vertex 10.24408 -4 -5
endloop
endfacet
facet normal 0.8952414117366363 -0.4455814315820246 -0.000050409403744596835
outer loop
vertex 9.35239 -5.79075 -12
vertex 10.25719 -3.97366 -5
vertex 10.24408 -4 -5
endloop
endfacet
facet normal 0.8951628023477796 -0.44573933783358216 7.414028225352081e-7
outer loop
vertex 10.24408 -4 -12
vertex 10.25719 -3.97366 -5
vertex 9.35239 -5.79075 -12
endloop
endfacet
facet normal 0.8952414128740875 -0.4455814321481624 0
outer loop
vertex 10.25719 -3.97366 -5
vertex 10.24408 -4 -12
vertex 10.25719 -3.97366 -12
endloop
endfacet
facet normal 0.7980176291080611 -0.6026341042728571 0
outer loop
vertex 8.1291 -7.41065 -12
vertex 9.35239 -5.79075 -5
vertex 8.1291 -7.41065 -5
endloop
endfacet
facet normal 0.7980176291080616 -0.6026341042728565 0
outer loop
vertex 9.35239 -5.79075 -5
vertex 8.1291 -7.41065 -12
vertex 9.35239 -5.79075 -12
endloop
endfacet
facet normal 0.6736956238813092 -0.7390089352390629 0
outer loop
vertex 6.62898 -8.77819 -12
vertex 8.1291 -7.41065 -5
vertex 6.62898 -8.77819 -5
endloop
endfacet
facet normal 0.673695623881309 -0.7390089352390633 0
outer loop
vertex 8.1291 -7.41065 -5
vertex 6.62898 -8.77819 -12
vertex 8.1291 -7.41065 -12
endloop
endfacet
facet normal 0.5264331349287973 -0.8502165338600743 0
outer loop
vertex 4.90312 -9.8468 -12
vertex 6.62898 -8.77819 -5
vertex 4.90312 -9.8468 -5
endloop
endfacet
facet normal 0.5264331349287968 -0.8502165338600747 0
outer loop
vertex 6.62898 -8.77819 -5
vertex 4.90312 -9.8468 -12
vertex 6.62898 -8.77819 -12
endloop
endfacet
facet normal 0.36123898961797674 -0.9324732663083609 0
outer loop
vertex 3.01029 -10.58008 -12
vertex 4.90312 -9.8468 -5
vertex 3.01029 -10.58008 -5
endloop
endfacet
facet normal 0.361238989617977 -0.9324732663083606 0
outer loop
vertex 4.90312 -9.8468 -5
vertex 3.01029 -10.58008 -12
vertex 4.90312 -9.8468 -12
endloop
endfacet
facet normal 0.18375252174034606 -0.9829725381484793 0
outer loop
vertex 1.01495 -10.95308 -12
vertex 3.01029 -10.58008 -5
vertex 1.01495 -10.95308 -5
endloop
endfacet
facet normal 0.18375252174034615 -0.9829725381484794 0
outer loop
vertex 3.01029 -10.58008 -5
vertex 1.01495 -10.95308 -12
vertex 3.01029 -10.58008 -12
endloop
endfacet
facet normal 0 -1 0
outer loop
vertex 0 -10.95308 -5
vertex 1.01495 -10.95308 -12
vertex 1.01495 -10.95308 -5
endloop
endfacet
facet normal 0 -1 0
outer loop
vertex -1.01495 -10.95308 -5
vertex 1.01495 -10.95308 -12
vertex 0 -10.95308 -5
endloop
endfacet
facet normal 0 -1 0
outer loop
vertex 1.01495 -10.95308 -12
vertex -1.01495 -10.95308 -5
vertex -1.01495 -10.95308 -12
endloop
endfacet
facet normal -0.9618272337041374 -0.27365739987262644 0
outer loop
vertex -10.8127 -2.02124 -12
vertex -10.40218 -3.4641 -5
vertex -10.8127 -2.02124 -5
endloop
endfacet
facet normal -0.9618218274018376 -0.273676400728062 -0.000004233567070311964
outer loop
vertex -10.8127 -2.02124 -12
vertex -10.25719 -3.97366 -5
vertex -10.40218 -3.4641 -5
endloop
endfacet
facet normal -0.9618272337030609 -0.27365739987232557 0.0000014951336665334523
outer loop
vertex -10.40218 -3.4641 -12
vertex -10.25719 -3.97366 -5
vertex -10.8127 -2.02124 -12
endloop
endfacet
facet normal -0.9618218274104567 -0.2736764007305148 0
outer loop
vertex -10.25719 -3.97366 -5
vertex -10.40218 -3.4641 -12
vertex -10.25719 -3.97366 -12
endloop
endfacet
facet normal 0 1 0
outer loop
vertex -10.40218 -3.4641 -12
vertex -2 -3.4641 -5
vertex -2 -3.4641 -12
endloop
endfacet
facet normal 0 1 0
outer loop
vertex -2 -3.4641 -5
vertex -10.40218 -3.4641 -12
vertex -10.40218 -3.4641 -5
endloop
endfacet
facet normal 0 1 0
outer loop
vertex 2 -3.4641 -12
vertex 10.40218 -3.4641 -5
vertex 10.40218 -3.4641 -12
endloop
endfacet
facet normal 0 1 0
outer loop
vertex 10.40218 -3.4641 -5
vertex 2 -3.4641 -12
vertex 2 -3.4641 -5
endloop
endfacet
facet normal 0.2588197729003839 0.9659256312759246 0
outer loop
vertex 0 -4 -12
vertex -2 -3.4641 -5
vertex 0 -4 -5
endloop
endfacet
facet normal 0.2588197729003839 0.9659256312759246 0
outer loop
vertex -2 -3.4641 -5
vertex 0 -4 -12
vertex -2 -3.4641 -12
endloop
endfacet
facet normal 0 -1 0
outer loop
vertex 0 -4 -5
vertex 10.24408 -4 -12
vertex 10.24408 -4 -5
endloop
endfacet
facet normal 0 -1 0
outer loop
vertex 0 -4 -5
vertex 0 -4 -12
vertex 10.24408 -4 -12
endloop
endfacet
facet normal 0 -1 0
outer loop
vertex -10.24408 -4 -5
vertex 0 -4 -12
vertex 0 -4 -5
endloop
endfacet
facet normal 0 -1 0
outer loop
vertex 0 -4 -12
vertex -10.24408 -4 -5
vertex -10.24408 -4 -12
endloop
endfacet
facet normal -0.2588197729003839 0.9659256312759246 0
outer loop
vertex 2 -3.4641 -12
vertex 0 -4 -5
vertex 2 -3.4641 -5
endloop
endfacet
facet normal -0.2588197729003839 0.9659256312759246 0
outer loop
vertex 0 -4 -5
vertex 2 -3.4641 -12
vertex 0 -4 -12
endloop
endfacet
facet normal 0.9618218274104569 -0.27367640073051475 0
outer loop
vertex 10.25719 -3.97366 -12
vertex 10.40218 -3.4641 -5
vertex 10.25719 -3.97366 -5
endloop
endfacet
facet normal 0.961827233703061 -0.2736573998723255 -0.000001495133666491161
outer loop
vertex 10.25719 -3.97366 -12
vertex 10.8127 -2.02124 -5
vertex 10.40218 -3.4641 -5
endloop
endfacet
facet normal 0.9618218274018375 -0.27367640072806254 0.000004233567070371846
outer loop
vertex 10.40218 -3.4641 -12
vertex 10.8127 -2.02124 -5
vertex 10.25719 -3.97366 -12
endloop
endfacet
facet normal 0.9618272337041375 -0.2736573998726264 0
outer loop
vertex 10.8127 -2.02124 -5
vertex 10.40218 -3.4641 -12
vertex 10.8127 -2.02124 -12
endloop
endfacet
facet normal -2.473483401163764e-10 0 -0.9999999999999999
outer loop
vertex -11 0 -5
vertex -10.8127 -2.02124 -5
vertex -10.81467 -2 -5
endloop
endfacet
facet normal -0.9957339711858465 -0.09227057291717487 0
outer loop
vertex -11 0 -12
vertex -10.8127 -2.02124 -5
vertex -11 0 -5
endloop
endfacet
facet normal -0.9957340524485004 -0.092269695970139 2.553915596854112e-7
outer loop
vertex -10.81467 -2 -12
vertex -10.8127 -2.02124 -5
vertex -11 0 -12
endloop
endfacet
facet normal -0.9957263159313656 -0.0923531470051246 0
outer loop
vertex -10.8127 -2.02124 -5
vertex -10.81467 -2 -12
vertex -10.8127 -2.02124 -12
endloop
endfacet
facet normal 0 1 0
outer loop
vertex -10.81467 -2 -12
vertex -3.4641 -2 -5
vertex -3.4641 -2 -12
endloop
endfacet
facet normal 0 1 0
outer loop
vertex -3.4641 -2 -5
vertex -10.81467 -2 -12
vertex -10.81467 -2 -5
endloop
endfacet
facet normal 0 1 0
outer loop
vertex 3.4641 -2 -12
vertex 10.81467 -2 -5
vertex 10.81467 -2 -12
endloop
endfacet
facet normal 0 1 0
outer loop
vertex 10.81467 -2 -5
vertex 3.4641 -2 -12
vertex 3.4641 -2 -5
endloop
endfacet
facet normal 0.7071067811865477 0.7071067811865474 0
outer loop
vertex -2 -3.4641 -12
vertex -3.4641 -2 -5
vertex -2 -3.4641 -5
endloop
endfacet
facet normal 0.7071067811865476 0.7071067811865476 0
outer loop
vertex -3.4641 -2 -5
vertex -2 -3.4641 -12
vertex -3.4641 -2 -12
endloop
endfacet
facet normal 0 -1 0
outer loop
vertex -10.40218 -3.4641 -5
vertex -2 -3.4641 -12
vertex -2 -3.4641 -5
endloop
endfacet
facet normal 0 -1 0
outer loop
vertex -2 -3.4641 -12
vertex -10.40218 -3.4641 -5
vertex -10.40218 -3.4641 -12
endloop
endfacet
facet normal 0 -1 0
outer loop
vertex 2 -3.4641 -5
vertex 10.40218 -3.4641 -12
vertex 10.40218 -3.4641 -5
endloop
endfacet
facet normal 0 -1 0
outer loop
vertex 10.40218 -3.4641 -12
vertex 2 -3.4641 -5
vertex 2 -3.4641 -12
endloop
endfacet
facet normal -0.7071067811865477 0.7071067811865474 0
outer loop
vertex 3.4641 -2 -12
vertex 2 -3.4641 -5
vertex 3.4641 -2 -5
endloop
endfacet
facet normal -0.7071067811865476 0.7071067811865476 0
outer loop
vertex 2 -3.4641 -5
vertex 3.4641 -2 -12
vertex 2 -3.4641 -12
endloop
endfacet
facet normal 0.9957339711858465 -0.09227057291717487 0
outer loop
vertex 10.8127 -2.02124 -12
vertex 11 0 -5
vertex 10.8127 -2.02124 -5
endloop
endfacet
facet normal 0.9957339711858465 -0.09227057291717487 0
outer loop
vertex 11 0 -5
vertex 10.8127 -2.02124 -12
vertex 11 0 -12
endloop
endfacet
facet normal 0 0.9999999999999999 0
outer loop
vertex -4 0 -12
vertex -11 0 -5
vertex -4 0 -5
endloop
endfacet
facet normal 0 0.9999999999999999 0
outer loop
vertex -11 0 -5
vertex -4 0 -12
vertex -11 0 -12
endloop
endfacet
facet normal 0 0.9999999999999999 0
outer loop
vertex 11 0 -12
vertex 4 0 -5
vertex 11 0 -5
endloop
endfacet
facet normal 0 0.9999999999999999 0
outer loop
vertex 4 0 -5
vertex 11 0 -12
vertex 4 0 -12
endloop
endfacet
facet normal 0.9659256312759246 0.25881977290038405 0
outer loop
vertex -3.4641 -2 -12
vertex -4 0 -5
vertex -3.4641 -2 -5
endloop
endfacet
facet normal 0.9659256312759246 0.25881977290038405 0
outer loop
vertex -4 0 -5
vertex -3.4641 -2 -12
vertex -4 0 -12
endloop
endfacet
facet normal 0 -1 0
outer loop
vertex -10.81467 -2 -5
vertex -3.4641 -2 -12
vertex -3.4641 -2 -5
endloop
endfacet
facet normal 0 -1 0
outer loop
vertex -3.4641 -2 -12
vertex -10.81467 -2 -5
vertex -10.81467 -2 -12
endloop
endfacet
facet normal 0 -1 0
outer loop
vertex 3.4641 -2 -5
vertex 10.81467 -2 -12
vertex 10.81467 -2 -5
endloop
endfacet
facet normal 0 -1 0
outer loop
vertex 10.81467 -2 -12
vertex 3.4641 -2 -5
vertex 3.4641 -2 -12
endloop
endfacet
facet normal -0.9659256312759246 0.25881977290038405 0
outer loop
vertex 4 0 -12
vertex 3.4641 -2 -5
vertex 4 0 -5
endloop
endfacet
facet normal -0.9659256312759246 0.25881977290038405 0
outer loop
vertex 3.4641 -2 -5
vertex 4 0 -12
vertex 3.4641 -2 -12
endloop
endfacet
facet normal -0.9957263159313656 0.0923531470051246 0
outer loop
vertex -10.8127 2.02124 -5
vertex -10.8127 2.02124 -12
vertex -10.81467 2 -5
endloop
endfacet
facet normal -0.9957340524485004 0.092269695970139 -2.553915596854112e-7
outer loop
vertex -10.8127 2.02124 -12
vertex -11 0 -5
vertex -10.81467 2 -5
endloop
endfacet
facet normal -0.995726315643466 0.09235314697823309 0.000024047982608799213
outer loop
vertex -10.81467 2 -12
vertex -11 0 -5
vertex -10.8127 2.02124 -12
endloop
endfacet
facet normal -0.9957340524485327 0.092269695970144 0
outer loop
vertex -11 0 -5
vertex -10.81467 2 -12
vertex -11 0 -12
endloop
endfacet
facet normal 0 1 0
outer loop
vertex -10.81467 2 -12
vertex -3.4641 2 -5
vertex -3.4641 2 -12
endloop
endfacet
facet normal 0 1 0
outer loop
vertex -3.4641 2 -5
vertex -10.81467 2 -12
vertex -10.81467 2 -5
endloop
endfacet
facet normal 0 1 0
outer loop
vertex 3.4641 2 -12
vertex 10.81467 2 -5
vertex 10.81467 2 -12
endloop
endfacet
facet normal 0 1 0
outer loop
vertex 10.81467 2 -5
vertex 3.4641 2 -12
vertex 3.4641 2 -5
endloop
endfacet
facet normal 0.9659256312759246 -0.25881977290038405 0
outer loop
vertex -4 0 -12
vertex -3.4641 2 -5
vertex -4 0 -5
endloop
endfacet
facet normal 0.9659256312759246 -0.25881977290038405 0
outer loop
vertex -3.4641 2 -5
vertex -4 0 -12
vertex -3.4641 2 -12
endloop
endfacet
facet normal 0 -0.9999999999999999 0
outer loop
vertex -11 0 -12
vertex -4 0 -5
vertex -11 0 -5
endloop
endfacet
facet normal 0 -0.9999999999999999 0
outer loop
vertex -4 0 -5
vertex -11 0 -12
vertex -4 0 -12
endloop
endfacet
facet normal 0 -0.9999999999999999 0
outer loop
vertex 4 0 -12
vertex 11 0 -5
vertex 4 0 -5
endloop
endfacet
facet normal 0 -0.9999999999999999 0
outer loop
vertex 11 0 -5
vertex 4 0 -12
vertex 11 0 -12
endloop
endfacet
facet normal -0.9659256312759246 -0.25881977290038405 0
outer loop
vertex 3.4641 2 -12
vertex 4 0 -5
vertex 3.4641 2 -5
endloop
endfacet
facet normal -0.9659256312759246 -0.25881977290038405 0
outer loop
vertex 4 0 -5
vertex 3.4641 2 -12
vertex 4 0 -12
endloop
endfacet
facet normal 0.9957339711858465 0.09227057291717487 0
outer loop
vertex 11 0 -12
vertex 10.8127 2.02124 -5
vertex 11 0 -5
endloop
endfacet
facet normal 0.9957339711858465 0.09227057291717487 0
outer loop
vertex 10.8127 2.02124 -5
vertex 11 0 -12
vertex 10.8127 2.02124 -12
endloop
endfacet
facet normal -0.9618218274104569 0.27367640073051475 0
outer loop
vertex -10.25719 3.97366 -5
vertex -10.25719 3.97366 -12
vertex -10.40218 3.4641 -5
endloop
endfacet
facet normal -0.961827233703061 0.2736573998723255 -0.000001495133666491161
outer loop
vertex -10.25719 3.97366 -12
vertex -10.8127 2.02124 -5
vertex -10.40218 3.4641 -5
endloop
endfacet
facet normal -0.9618218274018375 0.27367640072806254 0.000004233567070371846
outer loop
vertex -10.40218 3.4641 -12
vertex -10.8127 2.02124 -5
vertex -10.25719 3.97366 -12
endloop
endfacet
facet normal -0.9618272337041375 0.2736573998726264 0
outer loop
vertex -10.8127 2.02124 -5
vertex -10.40218 3.4641 -12
vertex -10.8127 2.02124 -12
endloop
endfacet
facet normal 0 1 0
outer loop
vertex -10.40218 3.4641 -12
vertex -2 3.4641 -5
vertex -2 3.4641 -12
endloop
endfacet
facet normal 0 1 0
outer loop
vertex -2 3.4641 -5
vertex -10.40218 3.4641 -12
vertex -10.40218 3.4641 -5
endloop
endfacet
facet normal 0 1 0
outer loop
vertex 2 3.4641 -12
vertex 10.40218 3.4641 -5
vertex 10.40218 3.4641 -12
endloop
endfacet
facet normal 0 1 0
outer loop
vertex 10.40218 3.4641 -5
vertex 2 3.4641 -12
vertex 2 3.4641 -5
endloop
endfacet
facet normal 0.7071067811865477 -0.7071067811865474 0
outer loop
vertex -3.4641 2 -12
vertex -2 3.4641 -5
vertex -3.4641 2 -5
endloop
endfacet
facet normal 0.7071067811865476 -0.7071067811865476 0
outer loop
vertex -2 3.4641 -5
vertex -3.4641 2 -12
vertex -2 3.4641 -12
endloop
endfacet
facet normal 0 -1 0
outer loop
vertex -10.81467 2 -5
vertex -3.4641 2 -12
vertex -3.4641 2 -5
endloop
endfacet
facet normal 0 -1 0
outer loop
vertex -3.4641 2 -12
vertex -10.81467 2 -5
vertex -10.81467 2 -12
endloop
endfacet
facet normal 0 -1 0
outer loop
vertex 3.4641 2 -5
vertex 10.81467 2 -12
vertex 10.81467 2 -5
endloop
endfacet
facet normal 0 -1 0
outer loop
vertex 10.81467 2 -12
vertex 3.4641 2 -5
vertex 3.4641 2 -12
endloop
endfacet
facet normal -0.7071067811865477 -0.7071067811865474 0
outer loop
vertex 2 3.4641 -12
vertex 3.4641 2 -5
vertex 2 3.4641 -5
endloop
endfacet
facet normal -0.7071067811865476 -0.7071067811865476 0
outer loop
vertex 3.4641 2 -5
vertex 2 3.4641 -12
vertex 3.4641 2 -12
endloop
endfacet
facet normal 0.9618258227516909 0.2736623589170291 0
outer loop
vertex 10.8127 2.02124 -12
vertex 10.25719 3.97366 -5
vertex 10.8127 2.02124 -5
endloop
endfacet
facet normal 0.9618258227516898 0.27366235891703294 0
outer loop
vertex 10.25719 3.97366 -5
vertex 10.8127 2.02124 -12
vertex 10.25719 3.97366 -12
endloop
endfacet
facet normal -0.8951639419633088 0.4457370491766529 0
outer loop
vertex -9.35239 5.79075 -12
vertex -10.25719 3.97366 -5
vertex -9.35239 5.79075 -5
endloop
endfacet
facet normal -0.8951639419633096 0.44573704917665147 0
outer loop
vertex -10.25719 3.97366 -5
vertex -9.35239 5.79075 -12
vertex -10.25719 3.97366 -12
endloop
endfacet
facet normal 0 1 0
outer loop
vertex 0 4 -12
vertex 10.24408 4 -5
vertex 10.24408 4 -12
endloop
endfacet
facet normal 0 1 0
outer loop
vertex 0 4 -12
vertex 0 4 -5
vertex 10.24408 4 -5
endloop
endfacet
facet normal 0 1 0
outer loop
vertex -10.24408 4 -12
vertex 0 4 -5
vertex 0 4 -12
endloop
endfacet
facet normal 0 1 0
outer loop
vertex 0 4 -5
vertex -10.24408 4 -12
vertex -10.24408 4 -5
endloop
endfacet
facet normal 0.2588197729003839 -0.9659256312759246 0
outer loop
vertex -2 3.4641 -12
vertex 0 4 -5
vertex -2 3.4641 -5
endloop
endfacet
facet normal 0.2588197729003839 -0.9659256312759246 0
outer loop
vertex 0 4 -5
vertex -2 3.4641 -12
vertex 0 4 -12
endloop
endfacet
facet normal 0 -1 0
outer loop
vertex -10.40218 3.4641 -5
vertex -2 3.4641 -12
vertex -2 3.4641 -5
endloop
endfacet
facet normal 0 -1 0
outer loop
vertex -2 3.4641 -12
vertex -10.40218 3.4641 -5
vertex -10.40218 3.4641 -12
endloop
endfacet
facet normal 0 -1 0
outer loop
vertex 2 3.4641 -5
vertex 10.40218 3.4641 -12
vertex 10.40218 3.4641 -5
endloop
endfacet
facet normal 0 -1 0
outer loop
vertex 10.40218 3.4641 -12
vertex 2 3.4641 -5
vertex 2 3.4641 -12
endloop
endfacet
facet normal -0.2588197729003839 -0.9659256312759246 0
outer loop
vertex 0 4 -12
vertex 2 3.4641 -5
vertex 0 4 -5
endloop
endfacet
facet normal -0.2588197729003839 -0.9659256312759246 0
outer loop
vertex 2 3.4641 -5
vertex 0 4 -12
vertex 2 3.4641 -12
endloop
endfacet
facet normal 0.8951639419633095 0.4457370491766513 0
outer loop
vertex 10.25719 3.97366 -12
vertex 9.35239 5.79075 -5
vertex 10.25719 3.97366 -5
endloop
endfacet
facet normal 0.8952414117366337 0.44558143158202973 0.00005040940374075662
outer loop
vertex 10.24408 4 -12
vertex 9.35239 5.79075 -5
vertex 10.25719 3.97366 -12
endloop
endfacet
facet normal 0.8951628023480249 0.44573933783370623 0
outer loop
vertex 9.35239 5.79075 -5
vertex 10.24408 4 -12
vertex 9.35239 5.79075 -12
endloop
endfacet
facet normal -0.7980176291080611 0.6026341042728571 0
outer loop
vertex -8.1291 7.41065 -12
vertex -9.35239 5.79075 -5
vertex -8.1291 7.41065 -5
endloop
endfacet
facet normal -0.7980176291080616 0.6026341042728565 0
outer loop
vertex -9.35239 5.79075 -5
vertex -8.1291 7.41065 -12
vertex -9.35239 5.79075 -12
endloop
endfacet
facet normal -0.6736956238813092 0.7390089352390629 0
outer loop
vertex -6.62898 8.77819 -12
vertex -8.1291 7.41065 -5
vertex -6.62898 8.77819 -5
endloop
endfacet
facet normal -0.673695623881309 0.7390089352390633 0
outer loop
vertex -8.1291 7.41065 -5
vertex -6.62898 8.77819 -12
vertex -8.1291 7.41065 -12
endloop
endfacet
facet normal -0.5264331349287973 0.8502165338600743 0
outer loop
vertex -4.90312 9.8468 -12
vertex -6.62898 8.77819 -5
vertex -4.90312 9.8468 -5
endloop
endfacet
facet normal -0.5264331349287968 0.8502165338600747 0
outer loop
vertex -6.62898 8.77819 -5
vertex -4.90312 9.8468 -12
vertex -6.62898 8.77819 -12
endloop
endfacet
facet normal -0.36123898961797674 0.9324732663083609 0
outer loop
vertex -3.01029 10.58008 -12
vertex -4.90312 9.8468 -5
vertex -3.01029 10.58008 -5
endloop
endfacet
facet normal -0.361238989617977 0.9324732663083606 0
outer loop
vertex -4.90312 9.8468 -5
vertex -3.01029 10.58008 -12
vertex -4.90312 9.8468 -12
endloop
endfacet
facet normal -0.18375252174034606 0.9829725381484793 0
outer loop
vertex -1.01495 10.95308 -12
vertex -3.01029 10.58008 -5
vertex -1.01495 10.95308 -5
endloop
endfacet
facet normal -0.18375252174034615 0.9829725381484794 0
outer loop
vertex -3.01029 10.58008 -5
vertex -1.01495 10.95308 -12
vertex -3.01029 10.58008 -12
endloop
endfacet
facet normal 0 1 0
outer loop
vertex 1.01495 10.95308 -12
vertex 0 10.95308 -5
vertex 1.01495 10.95308 -5
endloop
endfacet
facet normal 0 1 0
outer loop
vertex -1.01495 10.95308 -12
vertex 0 10.95308 -5
vertex 1.01495 10.95308 -12
endloop
endfacet
facet normal 0 1 0
outer loop
vertex 0 10.95308 -5
vertex -1.01495 10.95308 -12
vertex -1.01495 10.95308 -5
endloop
endfacet
facet normal 0.18375252174034615 0.9829725381484794 0
outer loop
vertex 3.01029 10.58008 -12
vertex 1.01495 10.95308 -5
vertex 3.01029 10.58008 -5
endloop
endfacet
facet normal 0.18375252174034606 0.9829725381484793 0
outer loop
vertex 1.01495 10.95308 -5
vertex 3.01029 10.58008 -12
vertex 1.01495 10.95308 -12
endloop
endfacet
facet normal 0.361238989617977 0.9324732663083606 0
outer loop
vertex 4.90312 9.8468 -12
vertex 3.01029 10.58008 -5
vertex 4.90312 9.8468 -5
endloop
endfacet
facet normal 0.36123898961797674 0.9324732663083609 0
outer loop
vertex 3.01029 10.58008 -5
vertex 4.90312 9.8468 -12
vertex 3.01029 10.58008 -12
endloop
endfacet
facet normal 0.5264331349287968 0.8502165338600747 0
outer loop
vertex 6.62898 8.77819 -12
vertex 4.90312 9.8468 -5
vertex 6.62898 8.77819 -5
endloop
endfacet
facet normal 0.5264331349287973 0.8502165338600743 0
outer loop
vertex 4.90312 9.8468 -5
vertex 6.62898 8.77819 -12
vertex 4.90312 9.8468 -12
endloop
endfacet
facet normal 0.6736956238813088 0.7390089352390635 0
outer loop
vertex 8.1291 7.41065 -12
vertex 6.62898 8.77819 -5
vertex 8.1291 7.41065 -5
endloop
endfacet
facet normal 0.6736956238813093 0.7390089352390627 0
outer loop
vertex 6.62898 8.77819 -5
vertex 8.1291 7.41065 -12
vertex 6.62898 8.77819 -12
endloop
endfacet
facet normal 0.7980176291080616 0.6026341042728565 0
outer loop
vertex 9.35239 5.79075 -12
vertex 8.1291 7.41065 -5
vertex 9.35239 5.79075 -5
endloop
endfacet
facet normal 0.7980176291080611 0.6026341042728571 0
outer loop
vertex 8.1291 7.41065 -5
vertex 9.35239 5.79075 -12
vertex 8.1291 7.41065 -12
endloop
endfacet
facet normal 0 -1 0
outer loop
vertex 0 4 -5
vertex 10.24408 4 -12
vertex 10.24408 4 -5
endloop
endfacet
facet normal 0 -1 0
outer loop
vertex 0 4 -5
vertex 0 4 -12
vertex 10.24408 4 -12
endloop
endfacet
facet normal 0 -1 0
outer loop
vertex -10.24408 4 -5
vertex 0 4 -12
vertex 0 4 -5
endloop
endfacet
facet normal 0 -1 0
outer loop
vertex 0 4 -12
vertex -10.24408 4 -5
vertex -10.24408 4 -12
endloop
endfacet
facet normal -7.888164121902297e-16 0 1
outer loop
vertex 3.4641 2 -5
vertex 4 10.19667 -5
vertex 3.4641 10.40428 -5
endloop
endfacet
facet normal 0 0 0.9999999999999999
outer loop
vertex 4 10.19667 -5
vertex 3.4641 2 -5
vertex 4 0 -5
endloop
endfacet
facet normal 0 0 1
outer loop
vertex -2 10.76894 -5
vertex 0 10.95308 -5
vertex -1.01495 10.95308 -5
endloop
endfacet
facet normal 0 0 1
outer loop
vertex -2 10.76894 -5
vertex 0 4 -5
vertex 0 10.95308 -5
endloop
endfacet
facet normal 0 0 0.9999999999999999
outer loop
vertex 0 4 -5
vertex -2 10.76894 -5
vertex -2 3.4641 -5
endloop
endfacet
facet normal 0 0 1
outer loop
vertex -3.4641 10.40428 -5
vertex -2 10.76894 -5
vertex -3.01029 10.58008 -5
endloop
endfacet
facet normal 0 0 1
outer loop
vertex -3.4641 10.40428 -5
vertex -2 3.4641 -5
vertex -2 10.76894 -5
endloop
endfacet
facet normal 0 0 1
outer loop
vertex -2 3.4641 -5
vertex -3.4641 10.40428 -5
vertex -3.4641 2 -5
endloop
endfacet
facet normal 0 0 1
outer loop
vertex 2 10.76894 -5
vertex 3.4641 10.40428 -5
vertex 3.01029 10.58008 -5
endloop
endfacet
facet normal 0 0 1
outer loop
vertex 2 3.4641 -5
vertex 3.4641 10.40428 -5
vertex 2 10.76894 -5
endloop
endfacet
facet normal 2.887280344872234e-16 0 1
outer loop
vertex 3.4641 10.40428 -5
vertex 2 3.4641 -5
vertex 3.4641 2 -5
endloop
endfacet
facet normal 0 0 1
outer loop
vertex 0 10.95308 -5
vertex 2 10.76894 -5
vertex 1.01495 10.95308 -5
endloop
endfacet
facet normal 0 0 1
outer loop
vertex 0 4 -5
vertex 2 10.76894 -5
vertex 0 10.95308 -5
endloop
endfacet
facet normal -2.43175324771008e-16 0 0.9999999999999999
outer loop
vertex 2 10.76894 -5
vertex 0 4 -5
vertex 2 3.4641 -5
endloop
endfacet
facet normal 0 0 1
outer loop
vertex -4 10.19667 -5
vertex -3.4641 2 -5
vertex -3.4641 10.40428 -5
endloop
endfacet
facet normal 0 0 0.9999999999999999
outer loop
vertex -3.4641 2 -5
vertex -4 10.19667 -5
vertex -4 0 -5
endloop
endfacet
facet normal 0 0 1
outer loop
vertex 2 -3.4641 -5
vertex 3.4641 -10.40428 -5
vertex 3.4641 -2 -5
endloop
endfacet
facet normal -1.0427958863462582e-15 0 0.9999999999999999
outer loop
vertex 2 -3.4641 -5
vertex 3.01029 -10.58008 -5
vertex 3.4641 -10.40428 -5
endloop
endfacet
facet normal 0 0 1
outer loop
vertex 3.01029 -10.58008 -5
vertex 2 -3.4641 -5
vertex 2 -10.76894 -5
endloop
endfacet
facet normal 0 0 0.9999999999999999
outer loop
vertex 0 -4 -5
vertex 2 -10.76894 -5
vertex 2 -3.4641 -5
endloop
endfacet
facet normal 0 0 1
outer loop
vertex 0 -10.95308 -5
vertex 2 -10.76894 -5
vertex 0 -4 -5
endloop
endfacet
facet normal 0 0 1
outer loop
vertex 2 -10.76894 -5
vertex 0 -10.95308 -5
vertex 1.01495 -10.95308 -5
endloop
endfacet
facet normal 2.43175324771008e-16 0 0.9999999999999999
outer loop
vertex -2 -10.76894 -5
vertex 0 -4 -5
vertex -2 -3.4641 -5
endloop
endfacet
facet normal 0 0 1
outer loop
vertex -1.01495 -10.95308 -5
vertex 0 -4 -5
vertex -2 -10.76894 -5
endloop
endfacet
facet normal 0 0 1
outer loop
vertex 0 -4 -5
vertex -1.01495 -10.95308 -5
vertex 0 -10.95308 -5
endloop
endfacet
facet normal 0 0 1
outer loop
vertex -6.62898 8.77819 -5
vertex -4 10.19667 -5
vertex -4.90312 9.8468 -5
endloop
endfacet
facet normal 0 0 1
outer loop
vertex -8.1291 7.41065 -5
vertex -4 10.19667 -5
vertex -6.62898 8.77819 -5
endloop
endfacet
facet normal -1.0829401465982507e-15 0 1
outer loop
vertex -9.35239 5.79075 -5
vertex -4 10.19667 -5
vertex -8.1291 7.41065 -5
endloop
endfacet
facet normal 0 0 1
outer loop
vertex -10.25719 3.97366 -5
vertex -4 10.19667 -5
vertex -9.35239 5.79075 -5
endloop
endfacet
facet normal 0 0 1
outer loop
vertex -10.40218 3.4641 -5
vertex -4 10.19667 -5
vertex -10.25719 3.97366 -5
endloop
endfacet
facet normal 0 0 1
outer loop
vertex -10.8127 2.02124 -5
vertex -4 10.19667 -5
vertex -10.40218 3.4641 -5
endloop
endfacet
facet normal 0 0 1
outer loop
vertex -10.81467 2 -5
vertex -4 10.19667 -5
vertex -10.8127 2.02124 -5
endloop
endfacet
facet normal 0 0 0.9999999999999999
outer loop
vertex -11 0 -5
vertex -4 10.19667 -5
vertex -10.81467 2 -5
endloop
endfacet
facet normal 0 0 1
outer loop
vertex -11 0 -5
vertex -4 0 -5
vertex -4 10.19667 -5
endloop
endfacet
facet normal 0 0 1
outer loop
vertex -10.81467 -2 -5
vertex -4 0 -5
vertex -11 0 -5
endloop
endfacet
facet normal 0 0 1
outer loop
vertex -10.8127 -2.02124 -5
vertex -4 0 -5
vertex -10.81467 -2 -5
endloop
endfacet
facet normal 3.3328984391844716e-16 0 1
outer loop
vertex -10.40218 -3.4641 -5
vertex -4 0 -5
vertex -10.8127 -2.02124 -5
endloop
endfacet
facet normal 0 0 0.9999999999999999
outer loop
vertex -10.25719 -3.97366 -5
vertex -4 0 -5
vertex -10.40218 -3.4641 -5
endloop
endfacet
facet normal 0 0 1
outer loop
vertex -10.24408 -4 -5
vertex -4 0 -5
vertex -10.25719 -3.97366 -5
endloop
endfacet
facet normal 0 0 1
outer loop
vertex -9.35239 -5.79075 -5
vertex -4 0 -5
vertex -10.24408 -4 -5
endloop
endfacet
facet normal 4.510207467632294e-16 0 0.9999999999999999
outer loop
vertex -8.1291 -7.41065 -5
vertex -4 0 -5
vertex -9.35239 -5.79075 -5
endloop
endfacet
facet normal 0 0 1
outer loop
vertex -6.62898 -8.77819 -5
vertex -4 0 -5
vertex -8.1291 -7.41065 -5
endloop
endfacet
facet normal 0 0 1
outer loop
vertex -4.90312 -9.8468 -5
vertex -4 0 -5
vertex -6.62898 -8.77819 -5
endloop
endfacet
facet normal -7.715896252702511e-16 0 1
outer loop
vertex -4 0 -5
vertex -4.90312 -9.8468 -5
vertex -4 -10.19667 -5
endloop
endfacet
facet normal 0 0 1
outer loop
vertex 4 10.19667 -5
vertex 6.62898 8.77819 -5
vertex 4.90312 9.8468 -5
endloop
endfacet
facet normal 0 0 1
outer loop
vertex 4 10.19667 -5
vertex 8.1291 7.41065 -5
vertex 6.62898 8.77819 -5
endloop
endfacet
facet normal 1.0829401465982495e-15 0 1
outer loop
vertex 4 10.19667 -5
vertex 9.35239 5.79075 -5
vertex 8.1291 7.41065 -5
endloop
endfacet
facet normal 0 0 1
outer loop
vertex 4 10.19667 -5
vertex 10.24408 4 -5
vertex 9.35239 5.79075 -5
endloop
endfacet
facet normal 1.0671280776504816e-14 0 1
outer loop
vertex 4 10.19667 -5
vertex 10.25719 3.97366 -5
vertex 10.24408 4 -5
endloop
endfacet
facet normal 0 0 1
outer loop
vertex 4 10.19667 -5
vertex 10.8127 2.02124 -5
vertex 10.25719 3.97366 -5
endloop
endfacet
facet normal 0 0 1
outer loop
vertex 4 10.19667 -5
vertex 11 0 -5
vertex 10.8127 2.02124 -5
endloop
endfacet
facet normal 0 0 1
outer loop
vertex 4 0 -5
vertex 11 0 -5
vertex 4 10.19667 -5
endloop
endfacet
facet normal 0 0 1
outer loop
vertex 4 0 -5
vertex 10.8127 -2.02124 -5
vertex 11 0 -5
endloop
endfacet
facet normal -3.332898439184471e-16 0 1
outer loop
vertex 4 0 -5
vertex 10.40218 -3.4641 -5
vertex 10.8127 -2.02124 -5
endloop
endfacet
facet normal 7.077956017592029e-16 0 1
outer loop
vertex 4 0 -5
vertex 10.25719 -3.97366 -5
vertex 10.40218 -3.4641 -5
endloop
endfacet
facet normal 4.0947039751049115e-15 0 1
outer loop
vertex 4 0 -5
vertex 10.24408 -4 -5
vertex 10.25719 -3.97366 -5
endloop
endfacet
facet normal 0 0 1
outer loop
vertex 4 0 -5
vertex 9.35239 -5.79075 -5
vertex 10.24408 -4 -5
endloop
endfacet
facet normal -4.510207467632294e-16 0 0.9999999999999999
outer loop
vertex 4 0 -5
vertex 8.1291 -7.41065 -5
vertex 9.35239 -5.79075 -5
endloop
endfacet
facet normal 2.119305670780657e-16 0 1
outer loop
vertex 4 0 -5
vertex 6.62898 -8.77819 -5
vertex 8.1291 -7.41065 -5
endloop
endfacet
facet normal 0 0 1
outer loop
vertex 4 0 -5
vertex 4.90312 -9.8468 -5
vertex 6.62898 -8.77819 -5
endloop
endfacet
facet normal 1.5431792505405021e-15 0 1
outer loop
vertex 4.90312 -9.8468 -5
vertex 4 0 -5
vertex 4 -10.19667 -5
endloop
endfacet
facet normal 0 0 0.9999999999999999
outer loop
vertex 3.4641 -2 -5
vertex 4 -10.19667 -5
vertex 4 0 -5
endloop
endfacet
facet normal 0 0 1
outer loop
vertex 4 -10.19667 -5
vertex 3.4641 -2 -5
vertex 3.4641 -10.40428 -5
endloop
endfacet
facet normal 0 0 0.9999999999999999
outer loop
vertex -4 -10.19667 -5
vertex -3.4641 -2 -5
vertex -4 0 -5
endloop
endfacet
facet normal 7.888164121902297e-16 0 1
outer loop
vertex -3.4641 -2 -5
vertex -4 -10.19667 -5
vertex -3.4641 -10.40428 -5
endloop
endfacet
facet normal -2.887280344872234e-16 0 1
outer loop
vertex -3.4641 -10.40428 -5
vertex -2 -3.4641 -5
vertex -3.4641 -2 -5
endloop
endfacet
facet normal 0 0 0.9999999999999999
outer loop
vertex -3.01029 -10.58008 -5
vertex -2 -3.4641 -5
vertex -3.4641 -10.40428 -5
endloop
endfacet
facet normal -4.813970736541153e-16 0 1
outer loop
vertex -2 -3.4641 -5
vertex -3.01029 -10.58008 -5
vertex -2 -10.76894 -5
endloop
endfacet
facet normal 0 0 -1
outer loop
vertex 10.8127 2.02124 -12
vertex 2 3.4641 -12
vertex 10.40218 3.4641 -12
endloop
endfacet
facet normal 0 0 -1
outer loop
vertex 10.81467 2 -12
vertex 2 3.4641 -12
vertex 10.8127 2.02124 -12
endloop
endfacet
facet normal 0 0 -1
outer loop
vertex 2 3.4641 -12
vertex 10.81467 2 -12
vertex 3.4641 2 -12
endloop
endfacet
facet normal 0 0 -1
outer loop
vertex 3.01029 10.58008 -12
vertex -1.01495 10.95308 -12
vertex 1.01495 10.95308 -12
endloop
endfacet
facet normal 0 0 -0.9999999999999999
outer loop
vertex 3.01029 10.58008 -12
vertex -3.01029 10.58008 -12
vertex -1.01495 10.95308 -12
endloop
endfacet
facet normal 0 0 -1
outer loop
vertex 4.90312 9.8468 -12
vertex -3.01029 10.58008 -12
vertex 3.01029 10.58008 -12
endloop
endfacet
facet normal 0 0 -1
outer loop
vertex 4.90312 9.8468 -12
vertex -4.90312 9.8468 -12
vertex -3.01029 10.58008 -12
endloop
endfacet
facet normal 0 0 -1
outer loop
vertex 6.62898 8.77819 -12
vertex -4.90312 9.8468 -12
vertex 4.90312 9.8468 -12
endloop
endfacet
facet normal 0 0 -0.9999999999999999
outer loop
vertex 6.62898 8.77819 -12
vertex -6.62898 8.77819 -12
vertex -4.90312 9.8468 -12
endloop
endfacet
facet normal 0 0 -1
outer loop
vertex 8.1291 7.41065 -12
vertex -6.62898 8.77819 -12
vertex 6.62898 8.77819 -12
endloop
endfacet
facet normal 0 0 -0.9999999999999999
outer loop
vertex 8.1291 7.41065 -12
vertex -8.1291 7.41065 -12
vertex -6.62898 8.77819 -12
endloop
endfacet
facet normal 0 0 -0.9999999999999999
outer loop
vertex 9.35239 5.79075 -12
vertex -8.1291 7.41065 -12
vertex 8.1291 7.41065 -12
endloop
endfacet
facet normal 0 0 -1
outer loop
vertex 9.35239 5.79075 -12
vertex -9.35239 5.79075 -12
vertex -8.1291 7.41065 -12
endloop
endfacet
facet normal 0 0 -1
outer loop
vertex 10.24408 4 -12
vertex -9.35239 5.79075 -12
vertex 9.35239 5.79075 -12
endloop
endfacet
facet normal 0 0 -1
outer loop
vertex 0 4 -12
vertex -9.35239 5.79075 -12
vertex 10.24408 4 -12
endloop
endfacet
facet normal 0 0 -1
outer loop
vertex -9.35239 5.79075 -12
vertex 0 4 -12
vertex -10.24408 4 -12
endloop
endfacet
facet normal 0 0 -1
outer loop
vertex 0 4 -12
vertex -10.25719 3.97366 -12
vertex -10.24408 4 -12
endloop
endfacet
facet normal 0 0 -1
outer loop
vertex -2 3.4641 -12
vertex -10.25719 3.97366 -12
vertex 0 4 -12
endloop
endfacet
facet normal 0 0 -1
outer loop
vertex -10.25719 3.97366 -12
vertex -2 3.4641 -12
vertex -10.40218 3.4641 -12
endloop
endfacet
facet normal 0 0 -1
outer loop
vertex 10.25719 3.97366 -12
vertex 0 4 -12
vertex 10.24408 4 -12
endloop
endfacet
facet normal 0 0 -1
outer loop
vertex 10.40218 3.4641 -12
vertex 0 4 -12
vertex 10.25719 3.97366 -12
endloop
endfacet
facet normal 0 0 -1
outer loop
vertex 0 4 -12
vertex 10.40218 3.4641 -12
vertex 2 3.4641 -12
endloop
endfacet
facet normal 0 0 -1
outer loop
vertex -2 3.4641 -12
vertex -10.8127 2.02124 -12
vertex -10.40218 3.4641 -12
endloop
endfacet
facet normal 0 0 -1
outer loop
vertex -3.4641 2 -12
vertex -10.8127 2.02124 -12
vertex -2 3.4641 -12
endloop
endfacet
facet normal 0 0 -1
outer loop
vertex -10.8127 2.02124 -12
vertex -3.4641 2 -12
vertex -10.81467 2 -12
endloop
endfacet
facet normal 0 0 -1
outer loop
vertex -3.4641 2 -12
vertex -11 0 -12
vertex -10.81467 2 -12
endloop
endfacet
facet normal 0 0 -1
outer loop
vertex -11 0 -12
vertex -3.4641 2 -12
vertex -4 0 -12
endloop
endfacet
facet normal 0 0 -1
outer loop
vertex -3.4641 -2 -12
vertex -11 0 -12
vertex -4 0 -12
endloop
endfacet
facet normal 0 0 -1
outer loop
vertex -11 0 -12
vertex -3.4641 -2 -12
vertex -10.81467 -2 -12
endloop
endfacet
facet normal 0 0 -0.9999999999999999
outer loop
vertex -3.4641 -2 -12
vertex -10.8127 -2.02124 -12
vertex -10.81467 -2 -12
endloop
endfacet
facet normal 3.292542640926103e-16 0 -1
outer loop
vertex -2 -3.4641 -12
vertex -10.8127 -2.02124 -12
vertex -3.4641 -2 -12
endloop
endfacet
facet normal 0 0 -1
outer loop
vertex -10.8127 -2.02124 -12
vertex -2 -3.4641 -12
vertex -10.40218 -3.4641 -12
endloop
endfacet
facet normal 0 0 -1
outer loop
vertex -2 -3.4641 -12
vertex -10.25719 -3.97366 -12
vertex -10.40218 -3.4641 -12
endloop
endfacet
facet normal 0 0 -1
outer loop
vertex 0 -4 -12
vertex -10.25719 -3.97366 -12
vertex -2 -3.4641 -12
endloop
endfacet
facet normal 0 0 -1
outer loop
vertex -10.25719 -3.97366 -12
vertex 0 -4 -12
vertex -10.24408 -4 -12
endloop
endfacet
facet normal 0 0 -1
outer loop
vertex 11 0 -12
vertex 3.4641 2 -12
vertex 10.81467 2 -12
endloop
endfacet
facet normal 0 0 -1
outer loop
vertex 3.4641 2 -12
vertex 11 0 -12
vertex 4 0 -12
endloop
endfacet
facet normal 0 0 -1
outer loop
vertex 10.81467 -2 -12
vertex 4 0 -12
vertex 11 0 -12
endloop
endfacet
facet normal 0 0 -1
outer loop
vertex 4 0 -12
vertex 10.81467 -2 -12
vertex 3.4641 -2 -12
endloop
endfacet
facet normal 0 0 -1
outer loop
vertex 10.8127 -2.02124 -12
vertex 3.4641 -2 -12
vertex 10.81467 -2 -12
endloop
endfacet
facet normal -3.3479148820590956e-16 0 -1
outer loop
vertex 10.40218 -3.4641 -12
vertex 3.4641 -2 -12
vertex 10.8127 -2.02124 -12
endloop
endfacet
facet normal 0 0 -1
outer loop
vertex 3.4641 -2 -12
vertex 10.40218 -3.4641 -12
vertex 2 -3.4641 -12
endloop
endfacet
facet normal 0 0 -1
outer loop
vertex 10.25719 -3.97366 -12
vertex 2 -3.4641 -12
vertex 10.40218 -3.4641 -12
endloop
endfacet
facet normal 0 0 -1
outer loop
vertex 10.24408 -4 -12
vertex 2 -3.4641 -12
vertex 10.25719 -3.97366 -12
endloop
endfacet
facet normal 0 0 -0.9999999999999999
outer loop
vertex 2 -3.4641 -12
vertex 10.24408 -4 -12
vertex 0 -4 -12
endloop
endfacet
facet normal 0 0 -1
outer loop
vertex 10.24408 -4 -12
vertex -9.35239 -5.79075 -12
vertex -10.24408 -4 -12
endloop
endfacet
facet normal 0 0 -1
outer loop
vertex 9.35239 -5.79075 -12
vertex -9.35239 -5.79075 -12
vertex 10.24408 -4 -12
endloop
endfacet
facet normal 0 0 -1
outer loop
vertex 8.1291 -7.41065 -12
vertex -9.35239 -5.79075 -12
vertex 9.35239 -5.79075 -12
endloop
endfacet
facet normal 0 0 -1
outer loop
vertex 8.1291 -7.41065 -12
vertex -8.1291 -7.41065 -12
vertex -9.35239 -5.79075 -12
endloop
endfacet
facet normal 0 0 -1
outer loop
vertex 6.62898 -8.77819 -12
vertex -8.1291 -7.41065 -12
vertex 8.1291 -7.41065 -12
endloop
endfacet
facet normal 0 0 -1
outer loop
vertex 6.62898 -8.77819 -12
vertex -6.62898 -8.77819 -12
vertex -8.1291 -7.41065 -12
endloop
endfacet
facet normal 0 0 -1
outer loop
vertex 4.90312 -9.8468 -12
vertex -6.62898 -8.77819 -12
vertex 6.62898 -8.77819 -12
endloop
endfacet
facet normal 0 0 -1
outer loop
vertex 4.90312 -9.8468 -12
vertex -4.90312 -9.8468 -12
vertex -6.62898 -8.77819 -12
endloop
endfacet
facet normal 0 0 -1
outer loop
vertex 3.01029 -10.58008 -12
vertex -4.90312 -9.8468 -12
vertex 4.90312 -9.8468 -12
endloop
endfacet
facet normal 0 0 -1
outer loop
vertex 3.01029 -10.58008 -12
vertex -3.01029 -10.58008 -12
vertex -4.90312 -9.8468 -12
endloop
endfacet
facet normal 0 0 -1
outer loop
vertex 1.01495 -10.95308 -12
vertex -3.01029 -10.58008 -12
vertex 3.01029 -10.58008 -12
endloop
endfacet
facet normal 0 0 -1
outer loop
vertex -3.01029 -10.58008 -12
vertex 1.01495 -10.95308 -12
vertex -1.01495 -10.95308 -12
endloop
endfacet
endsolid JSxCAD
