<?xml version="1.0" encoding="UTF-8"?>
<!-- Generated by jsxcad -->
<!DOCTYPE svg PUBLIC "-//W3C//DTD SVG 1.1 Tiny//EN" "http://www.w3.org/Graphics/SVG/1.1/DTD/svg11-tiny.dtd">
<svg baseProfile="tiny" height="58.96875mm" width="38.70593mm" viewBox="-0.00058 7.96875 38.70593 58.96875" version="1.1" stroke="black" stroke-width=".1" fill="none" xmlns="http://www.w3.org/2000/svg">
<path fill="#000000" stroke="#000000" d="M-0.00058 32.06327 L0.42566 29.23243 L2.66134 14.57355 L3.29143 12.77596 L4.30260 11.16808 L5.64670 9.82398 L7.25458 8.81282 L9.05217 8.18272 L10.94737 7.96875 L26.94737 7.96875 L28.84256 8.18272 L30.64015 8.81282 L32.24804 9.82398 L33.59213 11.16808 L34.60330 12.77596 L35.23339 14.57355 L37.46907 29.23243 L37.89531 32.06327 L37.89531 34.87423 L37.46907 37.70507 L36.63425 40.40951 L35.39576 42.97929 L33.80038 45.31730 L31.87997 47.38809 L29.66855 49.15493 L27.20183 50.58202 L24.55544 51.62225 L21.78143 52.25620 L18.94737 52.46875 L16.11331 52.25620 L13.33929 51.62225 L10.69291 50.58202 L8.22619 49.15493 L6.01477 47.38809 L4.09436 45.31730 L2.49898 42.97929 L1.26049 40.40951 L0.42566 37.70507 L-0.00058 34.87423 z M36.94737 33.46875 L36.84455 33.08551 L36.71235 32.59278 L36.43278 32.31321 L36.07334 31.95377 L35.69010 31.85095 L35.19737 31.71875 L34.81413 31.82157 L34.32140 31.95377 L34.04183 32.23333 L33.68239 32.59278 L33.57957 32.97602 L33.44737 33.46875 L33.55019 33.85199 L33.68239 34.34472 L33.96195 34.62429 L34.32140 34.98373 L34.70463 35.08655 L35.19737 35.21875 L35.58061 35.11593 L36.07334 34.98373 L36.35291 34.70417 L36.71235 34.34472 L36.81517 33.96148 z M20.69737 49.71875 L20.59455 49.33551 L20.46235 48.84278 L20.18278 48.56321 L19.82334 48.20377 L19.44010 48.10095 L18.94737 47.96875 L18.56413 48.07157 L18.07140 48.20377 L17.79183 48.48333 L17.43239 48.84278 L17.32957 49.22602 L17.19737 49.71875 L17.30019 50.10199 L17.43239 50.59472 L17.71195 50.87429 L18.07140 51.23373 L18.45463 51.33655 L18.94737 51.46875 L19.33061 51.36593 L19.82334 51.23373 L20.10291 50.95417 L20.46235 50.59472 L20.56517 50.21148 z M30.43434 34.01606 L30.38248 32.92515 L30.33062 31.83423 L30.07086 30.76539 L29.81109 29.69656 L29.35703 28.70446 L28.90297 27.71237 L28.27358 26.82841 L27.64419 25.94444 L26.85060 25.18711 L26.05701 24.42978 L25.13532 23.83760 L24.21363 23.24542 L23.20535 22.84144 L22.19707 22.43746 L21.11860 22.22912 L20.04013 22.02079 L18.94737 22.02079 L17.85461 22.02079 L16.77614 22.22912 L15.69766 22.43746 L14.68938 22.84144 L13.68111 23.24542 L12.75942 23.83760 L11.83773 24.42978 L11.04413 25.18711 L10.25054 25.94444 L9.62115 26.82841 L8.99176 27.71237 L8.53770 28.70446 L8.08364 29.69656 L7.82388 30.76539 L7.56412 31.83423 L7.51226 32.92515 L7.46040 34.01606 L7.61713 35.10281 L7.77387 36.18957 L8.12957 37.21634 L8.48527 38.24312 L9.03454 39.19411 L9.58380 40.14509 L10.30007 40.97071 L11.01633 41.79634 L11.86879 42.46694 L12.72125 43.13754 L13.70164 43.64302 L14.68203 44.14849 L15.72931 44.45525 L16.77658 44.76201 L17.86198 44.86538 L18.94737 44.96875 L20.03276 44.86538 L21.11815 44.76201 L22.16543 44.45525 L23.21270 44.14849 L24.19309 43.64302 L25.17348 43.13754 L26.02594 42.46694 L26.87840 41.79634 L27.59467 40.97071 L28.31094 40.14509 L28.86020 39.19411 L29.40946 38.24312 L29.76517 37.21634 L30.12087 36.18957 L30.27760 35.10281 z M20.69737 17.21875 L20.59455 16.83551 L20.46235 16.34278 L20.18278 16.06321 L19.82334 15.70377 L19.44010 15.60095 L18.94737 15.46875 L18.56413 15.57157 L18.07140 15.70377 L17.79183 15.98333 L17.43239 16.34278 L17.32957 16.72602 L17.19737 17.21875 L17.30019 17.60199 L17.43239 18.09472 L17.71195 18.37429 L18.07140 18.73373 L18.45463 18.83655 L18.94737 18.96875 L19.33061 18.86593 L19.82334 18.73373 L20.10291 18.45417 L20.46235 18.09472 L20.56517 17.71148 z M28.44737 12.46875 L28.44737 11.04018 L28.44737 10.46875 L14.87594 10.46875 L9.44737 10.46875 L9.44737 11.89732 L9.44737 12.46875 L23.01880 12.46875 z M4.44737 33.46875 L4.34455 33.08551 L4.21235 32.59278 L3.93278 32.31321 L3.57334 31.95377 L3.19010 31.85095 L2.69737 31.71875 L2.31413 31.82157 L1.82140 31.95377 L1.54183 32.23333 L1.18239 32.59278 L1.07957 32.97602 L0.94737 33.46875 L1.05019 33.85199 L1.18239 34.34472 L1.46195 34.62429 L1.82140 34.98373 L2.20463 35.08655 L2.69737 35.21875 L3.08061 35.11593 L3.57334 34.98373 L3.85291 34.70417 L4.21235 34.34472 L4.31517 33.96148 z"/>
<path fill="#000000" stroke="#000000" d="M17.19737 49.71875 L17.32957 49.22602 L17.43239 48.84278 L17.79183 48.48333 L18.07140 48.20377 L18.56413 48.07157 L18.94737 47.96875 L19.44010 48.10095 L19.82334 48.20377 L20.18278 48.56321 L20.46235 48.84278 L20.59455 49.33551 L20.69737 49.71875 L20.56517 50.21148 L20.46235 50.59472 L20.10291 50.95417 L19.82334 51.23373 L19.33061 51.36593 L18.94737 51.46875 L18.45463 51.33655 L18.07140 51.23373 L17.71195 50.87429 L17.43239 50.59472 L17.30019 50.10199 z"/>
<path fill="#000000" stroke="#000000" d="M33.44737 33.46875 L33.57957 32.97602 L33.68239 32.59278 L34.04183 32.23333 L34.32140 31.95377 L34.81413 31.82157 L35.19737 31.71875 L35.69010 31.85095 L36.07334 31.95377 L36.43278 32.31321 L36.71235 32.59278 L36.84455 33.08551 L36.94737 33.46875 L36.81517 33.96148 L36.71235 34.34472 L36.35291 34.70417 L36.07334 34.98373 L35.58061 35.11593 L35.19737 35.21875 L34.70463 35.08655 L34.32140 34.98373 L33.96195 34.62429 L33.68239 34.34472 L33.55019 33.85199 z"/>
<path fill="#000000" stroke="#000000" d="M17.19737 17.21875 L17.32957 16.72602 L17.43239 16.34278 L17.79183 15.98333 L18.07140 15.70377 L18.56413 15.57157 L18.94737 15.46875 L19.44010 15.60095 L19.82334 15.70377 L20.18278 16.06321 L20.46235 16.34278 L20.59455 16.83551 L20.69737 17.21875 L20.56517 17.71148 L20.46235 18.09472 L20.10291 18.45417 L19.82334 18.73373 L19.33061 18.86593 L18.94737 18.96875 L18.45463 18.83655 L18.07140 18.73373 L17.71195 18.37429 L17.43239 18.09472 L17.30019 17.60199 z"/>
<path fill="#000000" stroke="#000000" d="M0.94737 33.46875 L1.07957 32.97602 L1.18239 32.59278 L1.54183 32.23333 L1.82140 31.95377 L2.31413 31.82157 L2.69737 31.71875 L3.19010 31.85095 L3.57334 31.95377 L3.93278 32.31321 L4.21235 32.59278 L4.34455 33.08551 L4.44737 33.46875 L4.31517 33.96148 L4.21235 34.34472 L3.85291 34.70417 L3.57334 34.98373 L3.08061 35.11593 L2.69737 35.21875 L2.20463 35.08655 L1.82140 34.98373 L1.46195 34.62429 L1.18239 34.34472 L1.05019 33.85199 z"/>
<path fill="#000000" stroke="#000000" d="M30.27760 35.10281 L30.12087 36.18957 L29.76517 37.21634 L29.40946 38.24312 L28.86020 39.19411 L28.31094 40.14509 L27.59467 40.97071 L26.87840 41.79634 L26.02594 42.46694 L25.17348 43.13754 L24.19309 43.64302 L23.21270 44.14849 L22.16543 44.45525 L21.11815 44.76201 L20.03276 44.86538 L18.94737 44.96875 L17.86198 44.86538 L16.77658 44.76201 L15.72931 44.45525 L14.68203 44.14849 L13.70164 43.64302 L12.72125 43.13754 L11.86879 42.46694 L11.01633 41.79634 L10.30007 40.97071 L9.58380 40.14509 L9.03454 39.19411 L8.48527 38.24312 L8.12957 37.21634 L7.77387 36.18957 L7.61713 35.10281 L7.46040 34.01606 L7.51226 32.92515 L7.56412 31.83423 L7.82388 30.76539 L8.08364 29.69656 L8.53770 28.70446 L8.99176 27.71237 L9.62115 26.82841 L10.25054 25.94444 L11.04413 25.18711 L11.83773 24.42978 L12.75942 23.83760 L13.68111 23.24542 L14.68938 22.84144 L15.69766 22.43746 L16.77614 22.22912 L17.85461 22.02079 L18.94737 22.02079 L20.04013 22.02079 L21.11860 22.22912 L22.19707 22.43746 L23.20535 22.84144 L24.21363 23.24542 L25.13532 23.83760 L26.05701 24.42978 L26.85060 25.18711 L27.64419 25.94444 L28.27358 26.82841 L28.90297 27.71237 L29.35703 28.70446 L29.81109 29.69656 L30.07086 30.76539 L30.33062 31.83423 L30.38248 32.92515 L30.43434 34.01606 z"/>
<path fill="#000000" stroke="#000000" d="M9.44737 10.46875 L14.87594 10.46875 L28.44737 10.46875 L28.44737 11.04018 L28.44737 12.46875 L23.01880 12.46875 L9.44737 12.46875 L9.44737 11.89732 z"/>
<path stroke="#000000" d="M 0.00000 7.96875 L 37.87500 7.96875 L 37.87500 58.96875 L 0.00000 58.96875 z"/>
<path stroke="#000000" d="M 1.13839 66.93750 L 3.64286 66.93750 L 2.27679 65.11607 L 2.95982 65.11607 L 3.41518 64.88839 L 3.64286 64.66071 L 3.87054 63.97768 L 3.87054 63.52232 L 3.64286 62.83929 L 3.18750 62.38393 L 2.50446 62.15625 L 1.82143 62.15625 L 1.13839 62.38393 L 0.91071 62.61161 L 0.68304 63.06696"/>
<path stroke="#000000" d="M 8.42411 66.93750 L 6.14732 62.15625 M 5.23661 66.93750 z"/>
<path stroke="#000000" d="M 10.24554 62.61161 L 10.01786 62.38393 L 10.24554 62.15625 L 10.47321 62.38393 z"/>
<path stroke="#000000" d="M 13.20536 66.93750 L 12.52232 66.70982 L 12.29464 66.25446 L 12.29464 65.79911 L 12.52232 65.34375 L 12.97768 65.11607 L 13.88839 64.88839 L 14.57143 64.66071 L 15.02679 64.20536 L 15.25446 63.75000 L 15.25446 63.06696 L 15.02679 62.61161 L 14.79911 62.38393 L 14.11607 62.15625 L 13.20536 62.15625 L 12.52232 62.38393 L 12.29464 62.61161 L 12.06696 63.06696 L 12.06696 63.75000 L 12.29464 64.20536 L 12.75000 64.66071 L 13.43304 64.88839 L 14.34375 65.11607 L 14.79911 65.34375 L 15.02679 65.79911 L 15.02679 66.25446 L 14.79911 66.70982 L 14.11607 66.93750 z"/>
<path stroke="#000000" d="M 19.58036 65.34375 L 19.35268 64.66071 L 18.89732 64.20536 L 18.21429 63.97768 L 17.98661 63.97768 L 17.30357 64.20536 L 16.84821 64.66071 L 16.62054 65.34375 L 16.62054 65.57143 L 16.84821 66.25446 L 17.30357 66.70982 L 17.98661 66.93750 L 18.21429 66.93750 L 18.89732 66.70982 L 19.35268 66.25446 L 19.58036 65.34375 L 19.58036 64.20536 L 19.35268 63.06696 L 18.89732 62.38393 L 18.21429 62.15625 L 17.75893 62.15625 L 17.07589 62.38393 L 16.84821 62.83929"/>
<path stroke="#000000" d=""/>
<path stroke="#000000" d="M 24.81696 65.34375 L 27.32143 62.15625 M 27.32143 65.34375 L 24.81696 62.15625"/>
<path stroke="#000000" d=""/>
<path stroke="#000000" d="M 35.06250 66.93750 L 32.78571 66.93750 L 32.55804 64.88839 L 32.78571 65.11607 L 33.46875 65.34375 L 34.15179 65.34375 L 34.83482 65.11607 L 35.29018 64.66071 L 35.51786 63.97768 L 35.51786 63.52232 L 35.29018 62.83929 L 34.83482 62.38393 L 34.15179 62.15625 L 33.46875 62.15625 L 32.78571 62.38393 L 32.55804 62.61161 L 32.33036 63.06696"/>
<path stroke="#000000" d="M 37.56696 66.02679 L 38.02232 66.25446 L 38.70536 66.93750 L 38.70536 62.15625"/>
</svg>