<?xml version="1.0" encoding="UTF-8"?>
<!-- Generated by jsxcad -->
<!DOCTYPE svg PUBLIC "-//W3C//DTD SVG 1.1 Tiny//EN" "http://www.w3.org/Graphics/SVG/1.1/DTD/svg11-tiny.dtd">
<svg viewBox="-250 -250 500 500" width="500" height="500" xmlns="http://www.w3.org/2000/svg"><path d="M-192.09681765445256,160.13011446341912L144.3039550545297,-174.60652390544516L-152.33333440077678,-88.52448642173695zM-39.30166458228541,0.08783148308542303L11.243426718892708,-52.40986817214041L-37.81934110683899,-39.18281859571654z" style="fill:rgb(83,212,212)"/><path d="M11.689718889359561,-13.164527029140267L14.168330912649205,-46.3130712913356L11.243426718892708,-52.40986817214041zM185.66324177229444,73.74593972261164L146.34302120907637,-168.27653172407742L144.3039550545297,-174.60652390544516z" style="fill:rgb(247,158,158)"/><path d="M11.243426718892708,-52.40986817214041L-39.30166458228541,0.08783148308542303L11.689718889359561,-13.164527029140267z" style="fill:rgb(83,212,212)"/><path d="M14.168330912649205,-46.3130712913356L11.689718889359561,-13.164527029140267L14.727465049345522,-7.054483202743754z" style="fill:rgb(247,158,158)"/><path d="M-36.01015946583449,6.045727238195754L11.689718889359561,-13.164527029140267L-39.30166458228541,0.08783148308542303zM11.689718889359561,-13.164527029140267L-36.01015946583449,6.045727238195754L14.727465049345522,-7.054483202743754z" style="fill:rgb(127,37,217)"/><path d="M144.3039550545297,-174.60652390544516L-192.09681765445256,160.13011446341912L185.66324177229444,73.74593972261164z" style="fill:rgb(83,212,212)"/><path d="M146.34302120907637,-168.27653172407742L185.66324177229444,73.74593972261164L188.00625909177435,80.21736429922603z" style="fill:rgb(247,158,158)"/><path d="M-187.65974373382764,165.50103242993657L185.66324177229444,73.74593972261164L-192.09681765445256,160.13011446341912zM185.66324177229444,73.74593972261164L-187.65974373382764,165.50103242993657L188.00625909177435,80.21736429922603z" style="fill:rgb(127,37,217)"/></svg>
