<?xml version="1.0" encoding="UTF-8"?>
<!-- Generated by jsxcad -->
<!DOCTYPE svg PUBLIC "-//W3C//DTD SVG 1.1 Tiny//EN" "http://www.w3.org/Graphics/SVG/1.1/DTD/svg11-tiny.dtd">
<svg baseProfile="tiny" height="69.24702mm" width="60.10714mm" viewBox="-0.00087 9.35263 60.10714 69.24702" version="1.1" stroke="black" stroke-width=".1" fill="none" xmlns="http://www.w3.org/2000/svg">
<path fill="#000000" stroke="#000000" d="M0.03690 37.89452 L0.46314 35.06368 L4.02032 15.00763 L4.75921 13.29556 L5.85901 11.81734 L7.28118 10.62110 L8.94659 9.78322 L10.76042 9.35359 L27.20928 9.35359 L29.02310 9.78322 L30.68852 10.62110 L32.11069 11.81734 L33.21049 13.29556 L33.94938 15.00763 L37.50655 35.06368 L37.93279 37.89452 L37.93279 40.70548 L37.50655 43.53632 L36.67173 46.24076 L35.43324 48.81054 L33.83786 51.14855 L31.91745 53.21934 L29.70603 54.98618 L27.23931 56.41327 L24.59292 57.45350 L21.81891 58.08745 L18.98485 58.30000 L16.15079 58.08745 L13.37677 57.45350 L10.73039 56.41327 L8.26367 54.98618 L6.05225 53.21934 L4.13184 51.14855 L2.53646 48.81054 L1.29797 46.24076 L0.46314 43.53632 L0.03690 40.70548 z M32.17456 51.23287 L32.17428 50.83750 L32.17391 50.32917 L31.97538 49.98562 L31.72013 49.54391 L31.37629 49.34587 L30.93422 49.09125 L30.53885 49.09153 L30.03052 49.09190 L29.68696 49.29043 L29.24525 49.54569 L29.04722 49.88952 L28.79260 50.33160 L28.79288 50.72697 L28.79324 51.23530 L28.99178 51.57885 L29.24703 52.02056 L29.59087 52.21860 L30.03294 52.47322 L30.42831 52.47293 L30.93664 52.47257 L31.28019 52.27404 L31.72190 52.01878 L31.91994 51.67495 z M9.17710 28.26840 L9.17682 27.87303 L9.17645 27.36470 L8.97792 27.02115 L8.72267 26.57944 L8.37883 26.38140 L7.93675 26.12678 L7.54139 26.12707 L7.03305 26.12743 L6.68950 26.32596 L6.24779 26.58122 L6.04975 26.92505 L5.79513 27.36713 L5.79542 27.76250 L5.79578 28.27083 L5.99431 28.61438 L6.24957 29.05609 L6.59341 29.25413 L7.03548 29.50875 L7.43085 29.50847 L7.93918 29.50810 L8.28273 29.30957 L8.72444 29.05431 L8.92248 28.71048 z M9.19360 51.24937 L9.19332 50.85400 L9.19295 50.34567 L8.99442 50.00212 L8.73916 49.56041 L8.39533 49.36237 L7.95325 49.10775 L7.55788 49.10803 L7.04955 49.10840 L6.70600 49.30693 L6.26429 49.56218 L6.06625 49.90602 L5.81163 50.34809 L5.81191 50.74346 L5.81228 51.25179 L6.01081 51.59535 L6.26607 52.03706 L6.60990 52.23509 L7.05198 52.48972 L7.44735 52.48943 L7.95568 52.48907 L8.29923 52.29053 L8.74094 52.03528 L8.93898 51.69144 z M30.45551 40.12086 L30.42909 39.02421 L30.40266 37.92756 L30.16889 36.85726 L29.93513 35.78696 L29.50711 34.78865 L29.07909 33.79034 L28.46315 32.88087 L27.84722 31.97140 L27.07397 31.19926 L26.30072 30.42711 L25.39036 29.81249 L24.48001 29.19786 L23.48109 28.77128 L22.48216 28.34469 L21.41153 28.11246 L20.34089 27.88023 L19.24420 27.85538 L18.14752 27.83052 L17.07755 28.01130 L16.00757 28.19208 L14.98526 28.57326 L13.96295 28.95444 L13.02390 29.52722 L12.08485 30.10000 L11.27731 30.83530 L10.46978 31.57060 L9.81278 32.45035 L9.15579 33.33011 L8.68197 34.30801 L8.20816 35.28591 L7.92486 36.34695 L7.64156 37.40799 L7.56501 38.49832 L7.48847 39.58866 L7.61784 40.66553 L7.74720 41.74241 L8.08377 42.79283 L8.42034 43.84326 L8.94465 44.80033 L9.46896 45.75739 L10.16396 46.59748 L10.85896 47.43756 L11.70004 48.13135 L12.54112 48.82515 L13.49894 49.34808 L14.45676 49.87102 L15.50767 50.20608 L16.55858 50.54114 L17.63564 50.66896 L18.71270 50.79678 L19.80292 50.71867 L20.89315 50.64056 L21.95378 50.35574 L23.01441 50.07092 L23.99163 49.59570 L24.96885 49.12048 L25.84766 48.46222 L26.72646 47.80396 L27.46060 46.99537 L28.19475 46.18678 L28.76618 45.24691 L29.33760 44.30704 L29.71732 43.28418 L30.09703 42.26132 L30.27627 41.19109 z M32.15807 28.25191 L32.15778 27.85654 L32.15742 27.34821 L31.95889 27.00465 L31.70363 26.56294 L31.35979 26.36491 L30.91772 26.11028 L30.52235 26.11057 L30.01402 26.11093 L29.67047 26.30947 L29.22876 26.56472 L29.03072 26.90856 L28.77610 27.35063 L28.77638 27.74600 L28.77675 28.25433 L28.97528 28.59788 L29.23053 29.03959 L29.57437 29.23763 L30.01645 29.49225 L30.41181 29.49197 L30.92015 29.49160 L31.26370 29.29307 L31.70541 29.03782 L31.90345 28.69398 z M28.48485 14.30000 L28.48485 12.87143 L28.48485 12.30000 L14.91342 12.30000 L9.48485 12.30000 L9.48485 13.72857 L9.48485 14.30000 L23.05628 14.30000 z"/>
<path fill="#000000" stroke="#000000" d="M5.81163 50.34809 L6.06625 49.90602 L6.26429 49.56218 L6.70600 49.30693 L7.04955 49.10840 L7.55788 49.10803 L7.95325 49.10775 L8.39533 49.36237 L8.73916 49.56041 L8.99442 50.00212 L9.19295 50.34567 L9.19332 50.85400 L9.19360 51.24937 L8.93898 51.69144 L8.74094 52.03528 L8.29923 52.29053 L7.95568 52.48907 L7.44735 52.48943 L7.05198 52.48972 L6.60990 52.23509 L6.26607 52.03706 L6.01081 51.59535 L5.81228 51.25179 L5.81191 50.74346 z"/>
<path fill="#000000" stroke="#000000" d="M28.79260 50.33160 L29.04722 49.88952 L29.24525 49.54569 L29.68696 49.29043 L30.03052 49.09190 L30.53885 49.09153 L30.93422 49.09125 L31.37629 49.34587 L31.72013 49.54391 L31.97538 49.98562 L32.17391 50.32917 L32.17428 50.83750 L32.17456 51.23287 L31.91994 51.67495 L31.72190 52.01878 L31.28019 52.27404 L30.93664 52.47257 L30.42831 52.47293 L30.03294 52.47322 L29.59087 52.21860 L29.24703 52.02056 L28.99178 51.57885 L28.79324 51.23530 L28.79288 50.72697 z"/>
<path fill="#000000" stroke="#000000" d="M28.77610 27.35063 L29.03072 26.90856 L29.22876 26.56472 L29.67047 26.30947 L30.01402 26.11093 L30.52235 26.11057 L30.91772 26.11028 L31.35979 26.36491 L31.70363 26.56294 L31.95889 27.00465 L32.15742 27.34821 L32.15778 27.85654 L32.15807 28.25191 L31.90345 28.69398 L31.70541 29.03782 L31.26370 29.29307 L30.92015 29.49160 L30.41181 29.49197 L30.01645 29.49225 L29.57437 29.23763 L29.23053 29.03959 L28.97528 28.59788 L28.77675 28.25433 L28.77638 27.74600 z"/>
<path fill="#000000" stroke="#000000" d="M5.79513 27.36713 L6.04975 26.92505 L6.24779 26.58122 L6.68950 26.32596 L7.03305 26.12743 L7.54139 26.12707 L7.93675 26.12678 L8.37883 26.38140 L8.72267 26.57944 L8.97792 27.02115 L9.17645 27.36470 L9.17682 27.87303 L9.17710 28.26840 L8.92248 28.71048 L8.72444 29.05431 L8.28273 29.30957 L7.93918 29.50810 L7.43085 29.50847 L7.03548 29.50875 L6.59341 29.25413 L6.24957 29.05609 L5.99431 28.61438 L5.79578 28.27083 L5.79542 27.76250 z"/>
<path fill="#000000" stroke="#000000" d="M30.27627 41.19109 L30.09703 42.26132 L29.71732 43.28418 L29.33760 44.30704 L28.76618 45.24691 L28.19475 46.18678 L27.46060 46.99537 L26.72646 47.80396 L25.84766 48.46222 L24.96885 49.12048 L23.99163 49.59570 L23.01441 50.07092 L21.95378 50.35574 L20.89315 50.64056 L19.80292 50.71867 L18.71270 50.79678 L17.63564 50.66896 L16.55858 50.54114 L15.50767 50.20608 L14.45676 49.87102 L13.49894 49.34808 L12.54112 48.82515 L11.70004 48.13135 L10.85896 47.43756 L10.16396 46.59748 L9.46896 45.75739 L8.94465 44.80033 L8.42034 43.84326 L8.08377 42.79283 L7.74720 41.74241 L7.61784 40.66553 L7.48847 39.58866 L7.56501 38.49832 L7.64156 37.40799 L7.92486 36.34695 L8.20816 35.28591 L8.68197 34.30801 L9.15579 33.33011 L9.81278 32.45035 L10.46978 31.57060 L11.27731 30.83530 L12.08485 30.10000 L13.02390 29.52722 L13.96295 28.95444 L14.98526 28.57326 L16.00757 28.19208 L17.07755 28.01130 L18.14752 27.83052 L19.24420 27.85538 L20.34089 27.88023 L21.41153 28.11246 L22.48216 28.34469 L23.48109 28.77128 L24.48001 29.19786 L25.39036 29.81249 L26.30072 30.42711 L27.07397 31.19926 L27.84722 31.97140 L28.46315 32.88087 L29.07909 33.79034 L29.50711 34.78865 L29.93513 35.78696 L30.16889 36.85726 L30.40266 37.92756 L30.42909 39.02421 L30.45551 40.12086 z"/>
<path fill="#000000" stroke="#000000" d="M9.48485 12.30000 L14.91342 12.30000 L28.48485 12.30000 L28.48485 12.87143 L28.48485 14.30000 L23.05628 14.30000 L9.48485 14.30000 L9.48485 13.72857 z"/>
<path stroke="#000000" d="M -0.00087 9.35263 L 37.99913 9.35263 L 37.99913 69.18596 L -0.00087 69.18596 z"/>
<path stroke="#000000" d="M 1.33485 78.59966 L 4.27342 78.59966 L 2.67056 76.46251 L 3.47199 76.46251 L 4.00628 76.19537 L 4.27342 75.92823 L 4.54056 75.12680 L 4.54056 74.59251 L 4.27342 73.79108 L 3.73913 73.25680 L 2.93771 72.98966 L 2.13628 72.98966 L 1.33485 73.25680 L 1.06771 73.52394 L 0.80056 74.05823"/>
<path stroke="#000000" d="M 9.88342 78.59966 L 7.21199 72.98966 M 6.14342 78.59966 z"/>
<path stroke="#000000" d="M 12.02056 73.52394 L 11.75342 73.25680 L 12.02056 72.98966 L 12.28771 73.25680 z"/>
<path stroke="#000000" d="M 17.63056 76.72966 L 17.36342 75.92823 L 16.82913 75.39394 L 16.02771 75.12680 L 15.76056 75.12680 L 14.95913 75.39394 L 14.42485 75.92823 L 14.15771 76.72966 L 14.15771 76.99680 L 14.42485 77.79823 L 14.95913 78.33251 L 15.76056 78.59966 L 16.02771 78.59966 L 16.82913 78.33251 L 17.36342 77.79823 L 17.63056 76.72966 L 17.63056 75.39394 L 17.36342 74.05823 L 16.82913 73.25680 L 16.02771 72.98966 L 15.49342 72.98966 L 14.69199 73.25680 L 14.42485 73.79108"/>
<path stroke="#000000" d="M 23.24056 78.59966 L 20.56913 72.98966 M 19.50056 78.59966 z"/>
<path stroke="#000000" d=""/>
<path stroke="#000000" d="M 29.11771 76.72966 L 32.05628 72.98966 M 32.05628 76.72966 L 29.11771 72.98966"/>
<path stroke="#000000" d=""/>
<path stroke="#000000" d="M 41.13913 78.59966 L 38.46771 78.59966 L 38.20056 76.19537 L 38.46771 76.46251 L 39.26913 76.72966 L 40.07056 76.72966 L 40.87199 76.46251 L 41.40628 75.92823 L 41.67342 75.12680 L 41.67342 74.59251 L 41.40628 73.79108 L 40.87199 73.25680 L 40.07056 72.98966 L 39.26913 72.98966 L 38.46771 73.25680 L 38.20056 73.52394 L 37.93342 74.05823"/>
<path stroke="#000000" d="M 46.74913 76.72966 L 46.48199 75.92823 L 45.94771 75.39394 L 45.14628 75.12680 L 44.87913 75.12680 L 44.07771 75.39394 L 43.54342 75.92823 L 43.27628 76.72966 L 43.27628 76.99680 L 43.54342 77.79823 L 44.07771 78.33251 L 44.87913 78.59966 L 45.14628 78.59966 L 45.94771 78.33251 L 46.48199 77.79823 L 46.74913 76.72966 L 46.74913 75.39394 L 46.48199 74.05823 L 45.94771 73.25680 L 45.14628 72.98966 L 44.61199 72.98966 L 43.81056 73.25680 L 43.54342 73.79108"/>
<path stroke="#000000" d="M 49.15342 73.52394 L 48.88628 73.25680 L 49.15342 72.98966 L 49.42056 73.25680 z"/>
<path stroke="#000000" d="M 52.62628 78.59966 L 51.82485 78.33251 L 51.55771 77.79823 L 51.55771 77.26394 L 51.82485 76.72966 L 52.35913 76.46251 L 53.42771 76.19537 L 54.22913 75.92823 L 54.76342 75.39394 L 55.03056 74.85966 L 55.03056 74.05823 L 54.76342 73.52394 L 54.49628 73.25680 L 53.69485 72.98966 L 52.62628 72.98966 L 51.82485 73.25680 L 51.55771 73.52394 L 51.29056 74.05823 L 51.29056 74.85966 L 51.55771 75.39394 L 52.09199 75.92823 L 52.89342 76.19537 L 53.96199 76.46251 L 54.49628 76.72966 L 54.76342 77.26394 L 54.76342 77.79823 L 54.49628 78.33251 L 53.69485 78.59966 z"/>
<path stroke="#000000" d="M 60.10628 76.72966 L 59.83913 75.92823 L 59.30485 75.39394 L 58.50342 75.12680 L 58.23628 75.12680 L 57.43485 75.39394 L 56.90056 75.92823 L 56.63342 76.72966 L 56.63342 76.99680 L 56.90056 77.79823 L 57.43485 78.33251 L 58.23628 78.59966 L 58.50342 78.59966 L 59.30485 78.33251 L 59.83913 77.79823 L 60.10628 76.72966 L 60.10628 75.39394 L 59.83913 74.05823 L 59.30485 73.25680 L 58.50342 72.98966 L 57.96913 72.98966 L 57.16771 73.25680 L 56.90056 73.79108"/>
</svg>