<?xml version="1.0" encoding="UTF-8"?>
<!-- Generated by jsxcad -->
<!DOCTYPE svg PUBLIC "-//W3C//DTD SVG 1.1 Tiny//EN" "http://www.w3.org/Graphics/SVG/1.1/DTD/svg11-tiny.dtd">
<svg baseProfile="tiny" height="58.96875mm" width="38.70593mm" viewBox="-0.00058 7.96875 38.70593 58.96875" version="1.1" stroke="black" stroke-width=".1" fill="none" xmlns="http://www.w3.org/2000/svg">
<path fill="#000000" stroke="#000000" d="M-0.00058 32.06327 L0.42566 29.23243 L2.66134 14.57355 L3.29143 12.77596 L4.30260 11.16808 L5.64670 9.82398 L7.25458 8.81282 L9.05217 8.18272 L10.94737 7.96875 L26.94737 7.96875 L28.84256 8.18272 L30.64015 8.81282 L32.24804 9.82398 L33.59213 11.16808 L34.60330 12.77596 L35.23339 14.57355 L37.46907 29.23243 L37.89531 32.06327 L37.89531 34.87423 L37.46907 37.70507 L36.63425 40.40951 L35.39576 42.97929 L33.80038 45.31730 L31.87997 47.38809 L29.66855 49.15493 L27.20183 50.58202 L24.55544 51.62225 L21.78143 52.25620 L18.94737 52.46875 L16.11331 52.25620 L13.33929 51.62225 L10.69291 50.58202 L8.22619 49.15493 L6.01477 47.38809 L4.09436 45.31730 L2.49898 42.97929 L1.26049 40.40951 L0.42566 37.70507 L-0.00058 34.87423 z M30.44737 12.46875 L30.44737 11.04018 L30.44737 10.46875 L14.01880 10.46875 L7.44737 10.46875 L7.44737 11.89732 L7.44737 12.46875 L23.87594 12.46875 z M29.94737 33.46875 L29.84265 32.40059 L29.73792 31.33242 L29.42600 30.30071 L29.11409 29.26900 L28.60558 28.31589 L28.09707 27.36278 L27.40852 26.52389 L26.71996 25.68499 L25.88665 25.00202 L25.05334 24.31904 L24.10023 23.81054 L23.14711 23.30203 L22.11541 22.99011 L21.08370 22.67819 L20.01553 22.57347 L18.94737 22.46875 L17.87920 22.57347 L16.81104 22.67819 L15.77933 22.99011 L14.74762 23.30203 L13.79451 23.81054 L12.84140 24.31904 L12.00250 25.00760 L11.16361 25.69616 L10.48064 26.52947 L9.79766 27.36278 L9.28916 28.31589 L8.78065 29.26900 L8.46873 30.30071 L8.15681 31.33242 L8.05209 32.40059 L7.94737 33.46875 L8.05209 34.53691 L8.15681 35.60508 L8.46873 36.63679 L8.78065 37.66850 L9.28916 38.62161 L9.79766 39.57472 L10.48064 40.40803 L11.16361 41.24134 L12.00250 41.92990 L12.84140 42.61846 L13.79451 43.12696 L14.74762 43.63547 L15.77933 43.94739 L16.81104 44.25931 L17.87920 44.36403 L18.94737 44.46875 L20.01553 44.36403 L21.08370 44.25931 L22.11541 43.94739 L23.14711 43.63547 L24.10023 43.12696 L25.05334 42.61846 L25.89223 41.92990 L26.73112 41.24134 L27.41410 40.40803 L28.09707 39.57472 L28.60558 38.62161 L29.11409 37.66850 L29.42600 36.63679 L29.73792 35.60508 L29.84265 34.53691 z M34.88897 18.62933 L31.60430 15.87647 L30.29043 14.77532 L29.37281 15.87021 L29.00576 16.30817 L32.29043 19.06103 L33.60430 20.16218 L34.52193 19.06729 z"/>
<path fill="#000000" stroke="#000000" d="M29.84265 34.53691 L29.73792 35.60508 L29.42600 36.63679 L29.11409 37.66850 L28.60558 38.62161 L28.09707 39.57472 L27.41410 40.40803 L26.73112 41.24134 L25.89223 41.92990 L25.05334 42.61846 L24.10023 43.12696 L23.14711 43.63547 L22.11541 43.94739 L21.08370 44.25931 L20.01553 44.36403 L18.94737 44.46875 L17.87920 44.36403 L16.81104 44.25931 L15.77933 43.94739 L14.74762 43.63547 L13.79451 43.12696 L12.84140 42.61846 L12.00250 41.92990 L11.16361 41.24134 L10.48064 40.40803 L9.79766 39.57472 L9.28916 38.62161 L8.78065 37.66850 L8.46873 36.63679 L8.15681 35.60508 L8.05209 34.53691 L7.94737 33.46875 L8.05209 32.40059 L8.15681 31.33242 L8.46873 30.30071 L8.78065 29.26900 L9.28916 28.31589 L9.79766 27.36278 L10.48064 26.52947 L11.16361 25.69616 L12.00250 25.00760 L12.84140 24.31904 L13.79451 23.81054 L14.74762 23.30203 L15.77933 22.99011 L16.81104 22.67819 L17.87920 22.57347 L18.94737 22.46875 L20.01553 22.57347 L21.08370 22.67819 L22.11541 22.99011 L23.14711 23.30203 L24.10023 23.81054 L25.05334 24.31904 L25.88665 25.00202 L26.71996 25.68499 L27.40852 26.52389 L28.09707 27.36278 L28.60558 28.31589 L29.11409 29.26900 L29.42600 30.30071 L29.73792 31.33242 L29.84265 32.40059 L29.94737 33.46875 z"/>
<path fill="#000000" stroke="#000000" d="M7.44737 10.46875 L14.01880 10.46875 L30.44737 10.46875 L30.44737 11.04018 L30.44737 12.46875 L23.87594 12.46875 L7.44737 12.46875 L7.44737 11.89732 z"/>
<path fill="#000000" stroke="#000000" d="M34.52193 19.06729 L33.60430 20.16218 L32.29043 19.06103 L29.00576 16.30817 L29.37281 15.87021 L30.29043 14.77532 L31.60430 15.87647 L34.88897 18.62933 z"/>
<path stroke="#000000" d="M 0.00000 7.96875 L 37.87500 7.96875 L 37.87500 58.96875 L 0.00000 58.96875 z"/>
<path stroke="#000000" d="M 1.13839 66.93750 L 3.64286 66.93750 L 2.27679 65.11607 L 2.95982 65.11607 L 3.41518 64.88839 L 3.64286 64.66071 L 3.87054 63.97768 L 3.87054 63.52232 L 3.64286 62.83929 L 3.18750 62.38393 L 2.50446 62.15625 L 1.82143 62.15625 L 1.13839 62.38393 L 0.91071 62.61161 L 0.68304 63.06696"/>
<path stroke="#000000" d="M 8.42411 66.93750 L 6.14732 62.15625 M 5.23661 66.93750 z"/>
<path stroke="#000000" d="M 10.24554 62.61161 L 10.01786 62.38393 L 10.24554 62.15625 L 10.47321 62.38393 z"/>
<path stroke="#000000" d="M 13.20536 66.93750 L 12.52232 66.70982 L 12.29464 66.25446 L 12.29464 65.79911 L 12.52232 65.34375 L 12.97768 65.11607 L 13.88839 64.88839 L 14.57143 64.66071 L 15.02679 64.20536 L 15.25446 63.75000 L 15.25446 63.06696 L 15.02679 62.61161 L 14.79911 62.38393 L 14.11607 62.15625 L 13.20536 62.15625 L 12.52232 62.38393 L 12.29464 62.61161 L 12.06696 63.06696 L 12.06696 63.75000 L 12.29464 64.20536 L 12.75000 64.66071 L 13.43304 64.88839 L 14.34375 65.11607 L 14.79911 65.34375 L 15.02679 65.79911 L 15.02679 66.25446 L 14.79911 66.70982 L 14.11607 66.93750 z"/>
<path stroke="#000000" d="M 19.58036 65.34375 L 19.35268 64.66071 L 18.89732 64.20536 L 18.21429 63.97768 L 17.98661 63.97768 L 17.30357 64.20536 L 16.84821 64.66071 L 16.62054 65.34375 L 16.62054 65.57143 L 16.84821 66.25446 L 17.30357 66.70982 L 17.98661 66.93750 L 18.21429 66.93750 L 18.89732 66.70982 L 19.35268 66.25446 L 19.58036 65.34375 L 19.58036 64.20536 L 19.35268 63.06696 L 18.89732 62.38393 L 18.21429 62.15625 L 17.75893 62.15625 L 17.07589 62.38393 L 16.84821 62.83929"/>
<path stroke="#000000" d=""/>
<path stroke="#000000" d="M 24.81696 65.34375 L 27.32143 62.15625 M 27.32143 65.34375 L 24.81696 62.15625"/>
<path stroke="#000000" d=""/>
<path stroke="#000000" d="M 35.06250 66.93750 L 32.78571 66.93750 L 32.55804 64.88839 L 32.78571 65.11607 L 33.46875 65.34375 L 34.15179 65.34375 L 34.83482 65.11607 L 35.29018 64.66071 L 35.51786 63.97768 L 35.51786 63.52232 L 35.29018 62.83929 L 34.83482 62.38393 L 34.15179 62.15625 L 33.46875 62.15625 L 32.78571 62.38393 L 32.55804 62.61161 L 32.33036 63.06696"/>
<path stroke="#000000" d="M 37.56696 66.02679 L 38.02232 66.25446 L 38.70536 66.93750 L 38.70536 62.15625"/>
</svg>