<?xml version="1.0" encoding="UTF-8"?>
<!-- Generated by jsxcad -->
<!DOCTYPE svg PUBLIC "-//W3C//DTD SVG 1.1 Tiny//EN" "http://www.w3.org/Graphics/SVG/1.1/DTD/svg11-tiny.dtd">
<svg viewBox="-250 -250 500 500" width="500" height="500" xmlns="http://www.w3.org/2000/svg"><path d="M-95.72228460269778,69.64767035533681L9.864811018750306,-10.420060162623546L-91.07823256927479,15.757946070235237zM-122.21330562668042,128.91336154872278L161.1643310336021,-106.2362641492083L-105.24185954673105,-33.565690726422275zM-182.4111492767332,92.11694991734834L-76.302810130361,-66.77710086594558L-160.62367457845863,-43.23826020517835z" style="fill:rgb(83,212,212)"/><path d="M12.313005216439924,-5.525672894755972L9.864811018750306,-10.420060162623546L10.38132370719304,43.546294646560455zM-58.57723379757943,-34.695535703064344L-76.302810130361,-66.77710086594558L-86.9085546808332,68.65168424382358z" style="fill:rgb(247,158,158)"/><path d="M10.284396978066715,33.419181057619575L48.61990182815247,-11.044418898895124L9.953955920492415,-1.1060101765421566zM-95.72228460269778,69.64767035533681L10.38132370719304,43.546294646560455L9.864811018750306,-10.420060162623546z" style="fill:rgb(83,212,212)"/><path d="M50.929886920454244,-6.056201805783714L48.61990182815247,-11.044418898895124L50.24983531503656,23.487722036652695z" style="fill:rgb(247,158,158)"/><path d="M12.954547315130842,48.43152343408412L-95.72228460269778,69.64767035533681L-92.71017449151749,74.28129722106897z" style="fill:rgb(127,37,217)"/><path d="M12.313005216439924,-5.525672894755972L10.38132370719304,43.546294646560455L12.954547315130842,48.43152343408412z" style="fill:rgb(247,158,158)"/><path d="M10.284396978066715,33.419181057619575L50.24983531503656,23.487722036652695L48.61990182815247,-11.044418898895124z" style="fill:rgb(83,212,212)"/><path d="M50.929886920454244,-6.056201805783714L50.24983531503656,23.487722036652695L52.628899091100365,28.47323635583617z" style="fill:rgb(247,158,158)"/><path d="M12.954547315130842,48.43152343408412L10.38132370719304,43.546294646560455L-95.72228460269778,69.64767035533681zM12.834181882241282,38.30813186224229L50.24983531503656,23.487722036652695L10.284396978066715,33.419181057619575zM12.834181882241282,38.30813186224229L52.628899091100365,28.47323635583617L50.24983531503656,23.487722036652695z" style="fill:rgb(127,37,217)"/><path d="M162.89685312250987,-100.93197369619156L161.1643310336021,-106.2362641492083L189.21643628787115,56.48810651273646zM-58.57723379757943,-34.695535703064344L-86.9085546808332,68.65168424382358L-66.4518403185649,100.59884637190376z" style="fill:rgb(247,158,158)"/><path d="M-182.4111492767332,92.11694991734834L-86.9085546808332,68.65168424382358L-76.302810130361,-66.77710086594558z" style="fill:rgb(83,212,212)"/><path d="M-66.4518403185649,100.59884637190376L-182.4111492767332,92.11694991734834L-159.369138102108,122.5657240623928z" style="fill:rgb(127,37,217)"/><path d="M-122.21330562668042,128.91336154872278L189.21643628787115,56.48810651273646L161.1643310336021,-106.2362641492083z" style="fill:rgb(83,212,212)"/><path d="M-66.4518403185649,100.59884637190376L-86.9085546808332,68.65168424382358L-182.4111492767332,92.11694991734834z" style="fill:rgb(127,37,217)"/><path d="M162.89685312250987,-100.93197369619156L189.21643628787115,56.48810651273646L191.09680223381037,61.82845342366083z" style="fill:rgb(247,158,158)"/><path d="M191.09680223381037,61.82845342366083L-122.21330562668042,128.91336154872278L-118.90562091852003,133.49910978865964zM191.09680223381037,61.82845342366083L189.21643628787115,56.48810651273646L-122.21330562668042,128.91336154872278z" style="fill:rgb(127,37,217)"/></svg>
