<?xml version="1.0" encoding="UTF-8"?>
<!-- Generated by jsxcad -->
<!DOCTYPE svg PUBLIC "-//W3C//DTD SVG 1.1 Tiny//EN" "http://www.w3.org/Graphics/SVG/1.1/DTD/svg11-tiny.dtd">
<svg baseProfile="tiny" height="48.94641mm" width="37.89589mm" viewBox="-0.00058 -10.94641 37.89589 48.94641" version="1.1" stroke="black" stroke-width=".1" fill="none" xmlns="http://www.w3.org/2000/svg">
<path fill="#000000" stroke="#000000" d="M-0.00058 17.59452 L0.42566 14.76368 L3.98284 -5.29237 L4.72173 -7.00444 L5.82153 -8.48266 L7.24370 -9.67890 L8.90911 -10.51678 L10.72294 -10.94641 L27.17180 -10.94641 L28.98562 -10.51678 L30.65104 -9.67890 L32.07321 -8.48266 L33.17301 -7.00444 L33.91190 -5.29237 L37.46907 14.76368 L37.89531 17.59452 L37.89531 20.40548 L37.46907 23.23632 L36.63425 25.94076 L35.39576 28.51054 L33.80038 30.84855 L31.87997 32.91934 L29.66855 34.68618 L27.20183 36.11327 L24.55544 37.15350 L21.78143 37.78745 L18.94737 38.00000 L16.11331 37.78745 L13.33929 37.15350 L10.69291 36.11327 L8.22619 34.68618 L6.01477 32.91934 L4.09436 30.84855 L2.49898 28.51054 L1.26049 25.94076 L0.42566 23.23632 L-0.00058 20.40548 z M32.13708 30.93287 L32.13680 30.53750 L32.13643 30.02917 L31.93790 29.68562 L31.68265 29.24391 L31.33881 29.04587 L30.89674 28.79125 L30.50137 28.79153 L29.99304 28.79190 L29.64948 28.99043 L29.20777 29.24569 L29.00974 29.58952 L28.75512 30.03160 L28.75540 30.42697 L28.75576 30.93530 L28.95430 31.27885 L29.20955 31.72056 L29.55339 31.91860 L29.99546 32.17322 L30.39083 32.17293 L30.89916 32.17257 L31.24271 31.97404 L31.68442 31.71878 L31.88246 31.37495 z M9.13962 7.96840 L9.13934 7.57303 L9.13897 7.06470 L8.94044 6.72115 L8.68519 6.27944 L8.34135 6.08140 L7.89927 5.82678 L7.50390 5.82707 L6.99557 5.82743 L6.65202 6.02596 L6.21031 6.28122 L6.01227 6.62505 L5.75765 7.06713 L5.75794 7.46250 L5.75830 7.97083 L5.95683 8.31438 L6.21209 8.75609 L6.55593 8.95413 L6.99800 9.20875 L7.39337 9.20847 L7.90170 9.20810 L8.24525 9.00957 L8.68696 8.75431 L8.88500 8.41048 z M9.15612 30.94937 L9.15584 30.55400 L9.15547 30.04567 L8.95694 29.70212 L8.70168 29.26041 L8.35785 29.06237 L7.91577 28.80775 L7.52040 28.80803 L7.01207 28.80840 L6.66852 29.00693 L6.22681 29.26218 L6.02877 29.60602 L5.77415 30.04809 L5.77443 30.44346 L5.77480 30.95179 L5.97333 31.29535 L6.22859 31.73706 L6.57242 31.93509 L7.01450 32.18972 L7.40987 32.18943 L7.91820 32.18907 L8.26175 31.99053 L8.70346 31.73528 L8.90150 31.39144 z M30.41803 19.82086 L30.39161 18.72421 L30.36518 17.62756 L30.13141 16.55726 L29.89765 15.48696 L29.46963 14.48865 L29.04161 13.49034 L28.42567 12.58087 L27.80974 11.67140 L27.03649 10.89926 L26.26324 10.12711 L25.35288 9.51249 L24.44253 8.89786 L23.44361 8.47128 L22.44468 8.04469 L21.37405 7.81246 L20.30341 7.58023 L19.20672 7.55538 L18.11004 7.53052 L17.04007 7.71130 L15.97009 7.89208 L14.94778 8.27326 L13.92547 8.65444 L12.98642 9.22722 L12.04737 9.80000 L11.23983 10.53530 L10.43230 11.27060 L9.77530 12.15035 L9.11831 13.03011 L8.64449 14.00801 L8.17068 14.98591 L7.88738 16.04695 L7.60408 17.10799 L7.52753 18.19832 L7.45099 19.28866 L7.58036 20.36553 L7.70972 21.44241 L8.04629 22.49283 L8.38286 23.54326 L8.90717 24.50033 L9.43148 25.45739 L10.12648 26.29748 L10.82148 27.13756 L11.66256 27.83135 L12.50364 28.52515 L13.46146 29.04808 L14.41928 29.57102 L15.47019 29.90608 L16.52110 30.24114 L17.59816 30.36896 L18.67522 30.49678 L19.76544 30.41867 L20.85567 30.34056 L21.91630 30.05574 L22.97693 29.77092 L23.95415 29.29570 L24.93137 28.82048 L25.81018 28.16222 L26.68898 27.50396 L27.42312 26.69537 L28.15727 25.88678 L28.72870 24.94691 L29.30012 24.00704 L29.67984 22.98418 L30.05955 21.96132 L30.23879 20.89109 z M32.12059 7.95191 L32.12030 7.55654 L32.11994 7.04821 L31.92141 6.70465 L31.66615 6.26294 L31.32231 6.06491 L30.88024 5.81028 L30.48487 5.81057 L29.97654 5.81093 L29.63299 6.00947 L29.19128 6.26472 L28.99324 6.60856 L28.73862 7.05063 L28.73890 7.44600 L28.73927 7.95433 L28.93780 8.29788 L29.19305 8.73959 L29.53689 8.93763 L29.97897 9.19225 L30.37433 9.19197 L30.88267 9.19160 L31.22622 8.99307 L31.66793 8.73782 L31.86597 8.39398 z M28.44737 -6.00000 L28.44737 -7.42857 L28.44737 -8.00000 L14.87594 -8.00000 L9.44737 -8.00000 L9.44737 -6.57143 L9.44737 -6.00000 L23.01880 -6.00000 z"/>
<path fill="#000000" stroke="#000000" d="M5.77415 30.04809 L6.02877 29.60602 L6.22681 29.26218 L6.66852 29.00693 L7.01207 28.80840 L7.52040 28.80803 L7.91577 28.80775 L8.35785 29.06237 L8.70168 29.26041 L8.95694 29.70212 L9.15547 30.04567 L9.15584 30.55400 L9.15612 30.94937 L8.90150 31.39144 L8.70346 31.73528 L8.26175 31.99053 L7.91820 32.18907 L7.40987 32.18943 L7.01450 32.18972 L6.57242 31.93509 L6.22859 31.73706 L5.97333 31.29535 L5.77480 30.95179 L5.77443 30.44346 z"/>
<path fill="#000000" stroke="#000000" d="M28.75512 30.03160 L29.00974 29.58952 L29.20777 29.24569 L29.64948 28.99043 L29.99304 28.79190 L30.50137 28.79153 L30.89674 28.79125 L31.33881 29.04587 L31.68265 29.24391 L31.93790 29.68562 L32.13643 30.02917 L32.13680 30.53750 L32.13708 30.93287 L31.88246 31.37495 L31.68442 31.71878 L31.24271 31.97404 L30.89916 32.17257 L30.39083 32.17293 L29.99546 32.17322 L29.55339 31.91860 L29.20955 31.72056 L28.95430 31.27885 L28.75576 30.93530 L28.75540 30.42697 z"/>
<path fill="#000000" stroke="#000000" d="M28.73862 7.05063 L28.99324 6.60856 L29.19128 6.26472 L29.63299 6.00947 L29.97654 5.81093 L30.48487 5.81057 L30.88024 5.81028 L31.32231 6.06491 L31.66615 6.26294 L31.92141 6.70465 L32.11994 7.04821 L32.12030 7.55654 L32.12059 7.95191 L31.86597 8.39398 L31.66793 8.73782 L31.22622 8.99307 L30.88267 9.19160 L30.37433 9.19197 L29.97897 9.19225 L29.53689 8.93763 L29.19305 8.73959 L28.93780 8.29788 L28.73927 7.95433 L28.73890 7.44600 z"/>
<path fill="#000000" stroke="#000000" d="M5.75765 7.06713 L6.01227 6.62505 L6.21031 6.28122 L6.65202 6.02596 L6.99557 5.82743 L7.50390 5.82707 L7.89927 5.82678 L8.34135 6.08140 L8.68519 6.27944 L8.94044 6.72115 L9.13897 7.06470 L9.13934 7.57303 L9.13962 7.96840 L8.88500 8.41048 L8.68696 8.75431 L8.24525 9.00957 L7.90170 9.20810 L7.39337 9.20847 L6.99800 9.20875 L6.55593 8.95413 L6.21209 8.75609 L5.95683 8.31438 L5.75830 7.97083 L5.75794 7.46250 z"/>
<path fill="#000000" stroke="#000000" d="M30.23879 20.89109 L30.05955 21.96132 L29.67984 22.98418 L29.30012 24.00704 L28.72870 24.94691 L28.15727 25.88678 L27.42312 26.69537 L26.68898 27.50396 L25.81018 28.16222 L24.93137 28.82048 L23.95415 29.29570 L22.97693 29.77092 L21.91630 30.05574 L20.85567 30.34056 L19.76544 30.41867 L18.67522 30.49678 L17.59816 30.36896 L16.52110 30.24114 L15.47019 29.90608 L14.41928 29.57102 L13.46146 29.04808 L12.50364 28.52515 L11.66256 27.83135 L10.82148 27.13756 L10.12648 26.29748 L9.43148 25.45739 L8.90717 24.50033 L8.38286 23.54326 L8.04629 22.49283 L7.70972 21.44241 L7.58036 20.36553 L7.45099 19.28866 L7.52753 18.19832 L7.60408 17.10799 L7.88738 16.04695 L8.17068 14.98591 L8.64449 14.00801 L9.11831 13.03011 L9.77530 12.15035 L10.43230 11.27060 L11.23983 10.53530 L12.04737 9.80000 L12.98642 9.22722 L13.92547 8.65444 L14.94778 8.27326 L15.97009 7.89208 L17.04007 7.71130 L18.11004 7.53052 L19.20672 7.55538 L20.30341 7.58023 L21.37405 7.81246 L22.44468 8.04469 L23.44361 8.47128 L24.44253 8.89786 L25.35288 9.51249 L26.26324 10.12711 L27.03649 10.89926 L27.80974 11.67140 L28.42567 12.58087 L29.04161 13.49034 L29.46963 14.48865 L29.89765 15.48696 L30.13141 16.55726 L30.36518 17.62756 L30.39161 18.72421 L30.41803 19.82086 z"/>
<path fill="#000000" stroke="#000000" d="M9.44737 -8.00000 L14.87594 -8.00000 L28.44737 -8.00000 L28.44737 -7.42857 L28.44737 -6.00000 L23.01880 -6.00000 L9.44737 -6.00000 L9.44737 -6.57143 z"/>
</svg>