<?xml version="1.0" encoding="UTF-8"?>
<!-- Generated by jsxcad -->
<!DOCTYPE svg PUBLIC "-//W3C//DTD SVG 1.1 Tiny//EN" "http://www.w3.org/Graphics/SVG/1.1/DTD/svg11-tiny.dtd">
<svg baseProfile="tiny" height="44.00000000000003mm" width="36.97284698486331mm" viewBox="0 0 36.97284698486331 44.00000000000003" version="1.1" stroke="black" stroke-width=".1" fill="none" xmlns="http://www.w3.org/2000/svg">
<path fill="#008000" stroke="#008000" d="M30.25691 7.72745 L32.29766 9.69147 L34.01468 11.944 L35.36774 14.43223 L36.32511 17.09784 L36.86436 19.87836 L36.97285 22.7086 L36.64803 25.52224 L34.72633 41.08663 L33.60234 43.64906 L31.70723 45.70769 L29.24637 47.03945 L26.48642 47.5 L10.48642 47.5 L7.72648 47.03945 L5.26562 45.70769 L3.37051 43.64906 L2.24652 41.08663 L0.32482 25.52224 L0 22.7086 L0.10848 19.87836 L0.64773 17.09784 L1.60511 14.43223 L2.95816 11.944 L4.67519 9.69147 L6.71594 7.72745 L9.03258 6.09796 L11.57081 4.84121 L14.27113 3.98664 L17.07026 3.55428 L19.90258 3.55428 L22.70171 3.98664 L25.40204 4.84121 L27.94027 6.09796 z"/>
<path fill="#008000" stroke="#008000" d="M12.39312 13.60924 L12.39312 13.99147 L12.39312 14.53641 L12.39312 15.34082 L12.39312 15.52577 L12.39312 15.75977 L12.39312 16.39076 L12.46375 16.53741 L12.79541 17.22611 L12.92667 17.49868 L12.99097 17.63219 L13.0735 17.80357 L13.3943 18.46972 L13.59998 18.89681 L13.93052 19.16041 L14.21004 19.38332 L14.32487 19.47489 L15.39752 20.33031 L15.77465 20.63106 L16.67857 20.83737 L18.48642 21.25 L19.39035 21.04369 L21.1982 20.63106 L21.92309 20.05297 L23.0593 19.14687 L23.37287 18.89681 L23.77515 18.06146 L24.27255 17.0286 L24.40737 16.74864 L24.44089 16.67905 L24.57972 16.39076 L24.57972 15.994 L24.57972 15.46359 L24.57972 15.26844 L24.57972 15.04954 L24.57972 14.92987 L24.57972 13.60924 L24.57475 13.59891 L24.2542 12.93328 L24.17744 12.77389 L24.04318 12.49509 L23.72642 11.83734 L23.6452 11.66869 L23.38561 11.12965 L23.37287 11.10319 L22.66578 10.53931 L22.64798 10.52511 L21.858 9.89512 L21.85263 9.89083 L21.81439 9.86035 L21.72781 9.7913 L21.1982 9.36894 L20.29427 9.16263 L19.51209 8.9841 L18.48642 8.75 L17.5825 8.95631 L16.32859 9.24251 L15.77465 9.36894 L15.04976 9.94703 L13.59998 11.10319 L13.28876 11.74944 L13.19769 11.93854 z"/>
<path fill="#008000" stroke="#008000" d="M6.98642 44.709 L6.98642 45 L7.07883 45 L9.42896 45 L14.65309 45 L23.81549 45 L26.7949 45 L29.98642 45 L29.98642 44.45949 L29.98642 44.33333 L29.98642 43 L27.97432 43 L24.39084 43 L22.31976 43 L21.67875 43 L8.58298 43 L6.98642 43 L6.98642 43.66667 z"/>
<path fill="#008000" stroke="#008000" d="M29.82949 40.69343 L31.36234 39.40876 L31.43726 39.34597 L34.42803 36.83942 L33.99981 36.32847 L33.14336 35.30657 L31.61051 36.59124 L29.52876 38.33595 L28.54482 39.16058 L28.97304 39.67153 z"/>
<path fill="#008000" stroke="#008000" d="M-6.615620172877083e-8 22.70860000763739 L-6.615620172877083e-8 22.70860000763739 L0.3248200681802172 25.522239992128945 L0.3248200681802172 25.522239992128945 z"/>
<path fill="#008000" stroke="#008000" d="M2.246521403174514 41.0866298267531 L2.246521403174514 41.0866298267531 L0.3248201025702478 25.522239987335873 L0.3248201025702478 25.522239987335873 z"/>
<path fill="#008000" stroke="#008000" d="M3.3705087444913313 43.649060550717145 L3.3705087444913313 43.649060550717145 L2.246522111958535 41.08662907360911 L2.246522111958535 41.08662907360911 z"/>
<path fill="#008000" stroke="#008000" d="M5.265615286801238 45.70769433880518 L5.265615286801238 45.70769433880518 L3.3705093733844826 43.64906057684023 L3.3705093733844826 43.64906057684023 z"/>
<path fill="#008000" stroke="#008000" d="M22.31976 45.000000000000014 L23.81549 45.000000000000014 L26.7949 45.000000000000014 L29.98642 45.000000000000014 L29.98642 45.000000000000014 L26.7949 45.000000000000014 L23.81549 45.000000000000014 L14.65309 45.000000000000014 L9.42896 45.000000000000014 L7.07883 45.000000000000014 L6.98642 45.000000000000014 L6.98642 45.000000000000014 L7.07883 45.000000000000014 L9.42896 45.000000000000014 z"/>
<path fill="#008000" stroke="#008000" d="M29.986423492431655 45 L29.986423492431655 45 L29.986423492431655 44.45949 L29.986423492431655 43 L29.986423492431655 43 L29.986423492431655 44.33333 L29.986423492431655 44.45949 z"/>
<path fill="#008000" stroke="#008000" d="M36.972847090675245 22.708599664133555 L36.972847090675245 22.708599664133555 L36.648026956338825 25.52223964862511 L36.648026956338825 25.52223964862511 z"/>
<path fill="#008000" stroke="#008000" d="M36.864362839178575 19.87835989117326 L36.864362839178575 19.87835989117326 L36.97284696706119 22.708600116253635 L36.97284696706119 22.708600116253635 z"/>
<path fill="#008000" stroke="#008000" d="M24.57972073293476 13.609239647037283 L24.57972073293476 13.609239647037283 L24.5747469462088 13.59891147062807 L24.378581353924602 13.191569347984391 L24.25419657599194 12.933281648915079 L24.04317564703018 12.495092096279404 L23.726419179127987 11.837340395311054 L23.685493884186183 11.752358129474853 L23.385612847474256 11.129648628728914 L23.37287084885245 11.103189591214274 L23.37287084885245 11.103189591214274 L23.385612847474256 11.129648628728914 L23.64520117203654 11.668689435577049 L23.726419179127987 11.837340395311054 L24.04317564703018 12.495092096279404 L24.17743806575747 12.77389093148194 L24.25419657599194 12.933281648915079 L24.5747469462088 13.59891147062807 z"/>
<path fill="#008000" stroke="#008000" d="M27.94026870494491 6.09796184117654 L27.94026870494491 6.09796184117654 L30.256909301474714 7.727450993091628 L30.256909301474714 7.727450993091628 z"/>
<path fill="#008000" stroke="#008000" d="M25.402041657915007 4.841206651564109 L25.402041657915007 4.841206651564109 L27.940268949510557 6.097962121638647 L27.940268949510557 6.097962121638647 z"/>
<path fill="#008000" stroke="#008000" d="M22.70171170269577 3.986634619713394 L22.70171170269577 3.986634619713394 L25.402041223607952 4.841206133565617 L25.402041223607952 4.841206133565617 z"/>
<path fill="#008000" stroke="#008000" d="M19.902579634848774 3.554282364057953 L19.902579634848774 3.554282364057953 L22.701710805904376 3.986634782422916 L22.701710805904376 3.986634782422916 z"/>
<path fill="#008000" stroke="#008000" d="M17.07026 3.554283142089858 L17.07026 3.554283142089858 L19.90258 3.554283142089858 L19.90258 3.554283142089858 z"/>
<path fill="#008000" stroke="#008000" d="M14.27112935685558 3.9866358361616303 L14.27112935685558 3.9866358361616303 L17.070260527911184 3.554283417796667 L17.070260527911184 3.554283417796667 z"/>
<path fill="#008000" stroke="#008000" d="M11.570808501907893 4.841205266233104 L11.570808501907893 4.841205266233104 L14.271128933173996 3.9866366289752184 L14.271128933173996 3.9866366289752184 z"/>
<path fill="#008000" stroke="#008000" d="M9.032580456848045 6.097960922680828 L9.032580456848045 6.097960922680828 L11.570807748443594 4.8412054526062915 L11.570807748443594 4.8412054526062915 z"/>
<path fill="#008000" stroke="#008000" d="M6.715939700540028 7.727449574258519 L6.715939700540028 7.727449574258519 L9.032580297069833 6.09796042234343 L9.032580297069833 6.09796042234343 z"/>
<path fill="#008000" stroke="#008000" d="M4.675191983398819 9.691472060880686 L4.675191983398819 9.691472060880686 L6.715939496738407 7.727449477078394 L6.715939496738407 7.727449477078394 z"/>
<path fill="#008000" stroke="#008000" d="M2.9581621805203895 11.944001662138767 L2.9581621805203895 11.944001662138767 L4.675191748488495 9.691471332815103 L4.675191748488495 9.691471332815103 z"/>
<path fill="#008000" stroke="#008000" d="M1.6051071840983224 14.432228468760686 L1.6051071840983224 14.432228468760686 L2.9581626195673247 11.94400142447604 L2.9581626195673247 11.94400142447604 z"/>
<path fill="#008000" stroke="#008000" d="M0.647733972053137 17.09784142658976 L0.647733972053137 17.09784142658976 L1.6051067690031597 14.432228839565623 L1.6051067690031597 14.432228839565623 z"/>
<path fill="#008000" stroke="#008000" d="M0.10848349577125188 19.878360677965404 L0.10848349577125188 19.878360677965404 L0.6477339689374937 17.09784076973066 L0.6477339689374937 17.09784076973066 z"/>
<path fill="#008000" stroke="#008000" d="M0.10848413543751134 19.87836015851281 L0.10848413543751134 19.87836015851281 L2.2225505467005677e-8 22.70860000085191 L2.2225505467005677e-8 22.70860000085191 z"/>
<path fill="#008000" stroke="#008000" d="M6.98642 46.63895 L7.65359 47 L7.72648 47.03945 L10.48642 47.5 L26.48642 47.5 L29.24637 47.03945 L29.31926 47 L29.53626 46.88257 L29.98642 46.63895 L31.70723 45.70769 L33.60234 43.64906 L34.72633 41.08663 L36.64803 25.52224 L36.97285 22.7086 L36.86436 19.87836 L36.32511 17.09784 L35.36774 14.43223 L34.01468 11.944 L32.29766 9.69147 L30.25691 7.72745 L27.94027 6.09796 L25.40204 4.84121 L22.70171 3.98664 L19.90258 3.55428 L17.07026 3.55428 L14.27113 3.98664 L11.57081 4.84121 L9.03258 6.09796 L6.71594 7.72745 L4.67519 9.69147 L2.95816 11.944 L1.60511 14.43223 L0.64773 17.09784 L0.10848 19.87836 L0 22.7086 L0.32482 25.52224 L2.24652 41.08663 L3.37051 43.64906 L5.26562 45.70769 z"/>
<path fill="#008000" stroke="#008000" d="M12.39312 15.64277 L12.39312 15.52577 L12.39312 15.34082 L12.39312 14.07283 L12.39312 13.99147 L12.39312 13.60924 L13.28876 11.74944 L13.39883 11.52086 L13.59998 11.10319 L15.4122 9.65799 L15.77465 9.36894 L16.32859 9.24251 L18.03446 8.85316 L18.48642 8.75 L19.51209 8.9841 L20.74623 9.26579 L21.1982 9.36894 L21.72781 9.7913 L21.81439 9.86035 L21.85528 9.89295 L21.858 9.89512 L22.66578 10.53931 L23.01042 10.81415 L23.37287 11.10319 L23.38561 11.12965 L23.68549 11.75236 L23.72642 11.83734 L24.04318 12.49509 L24.2542 12.93328 L24.37858 13.19157 L24.57475 13.59891 L24.57972 13.60924 L24.57972 14.92987 L24.57972 15.15899 L24.57972 15.26844 L24.57972 15.92717 L24.57972 15.994 L24.57972 16.39076 L24.42403 16.71406 L24.40737 16.74864 L24.27255 17.0286 L23.57401 18.47914 L23.37287 18.89681 L23.0593 19.14687 L21.56064 20.34201 L21.1982 20.63106 L18.93839 21.14684 L18.48642 21.25 L16.22661 20.73421 L15.77465 20.63106 L15.39752 20.33031 L14.21004 19.38332 L13.96242 19.18585 L13.93052 19.16041 L13.59998 18.89681 L13.3943 18.46972 L13.03244 17.71831 L12.99097 17.63219 L12.92667 17.49868 L12.59427 16.80843 L12.46375 16.53741 L12.39312 16.39076 z"/>
<path fill="#008000" stroke="#008000" d="M6.98642 45 L6.98642 44.709 L6.98642 43 L8.58298 43 L14.65309 43 L21.67875 43 L24.39084 43 L27.97432 43 L29.98642 43 L29.98642 44.45949 L29.98642 45 L26.7949 45 L23.81549 45 L22.31976 45 L9.42896 45 L7.07883 45 z"/>
<path fill="#008000" stroke="#008000" d="M29.52876 38.33595 L32.37693 35.94891 L33.14336 35.30657 L34.42803 36.83942 L31.43726 39.34597 L30.59591 40.05109 L29.82949 40.69343 L28.54482 39.16058 z"/>
<path fill="#008000" stroke="#008000" d="M36.86436323589894 19.8783593724339 L36.3251127627327 17.097839464199154 L36.3251127627327 17.097839464199154 L36.86436323589894 19.8783593724339 z"/>
<path fill="#008000" stroke="#008000" d="M36.32511221475201 17.09783920455683 L35.36774056035571 14.432229798744451 L35.36774056035571 14.432229798744451 L36.32511221475201 17.09783920455683 z"/>
<path fill="#008000" stroke="#008000" d="M7.653589262238353 47.000001363264076 L6.986421086899475 46.63894799158574 L5.265617075924047 45.70769540321894 L5.265617075924047 45.70769540321894 L7.726480896155789 47.03944834404919 L7.726480896155789 47.03944834404919 z"/>
<path fill="#008000" stroke="#008000" d="M7.726480463048339 47.03944722510186 L10.486420094614683 47.49999943300496 L10.486420094614683 47.49999943300496 L7.726480463048339 47.03944722510186 z"/>
<path fill="#008000" stroke="#008000" d="M10.48642 47.500000000000014 L26.48642 47.500000000000014 L26.48642 47.500000000000014 L10.48642 47.500000000000014 z"/>
<path fill="#008000" stroke="#008000" d="M26.486420094614687 47.50000056699506 L29.246369455267537 47.039446735595476 L29.246369455267537 47.039446735595476 L26.486420094614687 47.50000056699506 z"/>
<path fill="#008000" stroke="#008000" d="M29.319260054755 47.00000010117837 L29.246368420837562 47.03944708196349 L29.246368420837562 47.03944708196349 L31.707232241069303 45.70769414113324 L31.707232241069303 45.70769414113324 L29.986420495353187 46.638950915332494 L29.536258158226364 46.882566596700514 z"/>
<path fill="#008000" stroke="#008000" d="M31.707233081136433 45.707692836385945 L33.602338994553186 43.64905907442099 L33.602338994553186 43.64905907442099 L31.707233081136433 45.707692836385945 z"/>
<path fill="#008000" stroke="#008000" d="M33.60233872689204 43.64905944156308 L34.72632535942484 41.08662796445505 L34.72632535942484 41.08662796445505 L33.60233872689204 43.64905944156308 z"/>
<path fill="#008000" stroke="#008000" d="M34.726325626962286 41.08662946007056 L36.648026927566555 25.522239620653334 L36.648026927566555 25.522239620653334 L34.726325626962286 41.08662946007056 z"/>
<path fill="#008000" stroke="#008000" d="M35.367740488868456 14.432229734161666 L34.01468277123601 11.943998493049113 L34.01468277123601 11.943998493049113 L35.367740488868456 14.432229734161666 z"/>
<path fill="#008000" stroke="#008000" d="M34.01468223734045 11.943998294549171 L32.297656344465686 9.691472786493222 L32.297656344465686 9.691472786493222 L34.01468223734045 11.943998294549171 z"/>
<path fill="#008000" stroke="#008000" d="M32.29765656677679 9.69147356734275 L30.2569090534372 7.727450983540459 L30.2569090534372 7.727450983540459 L32.29765656677679 9.69147356734275 z"/>
<path fill="#008000" stroke="#008000" d="M24.579722881317153 13.60924 L24.579722881317153 13.60924 L24.579722881317153 14.92987 L24.579722881317153 15.04954 L24.579722881317153 15.26844 L24.579722881317153 15.46359 L24.579722881317153 15.994 L24.579722881317153 16.39076 L24.579722881317153 16.39076 L24.579722881317153 15.994 L24.579722881317153 15.92717 L24.579722881317153 15.26844 L24.579722881317153 15.15899 L24.579722881317153 14.92987 z"/>
<path fill="#008000" stroke="#008000" d="M24.57972073293477 16.39076035296272 L24.57972073293477 16.39076035296272 L24.44088819868519 16.67904913253266 L24.40737406620709 16.74864195818178 L24.272552762445823 17.028601330323557 L23.77515351602975 18.061461693230385 L23.372870848852465 18.896810408785726 L23.372870848852465 18.896810408785726 L23.57401022786262 18.479140109732835 L24.272552762445823 17.028601330323557 L24.40737406620709 16.74864195818178 L24.424028260066734 16.71405916209245 z"/>
<path fill="#008000" stroke="#008000" d="M18.48642017292976 8.74999924234529 L18.48642017292976 8.74999924234529 L19.512089628764294 8.984101626489727 L20.294270171319194 9.162629249401638 L21.198198838226585 9.36894509006138 L21.198198838226585 9.36894509006138 L20.746230837060217 9.265786332599939 L19.512089628764294 8.984101626489727 z"/>
<path fill="#008000" stroke="#008000" d="M15.774651012477182 9.36894443595193 L15.774651012477182 9.36894443595193 L16.328590317580044 9.242511391408959 L17.58250101086662 8.956314428895583 L18.486420172929765 8.750000757654735 L18.486420172929765 8.750000757654735 L18.034459507188743 8.853157840853038 L16.328590317580044 9.242511391408959 z"/>
<path fill="#008000" stroke="#008000" d="M12.393124936992795 13.609242377529997 L12.393124936992795 13.609242377529997 L13.197692153897815 11.938541037262333 L13.288758699190707 11.749439373563373 L13.599976703625547 11.103188412550013 L13.599976703625547 11.103188412550013 L13.398835442064946 11.520862620759882 L13.288758699190707 11.749439373563373 z"/>
<path fill="#008000" stroke="#008000" d="M12.393124103546157 16.39076 L12.393124103546157 16.39076 L12.393124103546157 15.75977 L12.393124103546157 15.52577 L12.393124103546157 15.34082 L12.393124103546157 14.53641 L12.393124103546157 13.99147 L12.393124103546157 13.60924 L12.393124103546157 13.60924 L12.393124103546157 13.99147 L12.393124103546157 14.07283 L12.393124103546157 15.34082 L12.393124103546157 15.52577 L12.393124103546157 15.64277 z"/>
<path fill="#008000" stroke="#008000" d="M23.37287078089194 11.103189020792373 L23.37287078089194 11.103189020792373 L23.01042282787996 10.814146453950311 L22.665783412692914 10.539305720617989 L21.85799999362462 9.895120007994473 L21.855279568258013 9.892950541387385 L21.814393801115106 9.860345233551913 L21.72781148015995 9.791298143937933 L21.19819652599614 9.368944356263514 L21.19819652599614 9.368944356263514 L21.72781148015995 9.791298143937933 L21.814393801115106 9.860345233551913 L21.85262630432484 9.890834634230561 L21.85799999362462 9.895120007994473 L22.647980987473154 10.525108761747695 L22.665783412692914 10.539305720617989 z"/>
<path fill="#008000" stroke="#008000" d="M13.599978047005367 18.896812448978064 L13.599978047005367 18.896812448978064 L13.930519594162371 19.16041050890434 L13.962419887412173 19.18585014118068 L14.210039721825263 19.38332034882012 L15.397522841705198 20.33030643661401 L15.774652301901169 20.631057113506927 L15.774652301901169 20.631057113506927 L15.397522841705198 20.33030643661401 L14.324867840424151 19.474892708022743 L14.210039721825263 19.38332034882012 L13.930519594162371 19.16041050890434 z"/>
<path fill="#008000" stroke="#008000" d="M13.599976703625535 18.89681158744999 L13.599976703625535 18.89681158744999 L13.394300220843245 18.469719893647515 L13.07349951070258 17.803570235633174 L12.990967689648764 17.632191112606314 L12.926671735519111 17.498679164218192 L12.795409486720516 17.226110247182323 L12.463749177818787 16.53741039594153 L12.393124936992784 16.390757622470005 L12.393124936992784 16.390757622470005 L12.463749177818787 16.53741039594153 L12.594266198553385 16.808431830679876 L12.926671735519111 17.498679164218192 L12.990967689648764 17.632191112606314 L13.032440286209704 17.71830986216869 L13.394300220843245 18.469719893647515 z"/>
<path fill="#008000" stroke="#008000" d="M23.372870780891954 18.89681097920764 L23.372870780891954 18.89681097920764 L23.05930258652198 19.14687324339632 L21.923091194054383 20.052971497296998 L21.19819652599615 20.631055643736502 L21.19819652599615 20.631055643736502 L21.560643241042406 20.342014064139057 L23.05930258652198 19.14687324339632 z"/>
<path fill="#008000" stroke="#008000" d="M15.774652301901181 9.36894288649309 L15.774652301901181 9.36894288649309 L15.412199474249757 9.657989340729978 L13.599978047005381 11.103187551021948 L13.599978047005381 11.103187551021948 L15.04975763384295 9.947027032932594 z"/>
<path fill="#008000" stroke="#008000" d="M18.486420172929765 21.250000757654735 L18.486420172929765 21.250000757654735 L18.938390343515028 21.146841505037536 L21.198198838226592 20.631054909938644 L21.198198838226592 20.631054909938644 L19.390348839837156 21.04368491699499 z"/>
<path fill="#008000" stroke="#008000" d="M15.774651012477177 20.631055564048093 L15.774651012477177 20.631055564048093 L16.226609508799303 20.73421215209064 L18.48642017292976 21.24999924234529 L18.48642017292976 21.24999924234529 L16.678570174540326 20.837369235288943 z"/>
<path fill="#008000" stroke="#008000" d="M14.65309 43.000000000000014 L8.58298 43.000000000000014 L6.98642 43.000000000000014 L6.98642 43.000000000000014 L8.58298 43.000000000000014 L21.67875 43.000000000000014 L22.31976 43.000000000000014 L24.39084 43.000000000000014 L27.97432 43.000000000000014 L29.98642 43.000000000000014 L29.98642 43.000000000000014 L27.97432 43.000000000000014 L24.39084 43.000000000000014 L21.67875 43.000000000000014 z"/>
<path fill="#008000" stroke="#008000" d="M6.986423492431655 43 L6.986423492431655 43 L6.986423492431655 44.709 L6.986423492431655 45 L6.986423492431655 45 L6.986423492431655 44.709 L6.986423492431655 43.66667 z"/>
<path fill="#008000" stroke="#008000" d="M30.595913457051033 40.05109412489043 L31.437257830752348 39.345967411693145 L34.428027783866526 36.83941735574983 L34.428027783866526 36.83941735574983 L31.437257830752348 39.345967411693145 L31.362337877638172 39.408757467636455 L29.829489987500178 40.69342998508544 L29.829489987500178 40.69342998508544 z"/>
<path fill="#008000" stroke="#008000" d="M28.544816680913147 39.160582781710886 L28.544816680913147 39.160582781710886 L29.82948919836213 40.69343067184887 L29.82948919836213 40.69343067184887 L28.973039478078682 39.67153043741976 z"/>
<path fill="#008000" stroke="#008000" d="M32.37692942487031 35.948909313765704 L29.528758299610573 38.33594797112625 L28.544820972102446 39.16058115989497 L28.544820972102446 39.16058115989497 L29.528758299610573 38.33594797112625 L31.610510878330803 36.59124104800834 L33.143358768468794 35.30656853055936 L33.143358768468794 35.30656853055936 z"/>
<path fill="#008000" stroke="#008000" d="M34.42803154798118 36.83941870264434 L34.42803154798118 36.83941870264434 L33.143359030532196 35.306570812506344 L33.143359030532196 35.306570812506344 L33.999808750815646 36.328471046935455 z"/>
<path fill="#c0c0c0" stroke="#c0c0c0" d="M21.0845 16.5 L21.0845 13.5 L18.48642 12 L15.88835 13.5 L15.88835 16.5 L18.48642 18 z"/>
<path fill="#c0c0c0" stroke="#c0c0c0" d="M21.08449989938735 13.500000174266212 L21.08449989938735 13.500000174266212 L18.48642087310796 11.99999848773271 L18.48642087310796 11.99999848773271 z"/>
<path fill="#c0c0c0" stroke="#c0c0c0" d="M15.88834934682843 13.4999988686737 L15.88834934682843 13.4999988686737 L18.48642087310797 12.000001512267309 L18.48642087310797 12.000001512267309 z"/>
<path fill="#c0c0c0" stroke="#c0c0c0" d="M18.48642087310796 17.99999848773271 L18.48642087310796 17.99999848773271 L15.888349346828418 16.500001131326318 L15.888349346828418 16.500001131326318 z"/>
<path fill="#c0c0c0" stroke="#c0c0c0" d="M15.888347387313857 16.5 L15.888347387313857 16.5 L15.888347387313857 13.5 L15.888347387313857 13.5 z"/>
<path fill="#c0c0c0" stroke="#c0c0c0" d="M21.08449989938736 16.499999825733806 L21.08449989938736 16.499999825733806 L18.48642087310797 18.000001512267307 L18.48642087310797 18.000001512267307 z"/>
<path fill="#c0c0c0" stroke="#c0c0c0" d="M21.084499597549453 16.5 L21.084499597549453 16.5 L21.084499597549453 13.5 L21.084499597549453 13.5 z"/>
<path fill="#c0c0c0" stroke="#c0c0c0" d="M21.0845 13.5 L21.0845 16.5 L18.48642 18 L15.88835 16.5 L15.88835 13.5 L18.48642 12 z"/>
<path fill="#c0c0c0" stroke="#c0c0c0" d="M21.1982 20.63106 L23.37287 18.89681 L24.57972 16.39076 L24.57972 13.60924 L23.37287 11.10319 L21.1982 9.36894 L18.48642 8.75 L15.77465 9.36894 L13.59998 11.10319 L12.39312 13.60924 L12.39312 16.39076 L13.59998 18.89681 L15.77465 20.63106 L18.48642 21.25 z"/>
<path fill="#c0c0c0" stroke="#c0c0c0" d="M18.48642017292976 21.24999924234529 L18.48642017292976 21.24999924234529 L15.774651012477177 20.631055564048093 L15.774651012477177 20.631055564048093 z"/>
<path fill="#c0c0c0" stroke="#c0c0c0" d="M15.774652301901169 20.631057113506927 L15.774652301901169 20.631057113506927 L13.599978047005367 18.896812448978064 L13.599978047005367 18.896812448978064 z"/>
<path fill="#c0c0c0" stroke="#c0c0c0" d="M13.599978047005381 11.103187551021948 L13.599978047005381 11.103187551021948 L15.774652301901181 9.36894288649309 L15.774652301901181 9.36894288649309 z"/>
<path fill="#c0c0c0" stroke="#c0c0c0" d="M18.486420172929765 8.750000757654735 L18.486420172929765 8.750000757654735 L15.774651012477182 9.36894443595193 L15.774651012477182 9.36894443595193 z"/>
<path fill="#c0c0c0" stroke="#c0c0c0" d="M12.393124103546157 16.39076 L12.393124103546157 16.39076 L12.393124103546157 13.60924 L12.393124103546157 13.60924 z"/>
<path fill="#c0c0c0" stroke="#c0c0c0" d="M12.393124936992795 13.609242377529997 L12.393124936992795 13.609242377529997 L13.599976703625547 11.103188412550013 L13.599976703625547 11.103188412550013 z"/>
<path fill="#c0c0c0" stroke="#c0c0c0" d="M12.393124936992784 16.390757622470005 L12.393124936992784 16.390757622470005 L13.599976703625535 18.89681158744999 L13.599976703625535 18.89681158744999 z"/>
<path fill="#c0c0c0" stroke="#c0c0c0" d="M21.198198838226585 9.36894509006138 L21.198198838226585 9.36894509006138 L18.48642017292976 8.74999924234529 L18.48642017292976 8.74999924234529 z"/>
<path fill="#c0c0c0" stroke="#c0c0c0" d="M23.37287078089194 11.103189020792373 L23.37287078089194 11.103189020792373 L21.19819652599614 9.368944356263514 L21.19819652599614 9.368944356263514 z"/>
<path fill="#c0c0c0" stroke="#c0c0c0" d="M23.37287084885245 11.103189591214274 L23.37287084885245 11.103189591214274 L24.57972073293476 13.609239647037283 L24.57972073293476 13.609239647037283 z"/>
<path fill="#c0c0c0" stroke="#c0c0c0" d="M24.579722881317153 16.39076 L24.579722881317153 16.39076 L24.579722881317153 13.60924 L24.579722881317153 13.60924 z"/>
<path fill="#c0c0c0" stroke="#c0c0c0" d="M24.57972073293477 16.39076035296272 L24.57972073293477 16.39076035296272 L23.372870848852465 18.896810408785726 L23.372870848852465 18.896810408785726 z"/>
<path fill="#c0c0c0" stroke="#c0c0c0" d="M21.198198838226592 20.631054909938644 L21.198198838226592 20.631054909938644 L18.486420172929765 21.250000757654735 L18.486420172929765 21.250000757654735 z"/>
<path fill="#c0c0c0" stroke="#c0c0c0" d="M21.19819652599615 20.631055643736502 L21.19819652599615 20.631055643736502 L23.372870780891954 18.89681097920764 L23.372870780891954 18.89681097920764 z"/>
<path fill="#c0c0c0" stroke="#c0c0c0" d="M23.37287 18.89681 L21.1982 20.63106 L18.48642 21.25 L15.77465 20.63106 L13.59998 18.89681 L12.39312 16.39076 L12.39312 13.60924 L13.59998 11.10319 L15.77465 9.36894 L18.48642 8.75 L21.1982 9.36894 L23.37287 11.10319 L24.57972 13.60924 L24.57972 16.39076 z"/>
<path fill="#c0c0c0" stroke="#c0c0c0" d="M21.31044 3.71681 L24.06825 4.36217 L26.69524 5.42094 L29.12982 6.86831 L31.31493 8.67035 L33.19934 10.78483 L34.7389 13.16218 L35.89751 15.74669 L36.64803 18.47776 L36.97285 21.2914 L36.86436 24.12164 L36.32511 26.90216 L35.36774 29.56777 L34.01468 32.056 L32.29766 34.30853 L30.25691 36.27255 L27.94027 37.90204 L25.40204 39.15879 L22.70171 40.01336 L19.90258 40.44572 L17.07026 40.44572 L14.27113 40.01336 L11.57081 39.15879 L9.03258 37.90204 L6.71594 36.27255 L4.67519 34.30853 L2.95816 32.056 L1.60511 29.56777 L0.64773 26.90216 L0.10848 24.12164 L0 21.2914 L0.32482 18.47776 L1.07533 15.74669 L2.23395 13.16218 L3.77351 10.78483 L5.65792 8.67035 L7.84303 6.86831 L10.27761 5.42094 L12.90459 4.36217 L15.66241 3.71681 L18.48642 3.5 z"/>
<path fill="#c0c0c0" stroke="#c0c0c0" d="M24.52993 8.77498 L25.90258 10.30734 L27.78411 9.4754 L27.57431 7.42888 L25.56312 6.99599 z"/>
<path fill="#c0c0c0" stroke="#c0c0c0" d="M33.98303 23.7798 L34.10057 23.69475 L35.16372 22.92544 L35.64107 22.58002 L35.6497 22.57378 L35.37268 21.7156 L35.16189 21.06256 L35.10492 20.88608 L35.01774 20.616 L34.95799 20.61589 L34.91325 20.6158 L34.69057 20.61537 L34.08117 20.6142 L32.96049 20.61205 L32.75745 21.2329 L32.32101 22.56738 L33.80355 23.64887 z"/>
<path fill="#c0c0c0" stroke="#c0c0c0" d="M24.70255 36.30637 L26.58086 37.14554 L27.95939 35.61847 L26.93305 33.83553 L24.92021 34.26067 z"/>
<path fill="#c0c0c0" stroke="#c0c0c0" d="M11.09276 33.7069 L10.38952 34.01946 L9.21284 34.54245 L9.42657 36.58857 L11.43859 37.01758 L11.85958 36.28949 L12.46835 35.23661 z"/>
<path fill="#c0c0c0" stroke="#c0c0c0" d="M1.32207 21.45922 L1.9578 23.41578 L3.52265 23.41578 L3.8163 23.41578 L4.01505 23.41578 L4.65077 21.45922 L2.98642 20.25 L2.05591 20.92606 L1.9569 20.99799 z"/>
<path fill="#c0c0c0" stroke="#c0c0c0" d="M9.03966 8.36334 L10.06257 10.14826 L12.07622 9.72698 L12.29782 7.6817 L10.42112 6.83892 z"/>
<path fill="#c0c0c0" stroke="#c0c0c0" d="M15.662410561130441 3.71681239789845 L15.662410561130441 3.71681239789845 L12.904589544456078 4.362168053308142 L12.904589544456078 4.362168053308142 z"/>
<path fill="#c0c0c0" stroke="#c0c0c0" d="M18.4864200204649 3.500000266558574 L18.4864200204649 3.500000266558574 L15.662410172762288 3.716812250255709 L15.662410172762288 3.716812250255709 z"/>
<path fill="#c0c0c0" stroke="#c0c0c0" d="M24.529931808510156 8.774978379986091 L24.529931808510156 8.774978379986091 L25.90257967456959 10.307340291511654 L25.90257967456959 10.307340291511654 z"/>
<path fill="#c0c0c0" stroke="#c0c0c0" d="M10.27760839155011 5.420936009163742 L10.27760839155011 5.420936009163742 L12.904589435423553 4.362168599190332 L12.904589435423553 4.362168599190332 z"/>
<path fill="#c0c0c0" stroke="#c0c0c0" d="M5.657920761735579 8.670350923658997 L5.657920761735579 8.670350923658997 L7.843027801359883 6.86830733399124 L7.843027801359883 6.86830733399124 z"/>
<path fill="#c0c0c0" stroke="#c0c0c0" d="M7.843028227770523 6.868307018985536 L7.843028227770523 6.868307018985536 L10.277607706915813 5.42093614287133 L10.277607706915813 5.42093614287133 z"/>
<path fill="#c0c0c0" stroke="#c0c0c0" d="M3.7735073772044663 10.784827662574559 L3.7735073772044663 10.784827662574559 L5.657921035379519 8.670350922726303 L5.657921035379519 8.670350922726303 z"/>
<path fill="#c0c0c0" stroke="#c0c0c0" d="M2.233950133783897 13.162180086637505 L2.233950133783897 13.162180086637505 L3.773506668503084 10.78482784254611 L3.773506668503084 10.78482784254611 z"/>
<path fill="#c0c0c0" stroke="#c0c0c0" d="M1.0753314116125057 15.746690632816005 L1.0753314116125057 15.746690632816005 L2.23394953387858 13.162179791041028 L2.23394953387858 13.162179791041028 z"/>
<path fill="#c0c0c0" stroke="#c0c0c0" d="M0.3248207114552267 18.477760195511348 L0.3248207114552267 18.477760195511348 L1.0753319167659943 15.7466905267366 L1.0753319167659943 15.7466905267366 z"/>
<path fill="#c0c0c0" stroke="#c0c0c0" d="M-6.615619849078623e-8 21.291399992362606 L-6.615619849078623e-8 21.291399992362606 L0.3248200681802204 18.47776000787105 L0.3248200681802204 18.47776000787105 z"/>
<path fill="#c0c0c0" stroke="#c0c0c0" d="M0.10848413543751025 24.121639841487188 L0.10848413543751025 24.121639841487188 L2.2225504379189546e-8 21.291399999148087 L2.2225504379189546e-8 21.291399999148087 z"/>
<path fill="#c0c0c0" stroke="#c0c0c0" d="M1.6051071840983104 29.567771531239316 L1.6051071840983104 29.567771531239316 L2.958162619567312 32.05599857552396 L2.958162619567312 32.05599857552396 z"/>
<path fill="#c0c0c0" stroke="#c0c0c0" d="M0.6477339689374885 26.902159230269337 L0.6477339689374885 26.902159230269337 L0.10848349577124657 24.121639322034596 L0.10848349577124657 24.121639322034596 z"/>
<path fill="#c0c0c0" stroke="#c0c0c0" d="M0.647733972053128 26.90215857341024 L0.647733972053128 26.90215857341024 L1.6051067690031506 29.56777116043438 L1.6051067690031506 29.56777116043438 z"/>
<path fill="#c0c0c0" stroke="#c0c0c0" d="M6.715939700540017 36.2725504257415 L6.715939700540017 36.2725504257415 L9.032580297069819 37.90203957765659 L9.032580297069819 37.90203957765659 z"/>
<path fill="#c0c0c0" stroke="#c0c0c0" d="M4.675191983398804 34.30852793911932 L4.675191983398804 34.30852793911932 L6.715939496738394 36.27255052292162 L6.715939496738394 36.27255052292162 z"/>
<path fill="#c0c0c0" stroke="#c0c0c0" d="M4.67519174848848 34.3085286671849 L4.67519174848848 34.3085286671849 L2.958162180520375 32.05599833786124 L2.958162180520375 32.05599833786124 z"/>
<path fill="#c0c0c0" stroke="#c0c0c0" d="M11.570807748443583 39.158794547393725 L11.570807748443583 39.158794547393725 L9.032580456848033 37.90203907731919 L9.032580456848033 37.90203907731919 z"/>
<path fill="#c0c0c0" stroke="#c0c0c0" d="M11.570808501907885 39.15879473376692 L11.570808501907885 39.15879473376692 L14.271128933173987 40.0133633710248 L14.271128933173987 40.0133633710248 z"/>
<path fill="#c0c0c0" stroke="#c0c0c0" d="M11.43858909936043 37.01757947924558 L11.43858909936043 37.01757947924558 L12.468353586420683 35.23661207368683 L12.468353586420683 35.23661207368683 L11.85957563077638 36.289487473692496 z"/>
<path fill="#c0c0c0" stroke="#c0c0c0" d="M22.701711702695782 40.01336538028663 L22.701711702695782 40.01336538028663 L25.40204122360796 39.15879386643441 L25.40204122360796 39.15879386643441 z"/>
<path fill="#c0c0c0" stroke="#c0c0c0" d="M17.07026 40.44571685791017 L17.07026 40.44571685791017 L19.90258 40.44571685791017 L19.90258 40.44571685791017 z"/>
<path fill="#c0c0c0" stroke="#c0c0c0" d="M19.902579634848777 40.445717635942074 L19.902579634848777 40.445717635942074 L22.70171080590438 40.01336521757711 L22.70171080590438 40.01336521757711 z"/>
<path fill="#c0c0c0" stroke="#c0c0c0" d="M17.07026052791118 40.44571658220336 L17.07026052791118 40.44571658220336 L14.271129356855576 40.013364163838396 L14.271129356855576 40.013364163838396 z"/>
<path fill="#c0c0c0" stroke="#c0c0c0" d="M27.940268949510568 37.90203787836137 L27.940268949510568 37.90203787836137 L25.402041657915017 39.158793348435914 L25.402041657915017 39.158793348435914 z"/>
<path fill="#c0c0c0" stroke="#c0c0c0" d="M30.256909301474725 36.272549006908385 L30.256909301474725 36.272549006908385 L27.940268704944923 37.90203815882347 L27.940268704944923 37.90203815882347 z"/>
<path fill="#c0c0c0" stroke="#c0c0c0" d="M32.2976565667768 34.30852643265726 L32.2976565667768 34.30852643265726 L30.256909053437216 36.27254901645955 L30.256909053437216 36.27254901645955 z"/>
<path fill="#c0c0c0" stroke="#c0c0c0" d="M34.014682237340466 32.05600170545083 L34.014682237340466 32.05600170545083 L32.2976563444657 34.308527213506785 L32.2976563444657 34.308527213506785 z"/>
<path fill="#c0c0c0" stroke="#c0c0c0" d="M34.01468277123602 32.056001506950885 L34.01468277123602 32.056001506950885 L35.36774048886847 29.567770265838337 L35.36774048886847 29.567770265838337 z"/>
<path fill="#c0c0c0" stroke="#c0c0c0" d="M36.32511276273271 26.902160535800842 L36.32511276273271 26.902160535800842 L36.86436323589895 24.1216406275661 L36.86436323589895 24.1216406275661 z"/>
<path fill="#c0c0c0" stroke="#c0c0c0" d="M36.32511221475202 26.90216079544317 L36.32511221475202 26.90216079544317 L35.36774056035572 29.56777020125555 L35.36774056035572 29.56777020125555 z"/>
<path fill="#c0c0c0" stroke="#c0c0c0" d="M32.96049346199182 20.612051132233248 L32.96049346199182 20.612051132233248 L32.32100951904506 22.56737984270524 L32.32100951904506 22.56737984270524 L32.75744714885045 21.232899067540746 z"/>
<path fill="#c0c0c0" stroke="#c0c0c0" d="M36.972846967061194 21.29139988374636 L36.972846967061194 21.29139988374636 L36.864362839178575 24.121640108826735 L36.864362839178575 24.121640108826735 z"/>
<path fill="#c0c0c0" stroke="#c0c0c0" d="M36.64802695633882 18.477760351374886 L36.64802695633882 18.477760351374886 L36.97284709067524 21.29140033586644 L36.97284709067524 21.29140033586644 z"/>
<path fill="#c0c0c0" stroke="#c0c0c0" d="M29.129820984856007 6.8683083434030126 L29.129820984856007 6.8683083434030126 L26.695241505710715 5.420937467288805 L26.695241505710715 5.420937467288805 z"/>
<path fill="#c0c0c0" stroke="#c0c0c0" d="M35.897514577653624 15.746688742038554 L35.897514577653624 15.746688742038554 L36.64802648511655 18.477760965907034 L36.64802648511655 18.477760965907034 z"/>
<path fill="#c0c0c0" stroke="#c0c0c0" d="M34.73889795552982 13.16218091652167 L34.73889795552982 13.16218091652167 L35.897514404422026 15.746688025528426 L35.897514404422026 15.746688025528426 z"/>
<path fill="#c0c0c0" stroke="#c0c0c0" d="M31.314928017724423 8.670352403651242 L31.314928017724423 8.670352403651242 L29.12982097810012 6.868308813983483 L29.12982097810012 6.868308813983483 z"/>
<path fill="#c0c0c0" stroke="#c0c0c0" d="M33.199341207228656 10.784829218207236 L33.199341207228656 10.784829218207236 L34.738897741947845 13.162181462298635 L34.738897741947845 13.162181462298635 z"/>
<path fill="#c0c0c0" stroke="#c0c0c0" d="M33.199340942333414 10.784829160196026 L33.199340942333414 10.784829160196026 L31.314927284158365 8.67035242034777 L31.314927284158365 8.67035242034777 z"/>
<path fill="#c0c0c0" stroke="#c0c0c0" d="M35.017738510722765 20.616000480731763 L35.017738510722765 20.616000480731763 L35.10491902507769 20.886080314700383 L35.16188623866425 21.062561214141684 L35.37268373273697 21.715598795089864 L35.64970057468997 22.573779814492745 L35.64970057468997 22.573779814492745 z"/>
<path fill="#c0c0c0" stroke="#c0c0c0" d="M21.31043980956965 3.716812480384907 L21.31043980956965 3.716812480384907 L18.4864200204649 3.4999997334414537 L18.4864200204649 3.4999997334414537 z"/>
<path fill="#c0c0c0" stroke="#c0c0c0" d="M24.068251540633977 4.362166177426481 L24.068251540633977 4.362166177426481 L26.69524118711782 5.420937054559867 L26.69524118711782 5.420937054559867 z"/>
<path fill="#c0c0c0" stroke="#c0c0c0" d="M24.06825081817933 4.362166503645492 L24.06825081817933 4.362166503645492 L21.31043928233173 3.7168130668370543 L21.31043928233173 3.7168130668370543 z"/>
<path fill="#c0c0c0" stroke="#c0c0c0" d="M26.69524 5.42094 L24.06825 4.36217 L21.31044 3.71681 L18.48642 3.5 L15.66241 3.71681 L12.90459 4.36217 L10.27761 5.42094 L7.84303 6.86831 L5.65792 8.67035 L3.77351 10.78483 L2.23395 13.16218 L1.07533 15.74669 L0.32482 18.47776 L0 21.2914 L0.10848 24.12164 L0.64773 26.90216 L1.60511 29.56777 L2.95816 32.056 L4.67519 34.30853 L6.71594 36.27255 L9.03258 37.90204 L11.57081 39.15879 L14.27113 40.01336 L17.07026 40.44572 L19.90258 40.44572 L22.70171 40.01336 L25.40204 39.15879 L27.94027 37.90204 L30.25691 36.27255 L32.29766 34.30853 L34.01468 32.056 L35.36774 29.56777 L36.32511 26.90216 L36.86436 24.12164 L36.97285 21.2914 L36.64803 18.47776 L35.89751 15.74669 L34.7389 13.16218 L33.19934 10.78483 L31.31493 8.67035 L29.12982 6.86831 z"/>
<path fill="#c0c0c0" stroke="#c0c0c0" d="M25.563123624885332 6.9959921052373915 L25.563123624885332 6.9959921052373915 L24.52993342053467 8.77498198655594 L24.52993342053467 8.77498198655594 z"/>
<path fill="#c0c0c0" stroke="#c0c0c0" d="M35.01773999458092 20.616002818438048 L35.01773999458092 20.616002818438048 L32.960490005198615 20.61204729622257 L32.960490005198615 20.61204729622257 L34.081169996051486 20.614202053604092 L34.69056999276845 20.615373761095924 L34.91324999632164 20.615801913097645 L34.95799000396899 20.615887935746855 z"/>
<path fill="#c0c0c0" stroke="#c0c0c0" d="M25.563119192885527 6.995993749879417 L25.563119192885527 6.995993749879417 L27.57431055029552 7.428877443309566 L27.57431055029552 7.428877443309566 z"/>
<path fill="#c0c0c0" stroke="#c0c0c0" d="M24.52993 8.77498 L25.56312 6.99599 L27.57431 7.42888 L27.78411 9.4754 L25.90258 10.30734 z"/>
<path fill="#c0c0c0" stroke="#c0c0c0" d="M27.574311961560433 7.428879798914649 L27.78410682212332 9.475400325773519 L27.78410682212332 9.475400325773519 L27.574311961560433 7.428879798914649 z"/>
<path fill="#c0c0c0" stroke="#c0c0c0" d="M27.78410980625703 9.475399561826515 L25.902579089017852 10.307337939702105 L25.902579089017852 10.307337939702105 L27.78410980625703 9.475399561826515 z"/>
<path fill="#c0c0c0" stroke="#c0c0c0" d="M33.98302951507121 23.77979932984687 L33.98302951507121 23.77979932984687 L35.6497008040735 22.573781111198976 L35.6497008040735 22.573781111198976 L35.64107305762717 22.580024225524404 L35.1637205500076 22.925440760089582 L34.100568093620204 23.69474736545567 z"/>
<path fill="#c0c0c0" stroke="#c0c0c0" d="M32.32100931534042 22.56738093855292 L32.32100931534042 22.56738093855292 L33.98303054321167 23.779799255348323 L33.98303054321167 23.779799255348323 L33.80354951195857 23.64887066902256 z"/>
<path fill="#c0c0c0" stroke="#c0c0c0" d="M32.96049 20.61205 L35.01774 20.616 L35.6497 22.57378 L33.98303 23.7798 L32.32101 22.56738 z"/>
<path fill="#c0c0c0" stroke="#c0c0c0" d="M24.702548066763306 36.30637432718435 L24.702548066763306 36.30637432718435 L26.580860260107453 37.145539417798695 L26.580860260107453 37.145539417798695 z"/>
<path fill="#c0c0c0" stroke="#c0c0c0" d="M24.920209617580078 34.26066995931038 L24.920209617580078 34.26066995931038 L24.70254644401931 36.30636962164238 L24.70254644401931 36.30636962164238 z"/>
<path fill="#c0c0c0" stroke="#c0c0c0" d="M27.959390178069533 35.6184701607483 L27.959390178069533 35.6184701607483 L26.58086107993932 37.14554097489111 L26.58086107993932 37.14554097489111 z"/>
<path fill="#c0c0c0" stroke="#c0c0c0" d="M26.933049122744805 33.835525846667124 L26.933049122744805 33.835525846667124 L24.920210408326394 34.260671933206496 L24.920210408326394 34.260671933206496 z"/>
<path fill="#c0c0c0" stroke="#c0c0c0" d="M27.9593876509671 35.618471352203045 L27.9593876509671 35.618471352203045 L26.933050697146665 33.83552959869278 L26.933050697146665 33.83552959869278 z"/>
<path fill="#c0c0c0" stroke="#c0c0c0" d="M26.93305 33.83553 L27.95939 35.61847 L26.58086 37.14554 L24.70255 36.30637 L24.92021 34.26067 z"/>
<path fill="#c0c0c0" stroke="#c0c0c0" d="M12.468348855131728 35.236611029516084 L12.468348855131728 35.236611029516084 L11.092762856650332 33.70689743117391 L11.092762856650332 33.70689743117391 z"/>
<path fill="#c0c0c0" stroke="#c0c0c0" d="M1.9578 23.415779709815993 L1.9578 23.415779709815993 L4.01505 23.415779709815993 L4.01505 23.415779709815993 L3.8163 23.415779709815993 L3.52265 23.415779709815993 z"/>
<path fill="#c0c0c0" stroke="#c0c0c0" d="M11.092760411360143 33.70690092552587 L11.092760411360143 33.70690092552587 L9.21284081728112 34.54245183881409 L9.21284081728112 34.54245183881409 L10.38952142927111 34.01946321574033 z"/>
<path fill="#c0c0c0" stroke="#c0c0c0" d="M9.212838309584649 34.54245017657447 L9.212838309584649 34.54245017657447 L9.426568359789982 36.588570171330204 L9.426568359789982 36.588570171330204 z"/>
<path fill="#c0c0c0" stroke="#c0c0c0" d="M11.438588949169942 37.01758492823428 L11.438588949169942 37.01758492823428 L9.426570161888463 36.58856924076754 L9.426570161888463 36.58856924076754 z"/>
<path fill="#c0c0c0" stroke="#c0c0c0" d="M12.46835 35.23661 L11.43859 37.01758 L9.42657 36.58857 L9.21284 34.54245 L11.09276 33.7069 z"/>
<path fill="#c0c0c0" stroke="#c0c0c0" d="M2.9864212066053755 20.25000166074992 L2.9864212066053755 20.25000166074992 L1.3220716755901947 21.45922230625218 L1.3220716755901947 21.45922230625218 L1.956901216106355 20.9979916738269 L2.0559088520086446 20.92605841992536 z"/>
<path fill="#c0c0c0" stroke="#c0c0c0" d="M4.01504780667929 23.415779287346822 L4.01504780667929 23.415779287346822 L4.650772285940975 21.459220742747327 L4.650772285940975 21.459220742747327 z"/>
<path fill="#c0c0c0" stroke="#c0c0c0" d="M4.650770737620543 21.459218984752358 L4.650770737620543 21.459218984752358 L2.986421206605362 20.249998339250094 L2.986421206605362 20.249998339250094 z"/>
<path fill="#c0c0c0" stroke="#c0c0c0" d="M1.957799466104012 23.41578017347334 L1.957799466104012 23.41578017347334 L1.3220740319271043 21.45921868994732 L1.3220740319271043 21.45921868994732 z"/>
<path fill="#c0c0c0" stroke="#c0c0c0" d="M4.01505 23.41578 L1.9578 23.41578 L1.32207 21.45922 L2.98642 20.25 L4.65077 21.45922 z"/>
<path fill="#c0c0c0" stroke="#c0c0c0" d="M12.297819495267378 7.681701123940909 L12.297819495267378 7.681701123940909 L10.421118427863913 6.838923500839829 L10.421118427863913 6.838923500839829 z"/>
<path fill="#c0c0c0" stroke="#c0c0c0" d="M9.039661027615836 8.363339411088335 L9.039661027615836 8.363339411088335 L10.062572269481278 10.14825869939334 L10.062572269481278 10.14825869939334 z"/>
<path fill="#c0c0c0" stroke="#c0c0c0" d="M10.062569100251084 10.148255699291841 L10.062569100251084 10.148255699291841 L12.076220169035652 9.726980807973208 L12.076220169035652 9.726980807973208 z"/>
<path fill="#c0c0c0" stroke="#c0c0c0" d="M12.076223304666884 9.72698035804494 L12.076223304666884 9.72698035804494 L12.29781970928658 7.681699968502583 L12.29781970928658 7.681699968502583 z"/>
<path fill="#c0c0c0" stroke="#c0c0c0" d="M9.039659923997666 8.363339931124912 L9.039659923997666 8.363339931124912 L10.42112265560533 6.838922406571516 L10.42112265560533 6.838922406571516 z"/>
<path fill="#c0c0c0" stroke="#c0c0c0" d="M10.06257 10.14826 L9.03966 8.36334 L10.42112 6.83892 L12.29782 7.6817 L12.07622 9.72698 z"/>
<path fill="#c0c0c0" stroke="#c0c0c0" d="M29.98642 45 L6.98642 45 L6.98642 43 L29.98642 43 z"/>
<path fill="#c0c0c0" stroke="#c0c0c0" d="M6.98642 43.000000000000014 L6.98642 43.000000000000014 L29.98642 43.000000000000014 L29.98642 43.000000000000014 z"/>
<path fill="#c0c0c0" stroke="#c0c0c0" d="M29.986423492431655 45 L29.986423492431655 45 L29.986423492431655 43 L29.986423492431655 43 z"/>
<path fill="#c0c0c0" stroke="#c0c0c0" d="M6.986423492431655 45 L6.986423492431655 45 L6.986423492431655 43 L6.986423492431655 43 z"/>
<path fill="#c0c0c0" stroke="#c0c0c0" d="M6.98642 45.000000000000014 L6.98642 45.000000000000014 L29.98642 45.000000000000014 L29.98642 45.000000000000014 z"/>
<path fill="#c0c0c0" stroke="#c0c0c0" d="M6.98642 45 L29.98642 45 L29.98642 43 L6.98642 43 z"/>
<path fill="#ffffff" stroke="#ffffff" d="M29.98642 47 L6.98642 47 L6.98642 41 L29.98642 41 z"/>
<path fill="#ffffff" stroke="#ffffff" d="M6.98642 41.000000000000014 L6.98642 41.000000000000014 L29.98642 41.000000000000014 L29.98642 41.000000000000014 z"/>
<path fill="#ffffff" stroke="#ffffff" d="M29.986423492431655 47 L29.986423492431655 47 L29.986423492431655 41 L29.986423492431655 41 z"/>
<path fill="#ffffff" stroke="#ffffff" d="M6.986423492431655 47 L6.986423492431655 47 L6.986423492431655 41 L6.986423492431655 41 z"/>
<path fill="#ffffff" stroke="#ffffff" d="M6.98642 47.000000000000014 L6.98642 47.000000000000014 L29.98642 47.000000000000014 L29.98642 47.000000000000014 z"/>
<path fill="#ffffff" stroke="#ffffff" d="M6.98642 41 L6.98642 47 L29.98642 47 L29.98642 41 z"/>
<path fill="#c0c0c0" stroke="#c0c0c0" d="M29.82949 40.69343 L28.54482 39.16058 L33.14336 35.30657 L34.42803 36.83942 z"/>
<path fill="#c0c0c0" stroke="#c0c0c0" d="M33.143359030532196 35.306570812506344 L33.143359030532196 35.306570812506344 L34.42803154798118 36.83941870264434 L34.42803154798118 36.83941870264434 z"/>
<path fill="#c0c0c0" stroke="#c0c0c0" d="M29.829489987500178 40.69342998508544 L29.829489987500178 40.69342998508544 L34.428027783866526 36.83941735574983 L34.428027783866526 36.83941735574983 z"/>
<path fill="#c0c0c0" stroke="#c0c0c0" d="M28.544820972102446 39.16058115989497 L28.544820972102446 39.16058115989497 L33.143358768468794 35.30656853055936 L33.143358768468794 35.30656853055936 z"/>
<path fill="#c0c0c0" stroke="#c0c0c0" d="M28.544816680913147 39.160582781710886 L28.544816680913147 39.160582781710886 L29.82948919836213 40.69343067184887 L29.82948919836213 40.69343067184887 z"/>
<path fill="#c0c0c0" stroke="#c0c0c0" d="M28.54482 39.16058 L29.82949 40.69343 L34.42803 36.83942 L33.14336 35.30657 z"/>
<path fill="#000000" stroke="#000000" d="M30.15066 41.07664 L28.22365 38.77737 L32.82219 34.92336 L34.7492 37.22263 z"/>
<path fill="#000000" stroke="#000000" d="M32.822191100434694 34.923359077730915 L32.822191100434694 34.923359077730915 L34.74919947807869 37.22263043741977 L34.74919947807869 37.22263043741977 z"/>
<path fill="#000000" stroke="#000000" d="M30.150659940614357 41.076639929142125 L30.150659940614357 41.076639929142125 L34.749197736980705 37.22262729980652 L34.749197736980705 37.22262729980652 z"/>
<path fill="#000000" stroke="#000000" d="M28.22365101898827 38.77737121583827 L28.22365101898827 38.77737121583827 L32.822188815354615 34.92335858650267 L32.822188815354615 34.92335858650267 z"/>
<path fill="#000000" stroke="#000000" d="M28.22364875081564 38.77737104693545 L28.22364875081564 38.77737104693545 L30.15065712845963 41.0766424066243 L30.15065712845963 41.0766424066243 z"/>
<path fill="#000000" stroke="#000000" d="M28.22365 38.77737 L30.15066 41.07664 L34.7492 37.22263 L32.82219 34.92336 z"/>
</svg>