<?xml version="1.0" encoding="UTF-8"?>
<!-- Generated by jsxcad -->
<!DOCTYPE svg PUBLIC "-//W3C//DTD SVG 1.1 Tiny//EN" "http://www.w3.org/Graphics/SVG/1.1/DTD/svg11-tiny.dtd">
<svg viewBox="-250 -250 500 500" width="500" height="500" xmlns="http://www.w3.org/2000/svg"><path d="M-52.483603771100334,-47.60272431080167L-4.188985980288824,-83.27941484274749L-51.291316404671505,-70.17271268677662zM-89.45154197557225,-41.014371147577606L-44.28142717489282,-108.93965038332554L-84.40783511357141,-97.4049422391907z" style="fill:rgb(83,212,212)"/><path d="M-36.31816416556555,-93.15312847367943L-44.28142717489282,-108.93965038332554L-46.95583615354637,-52.6401332657838zM-3.0248574823110217,-80.8556533427279L-4.188985980288824,-83.27941484274749L-4.287535679691117,-60.74542289076493z" style="fill:rgb(247,158,158)"/><path d="M-4.269455988814277,-64.87946144731254L13.417107503435089,-84.18665382110312L-4.206389204857019,-79.30006750874516zM-52.483603771100334,-47.60272431080167L-4.287535679691117,-60.74542289076493L-4.188985980288824,-83.27941484274749z" style="fill:rgb(83,212,212)"/><path d="M14.552886603248195,-81.74028514202251L13.417107503435089,-84.18665382110312L13.619161594961003,-69.77582564868564z" style="fill:rgb(247,158,158)"/><path d="M-3.0958630600862063,-58.31446232295692L-52.483603771100334,-47.60272431080167L-51.201082530048744,-45.22932543516943z" style="fill:rgb(127,37,217)"/><path d="M-3.0248574823110217,-80.8556533427279L-4.287535679691117,-60.74542289076493L-3.0958630600862063,-58.31446232295692z" style="fill:rgb(247,158,158)"/><path d="M-4.269455988814277,-64.87946144731254L13.619161594961003,-69.77582564868564L13.417107503435089,-84.18665382110312z" style="fill:rgb(83,212,212)"/><path d="M14.552886603248195,-81.74028514202251L13.619161594961003,-69.77582564868564L14.771561466759808,-67.32448490005885z" style="fill:rgb(247,158,158)"/><path d="M-3.0958630600862063,-58.31446232295692L-4.287535679691117,-60.74542289076493L-52.483603771100334,-47.60272431080167zM-3.0828370867236323,-62.44965041802707L13.619161594961003,-69.77582564868564L-4.269455988814277,-64.87946144731254zM-3.0828370867236323,-62.44965041802707L14.771561466759808,-67.32448490005885L13.619161594961003,-69.77582564868564z" style="fill:rgb(127,37,217)"/><path d="M-36.31816416556555,-93.15312847367943L-46.95583615354637,-52.6401332657838L-38.47973677256434,-36.73254301251537z" style="fill:rgb(247,158,158)"/><path d="M-89.45154197557225,-41.014371147577606L-46.95583615354637,-52.6401332657838L-44.28142717489282,-108.93965038332554z" style="fill:rgb(83,212,212)"/><path d="M-38.47973677256434,-36.73254301251537L-89.45154197557225,-41.014371147577606L-80.45286157192668,-25.44062218901821zM-38.47973677256434,-36.73254301251537L-46.95583615354637,-52.6401332657838L-89.45154197557225,-41.014371147577606z" style="fill:rgb(127,37,217)"/><path d="M-107.04094233944183,58.677029892636504L-109.24255062122818,56.117421358868036L-107.72009806242016,58.44231124293978zM-107.04094233944183,58.677029892636504L-107.72009806242016,58.44231124293978L-105.51831466328974,61.00408699076694zM-104.07082347593428,62.130334842172125L-107.04106559429337,58.677116476421304L-105.51843758878837,61.0041734269078zM-104.07082347593428,62.130334842172125L-105.51843758878837,61.0041734269078L-102.54801762657637,64.46024768835954zM-100.70649907231955,66.04165965171053L-104.070794204532,62.13031300522524L-102.54798843586107,64.46022588644969zM-100.70649907231955,66.04165965171053L-102.54798843586107,64.46022588644969L-99.18357288105214,68.37471307371246z" style="fill:rgb(26,52,150)"/><path d="M-75.87302019864951,67.1946778514105L-73.83978323372905,50.815312760095644L-74.7454668008191,50.7239969497288z" style="fill:rgb(83,212,212)"/><path d="M-92.8010910350762,75.23259610458628L-100.70653480945232,66.04168108866533L-99.18360852354024,68.37473444982517z" style="fill:rgb(26,52,150)"/><path d="M-76.55121751088187,68.70240438857682L-74.7454668008191,50.7239969497288L-75.30722715875518,50.667362999890486zM-74.84921016556089,65.74257283581024L-72.6345785979371,50.93682203076385L-73.83978323372905,50.815312760095644zM-76.84899022740561,70.19101016210269L-75.30722715875518,50.667362999890486L-75.49756698398322,50.64817671778296zM-73.53121200162732,64.41761281845871L-71.18920203085669,51.082549992229204L-72.6345785979371,50.93682203076385zM-71.98454740567625,63.284898246605145L-69.57506302514474,51.24529943970656L-71.18920203085669,51.082549992229204zM-79.3894437353211,90.8250380794447L-82.83182745812373,49.50739757531036L-109.24266642496247,56.117507573589236zM-70.28553272980108,62.400017107214886L-67.87244493922361,51.41696472550045L-69.57506302514474,51.24529943970656zM-68.51788663797934,61.80655495936068L-66.20488164133056,51.58509153539288L-67.87244493922361,51.41696472550045zM-66.80803996653995,61.54012967116734L-66.16630705273549,51.58668083701007L-66.20488164133056,51.58509153539288zM-66.76864502108018,61.53399258432523L-64.53697823307432,51.65353345169383L-66.16630705273549,51.58668083701007z" style="fill:rgb(83,212,212)"/><path d="M-92.8010910350762,75.23259610458628L-99.18360852354024,68.37473444982517L-91.27822041655976,77.5726350630887z" style="fill:rgb(26,52,150)"/><path d="M-65.12418263830253,61.596355184279524L-63.15142066978402,51.7104311546046L-64.53697823307432,51.65353345169383zM-73.53121200162732,64.41761281845871L-71.98454740567625,63.284898246605145L-71.18920203085669,51.082549992229204zM-74.84921016556089,65.74257283581024L-73.53121200162732,64.41761281845871L-72.6345785979371,50.93682203076385zM-63.744305375496786,61.97021986618915L-63.07301594202691,51.71361980518836L-63.15142066978402,51.7104311546046zM-71.98454740567625,63.284898246605145L-70.28553272980108,62.400017107214886L-69.57506302514474,51.24529943970656zM-79.3894437353211,90.8250380794447L-76.56407146681192,50.54063102056246L-82.83182745812373,49.50739757531036zM-75.87302019864951,67.1946778514105L-74.84921016556089,65.74257283581024L-73.83978323372905,50.815312760095644zM-63.666200816243816,61.99140170053603L-61.848714675053486,51.76388114051265L-63.07301594202691,51.71361980518836zM-70.28553272980108,62.400017107214886L-68.51788663797934,61.80655495936068L-67.87244493922361,51.41696472550045zM-76.55121751088187,68.70240438857682L-75.87302019864951,67.1946778514105L-74.7454668008191,50.7239969497288zM-62.46764690202866,62.70055387641661L-60.926503420809695,51.801737958922956L-61.848714675053486,51.76388114051265zM-68.51788663797934,61.80655495936068L-66.80803996653995,61.54012967116734L-66.20488164133056,51.58509153539288zM-76.84899022740561,70.19101016210269L-76.55121751088187,68.70240438857682L-75.30722715875518,50.667362999890486zM-66.80803996653995,61.54012967116734L-66.76864502108018,61.53399258432523L-66.16630705273549,51.58668083701007zM-79.3894437353211,90.8250380794447L-75.49756698398322,50.64817671778296L-76.56407146681192,50.54063102056246zM-61.58921242976198,63.68961684793592L-60.353552606542685,51.825248477213094L-60.926503420809695,51.801737958922956z" style="fill:rgb(83,212,212)"/><path d="M-68.81889246023161,64.7683777771534L-71.98454740567625,63.284898246605145L-70.51378321931377,65.65114166960906z" style="fill:rgb(167,52,222)"/><path d="M-68.55428029006363,64.679677055387L-70.28553272980108,62.400017107214886L-68.81889246023161,64.7683777771534z" style="fill:rgb(140,41,220)"/><path d="M-66.76864502108018,61.53399258432523L-65.12418263830253,61.596355184279524L-64.53697823307432,51.65353345169383z" style="fill:rgb(83,212,212)"/><path d="M-67.05508968202858,64.17705171463969L-70.02035139940041,62.310995977739985L-68.55428029006363,64.679677055387z" style="fill:rgb(140,41,220)"/><path d="M-58.72432590310897,54.215165052294594L-60.159254364360656,51.83322677176691L-60.95566073855089,66.30202606703246z" style="fill:rgb(247,158,158)"/><path d="M-70.51378321931377,65.65114166960906L-73.53121200162732,64.41761281845871L-72.05624261714075,66.78186002171473z" style="fill:rgb(191,67,220)"/><path d="M-65.3092249474846,63.9065395746371L-68.51788663797934,61.80655495936068L-67.05508968202858,64.17705171463969z" style="fill:rgb(114,34,213)"/><path d="M-61.07612158410889,64.91024730755822L-60.159254364360656,51.83322677176691L-60.353552606542685,51.825248477213094z" style="fill:rgb(83,212,212)"/><path d="M-72.05624261714075,66.78186002171473L-74.84921016556089,65.74257283581024L-73.3701586938498,68.10504057184643z" style="fill:rgb(212,85,213)"/><path d="M-68.81889246023161,64.7683777771534L-70.28553272980108,62.400017107214886L-71.98454740567625,63.284898246605145z" style="fill:rgb(167,52,222)"/><path d="M-68.55428029006363,64.679677055387L-70.02035139940041,62.310995977739985L-70.28553272980108,62.400017107214886z" style="fill:rgb(140,41,220)"/><path d="M-65.12418263830253,61.596355184279524L-63.744305375496786,61.97021986618915L-63.15142066978402,51.7104311546046z" style="fill:rgb(83,212,212)"/><path d="M-70.51378321931377,65.65114166960906L-71.98454740567625,63.284898246605145L-73.53121200162732,64.41761281845871z" style="fill:rgb(191,67,220)"/><path d="M-67.05508968202858,64.17705171463969L-68.51788663797934,61.80655495936068L-70.02035139940041,62.310995977739985z" style="fill:rgb(140,41,220)"/><path d="M-63.66750874448869,63.97076443700049L-66.76864502108018,61.53399258432523L-65.3092249474846,63.9065395746371z" style="fill:rgb(87,32,202)"/><path d="M-63.744305375496786,61.97021986618915L-63.666200816243816,61.99140170053603L-63.07301594202691,51.71361980518836z" style="fill:rgb(83,212,212)"/><path d="M-72.05624261714075,66.78186002171473L-73.53121200162732,64.41761281845871L-74.84921016556089,65.74257283581024z" style="fill:rgb(212,85,213)"/><path d="M-65.3092249474846,63.9065395746371L-66.76864502108018,61.53399258432523L-68.51788663797934,61.80655495936068z" style="fill:rgb(114,34,213)"/><path d="M-73.3701586938498,68.10504057184643L-75.87302019864951,67.1946778514105L-74.3902101144742,69.55566781027282z" style="fill:rgb(228,105,201)"/><path d="M-70.28553272980108,62.400017107214886L-70.02035139940041,62.310995977739985L-68.51788663797934,61.80655495936068z" style="fill:rgb(82,225,194)"/><path d="M-63.666200816243816,61.99140170053603L-62.46764690202866,62.70055387641661L-61.848714675053486,51.76388114051265z" style="fill:rgb(83,212,212)"/><path d="M-73.3701586938498,68.10504057184643L-74.84921016556089,65.74257283581024L-75.87302019864951,67.1946778514105z" style="fill:rgb(228,105,201)"/><path d="M-62.28950493222187,64.34612385549607L-65.12418263830253,61.596355184279524L-63.66750874448869,63.97076443700049z" style="fill:rgb(63,34,187)"/><path d="M-63.66750874448869,63.97076443700049L-65.12418263830253,61.596355184279524L-66.76864502108018,61.53399258432523z" style="fill:rgb(87,32,202)"/><path d="M-74.3902101144742,69.55566781027282L-76.3753832469208,68.31150138131657L-74.89016748249679,70.67167336806135z" style="fill:rgb(240,126,186)"/><path d="M-62.21150660300693,64.36739022364759L-63.744305375496786,61.97021986618915L-62.28950493222187,64.34612385549607z" style="fill:rgb(63,34,187)"/><path d="M-74.89016748249679,70.67167336806135L-76.55121751088187,68.70240438857682L-75.06515942403911,71.06228918533034zM-74.3902101144742,69.55566781027282L-75.87302019864951,67.1946778514105L-76.3753832469208,68.31150138131657z" style="fill:rgb(240,126,186)"/><path d="M-62.46764690202866,62.70055387641661L-61.58921242976198,63.68961684793592L-60.926503420809695,51.801737958922956z" style="fill:rgb(83,212,212)"/><path d="M-61.01406574093475,65.07775662811711L-63.666200816243816,61.99140170053603L-62.21150660300693,64.36739022364759z" style="fill:rgb(42,41,169)"/><path d="M-62.28950493222187,64.34612385549607L-63.744305375496786,61.97021986618915L-65.12418263830253,61.596355184279524z" style="fill:rgb(63,34,187)"/><path d="M-74.89016748249679,70.67167336806135L-76.3753832469208,68.31150138131657L-76.55121751088187,68.70240438857682z" style="fill:rgb(240,126,186)"/><path d="M-62.21150660300693,64.36739022364759L-63.666200816243816,61.99140170053603L-63.744305375496786,61.97021986618915z" style="fill:rgb(63,34,187)"/><path d="M-75.06515942403911,71.06228918533034L-76.84899022740561,70.19101016210269L-75.36035949108557,72.55021615528574z" style="fill:rgb(246,148,168)"/><path d="M-58.72432590310897,54.215165052294594L-60.95566073855089,66.30202606703246L-59.499840537453245,68.68013794835196z" style="fill:rgb(247,158,158)"/><path d="M-61.58921242976198,63.68961684793592L-61.07612158410889,64.91024730755822L-60.353552606542685,51.825248477213094z" style="fill:rgb(83,212,212)"/><path d="M-75.06515942403911,71.06228918533034L-76.55121751088187,68.70240438857682L-76.84899022740561,70.19101016210269z" style="fill:rgb(246,148,168)"/><path d="M-88.26374796012088,80.50777677863167L-92.80111329109545,75.23261826819915L-91.2782426107393,77.57265718523509z" style="fill:rgb(26,52,150)"/><path d="M-61.01406574093475,65.07775662811711L-62.46764690202866,62.70055387641661L-63.666200816243816,61.99140170053603z" style="fill:rgb(42,41,169)"/><path d="M-60.135817429325755,66.0676033611921L-62.46764690202866,62.70055387641661L-61.01406574093475,65.07775662811711z" style="fill:rgb(26,53,149)"/><path d="M-61.07612158410889,64.91024730755822L-60.95566073855089,66.30202606703246L-60.159254364360656,51.83322677176691z" style="fill:rgb(83,212,212)"/><path d="M-75.36035949108557,72.55021615528574L-76.75013370354678,71.58623457062322L-75.2597396823426,73.94522278189207zM-75.36035949108557,72.55021615528574L-76.84899022740561,70.19101016210269L-76.75013370354678,71.58623457062322z" style="fill:rgb(246,168,148)"/><path d="M-60.135817429325755,66.0676033611921L-61.58921242976198,63.68961684793592L-62.46764690202866,62.70055387641661z" style="fill:rgb(26,53,149)"/><path d="M-88.26374796012088,80.50777677863167L-91.2782426107393,77.57265718523509L-86.7411238324003,82.85157544004798z" style="fill:rgb(26,52,150)"/><path d="M-75.2597396823426,73.94522278189207L-76.25797588504659,72.817898019027L-74.7667232792968,75.17714272384013zM-75.2597396823426,73.94522278189207L-76.75013370354678,71.58623457062322L-76.25797588504659,72.817898019027z" style="fill:rgb(240,186,126)"/><path d="M-83.34010302517066,86.23197894693166L-88.26371826087761,80.50775442939073L-86.74109421358771,82.8515531330011z" style="fill:rgb(26,52,150)"/><path d="M-79.3894437353211,90.8250380794447L-78.35873636888378,92.02333843864778L-75.49756698398322,50.64817671778296zM-78.35873636888378,92.02333843864778L-76.75013370354678,71.58623457062322L-76.84899022740561,70.19101016210269z" style="fill:rgb(83,212,212)"/><path d="M-83.34010302517066,86.23197894693166L-86.74109421358771,82.8515531330011L-81.81792355955632,88.57965144054829z" style="fill:rgb(26,52,150)"/><path d="M-78.17457774254623,92.2374473875332L-76.25797588504659,72.817898019027L-76.75013370354678,71.58623457062322zM-63.332986827345074,109.49236514760834L-55.42099997863449,52.02770325269994L-60.159254364360656,51.83322677176691zM-77.63069140660392,92.86977555655666L-75.3956603918438,73.82339592520165L-76.25797588504659,72.817898019027zM-76.75266518581321,93.8905879265094L-74.2052120339497,74.55113765684665L-75.3956603918438,73.82339592520165zM-75.58203599902657,95.25154258916042L-72.74573717588682,74.96322591457489L-74.2052120339497,74.55113765684665zM-74.17476382112525,96.8876495218791L-71.09045817701482,75.03773522090638L-72.74573717588682,74.96322591457489z" style="fill:rgb(83,212,212)"/><path d="M-78.35872180524088,92.023338766198L-83.34008181521276,86.23197986063097L-81.81790238561372,88.57965237684655z" style="fill:rgb(26,52,150)"/><path d="M-78.35873636888378,92.02333843864778L-78.17457774254623,92.2374473875332L-76.75013370354678,71.58623457062322zM-58.61261373023026,114.98027718813452L-44.26250384570862,51.8558056117652L-55.42099997863449,52.02770325269994zM-78.17457774254623,92.2374473875332L-77.63069140660392,92.86977555655666L-76.25797588504659,72.817898019027zM-72.59882719914663,98.71984974858309L-69.32322580946351,74.76999001222568L-71.09045817701482,75.03773522090638z" style="fill:rgb(83,212,212)"/><path d="M-78.35872180524088,92.023338766198L-81.81790238561372,88.57965237684655L-76.83717970008072,94.37471231279292z" style="fill:rgb(26,52,150)"/><path d="M-77.63069140660392,92.86977555655666L-76.75266518581321,93.8905879265094L-75.3956603918438,73.82339592520165zM-70.93150807669662,100.65829818510433L-67.53397824563255,74.1730824205606L-69.32322580946351,74.76999001222568zM-69.25570689685429,102.60657324959311L-65.81402976926073,73.27716783651024L-67.53397824563255,74.1730824205606zM-76.75266518581321,93.8905879265094L-75.58203599902657,95.25154258916042L-74.2052120339497,74.55113765684665zM-63.52563127966855,109.26839482584836L-60.95566073855089,66.30202606703246L-61.235446428630055,67.79545585006129zM-67.65600778832794,104.46639927107145L-64.25123883113541,72.12801759023205L-65.81402976926073,73.27716783651024zM-64.09328460053923,108.60843496729551L-61.235446428630055,67.79545585006129L-61.90282649805699,69.31532103785534zM-66.21439011329079,106.1424284259403L-62.925135444702626,70.78447478892633L-64.25123883113541,72.12801759023205zM-65.00565509505485,107.54772088500934L-61.90282649805699,69.31532103785534L-62.925135444702626,70.78447478892633z" style="fill:rgb(83,212,212)"/><path d="M-76.65306277525731,94.58895354603185L-78.35873636888378,92.02333843864778L-76.83719423306661,94.37471197769555zM-77.6306834228791,92.86976003509571L-76.65305482495779,94.58894546891314L-76.10925025200734,95.22165613245694z" style="fill:rgb(26,52,150)"/><path d="M-75.58203599902657,95.25154258916042L-74.17476382112525,96.8876495218791L-72.74573717588682,74.96322591457489z" style="fill:rgb(83,212,212)"/><path d="M-76.65306277525731,94.58895354603185L-78.17457774254623,92.2374473875332L-78.35873636888378,92.02333843864778zM-77.6306834228791,92.86976003509571L-78.17456976165626,92.23743930712237L-76.65305482495779,94.58894546891314zM-75.2313687054469,96.24310795809336L-77.63069140660392,92.86977555655666L-76.10925820510867,95.2216716321798z" style="fill:rgb(26,52,150)"/><path d="M-74.17476382112525,96.8876495218791L-72.59882719914663,98.71984974858309L-71.09045817701482,75.03773522090638z" style="fill:rgb(83,212,212)"/><path d="M-75.2313687054469,96.24310795809336L-76.75266518581321,93.8905879265094L-77.63069140660392,92.86977555655666zM-74.06093098638465,97.6048839078125L-76.75266518581321,93.8905879265094L-75.2313687054469,96.24310795809336zM-74.06093098638465,97.6048839078125L-75.58203599902657,95.25154258916042L-76.75266518581321,93.8905879265094z" style="fill:rgb(26,52,150)"/><path d="M-72.59882719914663,98.71984974858309L-70.93150807669662,100.65829818510433L-69.32322580946351,74.76999001222568zM-47.349188125191226,128.07518984731007L-32.783636855451924,51.06066333376025L-44.26250384570862,51.8558056117652z" style="fill:rgb(83,212,212)"/><path d="M-74.17477929145144,96.88766515440321L-74.06095355445515,97.604899125062L-72.65391813979531,99.24197770989136zM-74.17477929145144,96.88766515440321L-75.58205862880803,95.25155783592346L-74.06095355445515,97.604899125062z" style="fill:rgb(26,52,150)"/><path d="M-70.93150807669662,100.65829818510433L-69.25570689685429,102.60657324959311L-67.53397824563255,74.1730824205606zM75.25596941061038,26.55702241514533L76.33825835090087,15.528812219579693L74.55251426676514,16.576942738958078zM77.09077903648256,25.944923830622784L78.16468603959444,14.45679292351582L76.33825835090087,15.528812219579693zM75.2137328809423,26.57111368440833L74.55251426676514,16.576942738958078L74.51122840215709,16.59879292362627zM73.45402105072716,27.4880158543987L74.51122840215709,16.59879292362627L72.76887105407668,17.52049645639121zM78.99283536335388,25.640519453688075L79.89913492225699,13.438750720466023L78.16468603959444,14.45679292351582zM71.98157059090255,28.588243764039316L72.76887105407668,17.52049645639121L71.2894751267184,18.30313791927229zM71.89828817481943,28.65048661975139L71.2894751267184,18.30313791927229L71.20582257585968,18.34736267482184z" style="fill:rgb(83,212,212)"/><path d="M-72.59880447691765,98.71983441983181L-72.65388010745644,99.24194684372422L-71.07823443074588,101.07521392449694z" style="fill:rgb(26,52,150)"/><path d="M-69.25570689685429,102.60657324959311L-67.65600778832794,104.46639927107145L-65.81402976926073,73.27716783651024z" style="fill:rgb(83,212,212)"/><path d="M-72.59880447691765,98.71983441983181L-74.17474114772152,96.88763423645389L-72.65388010745644,99.24194684372422z" style="fill:rgb(26,52,150)"/><path d="M80.82611038060244,25.673517997880033L81.45469244770008,12.525721938093032L79.89913492225699,13.438750720466023zM70.62332317621328,30.00152045964464L71.20582257585968,18.34736267482184L69.90044766504549,19.037932742301983zM82.49969482090876,26.04316179766657L82.75352641065597,11.763382099569036L81.45469244770008,12.525721938093032zM69.69257617002604,31.474776261881296L69.90044766504549,19.037932742301983L68.91824289812658,19.557534690439866zM83.93003541261506,26.732204194875546L83.73062753062875,11.189873632288924L82.75352641065597,11.763382099569036zM69.15301478973251,32.99771376957814L68.91824289812658,19.557534690439866L68.3084842125028,19.88009921688193zM85.04491400835171,27.7075119171211L84.33714194830544,10.833886615112199L83.73062753062875,11.189873632288924zM69.03273683834269,34.49484258941693L68.3084842125028,19.88009921688193L68.10178064333425,19.98944783224431z" style="fill:rgb(83,212,212)"/><path d="M85.66344139408339,13.271850954163806L84.54272540471084,10.713220431168702L86.11818634558183,30.314162151785098z" style="fill:rgb(247,158,158)"/><path d="M-67.65600778832794,104.46639927107145L-66.21439011329079,106.1424284259403L-64.25123883113541,72.12801759023205z" style="fill:rgb(83,212,212)"/><path d="M-69.41126639441224,103.01478248372315L-72.59882719914663,98.71984974858309L-71.07825709075424,101.07522922340296z" style="fill:rgb(26,52,150)"/><path d="M85.78726515877908,28.921503109349118L84.54272540471084,10.713220431168702L84.33714194830544,10.833886615112199z" style="fill:rgb(83,212,212)"/><path d="M122.72418798798424,0.9250514336095992L119.24332515968914,2.221300911098019L120.28673572257748,4.823016923514801zM122.72418798798424,0.9250514336095992L121.68937572864158,-1.680199924510004L119.24332515968914,2.221300911098019z" style="fill:rgb(228,104,202)"/><path d="M-66.21439011329079,106.1424284259403L-65.00565509505485,107.54772088500934L-62.925135444702626,70.78447478892633zM-63.332986827345074,109.49236514760834L-58.61261373023026,114.98027718813452L-55.42099997863449,52.02770325269994zM75.2137328809423,26.57111368440833L75.25596941061038,26.55702241514533L74.55251426676514,16.576942738958078zM73.45402105072716,27.4880158543987L75.2137328809423,26.57111368440833L74.51122840215709,16.59879292362627zM75.25596941061038,26.55702241514533L77.09077903648256,25.944923830622784L76.33825835090087,15.528812219579693zM71.98157059090255,28.588243764039316L73.45402105072716,27.4880158543987L72.76887105407668,17.52049645639121zM71.89828817481943,28.65048661975139L71.98157059090255,28.588243764039316L71.2894751267184,18.30313791927229zM77.09077903648256,25.944923830622784L78.99283536335388,25.640519453688075L78.16468603959444,14.45679292351582z" style="fill:rgb(83,212,212)"/><path d="M-69.41126639441224,103.01478248372315L-70.93150807669662,100.65829818510433L-72.59882719914663,98.71984974858309z" style="fill:rgb(26,52,150)"/><path d="M70.62332317621328,30.00152045964464L71.89828817481943,28.65048661975139L71.20582257585968,18.34736267482184zM-65.00565509505485,107.54772088500934L-64.09328460053923,108.60843496729551L-61.90282649805699,69.31532103785534zM78.99283536335388,25.640519453688075L80.82611038060244,25.673517997880033L79.89913492225699,13.438750720466023zM-63.52563127966855,109.26839482584836L-63.332986827345074,109.49236514760834L-60.95566073855089,66.30202606703246zM-64.09328460053923,108.60843496729551L-63.52563127966855,109.26839482584836L-61.235446428630055,67.79545585006129zM69.69257617002604,31.474776261881296L70.62332317621328,30.00152045964464L69.90044766504549,19.037932742301983z" style="fill:rgb(83,212,212)"/><path d="M119.24332515968914,2.221300911098019L117.00719796392258,10.067641147894403L120.28673572257748,4.823016923514801z" style="fill:rgb(228,104,202)"/><path d="M-67.73581664299371,104.96413573757486L-70.93150807669662,100.65829818510433L-69.41126639441224,103.01478248372315z" style="fill:rgb(26,52,150)"/><path d="M80.82611038060244,25.673517997880033L82.49969482090876,26.04316179766657L81.45469244770008,12.525721938093032z" style="fill:rgb(83,212,212)"/><path d="M76.36912200616676,29.115748712110268L73.45402105072716,27.4880158543987L74.61383371623387,30.03037779933695z" style="fill:rgb(167,52,222)"/><path d="M78.24181478190022,28.49190903198687L75.2137328809423,26.57111368440833L76.36912200616676,29.115748712110268z" style="fill:rgb(140,41,220)"/><path d="M69.15301478973251,32.99771376957814L69.69257617002604,31.474776261881296L68.91824289812658,19.557534690439866z" style="fill:rgb(83,212,212)"/><path d="M74.61383371623387,30.03037779933695L71.98157059090255,28.588243764039316L73.14543406101063,31.128631203629386zM73.14543406101063,31.128631203629386L71.89828817481943,28.65048661975139L73.06238084197362,31.19076232572112z" style="fill:rgb(191,67,220)"/><path d="M79.85483710050161,28.235185188167613L77.09077903648256,25.944923830622784L78.24181478190022,28.49190903198687z" style="fill:rgb(114,34,213)"/><path d="M82.49969482090876,26.04316179766657L83.93003541261506,26.732204194875546L82.75352641065597,11.763382099569036z" style="fill:rgb(83,212,212)"/><path d="M73.06238084197362,31.19076232572112L70.62332317621328,30.00152045964464L71.79134440167702,32.53999648680531z" style="fill:rgb(212,85,213)"/><path d="M76.36912200616676,29.115748712110268L75.2137328809423,26.57111368440833L73.45402105072716,27.4880158543987z" style="fill:rgb(167,52,222)"/><path d="M80.13979784214368,28.18981512312154L78.7072626786005,25.686234868356568L79.85483710050161,28.235185188167613z" style="fill:rgb(114,34,213)"/><path d="M74.61383371623387,30.03037779933695L73.45402105072716,27.4880158543987L71.98157059090255,28.588243764039316z" style="fill:rgb(191,67,220)"/><path d="M69.03273683834269,34.49484258941693L69.15301478973251,32.99771376957814L68.3084842125028,19.88009921688193zM-35.508575310142625,141.84119435603554L-28.192566778873285,50.504260647811094L-32.783636855451924,51.06066333376025z" style="fill:rgb(83,212,212)"/><path d="M78.24181478190022,28.49190903198687L77.09077903648256,25.944923830622784L75.2137328809423,26.57111368440833z" style="fill:rgb(140,41,220)"/><path d="M73.14543406101063,31.128631203629386L71.98157059090255,28.588243764039316L71.89828817481943,28.65048661975139z" style="fill:rgb(191,67,220)"/><path d="M81.96947724827405,28.224975063152215L78.99283536335388,25.640519453688075L80.13979784214368,28.18981512312154z" style="fill:rgb(87,32,202)"/><path d="M73.06238084197362,31.19076232572112L71.89828817481943,28.65048661975139L70.62332317621328,30.00152045964464z" style="fill:rgb(212,85,213)"/><path d="M119.24332515968914,2.221300911098019L115.95216482828577,7.470755599258647L117.00719796392258,10.067641147894403z" style="fill:rgb(228,104,202)"/><path d="M79.85483710050161,28.235185188167613L78.7072626786005,25.686234868356568L77.09077903648256,25.944923830622784z" style="fill:rgb(114,34,213)"/><path d="M-67.73581664299371,104.96413573757486L-69.25570689685429,102.60657324959311L-70.93150807669662,100.65829818510433z" style="fill:rgb(26,52,150)"/><path d="M71.79134440167702,32.53999648680531L69.69257617002604,31.474776261881296L70.8639811765607,34.01182307890828z" style="fill:rgb(228,105,201)"/><path d="M83.93003541261506,26.732204194875546L85.04491400835171,27.7075119171211L83.73062753062875,11.189873632288924z" style="fill:rgb(83,212,212)"/><path d="M80.13979784214368,28.18981512312154L78.99283536335388,25.640519453688075L78.7072626786005,25.686234868356568z" style="fill:rgb(114,34,213)"/><path d="M71.79134440167702,32.53999648680531L70.62332317621328,30.00152045964464L69.69257617002604,31.474776261881296z" style="fill:rgb(228,105,201)"/><path d="M83.6401202777647,28.596516017247826L80.82611038060244,25.673517997880033L81.96947724827405,28.224975063152215z" style="fill:rgb(63,34,187)"/><path d="M85.66344139408339,13.271850954163806L86.11818634558183,30.314162151785098L87.2557509825005,32.870794082548166z" style="fill:rgb(247,158,158)"/><path d="M81.96947724827405,28.224975063152215L80.82611038060244,25.673517997880033L78.99283536335388,25.640519453688075z" style="fill:rgb(87,32,202)"/><path d="M77.09077903648256,25.944923830622784L78.7072626786005,25.686234868356568L78.99283536335388,25.640519453688075z" style="fill:rgb(86,224,199)"/><path d="M85.04491400835171,27.7075119171211L85.78726515877908,28.921503109349118L84.33714194830544,10.833886615112199z" style="fill:rgb(83,212,212)"/><path d="M70.8639811765607,34.01182307890828L69.15301478973251,32.99771376957814L70.32708921461601,35.53377582072129zM70.8639811765607,34.01182307890828L69.69257617002604,31.474776261881296L69.15301478973251,32.99771376957814z" style="fill:rgb(240,126,186)"/><path d="M-67.65600778832794,104.46639927107145L-67.73581664299371,104.96413573757486L-66.13647287135441,106.82498249099946zM-67.65600778832794,104.46639927107145L-69.25570689685429,102.60657324959311L-67.73581664299371,104.96413573757486z" style="fill:rgb(26,52,150)"/><path d="M85.06832089139381,29.28709496027102L82.49969482090876,26.04316179766657L83.6401202777647,28.596516017247826z" style="fill:rgb(42,41,169)"/><path d="M83.6401202777647,28.596516017247826L82.49969482090876,26.04316179766657L80.82611038060244,25.673517997880033z" style="fill:rgb(63,34,187)"/><path d="M85.78726515877908,28.921503109349118L86.11818634558183,30.314162151785098L84.54272540471084,10.713220431168702z" style="fill:rgb(83,212,212)"/><path d="M70.32708921461601,35.53377582072129L69.03273683834269,34.49484258941693L70.20862875836002,37.03040683777483z" style="fill:rgb(246,148,168)"/><path d="M88.99194307390243,50.47279440595346L92.49270082390785,5.627146992987596L85.69538350742555,10.036658761109186zM-17.28390278252649,131.21285590945848L-14.785333672759506,48.56305373794444L-16.06862862077957,48.78345126165471zM-15.886606162753909,129.7268893884187L-13.247297409302027,48.2989070712408L-14.785333672759506,48.56305373794444zM-18.34464057970267,132.85609140878623L-16.06862862077957,48.78345126165471L-17.033500703730645,48.94916704510338zM-14.222190543662114,128.4710217041149L-12.811113146552545,48.22399455329381L-13.247297409302027,48.2989070712408z" style="fill:rgb(83,212,212)"/><path d="M70.32708921461601,35.53377582072129L69.15301478973251,32.99771376957814L69.03273683834269,34.49484258941693z" style="fill:rgb(246,148,168)"/><path d="M-13.75196934633697,128.22585364602276L-11.530979236795133,48.00411524134113L-12.811113146552545,48.22399455329381zM-19.015438130578918,134.57581975144103L-17.033500703730645,48.94916704510338L-17.632191301088294,49.05199212990533z" style="fill:rgb(83,212,212)"/><path d="M85.06832089139381,29.28709496027102L83.93003541261506,26.732204194875546L82.49969482090876,26.04316179766657z" style="fill:rgb(42,41,169)"/><path d="M86.18197182629395,30.26349706788552L83.93003541261506,26.732204194875546L85.06832089139381,29.28709496027102z" style="fill:rgb(26,53,149)"/><path d="M87.88090901541403,52.24490307400741L85.69538350742555,10.036658761109186L84.54272540471084,10.713220431168702zM-12.372707035386888,127.50675098932854L-9.722058448775044,47.69344167300629L-11.530979236795133,48.00411524134113zM-30.68246375713992,146.913495204729L-21.042298498836704,49.6376869655227L-28.192566778873285,50.504260647811094zM-19.261624420979775,136.28690558361635L-17.632191301088294,49.05199212990533L-17.835083101928852,49.08684484019354zM-10.429134006068784,126.88151672641348L-9.099782058212199,47.58657024776988L-9.722058448775044,47.69344167300629z" style="fill:rgb(83,212,212)"/><path d="M70.20862875836002,37.03040683777483L69.33931951182446,35.89147896050911L70.51607928779593,38.427059961678694z" style="fill:rgb(246,168,148)"/><path d="M-9.76182557143788,126.79383898288657L-7.910634548433432,47.32324551975303L-9.099782058212199,47.58657024776988z" style="fill:rgb(83,212,212)"/><path d="M-66.2144359527919,106.14245943513306L-66.13651873453827,106.82501374545882L-64.69523781179508,108.50193630306599zM-66.2144359527919,106.14245943513306L-67.65605378375567,104.46643057876113L-66.13651873453827,106.82501374545882z" style="fill:rgb(26,52,150)"/><path d="M70.20862875836002,37.03040683777483L69.03273683834269,34.49484258941693L69.33931951182446,35.89147896050911z" style="fill:rgb(246,168,148)"/><path d="M115.95216482828577,7.470755599258647L104.6558830670326,29.819799013257693L117.00719796392258,10.067641147894403z" style="fill:rgb(228,104,202)"/><path d="M-8.486998807213544,126.62635240231668L-6.188113872305385,46.94178212732843L-7.910634548433432,47.32324551975303z" style="fill:rgb(83,212,212)"/><path d="M86.73162330681171,31.163100051939406L85.04491400835171,27.7075119171211L86.18197182629395,30.26349706788552z" style="fill:rgb(14,68,128)"/><path d="M86.18197182629395,30.26349706788552L85.04491400835171,27.7075119171211L83.93003541261506,26.732204194875546z" style="fill:rgb(26,53,149)"/><path d="M88.99194307390243,50.47279440595346L121.68937572864158,-1.680199924510004L92.49270082390785,5.627146992987596zM-6.642033135419616,126.75457564543329L-4.949154563738304,46.667409461123086L-6.188113872305385,46.94178212732843z" style="fill:rgb(83,212,212)"/><path d="M-63.48675170379998,109.9079329980931L-66.21439011329079,106.1424284259403L-64.69519209892745,108.50190535499954z" style="fill:rgb(26,52,150)"/><path d="M-5.3153769135979765,127.16011725096374L-4.6415612838880485,46.599305832201296L-4.949154563738304,46.667409461123086z" style="fill:rgb(83,212,212)"/><path d="M86.92407577477275,31.478080663136897L85.59474806270661,28.606675278633897L86.73162330681171,31.163100051939406z" style="fill:rgb(14,68,128)"/><path d="M-4.9857647917324455,127.26088922070925L-3.349014807605504,46.31305683142334L-4.6415612838880485,46.599305832201296z" style="fill:rgb(83,212,212)"/><path d="M86.73162330681171,31.163100051939406L85.59474806270661,28.606675278633897L85.04491400835171,27.7075119171211z" style="fill:rgb(14,68,128)"/><path d="M-22.969722077994014,149.5481429092198L-20.571466642445095,49.556827162215484L-21.042298498836704,49.6376869655227zM-3.600964491724912,128.1214728390068L-2.37589887394957,46.09757643493052L-3.349014807605504,46.31305683142334z" style="fill:rgb(83,212,212)"/><path d="M86.92407577477275,31.478080663136897L85.78726515877908,28.921503109349118L85.59474806270661,28.606675278633897z" style="fill:rgb(14,68,128)"/><path d="M-22.458387077719568,149.59900319301263L-17.835083101928852,49.08684484019354L-20.571466642445095,49.556827162215484z" style="fill:rgb(83,212,212)"/><path d="M-63.48675170379998,109.9079329980931L-65.00565509505485,107.54772088500934L-66.21439011329079,106.1424284259403z" style="fill:rgb(26,52,150)"/><path d="M-58.61261373023026,114.98027718813452L-47.349188125191226,128.07518984731007L-44.26250384570862,51.8558056117652zM-2.5577105936494617,129.29485305784416L-1.7715369516639858,45.96374402345489L-2.37589887394957,46.09757643493052z" style="fill:rgb(83,212,212)"/><path d="M-62.574610982897624,110.96919345110547L-65.00565509505485,107.54772088500934L-63.48675170379998,109.9079329980931z" style="fill:rgb(26,52,150)"/><path d="M-0.24324906854013156,48.36909335984434L-1.5666244209621494,45.91835773172417L-1.691170702437606,132.3373988848198z" style="fill:rgb(247,158,158)"/><path d="M-1.909664204760442,130.72372335106198L-1.5666244209621494,45.91835773172417L-1.7715369516639858,45.96374402345489z" style="fill:rgb(83,212,212)"/><path d="M-62.574610982897624,110.96919345110547L-64.09328460053923,108.60843496729551L-65.00565509505485,107.54772088500934zM-63.52563127966855,109.26839482584836L-62.57460720052871,110.96919345110547L-62.00710380118435,111.6294895245319zM-61.814509501618424,111.85357329891255L-63.52563127966855,109.26839482584836L-62.00710380118435,111.6294895245319zM-63.52563127966855,109.26839482584836L-64.09328460053923,108.60843496729551L-62.57460720052871,110.96919345110547z" style="fill:rgb(26,52,150)"/><path d="M115.95216482828577,7.470755599258647L103.55663716357888,27.241865040332954L104.6558830670326,29.819799013257693z" style="fill:rgb(228,104,202)"/><path d="M11.42053657349493,123.54944396829178L10.939042906804705,42.75637341419577L10.62911521081996,42.84030939769063zM11.751917301004148,123.29840630097614L12.18836069792578,42.41809243798993L10.939042906804705,42.75637341419577zM10.031899002431409,125.04139161784411L10.62911521081996,42.84030939769063L9.327793557900238,43.19265858717874zM13.08678461275168,122.28721426413523L13.927837482380367,41.9470949800547L12.18836069792578,42.41809243798993zM8.989901054436272,126.68991679229461L9.327793557900238,43.19265858717874L8.349170169744301,43.45766599520785z" style="fill:rgb(83,212,212)"/><path d="M-61.814509501618424,111.85357329891255L-63.332986827345074,109.49236514760834L-63.52563127966855,109.26839482584836z" style="fill:rgb(26,52,150)"/><path d="M14.948501170091387,121.31647926054062L15.130427732551606,41.621449323379125L13.927837482380367,41.9470949800547zM8.34702816316549,128.4139936620432L8.349170169744301,43.45766599520785L7.741862148358807,43.62211153956249zM16.238313504855192,120.90210220052L15.760133064420266,41.41981115150427L15.130427732551606,41.621449323379125zM16.914117152237527,120.68499096206659L17.59286634149209,40.83294747439926L15.760133064420266,41.41981115150427zM8.136601721828775,130.12829793235517L7.741862148358807,43.62211153956249L7.5360331094659605,43.67783541651606zM18.887045427820823,120.42410941922591L18.891846173635358,40.417023435332325L17.59286634149209,40.83294747439926zM66.8203052266181,85.83692102740072L68.10178064333425,19.98944783224431L63.073732621905116,22.649336546830135zM20.290987292466244,120.51604408347403L19.334827770648527,40.27517445281061L18.891846173635358,40.417023435332325zM20.77006148577015,120.54741771079071L20.898374983498186,39.774506250569424L19.334827770648527,40.27517445281061z" style="fill:rgb(83,212,212)"/><path d="M-59.86805113070908,113.52072403082902L-63.332993727220426,109.49235635856945L-61.81451640058032,111.85356450637902z" style="fill:rgb(26,52,150)"/><path d="M22.46978504545405,121.04987971197588L22.204791244551938,39.356174602812146L20.898374983498186,39.774506250569424zM23.90131061179993,121.90786962109743L23.18814823344466,39.04129658762931L22.204791244551938,39.356174602812146zM-1.7105706347753764,145.7984469358487L2.979896811604019,44.91152810295043L-1.5666244209621494,45.91835773172417z" style="fill:rgb(83,212,212)"/><path d="M-59.86805113070908,113.52072403082902L-61.81451640058032,111.85356450637902L-58.350520196627656,115.88391677490812z" style="fill:rgb(26,52,150)"/><path d="M24.99223980268737,123.08007912326318L23.798784343241742,38.845766033662024L23.18814823344466,39.04129658762931z" style="fill:rgb(83,212,212)"/><path d="M25.273208014289107,41.261442669485675L24.00580908300729,38.77948239698904L25.94747141760827,126.12475072045939z" style="fill:rgb(247,158,158)"/><path d="M25.686523512431926,124.50927391000111L24.00580908300729,38.77948239698904L23.798784343241742,38.845766033662024zM3.253698732923582,144.69908244189762L7.5360331094659605,43.67783541651606L2.979896811604019,44.91152810295043z" style="fill:rgb(83,212,212)"/><path d="M103.55662878870054,27.241862937479763L99.72374730745867,37.70720662829871L104.65588230339688,29.819796896938897z" style="fill:rgb(228,104,202)"/><path d="M54.99505234803487,104.69840071377129L63.073732621905116,22.649336546830135L51.32431125662063,28.21895947949903zM87.88090901541403,52.24490307400741L88.99194307390243,50.47279440595346L85.69538350742555,10.036658761109186zM87.68252176629392,52.56134018623653L86.11818634558183,30.314162151785098L86.0193210706681,31.815973403257487z" style="fill:rgb(83,212,212)"/><path d="M103.55662878870054,27.241862937479763L98.60663318361284,35.13717565521143L99.72374730745867,37.70720662829871z" style="fill:rgb(228,104,202)"/><path d="M87.09683205079587,53.495526901124784L86.0193210706681,31.815973403257487L85.49398434083776,33.35132272640874zM42.70788553045921,124.29669830704557L51.32431125662063,28.21895947949903L39.37155105752603,33.25475878010043zM86.15200838178572,55.002555177826544L85.49398434083776,33.35132272640874L84.56746409501659,34.84226485572833zM26.242401523272896,139.39211841006667L26.80200564357172,37.88412874097315L24.00580908300729,38.77948239698904zM71.81642783200537,77.8680347348765L69.33931951182446,35.89147896050911L69.03273683834269,34.49484258941693z" style="fill:rgb(83,212,212)"/><path d="M-53.08622161955438,121.40529702555888L-59.8680545079101,113.52071556743813L-58.350527382634695,115.88390831579146z" style="fill:rgb(26,52,150)"/><path d="M29.292039079948303,138.12843504893962L27.283900531797297,37.72981862079875L26.80200564357172,37.88412874097315zM37.738494319939484,131.67105694873428L39.37155105752603,33.25475878010043L34.62811921022717,35.0108682213695z" style="fill:rgb(83,212,212)"/><path d="M98.60663245886202,35.13717539772138L94.39792186413067,46.224221503939155L99.7237465763689,37.707206352624915z" style="fill:rgb(228,104,202)"/><path d="M29.815826648777513,137.84597823897957L34.62811921022717,35.0108682213695L27.283900531797297,37.72981862079875zM84.89364266427114,57.00964247622811L84.56746409501659,34.84226485572833L83.28588344216615,36.21276041317866zM72.02083941623465,77.5420011321465L70.05920576648693,37.11732342091778L69.33931951182446,35.89147896050911zM83.38288508376725,59.41931815125815L83.28588344216615,36.21276041317866L81.71401544182807,37.39260953480201zM-47.349188125191226,128.07518984731007L-35.508575310142625,141.84119435603554L-32.783636855451924,51.06066333376025zM72.62338777374214,76.58092456745761L71.15794973827234,38.11000679434679L70.05920576648693,37.11732342091778zM81.69365539781114,62.11369527626252L81.71401544182807,37.39260953480201L79.93184549896775,38.32135986939634zM73.5925739426958,75.03506923502205L72.58167378218117,38.81850841315777L71.15794973827234,38.11000679434679zM79.90942646888996,64.95958147268945L79.93184549896775,38.32135986939634L78.0304523178019,38.95153052249361z" style="fill:rgb(83,212,212)"/><path d="M-53.08622161955438,121.40529702555888L-58.350527382634695,115.88390831579146L-51.570818343149234,123.77206700565388z" style="fill:rgb(26,52,150)"/><path d="M74.87796770035919,72.98482778983922L74.25948385362962,39.205840637745446L72.58167378218117,38.81850841315777zM78.11917909401646,67.81503024748098L78.0304523178019,38.95153052249361L76.10699073469897,39.25125563231402zM76.41308453517962,70.53629481733591L76.10699073469897,39.25125563231402L74.25948385362962,39.205840637745446z" style="fill:rgb(83,212,212)"/><path d="M98.60663245886202,35.13717539772138L93.26137852188633,43.662939233252814L94.39792186413067,46.224221503939155z" style="fill:rgb(228,104,202)"/><path d="M87.68252176629392,52.56134018623653L87.88090901541403,52.24490307400741L86.11818634558183,30.314162151785098zM87.09683205079587,53.495526901124784L87.68252176629392,52.56134018623653L86.0193210706681,31.815973403257487z" style="fill:rgb(83,212,212)"/><path d="M93.26138690373358,43.66293955504699L89.03715036601069,54.79715391363549L94.39793023283856,46.22422184378047z" style="fill:rgb(228,104,202)"/><path d="M86.15200838178572,55.002555177826544L87.09683205079587,53.495526901124784L85.49398434083776,33.35132272640874zM84.89364266427114,57.00964247622811L86.15200838178572,55.002555177826544L84.56746409501659,34.84226485572833zM83.38288508376725,59.41931815125815L84.89364266427114,57.00964247622811L83.28588344216615,36.21276041317866z" style="fill:rgb(83,212,212)"/><path d="M93.26138690373358,43.66293955504699L87.88090901541403,52.24490307400741L89.03715036601069,54.79715391363549z" style="fill:rgb(228,104,202)"/><path d="M-14.222190543662114,128.4710217041149L-13.75196934633697,128.22585364602276L-12.811113146552545,48.22399455329381zM-15.886606162753909,129.7268893884187L-14.222190543662114,128.4710217041149L-13.247297409302027,48.2989070712408zM-13.75196934633697,128.22585364602276L-12.372707035386888,127.50675098932854L-11.530979236795133,48.00411524134113zM-17.28390278252649,131.21285590945848L-15.886606162753909,129.7268893884187L-14.785333672759506,48.56305373794444zM-12.372707035386888,127.50675098932854L-10.429134006068784,126.88151672641348L-9.722058448775044,47.69344167300629zM81.69365539781114,62.11369527626252L83.38288508376725,59.41931815125815L81.71401544182807,37.39260953480201zM-10.429134006068784,126.88151672641348L-9.76182557143788,126.79383898288657L-9.099782058212199,47.58657024776988zM-18.34464057970267,132.85609140878623L-17.28390278252649,131.21285590945848L-16.06862862077957,48.78345126165471z" style="fill:rgb(83,212,212)"/><path d="M89.03715036601069,54.79715391363549L87.68252176629392,52.56134018623653L88.83949212051722,55.113253701059755z" style="fill:rgb(228,104,202)"/><path d="M-9.76182557143788,126.79383898288657L-8.486998807213544,126.62635240231668L-7.910634548433432,47.32324551975303z" style="fill:rgb(83,212,212)"/><path d="M87.68252176629392,52.56134018623653L88.25595571731185,56.04644277113002L88.83949212051722,55.113253701059755z" style="fill:rgb(228,104,202)"/><path d="M-19.015438130578918,134.57581975144103L-18.34464057970267,132.85609140878623L-17.033500703730645,48.94916704510338zM-8.486998807213544,126.62635240231668L-6.642033135419616,126.75457564543329L-6.188113872305385,46.94178212732843z" style="fill:rgb(83,212,212)"/><path d="M89.03715036601069,54.79715391363549L87.88090901541403,52.24490307400741L87.68252176629392,52.56134018623653z" style="fill:rgb(228,104,202)"/><path d="M79.90942646888996,64.95958147268945L81.69365539781114,62.11369527626252L79.93184549896775,38.32135986939634zM66.8203052266181,85.83692102740072L71.81642783200537,77.8680347348765L68.10178064333425,19.98944783224431zM-35.508575310142625,141.84119435603554L-30.68246375713992,146.913495204729L-28.192566778873285,50.504260647811094z" style="fill:rgb(83,212,212)"/><path d="M88.25595571731185,56.04644277113002L86.15200838178572,55.002555177826544L87.3146092670289,57.551856004626806z" style="fill:rgb(228,104,202)"/><path d="M-19.261624420979775,136.28690558361635L-19.015438130578918,134.57581975144103L-17.632191301088294,49.05199212990533z" style="fill:rgb(83,212,212)"/><path d="M-45.95576620189068,129.69520743564L-53.08622161955438,121.40529702555888L-51.570818343149234,123.77206700565388z" style="fill:rgb(26,52,150)"/><path d="M87.68252176629392,52.56134018623653L87.09683205079587,53.495526901124784L88.25595571731185,56.04644277113002z" style="fill:rgb(228,104,202)"/><path d="M-6.642033135419616,126.75457564543329L-5.3153769135979765,127.16011725096374L-4.949154563738304,46.667409461123086z" style="fill:rgb(83,212,212)"/><path d="M88.25595571731185,56.04644277113002L87.09683205079587,53.495526901124784L86.15200838178572,55.002555177826544z" style="fill:rgb(228,104,202)"/><path d="M78.11917909401646,67.81503024748098L79.90942646888996,64.95958147268945L78.0304523178019,38.95153052249361zM-5.3153769135979765,127.16011725096374L-4.9857647917324455,127.26088922070925L-4.6415612838880485,46.599305832201296z" style="fill:rgb(83,212,212)"/><path d="M87.3146092670289,57.551856004626806L84.89364266427114,57.00964247622811L86.06088140733193,59.55678152442087z" style="fill:rgb(228,104,202)"/><path d="M-4.9857647917324455,127.26088922070925L-3.600964491724912,128.1214728390068L-3.349014807605504,46.31305683142334zM76.41308453517962,70.53629481733591L78.11917909401646,67.81503024748098L76.10699073469897,39.25125563231402z" style="fill:rgb(83,212,212)"/><path d="M87.3146092670289,57.551856004626806L86.15200838178572,55.002555177826544L84.89364266427114,57.00964247622811zM84.89360975066522,57.00963345067598L84.55566926882766,61.96383638788181L86.06084855287034,59.55677246546269z" style="fill:rgb(228,104,202)"/><path d="M74.87796770035919,72.98482778983922L76.41308453517962,70.53629481733591L74.25948385362962,39.205840637745446zM-3.600964491724912,128.1214728390068L-2.5577105936494617,129.29485305784416L-2.37589887394957,46.09757643493052z" style="fill:rgb(83,212,212)"/><path d="M-45.95576620189068,129.69520743564L-51.570818343149234,123.77206700565388L-44.442968927742754,132.0652922496259z" style="fill:rgb(26,52,150)"/><path d="M73.5925739426958,75.03506923502205L74.87796770035919,72.98482778983922L72.58167378218117,38.81850841315777zM71.81642783200537,77.8680347348765L72.02083941623465,77.5420011321465L69.33931951182446,35.89147896050911zM72.62338777374214,76.58092456745761L73.5925739426958,75.03506923502205L71.15794973827234,38.11000679434679zM72.02083941623465,77.5420011321465L72.62338777374214,76.58092456745761L70.05920576648693,37.11732342091778z" style="fill:rgb(83,212,212)"/><path d="M-0.24324906854013156,48.36909335984434L-1.691170702437606,132.3373988848198L-0.2625359381219549,134.75285241588648z" style="fill:rgb(247,158,158)"/><path d="M84.89360975066522,57.00963345067598L83.3828521569446,59.41931294159053L84.55566926882766,61.96383638788181z" style="fill:rgb(228,104,202)"/><path d="M-2.5577105936494617,129.29485305784416L-1.909664204760442,130.72372335106198L-1.7715369516639858,45.96374402345489z" style="fill:rgb(83,212,212)"/><path d="M83.38288508376725,59.41931815125815L82.87272295166488,64.65528128819763L84.5557021365429,61.963845513467376z" style="fill:rgb(228,104,202)"/><path d="M-1.909664204760442,130.72372335106198L-1.691170702437606,132.3373988848198L-1.5666244209621494,45.91835773172417zM11.751917301004148,123.29840630097614L13.08678461275168,122.28721426413523L12.18836069792578,42.41809243798993zM13.08678461275168,122.28721426413523L14.948501170091387,121.31647926054062L13.927837482380367,41.9470949800547zM11.42053657349493,123.54944396829178L11.751917301004148,123.29840630097614L10.939042906804705,42.75637341419577zM-30.68246375713992,146.913495204729L-22.969722077994014,149.5481429092198L-21.042298498836704,49.6376869655227zM14.948501170091387,121.31647926054062L16.238313504855192,120.90210220052L15.130427732551606,41.621449323379125z" style="fill:rgb(83,212,212)"/><path d="M83.38288508376725,59.41931815125815L81.69365539781114,62.11369527626252L82.87272295166488,64.65528128819763z" style="fill:rgb(228,104,202)"/><path d="M10.031899002431409,125.04139161784411L11.42053657349493,123.54944396829178L10.62911521081996,42.84030939769063zM16.238313504855192,120.90210220052L16.914117152237527,120.68499096206659L15.760133064420266,41.41981115150427zM54.99505234803487,104.69840071377129L66.8203052266181,85.83692102740072L63.073732621905116,22.649336546830135zM16.914117152237527,120.68499096206659L18.887045427820823,120.42410941922591L17.59286634149209,40.83294747439926zM8.989901054436272,126.68991679229461L10.031899002431409,125.04139161784411L9.327793557900238,43.19265858717874z" style="fill:rgb(83,212,212)"/><path d="M82.87272295166488,64.65528128819763L79.90942646888996,64.95958147268945L81.09511115484017,67.49803270763597z" style="fill:rgb(228,104,202)"/><path d="M18.887045427820823,120.42410941922591L20.290987292466244,120.51604408347403L18.891846173635358,40.417023435332325z" style="fill:rgb(83,212,212)"/><path d="M82.87272295166488,64.65528128819763L81.69365539781114,62.11369527626252L79.90942646888996,64.95958147268945z" style="fill:rgb(228,104,202)"/><path d="M8.34702816316549,128.4139936620432L8.989901054436272,126.68991679229461L8.349170169744301,43.45766599520785zM20.290987292466244,120.51604408347403L20.77006148577015,120.54741771079071L19.334827770648527,40.27517445281061zM20.77006148577015,120.54741771079071L22.46978504545405,121.04987971197588L20.898374983498186,39.774506250569424zM8.136601721828775,130.12829793235517L8.34702816316549,128.4139936620432L7.741862148358807,43.62211153956249zM-22.969722077994014,149.5481429092198L-22.458387077719568,149.59900319301263L-20.571466642445095,49.556827162215484z" style="fill:rgb(83,212,212)"/><path d="M81.09511115484017,67.49803270763597L78.11917909401646,67.81503024748098L79.31151880051769,70.35031897266482zM81.09511115484017,67.49803270763597L79.90942646888996,64.95958147268945L78.11917909401646,67.81503024748098z" style="fill:rgb(228,104,202)"/><path d="M-22.458387077719568,149.59900319301263L-19.478102395848214,149.5195355120965L-17.835083101928852,49.08684484019354zM22.46978504545405,121.04987971197588L23.90131061179993,121.90786962109743L22.204791244551938,39.356174602812146z" style="fill:rgb(83,212,212)"/><path d="M78.11919587289833,67.81503906638446L77.61180556016,73.06855156875912L79.31153555353784,70.35032780650954z" style="fill:rgb(228,104,202)"/><path d="M23.90131061179993,121.90786962109743L24.99223980268737,123.08007912326318L23.18814823344466,39.04129658762931z" style="fill:rgb(83,212,212)"/><path d="M25.273208014289107,41.261442669485675L25.94747141760827,126.12475072045939L27.311913634640113,128.5732908228888z" style="fill:rgb(247,158,158)"/><path d="M78.11919587289833,67.81503906638446L76.41310913184289,70.53630369123974L77.61180556016,73.06855156875912z" style="fill:rgb(228,104,202)"/><path d="M24.99223980268737,123.08007912326318L25.686523512431926,124.50927391000111L23.798784343241742,38.845766033662024z" style="fill:rgb(83,212,212)"/><path d="M76.41302695185202,70.53628435738077L76.08233851488288,75.51430171204163L77.61172353166319,73.06853215260941z" style="fill:rgb(228,104,202)"/><path d="M-38.487937715571576,138.37737667590218L-45.95576620189068,129.69520743564L-44.442968927742754,132.0652922496259z" style="fill:rgb(26,52,150)"/><path d="M25.686523512431926,124.50927391000111L25.94747141760827,126.12475072045939L24.00580908300729,38.77948239698904z" style="fill:rgb(83,212,212)"/><path d="M76.41302695185202,70.53628435738077L74.87791009170319,72.98480939498107L76.08233851488288,75.51430171204163zM76.08239601823888,75.5143201536869L73.5925739426958,75.03506923502205L74.80181053844682,77.56224018265637zM76.08239601823888,75.5143201536869L74.87796770035919,72.98482778983922L73.5925739426958,75.03506923502205z" style="fill:rgb(228,104,202)"/><path d="M42.70788553045921,124.29669830704557L54.99505234803487,104.69840071377129L51.32431125662063,28.21895947949903z" style="fill:rgb(83,212,212)"/><path d="M74.80181053844682,77.56224018265637L72.62338777374214,76.58092456745761L73.8362551152256,79.10633666833571zM72.62340455645801,76.58092571965491L73.23598254095617,80.06631665621336L73.83627187224401,79.10633785546578zM74.80181053844682,77.56224018265637L73.5925739426958,75.03506923502205L72.62338777374214,76.58092456745761z" style="fill:rgb(228,104,202)"/><path d="M-38.487937715571576,138.37737667590218L-44.442968927742754,132.0652922496259L-36.97829182518431,140.75046717538862z" style="fill:rgb(26,52,150)"/><path d="M-1.7105706347753764,145.7984469358487L3.253698732923582,144.69908244189762L2.979896811604019,44.91152810295043z" style="fill:rgb(83,212,212)"/><path d="M73.2359663340953,80.06631605509806L71.81642783200537,77.8680347348765L73.03232169780706,80.39197681097437zM72.62340455645801,76.58092571965491L72.02084780778003,77.54200171581365L73.23598254095617,80.06631665621336zM73.2359663340953,80.06631605509806L72.02083941623465,77.5420011321465L71.81642783200537,77.8680347348765z" style="fill:rgb(228,104,202)"/><path d="M3.253698732923582,144.69908244189762L8.230168478243852,143.59701607992247L7.5360331094659605,43.67783541651606z" style="fill:rgb(83,212,212)"/><path d="M71.81644407382049,77.86803532111308L69.37646480680404,86.23843183565579L73.03233790622537,80.39197741465286zM71.81644407382049,77.86803532111308L68.14676769212237,83.72123885739607L69.37646480680404,86.23843183565579z" style="fill:rgb(228,104,202)"/><path d="M37.738494319939484,131.67105694873428L42.70788553045921,124.29669830704557L39.37155105752603,33.25475878010043zM29.815826648777513,137.84597823897957L37.738494319939484,131.67105694873428L34.62811921022717,35.0108682213695z" style="fill:rgb(83,212,212)"/><path d="M-10.928493795574381,129.91371374165308L-13.75196934633697,128.22585364602276L-12.304113532271634,130.63094177905646zM-12.304113532271634,130.63094177905646L-14.222190543662114,128.4710217041149L-12.773091560968695,130.87547070693546z" style="fill:rgb(167,52,222)"/><path d="M-8.989575706993904,129.29090118833776L-12.372707035386888,127.50675098932854L-10.928493795574381,129.91371374165308z" style="fill:rgb(140,41,220)"/><path d="M26.242401523272896,139.39211841006667L29.292039079948303,138.12843504893962L26.80200564357172,37.88412874097315z" style="fill:rgb(83,212,212)"/><path d="M-12.773091560968695,130.87547070693546L-15.886606162753909,129.7268893884187L-14.432626183449376,132.12885379651917z" style="fill:rgb(191,67,220)"/><path d="M29.292039079948303,138.12843504893962L29.815826648777513,137.84597823897957L27.283900531797297,37.72981862079875z" style="fill:rgb(83,212,212)"/><path d="M-7.051640954449065,129.03794808746875L-10.429134006068784,126.88151672641348L-8.989575706993904,129.29090118833776z" style="fill:rgb(114,34,213)"/><path d="M-14.432626183449376,132.12885379651917L-17.28390278252649,131.21285590945848L-15.825283084555476,133.61249113479303z" style="fill:rgb(212,85,213)"/><path d="M-10.928493795574381,129.91371374165308L-12.372707035386888,127.50675098932854L-13.75196934633697,128.22585364602276zM-12.304113532271634,130.63094177905646L-13.75196934633697,128.22585364602276L-14.222190543662114,128.4710217041149z" style="fill:rgb(167,52,222)"/><path d="M-12.773091560968695,130.87547070693546L-14.222190543662114,128.4710217041149L-15.886606162753909,129.7268893884187z" style="fill:rgb(191,67,220)"/><path d="M69.3764485705249,86.23843118580292L68.14675142236285,83.72123822487221L61.00141287611256,95.11816651963476z" style="fill:rgb(228,104,202)"/><path d="M-8.989575706993904,129.29090118833776L-10.429134006068784,126.88151672641348L-12.372707035386888,127.50675098932854z" style="fill:rgb(140,41,220)"/><path d="M-5.210216640635634,129.1680613418099L-8.486998807213544,126.62635240231668L-7.051640954449065,129.03794808746875z" style="fill:rgb(87,32,202)"/><path d="M-32.948648857615844,144.81736339448798L-38.487937715571576,138.37737667590218L-36.97829182518431,140.75046717538862z" style="fill:rgb(26,52,150)"/><path d="M-14.432626183449376,132.12885379651917L-15.886606162753909,129.7268893884187L-17.28390278252649,131.21285590945848z" style="fill:rgb(212,85,213)"/><path d="M-7.051640954449065,129.03794808746875L-8.486998807213544,126.62635240231668L-10.429134006068784,126.88151672641348z" style="fill:rgb(114,34,213)"/><path d="M-15.825283084555476,133.61249113479303L-18.34464057970267,132.85609140878623L-16.88185102571484,135.25364032741135z" style="fill:rgb(228,105,201)"/><path d="M-3.885729385723906,129.57478177695907L-6.642033135419616,126.75457564543329L-5.210216640635634,129.1680613418099z" style="fill:rgb(63,34,187)"/><path d="M-15.825283084555476,133.61249113479303L-17.28390278252649,131.21285590945848L-18.34464057970267,132.85609140878623z" style="fill:rgb(228,105,201)"/><path d="M69.3764485705249,86.23843118580292L61.00141287611256,95.11816651963476L62.25817522761149,97.6219167186297z" style="fill:rgb(228,104,202)"/><path d="M-5.210216640635634,129.1680613418099L-6.642033135419616,126.75457564543329L-8.486998807213544,126.62635240231668z" style="fill:rgb(87,32,202)"/><path d="M-16.88185102571484,135.25364032741135L-19.015438130578918,134.57581975144103L-17.549152680087513,136.971648114313z" style="fill:rgb(240,126,186)"/><path d="M-3.5566565980175793,129.67584630206153L-5.3153769135979765,127.16011725096374L-3.885729385723906,129.57478177695907z" style="fill:rgb(63,34,187)"/><path d="M-32.948648857615844,144.81736339448798L-36.97829182518431,140.75046717538862L-31.441611372897846,147.19235921219146z" style="fill:rgb(26,52,150)"/><path d="M-16.88185102571484,135.25364032741135L-18.34464057970267,132.85609140878623L-19.015438130578918,134.57581975144103z" style="fill:rgb(240,126,186)"/><path d="M-3.885729385723906,129.57478177695907L-5.3153769135979765,127.16011725096374L-6.642033135419616,126.75457564543329z" style="fill:rgb(63,34,187)"/><path d="M-2.1735957395197816,130.53740417810613L-4.9857647917324455,127.26088922070925L-3.5566565980175793,129.67584630206153z" style="fill:rgb(42,41,169)"/><path d="M-3.5566565980175793,129.67584630206153L-4.9857647917324455,127.26088922070925L-5.3153769135979765,127.16011725096374z" style="fill:rgb(63,34,187)"/><path d="M-17.549152680087513,136.971648114313L-19.261624420979775,136.28690558361635L-17.792702425758108,138.68145495415635zM-17.549152680087513,136.971648114313L-19.015438130578918,134.57581975144103L-19.261624420979775,136.28690558361635z" style="fill:rgb(246,148,168)"/><path d="M-2.1735957395197816,130.53740417810613L-3.600964491724912,128.1214728390068L-4.9857647917324455,127.26088922070925z" style="fill:rgb(42,41,169)"/><path d="M-1.1310195489339814,131.71120650379007L-3.600964491724912,128.1214728390068L-2.1735957395197816,130.53740417810613z" style="fill:rgb(26,53,149)"/><path d="M-17.792702425758108,138.68145495415635L-19.069269440188386,137.90411103461054L-17.598701436499525,140.29788697117797zM-17.792702425758108,138.68145495415635L-19.261624420979775,136.28690558361635L-19.069269440188386,137.90411103461054z" style="fill:rgb(246,168,148)"/><path d="M-30.35699981981926,148.33717724816097L-32.948648857615844,144.81736339448798L-31.441611372897846,147.19235921219146z" style="fill:rgb(29,50,153)"/><path d="M-1.1310195489339814,131.71120650379007L-2.5577105936494617,129.29485305784416L-3.600964491724912,128.1214728390068z" style="fill:rgb(26,53,149)"/><path d="M16.330035860657194,123.75611135858487L13.08678461275168,122.28721426413523L14.473269919943306,124.7242997928385z" style="fill:rgb(167,52,222)"/><path d="M-35.508575310142625,141.84119435603554L-32.948648857615844,144.81736339448798L-31.863348307667675,145.9617660890141z" style="fill:rgb(83,212,212)"/><path d="M18.29088867392081,123.12708832306615L14.948501170091387,121.31647926054062L16.330035860657194,123.75611135858487z" style="fill:rgb(140,41,220)"/><path d="M61.00138419359179,95.11815714296944L54.826717759464046,109.5061999844596L62.25814660188013,97.62190732873798z" style="fill:rgb(228,104,202)"/><path d="M14.473269919943306,124.7242997928385L11.751917301004148,123.29840630097614L13.142325527866616,125.73348264946632z" style="fill:rgb(191,67,220)"/><path d="M-17.598701436499525,140.29788697117797L-18.4460541909958,139.34609701303336L-16.974930381157925,141.7396466735437z" style="fill:rgb(240,186,126)"/><path d="M13.142325527866616,125.73348264946632L11.42053657349493,123.54944396829178L12.811919012192817,125.98402154877847z" style="fill:rgb(191,67,220)"/><path d="M20.259464522724684,122.86846913879428L16.914117152237527,120.68499096206659L18.29088867392081,123.12708832306615z" style="fill:rgb(114,34,213)"/><path d="M-17.598701436499525,140.29788697117797L-19.069269440188386,137.90411103461054L-18.4460541909958,139.34609701303336z" style="fill:rgb(240,186,126)"/><path d="M12.811919012192817,125.98402154877847L10.031899002431409,125.04139161784411L11.427888107591729,127.47362207641011z" style="fill:rgb(212,85,213)"/><path d="M-30.35699981981926,148.33717724816097L-31.863348307667675,145.9617660890141L-32.948648857615844,144.81736339448798z" style="fill:rgb(29,50,153)"/><path d="M16.330035860657194,123.75611135858487L14.948501170091387,121.31647926054062L13.08678461275168,122.28721426413523z" style="fill:rgb(167,52,222)"/><path d="M-29.177250270117323,149.2895346189008L-31.863348307667675,145.9617660890141L-30.35699981981926,148.33717724816097z" style="fill:rgb(36,45,162)"/><path d="M-35.508575310142625,141.84119435603554L-31.863348307667675,145.9617660890141L-30.68246375713992,146.913495204729z" style="fill:rgb(83,212,212)"/><path d="M14.473269919943306,124.7242997928385L13.08678461275168,122.28721426413523L11.751917301004148,123.29840630097614z" style="fill:rgb(191,67,220)"/><path d="M18.29088867392081,123.12708832306615L16.914117152237527,120.68499096206659L14.948501170091387,121.31647926054062z" style="fill:rgb(140,41,220)"/><path d="M13.142325527866616,125.73348264946632L11.751917301004148,123.29840630097614L11.42053657349493,123.54944396829178z" style="fill:rgb(191,67,220)"/><path d="M21.66063001177743,122.96185499872259L18.887045427820823,120.42410941922591L20.259464522724684,122.86846913879428z" style="fill:rgb(87,32,202)"/><path d="M12.811919012192817,125.98402154877847L11.42053657349493,123.54944396829178L10.031899002431409,125.04139161784411z" style="fill:rgb(212,85,213)"/><path d="M20.259464522724684,122.86846913879428L18.887045427820823,120.42410941922591L16.914117152237527,120.68499096206659z" style="fill:rgb(114,34,213)"/><path d="M11.427888107591729,127.47362207641011L8.989901054436272,126.68991679229461L10.389980125278342,129.1200715644917z" style="fill:rgb(228,105,201)"/><path d="M22.138757624525862,122.9937237657775L20.290987292466244,120.51604408347403L21.66063001177743,122.96185499872259z" style="fill:rgb(87,32,202)"/><path d="M-29.109034419130392,149.34460438069127L-30.68246375713992,146.913495204729L-29.177250270117323,149.2895346189008z" style="fill:rgb(36,45,162)"/><path d="M11.427888107591729,127.47362207641011L10.031899002431409,125.04139161784411L8.989901054436272,126.68991679229461z" style="fill:rgb(228,105,201)"/><path d="M-29.177250270117323,149.2895346189008L-30.68246375713992,146.913495204729L-31.863348307667675,145.9617660890141z" style="fill:rgb(36,45,162)"/><path d="M23.835564779546065,123.4977158365945L20.77006148577015,120.54741771079071L22.138757624525862,122.9937237657775z" style="fill:rgb(63,34,187)"/><path d="M21.66063001177743,122.96185499872259L20.290987292466244,120.51604408347403L18.887045427820823,120.42410941922591z" style="fill:rgb(87,32,202)"/><path d="M-27.71012991200442,150.20358877308706L-30.614182023299325,146.96852884988616L-29.109034419130392,149.34460438069127z" style="fill:rgb(44,40,171)"/><path d="M22.138757624525862,122.9937237657775L20.77006148577015,120.54741771079071L20.290987292466244,120.51604408347403z" style="fill:rgb(87,32,202)"/><path d="M-29.109034419130392,149.34460438069127L-30.614182023299325,146.96852884988616L-30.68246375713992,146.913495204729z" style="fill:rgb(36,45,162)"/><path d="M10.389980125278342,129.1200715644917L8.34702816316549,128.4139936620432L9.750476741232168,130.84244329761944zM10.389980125278342,129.1200715644917L8.989901054436272,126.68991679229461L8.34702816316549,128.4139936620432z" style="fill:rgb(240,126,186)"/><path d="M61.00138419359179,95.11815714296944L53.54143277065393,107.01690933651756L54.826717759464046,109.5061999844596z" style="fill:rgb(228,104,202)"/><path d="M25.265127110158772,124.35673805585763L22.46978504545405,121.04987971197588L23.835564779546065,123.4977158365945z" style="fill:rgb(42,41,169)"/><path d="M23.835564779546065,123.4977158365945L22.46978504545405,121.04987971197588L20.77006148577015,120.54741771079071z" style="fill:rgb(63,34,187)"/><path d="M-26.174332655321283,150.9044828215784L-29.213574133452774,147.82660377176865L-27.71012991200442,150.20358877308706z" style="fill:rgb(54,37,179)"/><path d="M-27.71012991200442,150.20358877308706L-29.213574133452774,147.82660377176865L-30.614182023299325,146.96852884988616z" style="fill:rgb(44,40,171)"/><path d="M-19.478102395848214,149.5195355120965L-19.069269440188386,137.90411103461054L-19.261624420979775,136.28690558361635z" style="fill:rgb(83,212,212)"/><path d="M9.750476741232168,130.84244329761944L8.136601721828775,130.12829793235517L9.542525747742763,132.55549583916397z" style="fill:rgb(246,148,168)"/><path d="M-30.68246375713992,146.913495204729L-30.614182023299325,146.96852884988616L-29.213574133452774,147.82660377176865z" style="fill:rgb(83,212,212)"/><path d="M9.750476741232168,130.84244329761944L8.34702816316549,128.4139936620432L8.136601721828775,130.12829793235517z" style="fill:rgb(246,148,168)"/><path d="M-19.25681637427653,149.49981404948974L-18.4460541909958,139.34609701303336L-19.069269440188386,137.90411103461054z" style="fill:rgb(83,212,212)"/><path d="M25.265127110158772,124.35673805585763L23.90131061179993,121.90786962109743L22.46978504545405,121.04987971197588z" style="fill:rgb(42,41,169)"/><path d="M-24.517300026252382,151.4392715557448L-27.67558598982161,148.52634963483138L-26.174332655321283,150.9044828215784z" style="fill:rgb(64,34,187)"/><path d="M26.35515336411025,125.52942412865032L23.90131061179993,121.90786962109743L25.265127110158772,124.35673805585763z" style="fill:rgb(26,53,149)"/><path d="M-30.68246375713992,146.913495204729L-29.213574133452774,147.82660377176865L-27.67558598982161,148.52634963483138z" style="fill:rgb(83,212,212)"/><path d="M-26.174332655321283,150.9044828215784L-27.67558598982161,148.52634963483138L-29.213574133452774,147.82660377176865z" style="fill:rgb(54,37,179)"/><path d="M9.542525747742763,132.55549583916397L8.370818984508846,131.74740708841858L9.7781935717632,134.17386941970983z" style="fill:rgb(246,168,148)"/><path d="M-30.68246375713992,146.913495204729L-27.67558598982161,148.52634963483138L-26.01589589420004,149.0597605018103zM-18.603806630445924,149.4415290074205L-17.42140877829549,140.53958869414075L-18.4460541909958,139.34609701303336z" style="fill:rgb(83,212,212)"/><path d="M9.542525747742763,132.55549583916397L8.136601721828775,130.12829793235517L8.370818984508846,131.74740708841858z" style="fill:rgb(246,168,148)"/><path d="M-22.756121054959934,151.80180342754727L-26.01589589420004,149.0597605018103L-24.517300026252382,151.4392715557448z" style="fill:rgb(74,32,194)"/><path d="M-24.517300026252382,151.4392715557448L-26.01589589420004,149.0597605018103L-27.67558598982161,148.52634963483138z" style="fill:rgb(64,34,187)"/><path d="M26.35515336411025,125.52942412865032L24.99223980268737,123.08007912326318L23.90131061179993,121.90786962109743z" style="fill:rgb(26,53,149)"/><path d="M-30.68246375713992,146.913495204729L-26.01589589420004,149.0597605018103L-24.251619623178506,149.42069668407902zM-17.549999527745573,149.26161970083035L-16.04530882444095,141.42328268293463L-17.42140877829549,140.53958869414075z" style="fill:rgb(83,212,212)"/><path d="M9.7781935717632,134.17386941970983L9.039938526587228,133.1898952236246L10.447655917295101,135.61616989563595z" style="fill:rgb(240,186,126)"/><path d="M-20.966284974180358,151.9818534857074L-24.251619623178506,149.42069668407902L-22.756121054959934,151.80180342754727z" style="fill:rgb(85,32,201)"/><path d="M-30.68246375713992,146.913495204729L-24.251619623178506,149.42069668407902L-22.969722077994014,149.5481429092198z" style="fill:rgb(83,212,212)"/><path d="M-22.756121054959934,151.80180342754727L-24.251619623178506,149.42069668407902L-26.01589589420004,149.0597605018103z" style="fill:rgb(74,32,194)"/><path d="M9.7781935717632,134.17386941970983L8.370818984508846,131.74740708841858L9.039938526587228,133.1898952236246z" style="fill:rgb(240,186,126)"/><path d="M-19.478102395848214,149.5195355120965L-19.25681637427653,149.49981404948974L-19.069269440188386,137.90411103461054z" style="fill:rgb(83,212,212)"/><path d="M-20.909144981520488,151.98760077672014L-22.458387077719568,149.59900319301263L-20.966284974180358,151.9818534857074z" style="fill:rgb(85,32,201)"/><path d="M-16.148055150329796,148.99569151582668L-14.386108791229043,141.95112909824715L-16.04530882444095,141.42328268293463z" style="fill:rgb(83,212,212)"/><path d="M-18.99571541264786,151.9941913336916L-22.40113851793267,149.60469481613922L-20.909144981520488,151.98760077672014z" style="fill:rgb(97,32,207)"/><path d="M54.82674688784878,109.50621045735575L53.54146194727029,107.01691978012377L45.78584554285066,119.38728131686581z" style="fill:rgb(228,104,202)"/><path d="M-19.25681637427653,149.49981404948974L-18.603806630445924,149.4415290074205L-18.4460541909958,139.34609701303336zM-1.9343111364804757,145.84799011411843L-1.691170702437606,132.3373988848198L-1.9150933504548986,134.05524748198317z" style="fill:rgb(83,212,212)"/><path d="M-20.966284974180358,151.9818534857074L-22.458387077719568,149.59900319301263L-24.251619623178506,149.42069668407902zM-20.909144981520488,151.98760077672014L-22.40113851793267,149.60469481613922L-22.458387077719568,149.59900319301263z" style="fill:rgb(85,32,201)"/><path d="M-17.992136562101734,151.90552964137734L-20.483833354976596,149.60929961797964L-18.99571541264786,151.9941913336916z" style="fill:rgb(109,33,211)"/><path d="M-14.467244315107544,148.6234565050181L-12.527159529072238,142.09505453637902L-14.386108791229043,141.95112909824715zM-18.603806630445924,149.4415290074205L-17.549999527745573,149.26161970083035L-17.42140877829549,140.53958869414075zM-2.5942036761138745,145.99412496709832L-1.9150933504548986,134.05524748198317L-2.5719059792026475,135.79066319145238z" style="fill:rgb(83,212,212)"/><path d="M-17.771322274197892,151.88605075721966L-19.478102395848214,149.5195355120965L-17.992136562101734,151.90552964137734zM-17.11971319559453,151.82848161203867L-19.25681637427653,149.49981404948974L-17.771322274197892,151.88605075721966z" style="fill:rgb(109,33,211)"/><path d="M-18.99571541264786,151.9941913336916L-20.483833354976596,149.60929961797964L-22.40113851793267,149.60469481613922z" style="fill:rgb(97,32,207)"/><path d="M-17.036128809967032,151.82109727059083L-18.603806630445924,149.4415290074205L-17.11971319559453,151.82848161203867z" style="fill:rgb(109,33,211)"/><path d="M-16.068271342609627,151.64978445247334L-18.520044782018754,149.4340528255648L-17.036128809967032,151.82109727059083z" style="fill:rgb(121,35,215)"/><path d="M-12.591881478864776,148.2081539574479L-10.562758785177902,141.84665381342643L-12.527159529072238,142.09505453637902zM-17.549999527745573,149.26161970083035L-16.148055150329796,148.99569151582668L-16.04530882444095,141.42328268293463z" style="fill:rgb(83,212,212)"/><path d="M54.82674688784878,109.50621045735575L45.78584554285066,119.38728131686581L47.10107128691866,121.86107925527396z" style="fill:rgb(228,104,202)"/><path d="M-3.6567325368821386,146.22943454780662L-2.5719059792026475,135.79066319145238L-3.629710843200504,137.4554450934191z" style="fill:rgb(83,212,212)"/><path d="M-15.051194460496346,151.46975334126546L-17.549999527745573,149.26161970083035L-16.068271342609627,151.64978445247334z" style="fill:rgb(121,35,215)"/><path d="M-17.992136562101734,151.90552964137734L-19.478102395848214,149.5195355120965L-20.483833354976596,149.60929961797964z" style="fill:rgb(109,33,211)"/><path d="M-22.458387077719568,149.59900319301263L-22.40113851793267,149.60469481613922L-20.483833354976596,149.60929961797964zM-10.615653295938493,147.7705183942379L-8.593048074689673,141.2178820992782L-10.562758785177902,141.84665381342643z" style="fill:rgb(83,212,212)"/><path d="M-17.771322274197892,151.88605075721966L-19.25681637427653,149.49981404948974L-19.478102395848214,149.5195355120965z" style="fill:rgb(109,33,211)"/><path d="M-5.068042070894762,146.54196099910257L-3.629710843200504,137.4554450934191L-5.035707210396906,138.96452250664328z" style="fill:rgb(83,212,212)"/><path d="M-17.11971319559453,151.82848161203867L-18.603806630445924,149.4415290074205L-19.25681637427653,149.49981404948974z" style="fill:rgb(109,33,211)"/><path d="M-16.148055150329796,148.99569151582668L-14.467244315107544,148.6234565050181L-14.386108791229043,141.95112909824715zM-8.637487839411639,147.3324377402448L-6.718731591076361,140.24049498605152L-8.593048074689673,141.2178820992782z" style="fill:rgb(83,212,212)"/><path d="M-17.036128809967032,151.82109727059083L-18.520044782018754,149.4340528255648L-18.603806630445924,149.4415290074205z" style="fill:rgb(109,33,211)"/><path d="M-6.756696757842402,146.91593309382006L-5.035707210396906,138.96452250664328L-6.718731591076361,140.24049498605152zM-22.458387077719568,149.59900319301263L-20.483833354976596,149.60929961797964L-19.478102395848214,149.5195355120965z" style="fill:rgb(83,212,212)"/><path d="M-16.068271342609627,151.64978445247334L-17.549999527745573,149.26161970083035L-18.520044782018754,149.4340528255648z" style="fill:rgb(121,35,215)"/><path d="M8.230168478243852,143.59701607992247L8.370818984508846,131.74740708841858L8.136601721828775,130.12829793235517z" style="fill:rgb(83,212,212)"/><path d="M-15.051194460496346,151.46975334126546L-16.530622986335256,149.08040985908352L-17.549999527745573,149.26161970083035z" style="fill:rgb(121,35,215)"/><path d="M-14.467244315107544,148.6234565050181L-12.591881478864776,148.2081539574479L-12.527159529072238,142.09505453637902zM-18.603806630445924,149.4415290074205L-18.520044782018754,149.4340528255648L-17.549999527745573,149.26161970083035zM-12.591881478864776,148.2081539574479L-10.615653295938493,147.7705183942379L-10.562758785177902,141.84665381342643zM-1.9343111364804757,145.84799011411843L-1.7105706347753764,145.7984469358487L-1.691170702437606,132.3373988848198zM-17.549999527745573,149.26161970083035L-16.530622986335256,149.08040985908352L-16.148055150329796,148.99569151582668zM8.45503515853096,143.5472235450161L9.039938526587228,133.1898952236246L8.370818984508846,131.74740708841858zM-10.615653295938493,147.7705183942379L-8.637487839411639,147.3324377402448L-8.593048074689673,141.2178820992782zM-2.5942036761138745,145.99412496709832L-1.9343111364804757,145.84799011411843L-1.9150933504548986,134.05524748198317zM-8.637487839411639,147.3324377402448L-6.756696757842402,146.91593309382006L-6.718731591076361,140.24049498605152zM-3.6567325368821386,146.22943454780662L-2.5942036761138745,145.99412496709832L-2.5719059792026475,135.79066319145238zM-6.756696757842402,146.91593309382006L-5.068042070894762,146.54196099910257L-5.035707210396906,138.96452250664328zM-5.068042070894762,146.54196099910257L-3.6567325368821386,146.22943454780662L-3.629710843200504,137.4554450934191zM9.118539236332223,143.40028896051945L10.112255373969992,134.38242596828994L9.039938526587228,133.1898952236246z" style="fill:rgb(83,212,212)"/><path d="M24.619712915524033,142.71118634587742L-16.530622986335256,149.08040985908352L-15.051194460496346,151.46975334126546z" style="fill:rgb(127,37,217)"/><path d="M45.78572103577712,119.38724706078794L41.40792291255149,130.96527056133635L47.100947002432136,121.86104488151996z" style="fill:rgb(228,104,202)"/><path d="M10.187794724766862,143.16348971214578L11.535405188060475,135.26375152548755L10.112255373969992,134.38242596828994zM8.230168478243852,143.59701607992247L8.45503515853096,143.5472235450161L8.370818984508846,131.74740708841858zM11.609781030571607,142.8485988409772L13.23865008821327,135.7879165665606L11.535405188060475,135.26375152548755zM26.016248476723163,139.47182740219185L25.94747141760827,126.12475072045939L25.760049387105607,127.84580465224077zM8.45503515853096,143.5472235450161L9.118539236332223,143.40028896051945L9.039938526587228,133.1898952236246zM13.313828557569511,142.47121788042614L15.136387818860062,135.92701925215832L13.23865008821327,135.7879165665606zM9.118539236332223,143.40028896051945L10.187794724766862,143.16348971214578L10.112255373969992,134.38242596828994zM25.349173461614043,139.7068808336296L25.760049387105607,127.84580465224077L25.131897686663045,129.58567688608625z" style="fill:rgb(83,212,212)"/><path d="M45.78572103577712,119.38724706078794L40.07044527635385,128.5031898458194L41.40792291255149,130.96527056133635z" style="fill:rgb(228,104,202)"/><path d="M15.215129501993781,142.05017125881798L17.132318702733958,135.6728891698204L15.136387818860062,135.92701925215832zM10.187794724766862,143.16348971214578L11.609781030571607,142.8485988409772L11.535405188060475,135.26375152548755zM24.273106231631324,139.9992471559192L25.131897686663045,129.58567688608625L24.093422186283714,131.2559126864673zM17.218702902938823,141.60646363029386L19.1246684619425,135.03776892754294L17.132318702733958,135.6728891698204zM22.843152016377235,140.36090623424005L24.093422186283714,131.2559126864673L22.696409243601934,132.77118675747218zM11.609781030571607,142.8485988409772L13.313828557569511,142.47121788042614L13.23865008821327,135.7879165665606zM19.224256109628183,141.16233532841835L21.01154879461713,134.05373984497731L19.1246684619425,135.03776892754294zM21.131097225443177,140.7400604675367L22.696409243601934,132.77118675747218L21.01154879461713,134.05373984497731z" style="fill:rgb(83,212,212)"/><path d="M24.619712915524033,142.71118634587742L23.23323336412263,140.2745231125886L-16.530622986335256,149.08040985908352z" style="fill:rgb(127,37,217)"/><path d="M13.313828557569511,142.47121788042614L15.215129501993781,142.05017125881798L15.136387818860062,135.92701925215832z" style="fill:rgb(83,212,212)"/><path d="M41.40805170982324,130.9653149636191L38.95384643006267,130.1640792091203L40.29555540708663,132.62391889878214z" style="fill:rgb(225,101,204)"/><path d="M15.215129501993781,142.05017125881798L17.218702902938823,141.60646363029386L17.132318702733958,135.6728891698204zM26.016248476723163,139.47182740219185L26.242401523272896,139.39211841006667L25.94747141760827,126.12475072045939z" style="fill:rgb(83,212,212)"/><path d="M41.40805170982324,130.9653149636191L40.07057429729239,128.50323413881554L38.95384643006267,130.1640792091203z" style="fill:rgb(225,101,204)"/><path d="M40.29555540708663,132.62391889878214L37.738494319939484,131.67105694873428L39.08447605877707,134.12864133811615z" style="fill:rgb(218,92,209)"/><path d="M17.218702902938823,141.60646363029386L19.224256109628183,141.16233532841835L19.1246684619425,135.03776892754294zM37.738494319939484,131.67105694873428L40.07057429729239,128.50323413881554L42.70788553045921,124.29669830704557zM25.349173461614043,139.7068808336296L26.016248476723163,139.47182740219185L25.760049387105607,127.84580465224077z" style="fill:rgb(83,212,212)"/><path d="M39.08447605877707,134.12864133811615L37.66826361589439,131.758140499984L39.014492412591714,134.21559438317644z" style="fill:rgb(218,92,209)"/><path d="M19.224256109628183,141.16233532841835L21.131097225443177,140.7400604675367L21.01154879461713,134.05373984497731zM24.273106231631324,139.9992471559192L25.349173461614043,139.7068808336296L25.131897686663045,129.58567688608625zM21.131097225443177,140.7400604675367L22.843152016377235,140.36090623424005L22.696409243601934,132.77118675747218zM22.843152016377235,140.36090623424005L24.273106231631324,139.9992471559192L24.093422186283714,131.2559126864673z" style="fill:rgb(83,212,212)"/><path d="M40.29555540708663,132.62391889878214L38.95384643006267,130.1640792091203L37.738494319939484,131.67105694873428z" style="fill:rgb(218,92,209)"/><path d="M39.014492412591714,134.21559438317644L36.22721501456873,133.2682774171389L37.57820359629269,135.72323520745462z" style="fill:rgb(210,83,214)"/><path d="M39.08447605877707,134.12864133811615L37.738494319939484,131.67105694873428L37.66826361589439,131.758140499984z" style="fill:rgb(218,92,209)"/><path d="M37.738494319939484,131.67105694873428L38.95384643006267,130.1640792091203L40.07057429729239,128.50323413881554z" style="fill:rgb(83,212,212)"/><path d="M37.57820359629269,135.72323520745462L34.64578457113647,134.67814439684858L36.00172275797877,137.13050443138914z" style="fill:rgb(200,75,217)"/><path d="M39.014492412591714,134.21559438317644L37.66826361589439,131.758140499984L36.22721501456873,133.2682774171389z" style="fill:rgb(210,83,214)"/><path d="M25.263638851897557,139.73702317022176L24.619712724436873,142.7111852390255L26.64521449272862,142.17617258583684z" style="fill:rgb(133,39,219)"/><path d="M26.730533771689945,142.14614006690286L25.263638851897557,139.73702317022176L26.64521449272862,142.17617258583684z" style="fill:rgb(145,43,221)"/><path d="M36.00172275797877,137.13050443138914L32.94070099008408,135.97246805789183L34.30172618224599,138.4221735755512z" style="fill:rgb(190,67,220)"/><path d="M27.39592925801957,141.91194308638214L25.349173461614043,139.7068808336296L26.730533771689945,142.14614006690286zM27.6215127999379,141.83252447279455L26.016248476723163,139.47182740219185L27.39592925801957,141.91194308638214zM28.64739262703042,141.47144099837192L26.242401523272896,139.39211841006667L27.6215127999379,141.83252447279455z" style="fill:rgb(145,43,221)"/><path d="M34.30172618224599,138.4221735755512L31.130119538920837,137.13731031036863L32.49630645348212,139.58434884259722z" style="fill:rgb(180,60,222)"/><path d="M30.604787448875726,140.60442322671946L27.270871594991135,139.02971419137398L28.64739262703042,141.47144099837192z" style="fill:rgb(157,47,222)"/><path d="M32.49630645348212,139.58434884259722L29.292039079948303,138.12843504893962L30.663251194058336,140.5728850241704z" style="fill:rgb(169,53,222)"/><path d="M37.57820359629269,135.72323520745462L36.22721501456873,133.2682774171389L34.64578457113647,134.67814439684858z" style="fill:rgb(200,75,217)"/><path d="M30.663251194058336,140.5728850241704L29.233413253983827,138.16005693628784L30.604787448875726,140.60442322671946z" style="fill:rgb(169,53,222)"/><path d="M25.263638851897557,139.73702317022176L23.23323336412263,140.2745231125886L24.619712724436873,142.7111852390255z" style="fill:rgb(133,39,219)"/><path d="M36.00172275797877,137.13050443138914L34.64578457113647,134.67814439684858L32.94070099008408,135.97246805789183z" style="fill:rgb(190,67,220)"/><path d="M26.730533771689945,142.14614006690286L25.349173461614043,139.7068808336296L25.263638851897557,139.73702317022176zM27.39592925801957,141.91194308638214L26.016248476723163,139.47182740219185L25.349173461614043,139.7068808336296zM27.6215127999379,141.83252447279455L26.242401523272896,139.39211841006667L26.016248476723163,139.47182740219185z" style="fill:rgb(145,43,221)"/><path d="M29.815826648777513,137.84597823897957L37.66826361589439,131.758140499984L37.738494319939484,131.67105694873428z" style="fill:rgb(83,212,212)"/><path d="M34.30172618224599,138.4221735755512L32.94070099008408,135.97246805789183L31.130119538920837,137.13731031036863z" style="fill:rgb(180,60,222)"/><path d="M28.64739262703042,141.47144099837192L27.270871594991135,139.02971419137398L26.242401523272896,139.39211841006667z" style="fill:rgb(145,43,221)"/><path d="M30.604787448875726,140.60442322671946L29.233413253983827,138.16005693628784L27.270871594991135,139.02971419137398z" style="fill:rgb(157,47,222)"/><path d="M29.815826648777513,137.84597823897957L36.22721501456873,133.2682774171389L37.66826361589439,131.758140499984z" style="fill:rgb(83,212,212)"/><path d="M32.49630645348212,139.58434884259722L31.130119538920837,137.13731031036863L29.292039079948303,138.12843504893962zM30.663251194058336,140.5728850241704L29.292039079948303,138.12843504893962L29.233413253983827,138.16005693628784z" style="fill:rgb(169,53,222)"/><path d="M22.843152016377235,140.36090623424005L23.23323336412263,140.2745231125886L24.273106231631324,139.9992471559192zM29.815826648777513,137.84597823897957L34.64578457113647,134.67814439684858L36.22721501456873,133.2682774171389zM24.273106231631324,139.9992471559192L25.263638851897557,139.73702317022176L25.349173461614043,139.7068808336296zM29.815826648777513,137.84597823897957L32.94070099008408,135.97246805789183L34.64578457113647,134.67814439684858zM26.242401523272896,139.39211841006667L27.270871594991135,139.02971419137398L29.233413253983827,138.16005693628784zM29.815826648777513,137.84597823897957L31.130119538920837,137.13731031036863L32.94070099008408,135.97246805789183zM26.242401523272896,139.39211841006667L29.233413253983827,138.16005693628784L29.292039079948303,138.12843504893962z" style="fill:rgb(83,212,212)"/></svg>
