<?xml version="1.0" encoding="UTF-8"?>
<!-- Generated by jsxcad -->
<!DOCTYPE svg PUBLIC "-//W3C//DTD SVG 1.1 Tiny//EN" "http://www.w3.org/Graphics/SVG/1.1/DTD/svg11-tiny.dtd">
<svg viewBox="-250 -250 500 500" width="500" height="500" xmlns="http://www.w3.org/2000/svg"><path d="M-25.70879555259292,-22.814938662668162L-21.96908335728781,-33.32112605056798L-25.50456401676132,-30.90436574291901zM-21.96908335728781,-33.32112605056798L-18.513405376087476,-25.38679074749572L-20.145661086405966,-34.56757035081112zM-20.145661086405966,-34.56757035081112L-18.513405376087476,-25.38679074749572L-18.351176994030507,-34.287383822086795zM-28.93502119730048,-20.669371142431206L-25.50456401676132,-30.90436574291901L-28.706875688664685,-28.71535042370475zM-31.373410402026533,-26.892577194497914L-28.93502119730048,-20.669371142431206L-28.706875688664685,-28.71535042370475zM-33.334979885481154,-25.551700852512656L-31.644987087668984,-18.113176473321534L-31.373410402026533,-26.892577194497914zM-18.351176994030507,-34.287383822086795L-14.9819285859957,-25.65446338053555L-14.862596650739594,-33.742683015991744zM-34.46682805898628,-24.77799974477281L-33.67144753719767,-15.301066894392147L-33.334979885481154,-25.551700852512656zM-21.96908335728781,-33.32112605056798L-25.70879555259292,-22.814938662668162L-22.16311899968283,-24.420063745281237zM-25.50456401676132,-30.90436574291901L-28.93502119730048,-20.669371142431206L-25.70879555259292,-22.814938662668162zM-18.513405376087476,-25.38679074749572L-21.96908335728781,-33.32112605056798L-22.16311899968283,-24.420063745281237zM-34.69686693893108,-24.620750353568916L-34.88645227160216,-12.404358495160222L-34.46682805898628,-24.77799974477281zM-28.93502119730048,-20.669371142431206L-31.373410402026533,-26.892577194497914L-31.644987087668984,-18.113176473321534zM-14.9819285859957,-25.65446338053555L-18.351176994030507,-34.287383822086795L-18.513405376087476,-25.38679074749572zM-14.862596650739594,-33.742683015991744L-11.7855549369596,-25.203519767929944L-11.692235215270786,-33.24767220446423zM-31.644987087668984,-18.113176473321534L-33.334979885481154,-25.551700852512656L-33.67144753719767,-15.301066894392147zM-11.7855549369596,-25.203519767929944L-14.862596650739594,-33.742683015991744L-14.9819285859957,-25.65446338053555zM-33.67144753719767,-15.301066894392147L-34.46682805898628,-24.77799974477281L-34.88645227160216,-12.404358495160222zM-11.692235215270786,-33.24767220446423L-9.123360478323924,-24.057352807125326L-9.044628549181175,-32.83427896471406zM-34.88645227160216,-12.404358495160222L-34.69686693893108,-24.620750353568916L-35.20953028023619,-9.601519871113839zM-9.044628549181175,-32.83427896471406L-7.164578161692135,-22.28203200343984L-7.09251679408563,-32.5294805401655zM-9.123360478323924,-24.057352807125326L-11.692235215270786,-33.24767220446423L-11.7855549369596,-25.203519767929944zM-44.174712668507134,-18.141948502070857L-35.6890952130443,4.448040571357313L-34.69686693893108,-24.620750353568916z" style="fill:rgb(83,212,212)"/><path d="M16.746334996825823,-4.679519048739356L3.8414825193377613,-9.981671044669424L17.083387535381423,16.180799558247422z" style="fill:rgb(247,158,158)"/><path d="M-7.09251679408563,-32.5294805401655L-6.037532537359663,-19.983605813341157L-5.964395495287134,-32.35333876226938zM-7.164578161692135,-22.28203200343984L-9.044628549181175,-32.83427896471406L-9.123360478323924,-24.057352807125326zM-5.964395495287134,-32.35333876226938L-5.820317597974926,-17.302801196633524L-5.734959897528687,-32.31751633554508z" style="fill:rgb(83,212,212)"/><path d="M3.8414825193377613,-9.981671044669424L16.746334996825823,-4.679519048739356L3.7637958841904515,-30.834402529120062z" style="fill:rgb(247,158,158)"/><path d="M-6.037532537359663,-19.983605813341157L-7.09251679408563,-32.5294805401655L-7.164578161692135,-22.28203200343984zM-5.820317597974926,-17.302801196633524L3.7637958841904515,-30.834402529120062L-5.734959897528687,-32.31751633554508zM-5.820317597974926,-17.302801196633524L-5.964395495287134,-32.35333876226938L-6.037532537359663,-19.983605813341157z" style="fill:rgb(83,212,212)"/><path d="M-20.980808317517386,7.1593635735352406L-30.786826328349807,28.259773254051087L-7.064206435540593,33.001383602460926z" style="fill:rgb(67,34,190)"/><path d="M-35.6890952130443,4.448040571357313L-44.174712668507134,-18.141948502070857L-45.07548898952273,2.717754581369856z" style="fill:rgb(83,212,212)"/><path d="M3.8414825193377613,-9.981671044669424L-7.064206435540593,33.001383602460926L17.083387535381423,16.180799558247422z" style="fill:rgb(187,64,221)"/><path d="M-30.786826328349807,28.259773254051087L-20.980808317517386,7.1593635735352406L-45.07548898952273,2.717754581369856z" style="fill:rgb(67,34,190)"/><path d="M-35.20953028023619,-9.601519871113839L-35.00341940992892,4.574438323766008L-34.61370606568584,-7.067846355233438zM-34.61370606568584,-7.067846355233438L-33.44299776761322,4.862085606850055L-33.128807659513946,-4.964677222401089zM3.7637958841904515,-30.834402529120062L-5.820317597974926,-17.302801196633524L3.8414825193377613,-9.981671044669424zM-35.00341940992892,4.574438323766008L-35.20953028023619,-9.601519871113839L-35.6890952130443,4.448040571357313zM-33.128807659513946,-4.964677222401089L-31.10073286424109,5.29385913526279L-30.84148443362621,-3.428771786205642zM-33.44299776761322,4.862085606850055L-34.61370606568584,-7.067846355233438L-35.00341940992892,4.574438323766008zM-31.10073286424109,5.29385913526279L-27.891410011266718,-2.562592617674964L-30.84148443362621,-3.428771786205642zM-31.10073286424109,5.29385913526279L-33.128807659513946,-4.964677222401089L-33.44299776761322,4.862085606850055zM-6.608192134948324,-2.7656472578016738L-5.820317597974926,-17.302801196633524L-6.534104359820199,-14.407124152958595z" style="fill:rgb(83,212,212)"/><path d="M-51.34649524624039,-108.80554182352614L7.25803946731095,6.0514955069265035L6.121885793313839,3.7374719884901646z" style="fill:rgb(241,184,128)"/><path d="M-7.064206435540593,33.001383602460926L3.8414825193377613,-9.981671044669424L-20.980808317517386,7.1593635735352406z" style="fill:rgb(187,64,221)"/><path d="M-8.139929788263132,-11.480609657899802L-6.608192134948324,-2.7656472578016738L-6.534104359820199,-14.407124152958595z" style="fill:rgb(83,212,212)"/><path d="M-19.1544013814115,20.72851865910426L-81.08187926441745,-92.45266376952146L-20.641298090425014,18.60632174305653z" style="fill:rgb(19,61,137)"/><path d="M-27.891410011266718,-2.562592617674964L-24.67331721647387,6.478687086917457L-24.463581761065676,-2.426391825432907zM-27.891410011266718,-2.562592617674964L-31.10073286424109,5.29385913526279L-28.117173405853848,5.843847467687163zM-10.6286852525369,0.010704079651582581L-8.139929788263132,-11.480609657899802L-10.53963909576876,-8.711764022330774zM3.8414825193377613,-9.981671044669424L-5.820317597974926,-17.302801196633524L-5.900180949153007,-3.2545647701083116z" style="fill:rgb(83,212,212)"/><path d="M-50.26299956108269,-106.58496260442658L7.505487537279132,8.736036318563672L7.25803946731095,6.0514955069265035z" style="fill:rgb(247,163,152)"/><path d="M-13.581329634489638,-6.280576121224527L-10.6286852525369,0.010704079651582581L-10.53963909576876,-8.711764022330774zM-5.820317597974926,-17.302801196633524L-6.608192134948324,-2.7656472578016738L-5.900180949153007,-3.2545647701083116zM-24.463581761065676,-2.426391825432907L-20.980808317517386,7.1593635735352406L-20.7768133077732,-3.03295017343268zM-24.67331721647387,6.478687086917457L-27.891410011266718,-2.562592617674964L-28.117173405853848,5.843847467687163zM-17.069155252409864,-4.3456921858227116L-13.691656587500754,2.125839621434354L-13.581329634489638,-6.280576121224527zM-20.7768133077732,-3.03295017343268L-17.215766873007816,4.559414276279711L-17.069155252409864,-4.3456921858227116z" style="fill:rgb(83,212,212)"/><path d="M-16.887089610091824,22.293335991136555L-79.61752438505164,-90.4383206880731L-19.1544013814115,20.72851865910426z" style="fill:rgb(35,46,161)"/><path d="M-6.608192134948324,-2.7656472578016738L-8.139929788263132,-11.480609657899802L-8.217613337253743,-1.6542615596232093zM-8.139929788263132,-11.480609657899802L-10.6286852525369,0.010704079651582581L-8.217613337253743,-1.6542615596232093zM-20.980808317517386,7.1593635735352406L-24.463581761065676,-2.426391825432907L-24.67331721647387,6.478687086917457zM-10.6286852525369,0.010704079651582581L-13.581329634489638,-6.280576121224527L-13.691656587500754,2.125839621434354zM-13.691656587500754,2.125839621434354L-17.069155252409864,-4.3456921858227116L-17.215766873007816,4.559414276279711z" style="fill:rgb(83,212,212)"/><path d="M-13.978038623071797,23.19668950198609L-77.27674238524038,-89.02279897445605L-16.887089610091824,22.293335991136555z" style="fill:rgb(57,36,182)"/><path d="M7.505487537279132,8.736036318563672L-51.05043229583248,-101.04073772426385L6.84148755875376,11.623232688365004z" style="fill:rgb(245,140,174)"/><path d="M-17.215766873007816,4.559414276279711L-20.7768133077732,-3.03295017343268L-20.980808317517386,7.1593635735352406z" style="fill:rgb(83,212,212)"/><path d="M6.84148755875376,11.623232688365004L-52.887160990256945,-98.06598556922036L5.302097486046226,14.529559208177648z" style="fill:rgb(235,117,193)"/><path d="M-70.58479949458373,-88.32641596790693L-13.978038623071797,23.19668950198609L-10.609754039388354,23.37614000545684z" style="fill:rgb(83,32,199)"/><path d="M5.302097486046226,14.529559208177648L-55.55694860766758,-95.20927574023433L2.981357460978143,17.267852779331147z" style="fill:rgb(219,93,208)"/><path d="M-66.65706867282309,-89.0999242176947L-10.609754039388354,23.37614000545684L-6.997221372393294,22.816250811133283z" style="fill:rgb(112,34,213)"/><path d="M2.981357460978143,17.267852779331147L-58.89045877959898,-92.65659726942842L0.02608473265062163,19.66020901268059z" style="fill:rgb(197,72,218)"/><path d="M-62.67251113064643,-90.57490475523838L-6.997221372393294,22.816250811133283L-3.373576425185774,21.550624676548004z" style="fill:rgb(142,41,220)"/><path d="M-58.89045877959898,-92.65659726942842L-3.373576425185774,21.550624676548004L0.02608473265062163,19.66020901268059z" style="fill:rgb(171,55,222)"/><path d="M7.25803946731095,6.0514955069265035L-51.34649524624039,-108.80554182352614L-50.26299956108269,-106.58496260442658z" style="fill:rgb(241,184,128)"/><path d="M-81.08187926441745,-92.45266376952146L-19.1544013814115,20.72851865910426L-79.61752438505164,-90.4383206880731z" style="fill:rgb(19,61,137)"/><path d="M-70.90891496025952,-108.45331325703154L-178.49756263079723,-77.96324955836683L-178.6211808005735,-77.29621934910493zM-74.41843470150926,-106.17967583591134L-178.6211808005735,-77.29621934910493L-178.86113748202024,-76.00143526945622z" style="fill:rgb(83,212,212)"/><path d="M7.505487537279132,8.736036318563672L-50.26299956108269,-106.58496260442658L-50.15925454936704,-103.94179690009065z" style="fill:rgb(247,163,152)"/><path d="M-79.61752438505164,-90.4383206880731L-16.887089610091824,22.293335991136555L-77.27674238524038,-89.02279897445605z" style="fill:rgb(35,46,161)"/><path d="M-77.40360317372797,-103.52416975659246L-178.86113748202024,-76.00143526945622L-179.2032145151447,-74.15562476825745z" style="fill:rgb(83,212,212)"/><path d="M-51.05043229583248,-101.04073772426385L7.505487537279132,8.736036318563672L-50.15925454936704,-103.94179690009065z" style="fill:rgb(245,140,174)"/><path d="M-79.68061568476247,-100.64718145216084L-179.2032145151447,-74.15562476825745L-179.62694248910984,-71.8692346623427z" style="fill:rgb(83,212,212)"/><path d="M-77.27674238524038,-89.02279897445605L-13.978038623071797,23.19668950198609L-74.20168051303791,-88.30163970583381z" style="fill:rgb(57,36,182)"/><path d="M-52.887160990256945,-98.06598556922036L6.84148755875376,11.623232688365004L-51.05043229583248,-101.04073772426385z" style="fill:rgb(235,117,193)"/><path d="M-178.49756263079723,-77.96324955836683L136.83458135454114,-185.4469471680222L-175.55865839250163,-93.82126126043543zM-180.10663904881122,-69.28084414925192L-79.68061568476247,-100.64718145216084L-179.62694248910984,-71.8692346623427z" style="fill:rgb(83,212,212)"/><path d="M-13.978038623071797,23.19668950198609L-70.58479949458373,-88.32641596790693L-74.20168051303791,-88.30163970583381z" style="fill:rgb(83,32,199)"/><path d="M-55.55694860766758,-95.20927574023433L5.302097486046226,14.529559208177648L-52.887160990256945,-98.06598556922036z" style="fill:rgb(219,93,208)"/><path d="M-10.609754039388354,23.37614000545684L-66.65706867282309,-89.0999242176947L-70.58479949458373,-88.32641596790693z" style="fill:rgb(112,34,213)"/><path d="M-58.89045877959898,-92.65659726942842L2.981357460978143,17.267852779331147L-55.55694860766758,-95.20927574023433z" style="fill:rgb(197,72,218)"/><path d="M-6.997221372393294,22.816250811133283L-62.67251113064643,-90.57490475523838L-66.65706867282309,-89.0999242176947z" style="fill:rgb(142,41,220)"/><path d="M-3.373576425185774,21.550624676548004L-58.89045877959898,-92.65659726942842L-62.67251113064643,-90.57490475523838z" style="fill:rgb(171,55,222)"/><path d="M-178.49756263079723,-77.96324955836683L-70.90891496025952,-108.45331325703154L-67.08856133022324,-110.20785078494451zM-178.6211808005735,-77.29621934910493L-74.41843470150926,-106.17967583591134L-70.90891496025952,-108.45331325703154zM-81.58565307993048,-94.93401033549912L-180.10663904881122,-69.28084414925192L-180.61278920492475,-66.5497168476792zM-178.86113748202024,-76.00143526945622L-77.40360317372797,-103.52416975659246L-74.41843470150926,-106.17967583591134zM-179.2032145151447,-74.15562476825745L-79.68061568476247,-100.64718145216084L-77.40360317372797,-103.52416975659246zM-81.08187926441745,-92.45266376952146L-180.61278920492475,-66.5497168476792L-181.11374215100966,-63.846625239994445zM-79.61752438505164,-90.4383206880731L-181.11374215100966,-63.846625239994445L-181.5776568408425,-61.343391981881496zM-79.68061568476247,-100.64718145216084L-180.10663904881122,-69.28084414925192L-81.10599197785857,-97.72376226546835zM-180.10663904881122,-69.28084414925192L-81.58565307993048,-94.93401033549912L-81.10599197785857,-97.72376226546835zM-77.27674238524038,-89.02279897445605L-181.5776568408425,-61.343391981881496L-181.97458516048127,-59.20160989870456zM-74.20168051303791,-88.30163970583381L-181.97458516048127,-59.20160989870456L-182.27855087890725,-57.5614478902266zM-180.61278920492475,-66.5497168476792L-81.08187926441745,-92.45266376952146L-81.58565307993048,-94.93401033549912zM136.83458135454114,-185.4469471680222L-178.49756263079723,-77.96324955836683L-63.188861062736414,-111.3365216769578zM-70.58479949458373,-88.32641596790693L-182.27855087890725,-57.5614478902266L-182.4694388514111,-56.531433152454355zM-66.65706867282309,-89.0999242176947L-182.4694388514111,-56.531433152454355L-182.5345209584538,-56.18025717456897zM-181.11374215100966,-63.846625239994445L-79.61752438505164,-90.4383206880731L-81.08187926441745,-92.45266376952146zM-77.40360317372797,-103.52416975659246L-77.27674238524038,-89.02279897445605L-74.41843470150926,-106.17967583591134zM-79.68061568476247,-100.64718145216084L-79.61752438505164,-90.4383206880731L-77.40360317372797,-103.52416975659246zM-74.41843470150926,-106.17967583591134L-74.20168051303791,-88.30163970583381L-70.90891496025952,-108.45331325703154zM-81.10599197785857,-97.72376226546835L-81.08187926441745,-92.45266376952146L-79.68061568476247,-100.64718145216084zM-181.5776568408425,-61.343391981881496L-77.27674238524038,-89.02279897445605L-79.61752438505164,-90.4383206880731zM-70.90891496025952,-108.45331325703154L-70.58479949458373,-88.32641596790693L-67.08856133022324,-110.20785078494451zM-67.08856133022324,-110.20785078494451L-66.65706867282309,-89.0999242176947L-63.188861062736414,-111.3365216769578zM-81.08187926441745,-92.45266376952146L-81.10599197785857,-97.72376226546835L-81.58565307993048,-94.93401033549912zM-63.188861062736414,-111.3365216769578L-62.67251113064643,-90.57490475523838L-59.4467843199478,-111.7688697393991zM-181.97458516048127,-59.20160989870456L-74.20168051303791,-88.30163970583381L-77.27674238524038,-89.02279897445605zM-79.68061568476247,-100.64718145216084L-81.08187926441745,-92.45266376952146L-79.61752438505164,-90.4383206880731zM-59.4467843199478,-111.7688697393991L-58.89045877959898,-92.65659726942842L-56.09187084042994,-111.47505215149107zM-77.40360317372797,-103.52416975659246L-79.61752438505164,-90.4383206880731L-77.27674238524038,-89.02279897445605zM-182.27855087890725,-57.5614478902266L-70.58479949458373,-88.32641596790693L-74.20168051303791,-88.30163970583381zM-56.09187084042994,-111.47505215149107L-55.55694860766758,-95.20927574023433L-53.33314907703363,-110.46834482310847zM-74.41843470150926,-106.17967583591134L-77.27674238524038,-89.02279897445605L-74.20168051303791,-88.30163970583381zM-182.4694388514111,-56.531433152454355L-66.65706867282309,-89.0999242176947L-70.58479949458373,-88.32641596790693zM-53.33314907703363,-110.46834482310847L-52.887160990256945,-98.06598556922036L-51.34649524624039,-108.80554182352614zM-94.74002912836494,-120.37399098727515L-96.23190444909616,-93.05774795869227L-91.81180860430568,-123.10034499313772zM-97.29940363931745,-117.52568276478046L-98.6199608641544,-94.47360915404079L-94.74002912836494,-120.37399098727515zM-91.81180860430568,-123.10034499313772L-93.4131743854029,-92.01057420484412L-88.56525880157683,-125.6596385817588zM-99.44480638045441,-114.60285329844518L-100.5376021102896,-96.22913849541736L-97.29940363931745,-117.52568276478046zM-88.56525880157683,-125.6596385817588L-90.2124325667477,-91.35457108875538L-85.05544681830122,-128.00973961139505zM-70.90891496025952,-108.45331325703154L-74.20168051303791,-88.30163970583381L-70.58479949458373,-88.32641596790693zM-101.13718689111877,-111.65471204768997L-101.95447687586545,-98.28953542264193L-99.44480638045441,-114.60285329844518zM-51.34649524624039,-108.80554182352614L-51.05043229583248,-101.04073772426385L-50.26299956108269,-106.58496260442658zM-85.05544681830122,-128.00973961139505L-86.68652311684309,-91.10496490473163L-81.34126834696654,-130.11193808849447zM-102.34437129251592,-108.73153005926957L-102.84988474989437,-100.6151158087084L-101.13718689111877,-111.65471204768997zM-81.34126834696654,-130.11193808849447L-82.89949842711596,-91.26923079995653L-77.48458727277463,-131.93144960920054zM-67.08856133022324,-110.20785078494451L-70.58479949458373,-88.32641596790693L-66.65706867282309,-89.0999242176947zM-51.414585792114714,-108.86253254655621L14.27898298435537,-128.4996227372283L-52.04452866916049,-109.38978515412207zM-51.34649524624039,-108.80554182352614L10.221769363765988,-126.61092603236621L-51.414585792114714,-108.86253254655621zM-103.21279276432887,-103.16217482340276L-102.34437129251592,-108.73153005926957L-103.04172499624279,-105.88395641257536zM-77.48458727277463,-131.93144960920054L-78.92139259727885,-91.84669170821259L-73.54947356970084,-133.43785058681487zM-63.188861062736414,-111.3365216769578L-66.65706867282309,-89.0999242176947L-62.67251113064643,-90.57490475523838zM-50.54823755195339,-107.1695506174652L10.105032455863308,-126.49952560549637L-51.34649524624039,-108.80554182352614zM-50.26299956108269,-106.58496260442658L-51.05043229583248,-101.04073772426385L-50.15925454936704,-103.94179690009065zM-59.4467843199478,-111.7688697393991L-62.67251113064643,-90.57490475523838L-58.89045877959898,-92.65659726942842zM-73.54947356970084,-133.43785058681487L-74.82682143405643,-92.82839256348446L-69.6013590888804,-134.60547249318785zM-51.34649524624039,-108.80554182352614L-52.887160990256945,-98.06598556922036L-51.05043229583248,-101.04073772426385zM-56.09187084042994,-111.47505215149107L-58.89045877959898,-92.65659726942842L-55.55694860766758,-95.20927574023433zM-53.33314907703363,-110.46834482310847L-55.55694860766758,-95.20927574023433L-52.887160990256945,-98.06598556922036z" style="fill:rgb(83,212,212)"/><path d="M-43.81962302396347,-128.40805352159998L-36.058146472415004,-112.03925883693911L-36.88843614520002,-114.42389041132746z" style="fill:rgb(244,178,136)"/><path d="M-102.34437129251592,-108.73153005926957L-103.21279276432887,-103.16217482340276L-102.84988474989437,-100.6151158087084z" style="fill:rgb(83,212,212)"/><path d="M-92.9032428138577,-82.58451427776437L-101.95447687586545,-98.28953542264193L-94.32673817650728,-84.6623861728673z" style="fill:rgb(18,61,137)"/><path d="M-50.26299956108269,-106.58496260442658L7.264201315057883,-123.78872433096818L-50.54823755195339,-107.1695506174652zM-69.6013590888804,-134.60547249318785L-70.69338062682058,-94.19711623048586L-65.70620306318246,-135.41381083967633zM-59.4467843199478,-111.7688697393991L139.31344315088734,-169.94585095714595L-63.188861062736414,-111.3365216769578zM-101.13718689111877,-111.65471204768997L-102.84988474989437,-100.6151158087084L-101.95447687586545,-98.28953542264193zM-50.18535070672642,-104.60668376663959L6.9963973717180945,-123.0356044197602L-50.26299956108269,-106.58496260442658zM-65.70620306318246,-135.41381083967633L-66.59993051292201,-95.92767952273338L-61.92959831224141,-135.84780955115042zM-56.09187084042994,-111.47505215149107L139.41785768237688,-169.29291399843305L-59.4467843199478,-111.7688697393991zM-99.44480638045441,-114.60285329844518L-101.95447687586545,-98.28953542264193L-100.5376021102896,-96.22913849541736zM-61.92959831224141,-135.84780955115042L-62.6247859369682,-97.98743526806315L-58.33589627908386,-135.89820813183792z" style="fill:rgb(83,212,212)"/><path d="M-43.00098995642985,-126.03833031645823L-35.7586743840032,-109.42552100551676L-36.058146472415004,-112.03925883693911z" style="fill:rgb(246,167,149)"/><path d="M10.221769363765988,-126.61092603236621L-51.34649524624039,-108.80554182352614L10.105032455863308,-126.49952560549637zM14.27898298435537,-128.4996227372283L-51.414585792114714,-108.86253254655621L10.221769363765988,-126.61092603236621zM-50.15925454936704,-103.94179690009065L6.192873330202967,-120.77593581615466L-50.18535070672642,-104.60668376663959z" style="fill:rgb(83,212,212)"/><path d="M-90.98550845249626,-80.80870855679727L-100.5376021102896,-96.22913849541736L-92.9032428138577,-82.58451427776437z" style="fill:rgb(26,53,150)"/><path d="M-97.29940363931745,-117.52568276478046L-100.5376021102896,-96.22913849541736L-98.6199608641544,-94.47360915404079zM-58.33589627908386,-135.89820813183792L-58.84396060381788,-100.33698595491884L-54.98726225511756,-135.5617874681323zM10.105032455863308,-126.49952560549637L-50.54823755195339,-107.1695506174652L7.264201315057883,-123.78872433096818zM-53.33314907703363,-110.46834482310847L139.6205718816547,-168.0252740233966L-56.09187084042994,-111.47505215149107z" style="fill:rgb(83,212,212)"/><path d="M14.27898298435537,-128.4996227372283L13.10080218820142,-120.21514217680333L17.136418046698484,-122.09211628503903z" style="fill:rgb(158,48,222)"/><path d="M-36.058146472415004,-112.03925883693911L-43.81962302396347,-128.40805352159998L-43.00098995642985,-126.03833031645823z" style="fill:rgb(244,178,136)"/><path d="M7.30707985644541,-118.37399659645014L-50.15925454936704,-103.94179690009065L-50.83639595846111,-101.73749835682204z" style="fill:rgb(83,212,212)"/><path d="M-101.95447687586545,-98.28953542264193L-92.9032428138577,-82.58451427776437L-100.5376021102896,-96.22913849541736z" style="fill:rgb(18,61,137)"/><path d="M7.264201315057883,-123.78872433096818L-50.26299956108269,-106.58496260442658L6.9963973717180945,-123.0356044197602z" style="fill:rgb(83,212,212)"/><path d="M13.10080218820142,-120.21514217680333L7.264201315057883,-123.78872433096818L10.163496474065925,-117.39942392553449z" style="fill:rgb(212,85,213)"/><path d="M-94.74002912836494,-120.37399098727515L-98.6199608641544,-94.47360915404079L-96.23190444909616,-93.05774795869227zM-54.98726225511756,-135.5617874681323L-55.32939514794028,-102.93107617365658L-51.942700511969306,-134.84159381992916z" style="fill:rgb(83,212,212)"/><path d="M18.366807499079417,-128.95631114453462L17.136418046698484,-122.09211628503903L21.20690563408929,-122.5348892320427z" style="fill:rgb(96,32,206)"/><path d="M-88.60399398086042,-79.37007167248126L-98.6199608641544,-94.47360915404079L-90.98550845249626,-80.80870855679727z" style="fill:rgb(36,45,162)"/><path d="M8.278877605577481,-118.00709589467372L-50.83639595846111,-101.73749835682204L-51.05043229583248,-101.04073772426385z" style="fill:rgb(83,212,212)"/><path d="M13.10080218820142,-120.21514217680333L14.27898298435537,-128.4996227372283L10.221769363765988,-126.61092603236621z" style="fill:rgb(158,48,222)"/><path d="M-52.04452866916049,-109.38978515412207L139.90963429010907,-166.21766724150623L-53.33314907703363,-110.46834482310847z" style="fill:rgb(83,212,212)"/><path d="M7.264201315057883,-123.78872433096818L13.10080218820142,-120.21514217680333L10.221769363765988,-126.61092603236621z" style="fill:rgb(212,85,213)"/><path d="M-51.942700511969306,-134.84159381992916L-52.14735298472087,-105.71967184727625L-49.25708773183986,-133.7470321190714zM6.9963973717180945,-123.0356044197602L-50.18535070672642,-104.60668376663959L6.192873330202967,-120.77593581615466zM-91.81180860430568,-123.10034499313772L-96.23190444909616,-93.05774795869227L-93.4131743854029,-92.01057420484412z" style="fill:rgb(83,212,212)"/><path d="M-35.7586743840032,-109.42552100551676L-42.984426555077526,-120.64587059348798L-36.000295606406674,-106.62818850556349z" style="fill:rgb(247,155,161)"/><path d="M17.136418046698484,-122.09211628503903L18.366807499079417,-128.95631114453462L14.27898298435537,-128.4996227372283z" style="fill:rgb(96,32,206)"/><path d="M24.233877346177568,-121.41914144958766L18.366807499079417,-128.95631114453462L21.20690563408929,-122.5348892320427z" style="fill:rgb(42,41,169)"/><path d="M10.326578663732443,-117.23400692068404L-51.05043229583248,-101.04073772426385L-52.05355283796624,-99.41609105309878z" style="fill:rgb(83,212,212)"/><path d="M10.163496474065925,-117.39942392553449L6.192873330202967,-120.77593581615466L9.105763839497643,-114.38621759324239z" style="fill:rgb(243,133,180)"/><path d="M6.192873330202967,-120.77593581615466L-50.15925454936704,-103.94179690009065L6.472046612862115,-120.17411447285178z" style="fill:rgb(83,212,212)"/><path d="M-35.7586743840032,-109.42552100551676L-43.00098995642985,-126.03833031645823L-42.71923480122941,-123.43584965182845z" style="fill:rgb(246,167,149)"/><path d="M-49.25708773183986,-133.7470321190714L-49.35697824370677,-108.64910504946505L-46.980156348565004,-132.29401052971573z" style="fill:rgb(83,212,212)"/><path d="M-100.5376021102896,-96.22913849541736L-90.98550845249626,-80.80870855679727L-98.6199608641544,-94.47360915404079z" style="fill:rgb(26,53,150)"/><path d="M-88.56525880157683,-125.6596385817588L-93.4131743854029,-92.01057420484412L-90.2124325667477,-91.35457108875538z" style="fill:rgb(83,212,212)"/><path d="M6.192873330202967,-120.77593581615466L10.163496474065925,-117.39942392553449L7.264201315057883,-123.78872433096818z" style="fill:rgb(243,133,180)"/><path d="M14.448348548323839,-117.67491195223403L-52.05355283796624,-99.41609105309878L-52.596491719820875,-98.53675885040705z" style="fill:rgb(83,212,212)"/><path d="M-85.7984133485556,-78.29797428282943L-96.23190444909616,-93.05774795869227L-88.60399398086042,-79.37007167248126z" style="fill:rgb(47,39,173)"/><path d="M-50.15925454936704,-103.94179690009065L7.30707985644541,-118.37399659645014L6.472046612862115,-120.17411447285178zM-46.980156348565004,-132.29401052971573L-47.00906859526536,-111.66335872931579L-45.1555007074682,-130.5048177999019zM-85.05544681830122,-128.00973961139505L-90.2124325667477,-91.35457108875538L-86.68652311684309,-91.10496490473163z" style="fill:rgb(83,212,212)"/><path d="M-36.000295606406674,-106.62818850556349L-43.796540652352235,-117.71799469591035L-36.78331032867548,-103.69703443847428z" style="fill:rgb(245,142,172)"/><path d="M-42.984426555077526,-120.64587059348798L-35.7586743840032,-109.42552100551676L-42.71923480122941,-123.43584965182845z" style="fill:rgb(247,155,161)"/><path d="M18.366807499079417,-128.95631114453462L24.233877346177568,-121.41914144958766L21.40231278248279,-127.8529638931818z" style="fill:rgb(42,41,169)"/><path d="M25.400688912933862,-119.0305736994869L21.40231278248279,-127.8529638931818L24.233877346177568,-121.41914144958766z" style="fill:rgb(11,74,121)"/><path d="M136.83458135454114,-185.4469471680222L-63.188861062736414,-111.3365216769578L139.31344315088734,-169.94585095714595zM-45.1555007074682,-130.5048177999019L-45.14509983967662,-114.70530247235203L-43.81962302396347,-128.40805352159998zM-50.83639595846111,-101.73749835682204L8.278877605577481,-118.00709589467372L7.30707985644541,-118.37399659645014zM-81.34126834696654,-130.11193808849447L-86.68652311684309,-91.10496490473163L-82.89949842711596,-91.26923079995653z" style="fill:rgb(83,212,212)"/><path d="M-98.6199608641544,-94.47360915404079L-88.60399398086042,-79.37007167248126L-96.23190444909616,-93.05774795869227z" style="fill:rgb(36,45,162)"/><path d="M-82.6172589451694,-77.61529757628553L-93.4131743854029,-92.01057420484412L-85.7984133485556,-78.29797428282943z" style="fill:rgb(59,35,184)"/><path d="M-43.81962302396347,-128.40805352159998L-43.796540652352235,-117.71799469591035L-43.00098995642985,-126.03833031645823zM-51.05043229583248,-101.04073772426385L10.326578663732443,-117.23400692068404L8.278877605577481,-118.00709589467372zM-77.48458727277463,-131.93144960920054L-82.89949842711596,-91.26923079995653L-78.92139259727885,-91.84669170821259z" style="fill:rgb(83,212,212)"/><path d="M-36.78331032867548,-103.69703443847428L-45.14509983967662,-114.70530247235203L-38.097685704720575,-100.68522340808755z" style="fill:rgb(241,130,183)"/><path d="M139.90963429010907,-166.21766724150623L-52.04452866916049,-109.38978515412207L14.27898298435537,-128.4996227372283z" style="fill:rgb(83,212,212)"/><path d="M-43.796540652352235,-117.71799469591035L-36.000295606406674,-106.62818850556349L-42.984426555077526,-120.64587059348798z" style="fill:rgb(245,142,172)"/><path d="M-43.00098995642985,-126.03833031645823L-42.984426555077526,-120.64587059348798L-42.71923480122941,-123.43584965182845z" style="fill:rgb(83,212,212)"/><path d="M21.40231278248279,-127.8529638931818L25.400688912933862,-119.0305736994869L22.566470209903578,-125.4718844580355z" style="fill:rgb(11,74,121)"/><path d="M-73.54947356970084,-133.43785058681487L-78.92139259727885,-91.84669170821259L-74.82682143405643,-92.82839256348446zM-52.05355283796624,-99.41609105309878L14.448348548323839,-117.67491195223403L10.326578663732443,-117.23400692068404z" style="fill:rgb(83,212,212)"/><path d="M-96.23190444909616,-93.05774795869227L-85.7984133485556,-78.29797428282943L-93.4131743854029,-92.01057420484412z" style="fill:rgb(47,39,173)"/><path d="M-69.6013590888804,-134.60547249318785L-74.82682143405643,-92.82839256348446L-70.69338062682058,-94.19711623048586z" style="fill:rgb(83,212,212)"/><path d="M-38.097685704720575,-100.68522340808755L-47.00906859526536,-111.66335872931579L-39.92294840508538,-97.64831364230969z" style="fill:rgb(236,117,193)"/><path d="M-43.00098995642985,-126.03833031645823L-43.796540652352235,-117.71799469591035L-42.984426555077526,-120.64587059348798z" style="fill:rgb(83,212,212)"/><path d="M-86.68652311684309,-91.10496490473163L-82.6172589451694,-77.61529757628553L-79.11706133412693,-77.33770965592666z" style="fill:rgb(73,33,194)"/><path d="M-65.70620306318246,-135.41381083967633L-70.69338062682058,-94.19711623048586L-66.59993051292201,-95.92767952273338z" style="fill:rgb(83,212,212)"/><path d="M-45.14509983967662,-114.70530247235203L-36.78331032867548,-103.69703443847428L-43.796540652352235,-117.71799469591035z" style="fill:rgb(241,130,183)"/><path d="M-43.81962302396347,-128.40805352159998L-45.14509983967662,-114.70530247235203L-43.796540652352235,-117.71799469591035zM-61.92959831224141,-135.84780955115042L-66.59993051292201,-95.92767952273338L-62.6247859369682,-97.98743526806315zM-45.1555007074682,-130.5048177999019L-47.00906859526536,-111.66335872931579L-45.14509983967662,-114.70530247235203zM-58.33589627908386,-135.89820813183792L-62.6247859369682,-97.98743526806315L-58.84396060381788,-100.33698595491884z" style="fill:rgb(83,212,212)"/><path d="M-93.4131743854029,-92.01057420484412L-82.6172589451694,-77.61529757628553L-90.2124325667477,-91.35457108875538z" style="fill:rgb(59,35,184)"/><path d="M-46.980156348565004,-132.29401052971573L-49.35697824370677,-108.64910504946505L-47.00906859526536,-111.66335872931579z" style="fill:rgb(83,212,212)"/><path d="M-39.92294840508538,-97.64831364230969L-49.35697824370677,-108.64910504946505L-42.228303789395774,-94.64314799988006z" style="fill:rgb(228,104,202)"/><path d="M-54.98726225511756,-135.5617874681323L-58.84396060381788,-100.33698595491884L-55.32939514794028,-102.93107617365658zM-49.25708773183986,-133.7470321190714L-52.14735298472087,-105.71967184727625L-49.35697824370677,-108.64910504946505z" style="fill:rgb(83,212,212)"/><path d="M-82.89949842711596,-91.26923079995653L-79.11706133412693,-77.33770965592666L-75.36141742467615,-77.47316557616409z" style="fill:rgb(88,32,202)"/><path d="M-51.942700511969306,-134.84159381992916L-55.32939514794028,-102.93107617365658L-52.14735298472087,-105.71967184727625zM139.31344315088734,-169.94585095714595L-59.4467843199478,-111.7688697393991L139.41785768237688,-169.29291399843305z" style="fill:rgb(83,212,212)"/><path d="M-47.00906859526536,-111.66335872931579L-38.097685704720575,-100.68522340808755L-45.14509983967662,-114.70530247235203z" style="fill:rgb(236,117,193)"/><path d="M-82.6172589451694,-77.61529757628553L-86.68652311684309,-91.10496490473163L-90.2124325667477,-91.35457108875538z" style="fill:rgb(73,33,194)"/><path d="M-42.228303789395774,-94.64314799988006L-52.14735298472087,-105.71967184727625L-44.973051765232036,-91.72666848064137z" style="fill:rgb(218,92,209)"/><path d="M-78.92139259727885,-91.84669170821259L-75.36141742467615,-77.47316557616409L-71.41977168278954,-78.02150018959364z" style="fill:rgb(103,33,209)"/><path d="M139.41785768237688,-169.29291399843305L-56.09187084042994,-111.47505215149107L139.6205718816547,-168.0252740233966zM18.366807499079417,-128.95631114453462L140.14200086505684,-164.76461855309014L14.27898298435537,-128.4996227372283zM141.91860134974982,-153.65495886170274L-52.596491719820875,-98.53675885040705L-52.887160990256945,-98.06598556922036z" style="fill:rgb(83,212,212)"/><path d="M-44.973051765232036,-91.72666848064137L-55.32939514794028,-102.93107617365658L-48.10725747260234,-88.95461942114568z" style="fill:rgb(207,81,215)"/><path d="M-74.82682143405643,-92.82839256348446L-71.41977168278954,-78.02150018959364L-67.36603213009953,-78.97429298871798z" style="fill:rgb(119,35,215)"/><path d="M-49.35697824370677,-108.64910504946505L-39.92294840508538,-97.64831364230969L-47.00906859526536,-111.66335872931579z" style="fill:rgb(228,104,202)"/><path d="M-79.11706133412693,-77.33770965592666L-82.89949842711596,-91.26923079995653L-86.68652311684309,-91.10496490473163z" style="fill:rgb(88,32,202)"/><path d="M139.6205718816547,-168.0252740233966L-53.33314907703363,-110.46834482310847L139.90963429010907,-166.21766724150623zM21.40231278248279,-127.8529638931818L140.2555477464532,-164.05457413348051L18.366807499079417,-128.95631114453462z" style="fill:rgb(83,212,212)"/><path d="M-48.10725747260234,-88.95461942114568L-58.84396060381788,-100.33698595491884L-51.57270802901572,-86.38031942087873z" style="fill:rgb(195,70,219)"/><path d="M-70.69338062682058,-94.19711623048586L-67.36603213009953,-78.97429298871798L-63.27696953376752,-80.31487458020165z" style="fill:rgb(135,39,219)"/><path d="M142.25486397194624,-151.55220701929173L-52.887160990256945,-98.06598556922036L-55.55694860766758,-95.20927574023433z" style="fill:rgb(83,212,212)"/><path d="M-58.84396060381788,-100.33698595491884L-55.304117481458995,-84.05338756237929L-51.57270802901572,-86.38031942087873z" style="fill:rgb(181,60,221)"/><path d="M-66.59993051292201,-95.92767952273338L-63.27696953376752,-80.31487458020165L-59.23054348167876,-82.01860985265158z" style="fill:rgb(151,45,221)"/><path d="M-62.6247859369682,-97.98743526806315L-59.23054348167876,-82.01860985265158L-55.304117481458995,-84.05338756237929z" style="fill:rgb(166,52,222)"/><path d="M-52.14735298472087,-105.71967184727625L-42.228303789395774,-94.64314799988006L-49.35697824370677,-108.64910504946505z" style="fill:rgb(218,92,209)"/><path d="M-75.36141742467615,-77.47316557616409L-78.92139259727885,-91.84669170821259L-82.89949842711596,-91.26923079995653z" style="fill:rgb(103,33,209)"/><path d="M142.5124543884406,-149.94142160228188L-55.55694860766758,-95.20927574023433L-58.89045877959898,-92.65659726942842zM142.72942825151287,-148.58461567747995L-62.67251113064643,-90.57490475523838L-66.65706867282309,-89.0999242176947zM142.67425633744304,-148.92961871930535L-58.89045877959898,-92.65659726942842L-62.67251113064643,-90.57490475523838z" style="fill:rgb(83,212,212)"/><path d="M-55.32939514794028,-102.93107617365658L-44.973051765232036,-91.72666848064137L-52.14735298472087,-105.71967184727625z" style="fill:rgb(207,81,215)"/><path d="M22.566470209903578,-125.4718844580355L140.56670428587492,-162.10881001470867L21.40231278248279,-127.8529638931818z" style="fill:rgb(83,212,212)"/><path d="M-71.41977168278954,-78.02150018959364L-74.82682143405643,-92.82839256348446L-78.92139259727885,-91.84669170821259z" style="fill:rgb(119,35,215)"/><path d="M-58.84396060381788,-100.33698595491884L-48.10725747260234,-88.95461942114568L-55.32939514794028,-102.93107617365658z" style="fill:rgb(195,70,219)"/><path d="M-67.36603213009953,-78.97429298871798L-70.69338062682058,-94.19711623048586L-74.82682143405643,-92.82839256348446z" style="fill:rgb(135,39,219)"/><path d="M-63.27696953376752,-80.31487458020165L-66.59993051292201,-95.92767952273338L-70.69338062682058,-94.19711623048586z" style="fill:rgb(151,45,221)"/><path d="M-55.304117481458995,-84.05338756237929L-58.84396060381788,-100.33698595491884L-62.6247859369682,-97.98743526806315z" style="fill:rgb(181,60,221)"/><path d="M-59.23054348167876,-82.01860985265158L-62.6247859369682,-97.98743526806315L-66.59993051292201,-95.92767952273338z" style="fill:rgb(166,52,222)"/><path d="M141.42388065740982,-156.74860754203752L22.566470209903578,-125.4718844580355L21.52908783398431,-122.44331378803513zM139.90963429010907,-166.21766724150623L14.27898298435537,-128.4996227372283L140.14200086505684,-164.76461855309014zM140.14200086505684,-164.76461855309014L18.366807499079417,-128.95631114453462L140.2555477464532,-164.05457413348051zM141.74024852066228,-154.77027247276928L21.52908783398431,-122.44331378803513L18.55551426297669,-119.58446900523191zM141.8564017167186,-154.0439170634512L18.55551426297669,-119.58446900523191L14.448348548323839,-117.67491195223403zM140.2555477464532,-164.05457413348051L21.40231278248279,-127.8529638931818L140.56670428587492,-162.10881001470867zM149.15504188680507,-108.40322466978644L-182.5345209584538,-56.18025717456897L-190.0876986910972,-15.424131623552638zM140.56670428587492,-162.10881001470867L22.566470209903578,-125.4718844580355L140.99398967755786,-159.43685557325128zM-52.596491719820875,-98.53675885040705L141.91860134974982,-153.65495886170274L141.8564017167186,-154.0439170634512zM22.566470209903578,-125.4718844580355L141.42388065740982,-156.74860754203752L140.99398967755786,-159.43685557325128zM-52.887160990256945,-98.06598556922036L142.25486397194624,-151.55220701929173L141.91860134974982,-153.65495886170274zM-55.55694860766758,-95.20927574023433L142.5124543884406,-149.94142160228188L142.25486397194624,-151.55220701929173zM21.52908783398431,-122.44331378803513L141.74024852066228,-154.77027247276928L141.42388065740982,-156.74860754203752zM-58.89045877959898,-92.65659726942842L142.67425633744304,-148.92961871930535L142.5124543884406,-149.94142160228188zM-62.67251113064643,-90.57490475523838L142.72942825151287,-148.58461567747995L142.67425633744304,-148.92961871930535zM18.55551426297669,-119.58446900523191L141.8564017167186,-154.0439170634512L141.74024852066228,-154.77027247276928zM99.0966688261822,-93.85374498053613L-190.0876986910972,-15.424131623552638L-190.23836189269514,-14.61116961876255zM-190.6512016519941,-12.38353061802845L99.0966688261822,-93.85374498053613L-190.23836189269514,-14.61116961876255zM-182.5345209584538,-56.18025717456897L149.15504188680507,-108.40322466978644L142.72942825151287,-148.58461567747995zM95.11699987304341,-87.37309953515918L-190.6512016519941,-12.38353061802845L-191.2180554361964,-9.324848671579204zM96.63820230105496,-84.6476572738426L-191.2180554361964,-9.324848671579204L-191.78829016552655,-6.247924556322462zM100.2004465087636,-83.30275754715683L-191.78829016552655,-6.247924556322462L-192.20789189967428,-3.983799717820753zM-192.3619360814707,-3.1525937893893543L100.2004465087636,-83.30275754715683L-192.20789189967428,-3.983799717820753z" style="fill:rgb(83,212,212)"/><path d="M8.846928496993277,-140.72894064815L10.312634373020204,8.441886612726858L9.671695101380346,-56.789106025598976z" style="fill:rgb(0,127,127)"/><path d="M-190.0876986910972,-15.424131623552638L99.0966688261822,-93.85374498053613L103.52114978080901,-95.89596373141065zM99.0966688261822,-93.85374498053613L-190.6512016519941,-12.38353061802845L96.02264871434683,-90.74005070414283zM-190.6512016519941,-12.38353061802845L95.11699987304341,-87.37309953515918L96.02264871434683,-90.74005070414283zM-191.2180554361964,-9.324848671579204L96.63820230105496,-84.6476572738426L95.11699987304341,-87.37309953515918zM-191.78829016552655,-6.247924556322462L100.2004465087636,-83.30275754715683L96.63820230105496,-84.6476572738426zM100.2004465087636,-83.30275754715683L-192.3619360814707,-3.1525937893893543L104.85520384472221,-83.71511406934384zM16.175044400605422,-7.316063875014759L-192.3619360814707,-3.1525937893893543L-202.03042398614434,49.017517169339634z" style="fill:rgb(83,212,212)"/><path d="M166.26389771607174,-1.4161593401216335L139.03535318185715,-178.683053895999L136.83458135454114,-185.4469471680222z" style="fill:rgb(247,158,158)"/><path d="M103.52114978080901,-95.89596373141065L101.69206939474286,-87.10990950910418L106.09087147236934,-89.13841736801366z" style="fill:rgb(158,48,222)"/><path d="M101.69206939474286,-87.10990950910418L96.02264871434683,-90.74005070414283L98.64029403718513,-84.0044528498146z" style="fill:rgb(212,85,213)"/><path d="M108.13208107333683,-96.32834239999357L106.09087147236934,-89.13841736801366L110.67932096290285,-89.55516594208359z" style="fill:rgb(96,32,206)"/><path d="M101.69206939474286,-87.10990950910418L103.52114978080901,-95.89596373141065L99.0966688261822,-93.85374498053613z" style="fill:rgb(158,48,222)"/><path d="M96.02264871434683,-90.74005070414283L101.69206939474286,-87.10990950910418L99.0966688261822,-93.85374498053613z" style="fill:rgb(212,85,213)"/><path d="M106.09087147236934,-89.13841736801366L108.13208107333683,-96.32834239999357L103.52114978080901,-95.89596373141065z" style="fill:rgb(96,32,206)"/><path d="M-192.3619360814707,-3.1525937893893543L16.175044400605422,-7.316063875014759L104.85520384472221,-83.71511406934384z" style="fill:rgb(83,212,212)"/><path d="M114.24377662798935,-88.24130067540295L108.13208107333683,-96.32834239999357L110.67932096290285,-89.55516594208359z" style="fill:rgb(42,41,169)"/><path d="M98.64029403718513,-84.0044528498146L95.11699987304341,-87.37309953515918L97.74759775975402,-80.63816240451997zM95.11699987304341,-87.37309953515918L98.64029403718513,-84.0044528498146L96.02264871434683,-90.74005070414283z" style="fill:rgb(243,133,180)"/><path d="M108.13208107333683,-96.32834239999357L114.24377662798935,-88.24130067540295L111.70994866470733,-95.02785630983445z" style="fill:rgb(42,41,169)"/><path d="M115.82378526212217,-85.5328109736929L111.70994866470733,-95.02785630983445L114.24377662798935,-88.24130067540295z" style="fill:rgb(11,74,121)"/><path d="M108.13208107333683,-96.32834239999357L149.15504188680507,-108.40322466978644L103.52114978080901,-95.89596373141065z" style="fill:rgb(83,212,212)"/><path d="M111.70994866470733,-95.02785630983445L115.82378526212217,-85.5328109736929L113.29059907112615,-92.32680652399395z" style="fill:rgb(11,74,121)"/><path d="M111.70994866470733,-95.02785630983445L149.283670352986,-107.59887034163755L108.13208107333683,-96.32834239999357zM-202.20062167564495,49.93588540847741L16.175044400605422,-7.316063875014759L-202.03042398614434,49.017517169339634zM8.23009920080117,-1.814525464056423L-202.20062167564495,49.93588540847741L-202.66707657720931,52.4528253730782zM149.15504188680507,-108.40322466978644L108.13208107333683,-96.32834239999357L149.283670352986,-107.59887034163755zM113.29059907112615,-92.32680652399395L149.63622485816532,-105.39424499526716L111.70994866470733,-95.02785630983445zM149.283670352986,-107.59887034163755L111.70994866470733,-95.02785630983445L149.63622485816532,-105.39424499526716zM7.01881408290493,1.9695010151165038L-202.66707657720931,52.4528253730782L-203.3077552490769,55.90985343250392zM149.63622485816532,-105.39424499526716L113.29059907112615,-92.32680652399395L150.1205212167656,-102.36577820984327zM150.6079639150535,-99.31765454932284L113.29059907112615,-92.32680652399395L112.42879506704932,-88.93983488889664zM8.285181906931303,5.141355831214638L-203.3077552490769,55.90985343250392L-203.95249569654231,59.38880726942206zM113.29059907112615,-92.32680652399395L150.6079639150535,-99.31765454932284L150.1205212167656,-102.36577820984327zM150.96680737017442,-97.07368423906316L112.42879506704932,-88.93983488889664L109.33915308650607,-85.78172597010872zM151.0985810594222,-96.24966184005969L109.33915308650607,-85.78172597010872L104.85520384472221,-83.71511406934384zM11.713420235948076,6.841833892088544L-203.95249569654231,59.38880726942206L-204.42707874125966,61.949601347991035zM112.42879506704932,-88.93983488889664L150.96680737017442,-97.07368423906316L150.6079639150535,-99.31765454932284zM16.392718105400014,6.59618674158753L-204.42707874125966,61.949601347991035L-204.60134017987065,62.889897131962805zM109.33915308650607,-85.78172597010872L151.0985810594222,-96.24966184005969L150.96680737017442,-97.07368423906316zM16.175044400605422,-7.316063875014759L-202.20062167564495,49.93588540847741L11.578752745085037,-5.20639370047419zM-202.20062167564495,49.93588540847741L8.23009920080117,-1.814525464056423L11.578752745085037,-5.20639370047419zM-202.66707657720931,52.4528253730782L7.01881408290493,1.9695010151165038L8.23009920080117,-1.814525464056423zM-203.3077552490769,55.90985343250392L8.285181906931303,5.141355831214638L7.01881408290493,1.9695010151165038zM-203.95249569654231,59.38880726942206L11.713420235948076,6.841833892088544L8.285181906931303,5.141355831214638zM-204.42707874125966,61.949601347991035L16.392718105400014,6.59618674158753L11.713420235948076,6.841833892088544zM104.85520384472221,-83.71511406934384L159.40708932887824,-44.29393690499931L151.0985810594222,-96.24966184005969z" style="fill:rgb(83,212,212)"/><path d="M16.175044400605422,-7.316063875014759L14.829210784617334,1.280789247506413L19.397803472231054,-0.8142195339883468z" style="fill:rgb(158,48,222)"/><path d="M14.829210784617334,1.280789247506413L8.23009920080117,-1.814525464056423L11.506515774012387,4.661926403103387z" style="fill:rgb(212,85,213)"/><path d="M20.81062616704682,-7.587664661989974L19.397803472231054,-0.8142195339883468L24.011090005182236,-1.07102406377437z" style="fill:rgb(96,32,206)"/><path d="M14.829210784617334,1.280789247506413L16.175044400605422,-7.316063875014759L11.578752745085037,-5.20639370047419z" style="fill:rgb(158,48,222)"/><path d="M8.23009920080117,-1.814525464056423L14.829210784617334,1.280789247506413L11.578752745085037,-5.20639370047419z" style="fill:rgb(212,85,213)"/><path d="M19.397803472231054,-0.8142195339883468L20.81062616704682,-7.587664661989974L16.175044400605422,-7.316063875014759z" style="fill:rgb(96,32,206)"/><path d="M27.44875783610484,0.5884779144147331L20.81062616704682,-7.587664661989974L24.011090005182236,-1.07102406377437z" style="fill:rgb(42,41,169)"/><path d="M11.506515774012387,4.661926403103387L7.01881408290493,1.9695010151165038L10.312634373020204,8.441886612726858zM7.01881408290493,1.9695010151165038L11.506515774012387,4.661926403103387L8.23009920080117,-1.814525464056423z" style="fill:rgb(243,133,180)"/><path d="M7.01881408290493,1.9695010151165038L11.58304578260202,11.617418019565294L10.312634373020204,8.441886612726858z" style="fill:rgb(243,180,133)"/><path d="M104.85520384472221,-83.71511406934384L16.175044400605422,-7.316063875014759L159.40708932887824,-44.29393690499931z" style="fill:rgb(83,212,212)"/><path d="M20.81062616704682,-7.587664661989974L27.44875783610484,0.5884779144147331L24.259360688327472,-5.939120798447217z" style="fill:rgb(42,41,169)"/><path d="M11.58304578260202,11.617418019565294L7.01881408290493,1.9695010151165038L8.285181906931303,5.141355831214638z" style="fill:rgb(243,180,133)"/><path d="M166.26389771607174,-1.4161593401216335L-204.60134017987065,62.889897131962805L-209.94459439754286,91.72151160068087z" style="fill:rgb(83,212,212)"/><path d="M139.03535318185715,-178.683053895999L166.26389771607174,-1.4161593401216335L168.73793622388084,5.561502302429366z" style="fill:rgb(247,158,158)"/><path d="M20.81062616704682,-7.587664661989974L159.40708932887824,-44.29393690499931L16.175044400605422,-7.316063875014759z" style="fill:rgb(83,212,212)"/><path d="M-205.39660029762183,97.51203812632517L166.26389771607174,-1.4161593401216335L-209.94459439754286,91.72151160068087z" style="fill:rgb(127,37,217)"/><path d="M24.259360688327472,-5.939120798447217L159.55401949609086,-43.37515075956988L20.81062616704682,-7.587664661989974zM25.589939270571268,-2.793249313141171L159.95681491137927,-40.8563296097569L24.259360688327472,-5.939120798447217zM161.0677196568496,-33.90950192326085L25.589939270571268,-2.793249313141171L24.422370791302413,1.0167280633782556zM159.40708932887824,-44.29393690499931L20.81062616704682,-7.587664661989974L159.55401949609086,-43.37515075956988zM161.47820688581288,-31.342600842275928L24.422370791302413,1.0167280633782556L21.05322264814416,4.460532403870333zM161.62897864252955,-30.399777550479115L21.05322264814416,4.460532403870333L16.392718105400014,6.59618674158753zM159.55401949609086,-43.37515075956988L24.259360688327472,-5.939120798447217L159.95681491137927,-40.8563296097569zM-204.60134017987065,62.889897131962805L166.26389771607174,-1.4161593401216335L161.62897864252955,-30.399777550479115zM159.95681491137927,-40.8563296097569L25.589939270571268,-2.793249313141171L160.51034514231432,-37.39493550801129zM25.589939270571268,-2.793249313141171L161.0677196568496,-33.90950192326085L160.51034514231432,-37.39493550801129zM24.422370791302413,1.0167280633782556L161.47820688581288,-31.342600842275928L161.0677196568496,-33.90950192326085zM21.05322264814416,4.460532403870333L161.62897864252955,-30.399777550479115L161.47820688581288,-31.342600842275928z" style="fill:rgb(83,212,212)"/><path d="M166.26389771607174,-1.4161593401216335L-205.39660029762183,97.51203812632517L168.73793622388084,5.561502302429366z" style="fill:rgb(127,37,217)"/></svg>
