<?xml version="1.0" encoding="UTF-8"?>
<!-- Generated by jsxcad -->
<!DOCTYPE svg PUBLIC "-//W3C//DTD SVG 1.1 Tiny//EN" "http://www.w3.org/Graphics/SVG/1.1/DTD/svg11-tiny.dtd">
<svg baseProfile="tiny" height="58.96875mm" width="38.70536mm" viewBox="-0.00087 7.96875 38.70536 58.96875" version="1.1" stroke="black" stroke-width=".1" fill="none" xmlns="http://www.w3.org/2000/svg">
<path fill="#000000" stroke="#000000" d="M0.03690 32.06327 L0.46314 29.23243 L2.69882 14.57355 L3.32891 12.77596 L4.34008 11.16808 L5.68418 9.82398 L7.29206 8.81282 L9.08965 8.18272 L10.98485 7.96875 L26.98485 7.96875 L28.88004 8.18272 L30.67763 8.81282 L32.28552 9.82398 L33.62961 11.16808 L34.64078 12.77596 L35.27087 14.57355 L37.50655 29.23243 L37.93279 32.06327 L37.93279 34.87423 L37.50655 37.70507 L36.67173 40.40951 L35.43324 42.97929 L33.83786 45.31730 L31.91745 47.38809 L29.70603 49.15493 L27.23931 50.58202 L24.59292 51.62225 L21.81891 52.25620 L18.98485 52.46875 L16.15079 52.25620 L13.37677 51.62225 L10.73039 50.58202 L8.26367 49.15493 L6.05225 47.38809 L4.13184 45.31730 L2.53646 42.97929 L1.29797 40.40951 L0.46314 37.70507 L0.03690 34.87423 z M32.17456 45.40162 L32.17428 45.00625 L32.17391 44.49792 L31.97538 44.15437 L31.72013 43.71266 L31.37629 43.51462 L30.93422 43.26000 L30.53885 43.26028 L30.03052 43.26065 L29.68696 43.45918 L29.24525 43.71444 L29.04722 44.05827 L28.79260 44.50035 L28.79288 44.89572 L28.79324 45.40405 L28.99178 45.74760 L29.24703 46.18931 L29.59087 46.38735 L30.03294 46.64197 L30.42831 46.64168 L30.93664 46.64132 L31.28019 46.44279 L31.72190 46.18753 L31.91994 45.84370 z M9.17710 22.43715 L9.17682 22.04178 L9.17645 21.53345 L8.97792 21.18990 L8.72267 20.74819 L8.37883 20.55015 L7.93675 20.29553 L7.54139 20.29582 L7.03305 20.29618 L6.68950 20.49471 L6.24779 20.74997 L6.04975 21.09380 L5.79513 21.53588 L5.79542 21.93125 L5.79578 22.43958 L5.99431 22.78313 L6.24957 23.22484 L6.59341 23.42288 L7.03548 23.67750 L7.43085 23.67722 L7.93918 23.67685 L8.28273 23.47832 L8.72444 23.22306 L8.92248 22.87923 z M9.19360 45.41812 L9.19332 45.02275 L9.19295 44.51442 L8.99442 44.17087 L8.73916 43.72916 L8.39533 43.53112 L7.95325 43.27650 L7.55788 43.27678 L7.04955 43.27715 L6.70600 43.47568 L6.26429 43.73093 L6.06625 44.07477 L5.81163 44.51684 L5.81191 44.91221 L5.81228 45.42054 L6.01081 45.76410 L6.26607 46.20581 L6.60990 46.40384 L7.05198 46.65847 L7.44735 46.65818 L7.95568 46.65782 L8.29923 46.45928 L8.74094 46.20403 L8.93898 45.86019 z M30.45551 34.28961 L30.42909 33.19296 L30.40266 32.09631 L30.16889 31.02601 L29.93513 29.95571 L29.50711 28.95740 L29.07909 27.95909 L28.46315 27.04962 L27.84722 26.14015 L27.07397 25.36801 L26.30072 24.59586 L25.39036 23.98124 L24.48001 23.36661 L23.48109 22.94003 L22.48216 22.51344 L21.41153 22.28121 L20.34089 22.04898 L19.24420 22.02413 L18.14752 21.99927 L17.07755 22.18005 L16.00757 22.36083 L14.98526 22.74201 L13.96295 23.12319 L13.02390 23.69597 L12.08485 24.26875 L11.27731 25.00405 L10.46978 25.73935 L9.81278 26.61910 L9.15579 27.49886 L8.68197 28.47676 L8.20816 29.45466 L7.92486 30.51570 L7.64156 31.57674 L7.56501 32.66707 L7.48847 33.75741 L7.61784 34.83428 L7.74720 35.91116 L8.08377 36.96158 L8.42034 38.01201 L8.94465 38.96908 L9.46896 39.92614 L10.16396 40.76623 L10.85896 41.60631 L11.70004 42.30010 L12.54112 42.99390 L13.49894 43.51683 L14.45676 44.03977 L15.50767 44.37483 L16.55858 44.70989 L17.63564 44.83771 L18.71270 44.96553 L19.80292 44.88742 L20.89315 44.80931 L21.95378 44.52449 L23.01441 44.23967 L23.99163 43.76445 L24.96885 43.28923 L25.84766 42.63097 L26.72646 41.97271 L27.46060 41.16412 L28.19475 40.35553 L28.76618 39.41566 L29.33760 38.47579 L29.71732 37.45293 L30.09703 36.43007 L30.27627 35.35984 z M32.15807 22.42066 L32.15778 22.02529 L32.15742 21.51696 L31.95889 21.17340 L31.70363 20.73169 L31.35979 20.53366 L30.91772 20.27903 L30.52235 20.27932 L30.01402 20.27968 L29.67047 20.47822 L29.22876 20.73347 L29.03072 21.07731 L28.77610 21.51938 L28.77638 21.91475 L28.77675 22.42308 L28.97528 22.76663 L29.23053 23.20834 L29.57437 23.40638 L30.01645 23.66100 L30.41181 23.66072 L30.92015 23.66035 L31.26370 23.46182 L31.70541 23.20657 L31.90345 22.86273 z M28.48485 12.46875 L28.48485 11.04018 L28.48485 10.46875 L14.91342 10.46875 L9.48485 10.46875 L9.48485 11.89732 L9.48485 12.46875 L23.05628 12.46875 z"/>
<path fill="#000000" stroke="#000000" d="M5.81163 44.51684 L6.06625 44.07477 L6.26429 43.73093 L6.70600 43.47568 L7.04955 43.27715 L7.55788 43.27678 L7.95325 43.27650 L8.39533 43.53112 L8.73916 43.72916 L8.99442 44.17087 L9.19295 44.51442 L9.19332 45.02275 L9.19360 45.41812 L8.93898 45.86019 L8.74094 46.20403 L8.29923 46.45928 L7.95568 46.65782 L7.44735 46.65818 L7.05198 46.65847 L6.60990 46.40384 L6.26607 46.20581 L6.01081 45.76410 L5.81228 45.42054 L5.81191 44.91221 z"/>
<path fill="#000000" stroke="#000000" d="M28.79260 44.50035 L29.04722 44.05827 L29.24525 43.71444 L29.68696 43.45918 L30.03052 43.26065 L30.53885 43.26028 L30.93422 43.26000 L31.37629 43.51462 L31.72013 43.71266 L31.97538 44.15437 L32.17391 44.49792 L32.17428 45.00625 L32.17456 45.40162 L31.91994 45.84370 L31.72190 46.18753 L31.28019 46.44279 L30.93664 46.64132 L30.42831 46.64168 L30.03294 46.64197 L29.59087 46.38735 L29.24703 46.18931 L28.99178 45.74760 L28.79324 45.40405 L28.79288 44.89572 z"/>
<path fill="#000000" stroke="#000000" d="M28.77610 21.51938 L29.03072 21.07731 L29.22876 20.73347 L29.67047 20.47822 L30.01402 20.27968 L30.52235 20.27932 L30.91772 20.27903 L31.35979 20.53366 L31.70363 20.73169 L31.95889 21.17340 L32.15742 21.51696 L32.15778 22.02529 L32.15807 22.42066 L31.90345 22.86273 L31.70541 23.20657 L31.26370 23.46182 L30.92015 23.66035 L30.41181 23.66072 L30.01645 23.66100 L29.57437 23.40638 L29.23053 23.20834 L28.97528 22.76663 L28.77675 22.42308 L28.77638 21.91475 z"/>
<path fill="#000000" stroke="#000000" d="M5.79513 21.53588 L6.04975 21.09380 L6.24779 20.74997 L6.68950 20.49471 L7.03305 20.29618 L7.54139 20.29582 L7.93675 20.29553 L8.37883 20.55015 L8.72267 20.74819 L8.97792 21.18990 L9.17645 21.53345 L9.17682 22.04178 L9.17710 22.43715 L8.92248 22.87923 L8.72444 23.22306 L8.28273 23.47832 L7.93918 23.67685 L7.43085 23.67722 L7.03548 23.67750 L6.59341 23.42288 L6.24957 23.22484 L5.99431 22.78313 L5.79578 22.43958 L5.79542 21.93125 z"/>
<path fill="#000000" stroke="#000000" d="M30.27627 35.35984 L30.09703 36.43007 L29.71732 37.45293 L29.33760 38.47579 L28.76618 39.41566 L28.19475 40.35553 L27.46060 41.16412 L26.72646 41.97271 L25.84766 42.63097 L24.96885 43.28923 L23.99163 43.76445 L23.01441 44.23967 L21.95378 44.52449 L20.89315 44.80931 L19.80292 44.88742 L18.71270 44.96553 L17.63564 44.83771 L16.55858 44.70989 L15.50767 44.37483 L14.45676 44.03977 L13.49894 43.51683 L12.54112 42.99390 L11.70004 42.30010 L10.85896 41.60631 L10.16396 40.76623 L9.46896 39.92614 L8.94465 38.96908 L8.42034 38.01201 L8.08377 36.96158 L7.74720 35.91116 L7.61784 34.83428 L7.48847 33.75741 L7.56501 32.66707 L7.64156 31.57674 L7.92486 30.51570 L8.20816 29.45466 L8.68197 28.47676 L9.15579 27.49886 L9.81278 26.61910 L10.46978 25.73935 L11.27731 25.00405 L12.08485 24.26875 L13.02390 23.69597 L13.96295 23.12319 L14.98526 22.74201 L16.00757 22.36083 L17.07755 22.18005 L18.14752 21.99927 L19.24420 22.02413 L20.34089 22.04898 L21.41153 22.28121 L22.48216 22.51344 L23.48109 22.94003 L24.48001 23.36661 L25.39036 23.98124 L26.30072 24.59586 L27.07397 25.36801 L27.84722 26.14015 L28.46315 27.04962 L29.07909 27.95909 L29.50711 28.95740 L29.93513 29.95571 L30.16889 31.02601 L30.40266 32.09631 L30.42909 33.19296 L30.45551 34.28961 z"/>
<path fill="#000000" stroke="#000000" d="M9.48485 10.46875 L14.91342 10.46875 L28.48485 10.46875 L28.48485 11.04018 L28.48485 12.46875 L23.05628 12.46875 L9.48485 12.46875 L9.48485 11.89732 z"/>
<path stroke="#000000" d="M -0.00087 7.96875 L 37.99913 7.96875 L 37.99913 58.96875 L -0.00087 58.96875 z"/>
<path stroke="#000000" d="M 1.13753 66.93750 L 3.64199 66.93750 L 2.27592 65.11607 L 2.95896 65.11607 L 3.41431 64.88839 L 3.64199 64.66071 L 3.86967 63.97768 L 3.86967 63.52232 L 3.64199 62.83929 L 3.18663 62.38393 L 2.50360 62.15625 L 1.82056 62.15625 L 1.13753 62.38393 L 0.90985 62.61161 L 0.68217 63.06696"/>
<path stroke="#000000" d="M 8.42324 66.93750 L 6.14646 62.15625 M 5.23574 66.93750 z"/>
<path stroke="#000000" d="M 10.24467 62.61161 L 10.01699 62.38393 L 10.24467 62.15625 L 10.47235 62.38393 z"/>
<path stroke="#000000" d="M 15.02592 65.34375 L 14.79824 64.66071 L 14.34288 64.20536 L 13.65985 63.97768 L 13.43217 63.97768 L 12.74913 64.20536 L 12.29378 64.66071 L 12.06610 65.34375 L 12.06610 65.57143 L 12.29378 66.25446 L 12.74913 66.70982 L 13.43217 66.93750 L 13.65985 66.93750 L 14.34288 66.70982 L 14.79824 66.25446 L 15.02592 65.34375 L 15.02592 64.20536 L 14.79824 63.06696 L 14.34288 62.38393 L 13.65985 62.15625 L 13.20449 62.15625 L 12.52146 62.38393 L 12.29378 62.83929"/>
<path stroke="#000000" d="M 19.80717 66.93750 L 17.53038 62.15625 M 16.61967 66.93750 z"/>
<path stroke="#000000" d=""/>
<path stroke="#000000" d="M 24.81610 65.34375 L 27.32056 62.15625 M 27.32056 65.34375 L 24.81610 62.15625"/>
<path stroke="#000000" d=""/>
<path stroke="#000000" d="M 35.06163 66.93750 L 32.78485 66.93750 L 32.55717 64.88839 L 32.78485 65.11607 L 33.46788 65.34375 L 34.15092 65.34375 L 34.83396 65.11607 L 35.28931 64.66071 L 35.51699 63.97768 L 35.51699 63.52232 L 35.28931 62.83929 L 34.83396 62.38393 L 34.15092 62.15625 L 33.46788 62.15625 L 32.78485 62.38393 L 32.55717 62.61161 L 32.32949 63.06696"/>
<path stroke="#000000" d="M 37.56610 66.02679 L 38.02146 66.25446 L 38.70449 66.93750 L 38.70449 62.15625"/>
</svg>