solid JSxCAD
facet normal -1 0 0
outer loop
vertex -20 20 0
vertex -20 -20 1
vertex -20 20 1
endloop
endfacet
facet normal -1 0 0
outer loop
vertex -20 -20 1
vertex -20 20 0
vertex -20 -20 0
endloop
endfacet
facet normal 0 1 0
outer loop
vertex -20 20 0
vertex 20 20 1
vertex 20 20 0
endloop
endfacet
facet normal 0 1 0
outer loop
vertex 20 20 1
vertex -20 20 0
vertex -20 20 1
endloop
endfacet
facet normal 1 0 0
outer loop
vertex 20 -20 0
vertex 20 20 1
vertex 20 -20 1
endloop
endfacet
facet normal 1 0 0
outer loop
vertex 20 20 1
vertex 20 -20 0
vertex 20 20 0
endloop
endfacet
facet normal 0 -1 0
outer loop
vertex -20 -20 1
vertex 20 -20 0
vertex 20 -20 1
endloop
endfacet
facet normal 0 -1 0
outer loop
vertex 20 -20 0
vertex -20 -20 1
vertex -20 -20 0
endloop
endfacet
facet normal 0 0 1
outer loop
vertex -20 20 1
vertex 20 -20 1
vertex 20 20 1
endloop
endfacet
facet normal 0 0 1
outer loop
vertex 20 -20 1
vertex -20 20 1
vertex -20 -20 1
endloop
endfacet
facet normal 0 0 -1
outer loop
vertex 20 -20 0
vertex -20 20 0
vertex 20 20 0
endloop
endfacet
facet normal 0 0 -1
outer loop
vertex -20 20 0
vertex 20 -20 0
vertex -20 -20 0
endloop
endfacet
facet normal -1 0 0
outer loop
vertex -3.2 3 1
vertex -3.2 -3 2
vertex -3.2 3 2
endloop
endfacet
facet normal -1 0 0
outer loop
vertex -3.2 -3 2
vertex -3.2 3 1
vertex -3.2 -3 1
endloop
endfacet
facet normal 0 1 0
outer loop
vertex -3.2 3 1
vertex 3.2 3 2
vertex 3.2 3 1
endloop
endfacet
facet normal 0 1 0
outer loop
vertex 3.2 3 2
vertex -3.2 3 1
vertex -3.2 3 2
endloop
endfacet
facet normal 1 0 0
outer loop
vertex 3.2 -3 1
vertex 3.2 3 2
vertex 3.2 -3 2
endloop
endfacet
facet normal 1 0 0
outer loop
vertex 3.2 3 2
vertex 3.2 -3 1
vertex 3.2 3 1
endloop
endfacet
facet normal 0 -1 0
outer loop
vertex -3.2 -3 2
vertex 3.2 -3 1
vertex 3.2 -3 2
endloop
endfacet
facet normal 0 -1 0
outer loop
vertex 3.2 -3 1
vertex -3.2 -3 2
vertex -3.2 -3 1
endloop
endfacet
facet normal 0 0 1
outer loop
vertex -3.2 3 2
vertex 3.2 -3 2
vertex 3.2 3 2
endloop
endfacet
facet normal 0 0 1
outer loop
vertex 3.2 -3 2
vertex -3.2 3 2
vertex -3.2 -3 2
endloop
endfacet
facet normal 0 0 -1
outer loop
vertex 3.2 -3 1
vertex -3.2 3 1
vertex 3.2 3 1
endloop
endfacet
facet normal 0 0 -1
outer loop
vertex -3.2 3 1
vertex 3.2 -3 1
vertex -3.2 -3 1
endloop
endfacet
facet normal -1 0 0
outer loop
vertex -3.2 3 1
vertex -3.2 -3 2
vertex -3.2 3 2
endloop
endfacet
facet normal -1 0 0
outer loop
vertex -3.2 -3 2
vertex -3.2 3 1
vertex -3.2 -3 1
endloop
endfacet
facet normal 0 1 0
outer loop
vertex -3.2 3 1
vertex 3.2 3 2
vertex 3.2 3 1
endloop
endfacet
facet normal 0 1 0
outer loop
vertex 3.2 3 2
vertex -3.2 3 1
vertex -3.2 3 2
endloop
endfacet
facet normal 1 0 0
outer loop
vertex 3.2 -3 1
vertex 3.2 3 2
vertex 3.2 -3 2
endloop
endfacet
facet normal 1 0 0
outer loop
vertex 3.2 3 2
vertex 3.2 -3 1
vertex 3.2 3 1
endloop
endfacet
facet normal 0 -1 0
outer loop
vertex -3.2 -3 2
vertex 3.2 -3 1
vertex 3.2 -3 2
endloop
endfacet
facet normal 0 -1 0
outer loop
vertex 3.2 -3 1
vertex -3.2 -3 2
vertex -3.2 -3 1
endloop
endfacet
facet normal 0 0 1
outer loop
vertex -3.2 3 2
vertex 3.2 -3 2
vertex 3.2 3 2
endloop
endfacet
facet normal 0 0 1
outer loop
vertex 3.2 -3 2
vertex -3.2 3 2
vertex -3.2 -3 2
endloop
endfacet
facet normal 0 0 -1
outer loop
vertex 3.2 -3 1
vertex -3.2 3 1
vertex 3.2 3 1
endloop
endfacet
facet normal 0 0 -1
outer loop
vertex -3.2 3 1
vertex 3.2 -3 1
vertex -3.2 -3 1
endloop
endfacet
facet normal 0.18375252174034606 -0.9829725381484793 0
outer loop
vertex 1.01495 -10.95308 -7
vertex 3.01029 -10.58008 0
vertex 1.01495 -10.95308 0
endloop
endfacet
facet normal 0.18375252174034615 -0.9829725381484794 0
outer loop
vertex 3.01029 -10.58008 0
vertex 1.01495 -10.95308 -7
vertex 3.01029 -10.58008 -7
endloop
endfacet
facet normal 0.361238989617977 -0.9324732663083606 0
outer loop
vertex 3.01029 -10.58008 0
vertex 4.90312 -9.8468 -7
vertex 4.90312 -9.8468 0
endloop
endfacet
facet normal 0.36123898961797674 -0.9324732663083609 0
outer loop
vertex 4.90312 -9.8468 -7
vertex 3.01029 -10.58008 0
vertex 3.01029 -10.58008 -7
endloop
endfacet
facet normal 0.5264331349287973 -0.8502165338600743 0
outer loop
vertex 4.90312 -9.8468 -7
vertex 6.62898 -8.77819 0
vertex 4.90312 -9.8468 0
endloop
endfacet
facet normal 0.5264331349287968 -0.8502165338600747 0
outer loop
vertex 6.62898 -8.77819 0
vertex 4.90312 -9.8468 -7
vertex 6.62898 -8.77819 -7
endloop
endfacet
facet normal 0.6736956238813093 -0.7390089352390629 0
outer loop
vertex 6.62898 -8.77819 -7
vertex 8.1291 -7.41065 0
vertex 6.62898 -8.77819 0
endloop
endfacet
facet normal 0.6736956238813088 -0.7390089352390633 0
outer loop
vertex 8.1291 -7.41065 0
vertex 6.62898 -8.77819 -7
vertex 8.1291 -7.41065 -7
endloop
endfacet
facet normal 0.7980176291080611 -0.6026341042728571 0
outer loop
vertex 8.1291 -7.41065 -7
vertex 9.35239 -5.79075 0
vertex 8.1291 -7.41065 0
endloop
endfacet
facet normal 0.7980176291080616 -0.6026341042728565 0
outer loop
vertex 9.35239 -5.79075 0
vertex 8.1291 -7.41065 -7
vertex 9.35239 -5.79075 -7
endloop
endfacet
facet normal 0.8951628023480249 -0.44573933783370623 0
outer loop
vertex 9.35239 -5.79075 -7
vertex 10.24408 -4 0
vertex 9.35239 -5.79075 0
endloop
endfacet
facet normal 0.8952414117366337 -0.44558143158202973 -0.00005040940374459742
outer loop
vertex 9.35239 -5.79075 -7
vertex 10.25719 -3.97366 0
vertex 10.24408 -4 0
endloop
endfacet
facet normal 0.8951628023477797 -0.44573933783358205 7.41402822535208e-7
outer loop
vertex 10.24408 -4 -7
vertex 10.25719 -3.97366 0
vertex 9.35239 -5.79075 -7
endloop
endfacet
facet normal 0.8952414128740875 -0.4455814321481624 0
outer loop
vertex 10.25719 -3.97366 0
vertex 10.24408 -4 -7
vertex 10.25719 -3.97366 -7
endloop
endfacet
facet normal 0 1 0
outer loop
vertex 0 -4 -7
vertex 10.24408 -4 0
vertex 10.24408 -4 -7
endloop
endfacet
facet normal 0 1 0
outer loop
vertex 0 -4 -7
vertex 0 -4 0
vertex 10.24408 -4 0
endloop
endfacet
facet normal 0 1 0
outer loop
vertex -10.24408 -4 -7
vertex 0 -4 0
vertex 0 -4 -7
endloop
endfacet
facet normal 0 1 0
outer loop
vertex 0 -4 0
vertex -10.24408 -4 -7
vertex -10.24408 -4 0
endloop
endfacet
facet normal -0.8952414128740875 -0.4455814321481624 0
outer loop
vertex -10.25719 -3.97366 0
vertex -10.25719 -3.97366 -7
vertex -10.24408 -4 -7
endloop
endfacet
facet normal 0 0 -1
outer loop
vertex -10.25719 -3.97366 0
vertex -9.35239 -5.79075 0
vertex -10.24408 -4 0
endloop
endfacet
facet normal -0.8951639419630707 -0.4457370491765323 7.30656596362031e-7
outer loop
vertex -10.24408 -4 -7
vertex -9.35239 -5.79075 0
vertex -10.25719 -3.97366 0
endloop
endfacet
facet normal -0.8951628023480249 -0.44573933783370623 0
outer loop
vertex -9.35239 -5.79075 0
vertex -10.24408 -4 -7
vertex -9.35239 -5.79075 -7
endloop
endfacet
facet normal -0.7980176291080611 -0.6026341042728571 0
outer loop
vertex -9.35239 -5.79075 0
vertex -8.1291 -7.41065 -7
vertex -8.1291 -7.41065 0
endloop
endfacet
facet normal -0.7980176291080616 -0.6026341042728565 0
outer loop
vertex -8.1291 -7.41065 -7
vertex -9.35239 -5.79075 0
vertex -9.35239 -5.79075 -7
endloop
endfacet
facet normal -0.6736956238813088 -0.7390089352390633 0
outer loop
vertex -8.1291 -7.41065 -7
vertex -6.62898 -8.77819 0
vertex -8.1291 -7.41065 0
endloop
endfacet
facet normal -0.6736956238813093 -0.7390089352390629 0
outer loop
vertex -6.62898 -8.77819 0
vertex -8.1291 -7.41065 -7
vertex -6.62898 -8.77819 -7
endloop
endfacet
facet normal -0.5264331349287968 -0.8502165338600747 0
outer loop
vertex -6.62898 -8.77819 -7
vertex -4.90312 -9.8468 0
vertex -6.62898 -8.77819 0
endloop
endfacet
facet normal -0.5264331349287973 -0.8502165338600743 0
outer loop
vertex -4.90312 -9.8468 0
vertex -6.62898 -8.77819 -7
vertex -4.90312 -9.8468 -7
endloop
endfacet
facet normal -0.3612420504626313 -0.9324720805351514 0
outer loop
vertex -4.90312 -9.8468 -7
vertex -3.4641 -10.40428 -7
vertex -4.90312 -9.8468 0
endloop
endfacet
facet normal 0 0 -1
outer loop
vertex -3.4641 -10.40428 -7
vertex -4.90312 -9.8468 -7
vertex -4 -10.19667 -7
endloop
endfacet
facet normal -0.3612389896178825 -0.9324732663081167 7.236659323941218e-7
outer loop
vertex -3.4641 -10.40428 -7
vertex -3.01029 -10.58008 0
vertex -4.90312 -9.8468 0
endloop
endfacet
facet normal -0.36122928367998997 -0.9324770263186334 0
outer loop
vertex -3.01029 -10.58008 0
vertex -3.4641 -10.40428 -7
vertex -3.01029 -10.58008 -7
endloop
endfacet
facet normal -0.18375252174034615 -0.9829725381484794 0
outer loop
vertex -3.01029 -10.58008 -7
vertex -1.01495 -10.95308 0
vertex -3.01029 -10.58008 0
endloop
endfacet
facet normal -0.18375334267568183 -0.9829723846860882 2.4218379703081413e-7
outer loop
vertex -2 -10.76894 -7
vertex -1.01495 -10.95308 0
vertex -3.01029 -10.58008 -7
endloop
endfacet
facet normal -0.18375167976972606 -0.9829726955423553 0
outer loop
vertex -1.01495 -10.95308 0
vertex -2 -10.76894 -7
vertex -1.01495 -10.95308 -7
endloop
endfacet
facet normal 0 -1 0
outer loop
vertex 1.01495 -10.95308 0
vertex 0 -10.95308 -7
vertex 1.01495 -10.95308 -7
endloop
endfacet
facet normal 0 -1 0
outer loop
vertex 1.01495 -10.95308 0
vertex -1.01495 -10.95308 -7
vertex 0 -10.95308 -7
endloop
endfacet
facet normal 0 -1 0
outer loop
vertex -1.01495 -10.95308 -7
vertex 1.01495 -10.95308 0
vertex -1.01495 -10.95308 0
endloop
endfacet
facet normal 0.9618272337041374 -0.27365739987262644 0
outer loop
vertex 10.40218 -3.4641 0
vertex 10.8127 -2.02124 -7
vertex 10.8127 -2.02124 0
endloop
endfacet
facet normal 0.9618218274018374 -0.27367640072806226 -0.000004233567070252093
outer loop
vertex 10.25719 -3.97366 0
vertex 10.8127 -2.02124 -7
vertex 10.40218 -3.4641 0
endloop
endfacet
facet normal 0.9618272337030609 -0.27365739987232557 0.0000014951336664911614
outer loop
vertex 10.25719 -3.97366 0
vertex 10.40218 -3.4641 -7
vertex 10.8127 -2.02124 -7
endloop
endfacet
facet normal 0.9618218274104569 -0.2736764007305148 0
outer loop
vertex 10.40218 -3.4641 -7
vertex 10.25719 -3.97366 0
vertex 10.25719 -3.97366 -7
endloop
endfacet
facet normal 0 1 0
outer loop
vertex 2 -3.4641 -7
vertex 10.40218 -3.4641 0
vertex 10.40218 -3.4641 -7
endloop
endfacet
facet normal 0 1 0
outer loop
vertex 10.40218 -3.4641 0
vertex 2 -3.4641 -7
vertex 2 -3.4641 0
endloop
endfacet
facet normal 0 1 0
outer loop
vertex -10.40218 -3.4641 -7
vertex -2 -3.4641 0
vertex -2 -3.4641 -7
endloop
endfacet
facet normal 0 1 0
outer loop
vertex -2 -3.4641 0
vertex -10.40218 -3.4641 -7
vertex -10.40218 -3.4641 0
endloop
endfacet
facet normal -0.2588197729003839 0.9659256312759246 0
outer loop
vertex 2 -3.4641 -7
vertex 0 -4 0
vertex 2 -3.4641 0
endloop
endfacet
facet normal -0.2588197729003839 0.9659256312759246 0
outer loop
vertex 0 -4 0
vertex 2 -3.4641 -7
vertex 0 -4 -7
endloop
endfacet
facet normal 0 -1 0
outer loop
vertex 10.24408 -4 0
vertex 0 -4 -7
vertex 10.24408 -4 -7
endloop
endfacet
facet normal 0 -1 0
outer loop
vertex 0 -4 0
vertex 0 -4 -7
vertex 10.24408 -4 0
endloop
endfacet
facet normal 0 -1 0
outer loop
vertex -10.24408 -4 0
vertex 0 -4 -7
vertex 0 -4 0
endloop
endfacet
facet normal 0 -1 0
outer loop
vertex 0 -4 -7
vertex -10.24408 -4 0
vertex -10.24408 -4 -7
endloop
endfacet
facet normal 0.2588197729003839 0.9659256312759246 0
outer loop
vertex 0 -4 -7
vertex -2 -3.4641 0
vertex 0 -4 0
endloop
endfacet
facet normal 0.2588197729003839 0.9659256312759246 0
outer loop
vertex -2 -3.4641 0
vertex 0 -4 -7
vertex -2 -3.4641 -7
endloop
endfacet
facet normal -0.9618272337041374 -0.27365739987262644 0
outer loop
vertex -10.8127 -2.02124 -7
vertex -10.40218 -3.4641 0
vertex -10.8127 -2.02124 0
endloop
endfacet
facet normal -0.9618218274018374 -0.27367640072806226 -0.000004233567070311968
outer loop
vertex -10.8127 -2.02124 -7
vertex -10.25719 -3.97366 0
vertex -10.40218 -3.4641 0
endloop
endfacet
facet normal -0.9618272337030609 -0.27365739987232557 0.0000014951336665334523
outer loop
vertex -10.40218 -3.4641 -7
vertex -10.25719 -3.97366 0
vertex -10.8127 -2.02124 -7
endloop
endfacet
facet normal -0.9618218274104569 -0.2736764007305148 0
outer loop
vertex -10.25719 -3.97366 0
vertex -10.40218 -3.4641 -7
vertex -10.25719 -3.97366 -7
endloop
endfacet
facet normal 0 0 -1
outer loop
vertex 10.8127 -2.02124 0
vertex 11 0 0
vertex 10.81467 -2 0
endloop
endfacet
facet normal 0.9957339711858465 -0.09227057291717486 0
outer loop
vertex 10.8127 -2.02124 -7
vertex 11 0 0
vertex 10.8127 -2.02124 0
endloop
endfacet
facet normal 0.995726315643466 -0.09235314697823199 0.000024047982608798925
outer loop
vertex 10.81467 -2 -7
vertex 11 0 0
vertex 10.8127 -2.02124 -7
endloop
endfacet
facet normal 0.9957340524485327 -0.092269695970144 0
outer loop
vertex 11 0 0
vertex 10.81467 -2 -7
vertex 11 0 -7
endloop
endfacet
facet normal 0 1 0
outer loop
vertex 3.4641 -2 -7
vertex 10.81467 -2 0
vertex 10.81467 -2 -7
endloop
endfacet
facet normal 0 1 0
outer loop
vertex 10.81467 -2 0
vertex 3.4641 -2 -7
vertex 3.4641 -2 0
endloop
endfacet
facet normal 0 1 0
outer loop
vertex -10.81467 -2 -7
vertex -3.4641 -2 0
vertex -3.4641 -2 -7
endloop
endfacet
facet normal 0 1 0
outer loop
vertex -3.4641 -2 0
vertex -10.81467 -2 -7
vertex -10.81467 -2 0
endloop
endfacet
facet normal -0.7071067811865475 0.7071067811865474 0
outer loop
vertex 3.4641 -2 -7
vertex 2 -3.4641 0
vertex 3.4641 -2 0
endloop
endfacet
facet normal -0.7071067811865475 0.7071067811865474 0
outer loop
vertex 2 -3.4641 0
vertex 3.4641 -2 -7
vertex 2 -3.4641 -7
endloop
endfacet
facet normal 0 -1 0
outer loop
vertex 10.40218 -3.4641 0
vertex 2 -3.4641 -7
vertex 10.40218 -3.4641 -7
endloop
endfacet
facet normal 0 -1 0
outer loop
vertex 2 -3.4641 -7
vertex 10.40218 -3.4641 0
vertex 2 -3.4641 0
endloop
endfacet
facet normal 0 -1 0
outer loop
vertex -10.40218 -3.4641 0
vertex -2 -3.4641 -7
vertex -2 -3.4641 0
endloop
endfacet
facet normal 0 -1 0
outer loop
vertex -2 -3.4641 -7
vertex -10.40218 -3.4641 0
vertex -10.40218 -3.4641 -7
endloop
endfacet
facet normal 0.7071067811865475 0.7071067811865474 0
outer loop
vertex -2 -3.4641 -7
vertex -3.4641 -2 0
vertex -2 -3.4641 0
endloop
endfacet
facet normal 0.7071067811865475 0.7071067811865474 0
outer loop
vertex -3.4641 -2 0
vertex -2 -3.4641 -7
vertex -3.4641 -2 -7
endloop
endfacet
facet normal -0.9957339711858465 -0.09227057291717486 0
outer loop
vertex -11 0 0
vertex -10.8127 -2.02124 -7
vertex -10.8127 -2.02124 0
endloop
endfacet
facet normal -0.9957339711858465 -0.09227057291717486 0
outer loop
vertex -10.8127 -2.02124 -7
vertex -11 0 0
vertex -11 0 -7
endloop
endfacet
facet normal 0 0.9999999999999999 0
outer loop
vertex 11 0 0
vertex 4 0 -7
vertex 4 0 0
endloop
endfacet
facet normal 0 0.9999999999999999 0
outer loop
vertex 4 0 -7
vertex 11 0 0
vertex 11 0 -7
endloop
endfacet
facet normal 0 0.9999999999999999 0
outer loop
vertex -4 0 -7
vertex -11 0 0
vertex -4 0 0
endloop
endfacet
facet normal 0 0.9999999999999999 0
outer loop
vertex -11 0 0
vertex -4 0 -7
vertex -11 0 -7
endloop
endfacet
facet normal -0.9659256312759246 0.25881977290038405 0
outer loop
vertex 4 0 -7
vertex 3.4641 -2 0
vertex 4 0 0
endloop
endfacet
facet normal -0.9659256312759246 0.25881977290038405 0
outer loop
vertex 3.4641 -2 0
vertex 4 0 -7
vertex 3.4641 -2 -7
endloop
endfacet
facet normal 0 -1 0
outer loop
vertex 10.81467 -2 0
vertex 3.4641 -2 -7
vertex 10.81467 -2 -7
endloop
endfacet
facet normal 0 -1 0
outer loop
vertex 3.4641 -2 -7
vertex 10.81467 -2 0
vertex 3.4641 -2 0
endloop
endfacet
facet normal 0 -1 0
outer loop
vertex -10.81467 -2 0
vertex -3.4641 -2 -7
vertex -3.4641 -2 0
endloop
endfacet
facet normal 0 -1 0
outer loop
vertex -3.4641 -2 -7
vertex -10.81467 -2 0
vertex -10.81467 -2 -7
endloop
endfacet
facet normal 0.9659256312759246 0.25881977290038405 0
outer loop
vertex -3.4641 -2 -7
vertex -4 0 0
vertex -3.4641 -2 0
endloop
endfacet
facet normal 0.9659256312759246 0.25881977290038405 0
outer loop
vertex -4 0 0
vertex -3.4641 -2 -7
vertex -4 0 -7
endloop
endfacet
facet normal 0.9957263159314006 0.09235314700474717 0
outer loop
vertex 10.81467 2 0
vertex 10.81467 2 -7
vertex 10.8127 2.02124 0
endloop
endfacet
facet normal 0.9957340524485327 0.092269695970144 0
outer loop
vertex 11 0 0
vertex 10.81467 2 -7
vertex 10.81467 2 0
endloop
endfacet
facet normal 0.9957340524485327 0.092269695970144 0
outer loop
vertex 10.81467 2 -7
vertex 11 0 0
vertex 11 0 -7
endloop
endfacet
facet normal 0.9957263159313656 0.0923531470051246 0
outer loop
vertex 10.8127 2.02124 0
vertex 10.81467 2 -7
vertex 10.8127 2.02124 -7
endloop
endfacet
facet normal 0 1 0
outer loop
vertex 3.4641 2 -7
vertex 10.81467 2 0
vertex 10.81467 2 -7
endloop
endfacet
facet normal 0 1 0
outer loop
vertex 10.81467 2 0
vertex 3.4641 2 -7
vertex 3.4641 2 0
endloop
endfacet
facet normal 0 1 0
outer loop
vertex -10.81467 2 -7
vertex -3.4641 2 0
vertex -3.4641 2 -7
endloop
endfacet
facet normal 0 1 0
outer loop
vertex -3.4641 2 0
vertex -10.81467 2 -7
vertex -10.81467 2 0
endloop
endfacet
facet normal -0.9659256312759246 -0.25881977290038405 0
outer loop
vertex 3.4641 2 0
vertex 4 0 -7
vertex 4 0 0
endloop
endfacet
facet normal -0.9659256312759246 -0.25881977290038405 0
outer loop
vertex 4 0 -7
vertex 3.4641 2 0
vertex 3.4641 2 -7
endloop
endfacet
facet normal 0 -0.9999999999999999 0
outer loop
vertex 4 0 -7
vertex 11 0 0
vertex 4 0 0
endloop
endfacet
facet normal 0 -0.9999999999999999 0
outer loop
vertex 11 0 0
vertex 4 0 -7
vertex 11 0 -7
endloop
endfacet
facet normal 0 -0.9999999999999999 0
outer loop
vertex -11 0 0
vertex -4 0 -7
vertex -4 0 0
endloop
endfacet
facet normal 0 -0.9999999999999999 0
outer loop
vertex -4 0 -7
vertex -11 0 0
vertex -11 0 -7
endloop
endfacet
facet normal 0.9659256312759246 -0.25881977290038405 0
outer loop
vertex -4 0 0
vertex -3.4641 2 -7
vertex -3.4641 2 0
endloop
endfacet
facet normal 0.9659256312759246 -0.25881977290038405 0
outer loop
vertex -3.4641 2 -7
vertex -4 0 0
vertex -4 0 -7
endloop
endfacet
facet normal -0.9957339711858465 0.09227057291717486 0
outer loop
vertex -10.8127 2.02124 -7
vertex -11 0 0
vertex -10.8127 2.02124 0
endloop
endfacet
facet normal -0.9957339711858465 0.09227057291717486 0
outer loop
vertex -11 0 0
vertex -10.8127 2.02124 -7
vertex -11 0 -7
endloop
endfacet
facet normal 0 0 -1
outer loop
vertex 10.8127 2.02124 0
vertex 10.25719 3.97366 0
vertex 10.40218 3.4641 0
endloop
endfacet
facet normal 0.9618258227511027 0.27366235891686586 0.0000011049187149588493
outer loop
vertex 10.8127 2.02124 0
vertex 10.40218 3.4641 -7
vertex 10.25719 3.97366 0
endloop
endfacet
facet normal 0.9618272337041374 0.27365739987262644 0
outer loop
vertex 10.40218 3.4641 -7
vertex 10.8127 2.02124 0
vertex 10.8127 2.02124 -7
endloop
endfacet
facet normal 0.9618218274104569 0.2736764007305148 0
outer loop
vertex 10.25719 3.97366 0
vertex 10.40218 3.4641 -7
vertex 10.25719 3.97366 -7
endloop
endfacet
facet normal 0 1 0
outer loop
vertex 2 3.4641 -7
vertex 10.40218 3.4641 0
vertex 10.40218 3.4641 -7
endloop
endfacet
facet normal 0 1 0
outer loop
vertex 10.40218 3.4641 0
vertex 2 3.4641 -7
vertex 2 3.4641 0
endloop
endfacet
facet normal 0 1 0
outer loop
vertex -10.40218 3.4641 -7
vertex -2 3.4641 0
vertex -2 3.4641 -7
endloop
endfacet
facet normal 0 1 0
outer loop
vertex -2 3.4641 0
vertex -10.40218 3.4641 -7
vertex -10.40218 3.4641 0
endloop
endfacet
facet normal -0.7071067811865475 -0.7071067811865474 0
outer loop
vertex 2 3.4641 -7
vertex 3.4641 2 0
vertex 2 3.4641 0
endloop
endfacet
facet normal -0.7071067811865475 -0.7071067811865474 0
outer loop
vertex 3.4641 2 0
vertex 2 3.4641 -7
vertex 3.4641 2 -7
endloop
endfacet
facet normal 0 -1 0
outer loop
vertex 10.81467 2 0
vertex 3.4641 2 -7
vertex 10.81467 2 -7
endloop
endfacet
facet normal 0 -1 0
outer loop
vertex 3.4641 2 -7
vertex 10.81467 2 0
vertex 3.4641 2 0
endloop
endfacet
facet normal 0 -1 0
outer loop
vertex -10.81467 2 0
vertex -3.4641 2 -7
vertex -3.4641 2 0
endloop
endfacet
facet normal 0 -1 0
outer loop
vertex -3.4641 2 -7
vertex -10.81467 2 0
vertex -10.81467 2 -7
endloop
endfacet
facet normal 0.7071067811865475 -0.7071067811865474 0
outer loop
vertex -3.4641 2 -7
vertex -2 3.4641 0
vertex -3.4641 2 0
endloop
endfacet
facet normal 0.7071067811865475 -0.7071067811865474 0
outer loop
vertex -2 3.4641 0
vertex -3.4641 2 -7
vertex -2 3.4641 -7
endloop
endfacet
facet normal -0.9618258227516899 0.2736623589170329 0
outer loop
vertex -10.25719 3.97366 -7
vertex -10.8127 2.02124 0
vertex -10.25719 3.97366 0
endloop
endfacet
facet normal -0.9618258227516908 0.27366235891702917 0
outer loop
vertex -10.8127 2.02124 0
vertex -10.25719 3.97366 -7
vertex -10.8127 2.02124 -7
endloop
endfacet
facet normal 0.8951639419633095 0.4457370491766513 0
outer loop
vertex 10.25719 3.97366 -7
vertex 9.35239 5.79075 0
vertex 10.25719 3.97366 0
endloop
endfacet
facet normal 0.8951639419633088 0.4457370491766529 0
outer loop
vertex 9.35239 5.79075 0
vertex 10.25719 3.97366 -7
vertex 9.35239 5.79075 -7
endloop
endfacet
facet normal 0 1 0
outer loop
vertex 0 4 -7
vertex 10.24408 4 0
vertex 10.24408 4 -7
endloop
endfacet
facet normal 0 1 0
outer loop
vertex 0 4 -7
vertex 0 4 0
vertex 10.24408 4 0
endloop
endfacet
facet normal 0 1 0
outer loop
vertex -10.24408 4 -7
vertex 0 4 0
vertex 0 4 -7
endloop
endfacet
facet normal 0 1 0
outer loop
vertex 0 4 0
vertex -10.24408 4 -7
vertex -10.24408 4 0
endloop
endfacet
facet normal -0.2588197729003839 -0.9659256312759246 0
outer loop
vertex 0 4 -7
vertex 2 3.4641 0
vertex 0 4 0
endloop
endfacet
facet normal -0.2588197729003839 -0.9659256312759246 0
outer loop
vertex 2 3.4641 0
vertex 0 4 -7
vertex 2 3.4641 -7
endloop
endfacet
facet normal 0 -1 0
outer loop
vertex 10.40218 3.4641 0
vertex 2 3.4641 -7
vertex 10.40218 3.4641 -7
endloop
endfacet
facet normal 0 -1 0
outer loop
vertex 2 3.4641 -7
vertex 10.40218 3.4641 0
vertex 2 3.4641 0
endloop
endfacet
facet normal 0 -1 0
outer loop
vertex -10.40218 3.4641 0
vertex -2 3.4641 -7
vertex -2 3.4641 0
endloop
endfacet
facet normal 0 -1 0
outer loop
vertex -2 3.4641 -7
vertex -10.40218 3.4641 0
vertex -10.40218 3.4641 -7
endloop
endfacet
facet normal 0.2588197729003839 -0.9659256312759246 0
outer loop
vertex -2 3.4641 -7
vertex 0 4 0
vertex -2 3.4641 0
endloop
endfacet
facet normal 0.2588197729003839 -0.9659256312759246 0
outer loop
vertex 0 4 0
vertex -2 3.4641 -7
vertex 0 4 -7
endloop
endfacet
facet normal -0.8951628023480249 0.44573933783370623 0
outer loop
vertex -9.35239 5.79075 -7
vertex -10.24408 4 0
vertex -9.35239 5.79075 0
endloop
endfacet
facet normal -0.8952414117366337 0.44558143158202973 -0.00005040940374459742
outer loop
vertex -9.35239 5.79075 -7
vertex -10.25719 3.97366 0
vertex -10.24408 4 0
endloop
endfacet
facet normal -0.8951628023477797 0.44573933783358205 7.41402822535208e-7
outer loop
vertex -10.24408 4 -7
vertex -10.25719 3.97366 0
vertex -9.35239 5.79075 -7
endloop
endfacet
facet normal -0.8952414128740875 0.4455814321481624 0
outer loop
vertex -10.25719 3.97366 0
vertex -10.24408 4 -7
vertex -10.25719 3.97366 -7
endloop
endfacet
facet normal 0.7980176291080616 0.6026341042728565 0
outer loop
vertex 9.35239 5.79075 -7
vertex 8.1291 7.41065 0
vertex 9.35239 5.79075 0
endloop
endfacet
facet normal 0.7980176291080611 0.6026341042728571 0
outer loop
vertex 8.1291 7.41065 0
vertex 9.35239 5.79075 -7
vertex 8.1291 7.41065 -7
endloop
endfacet
facet normal 0.6736956238813088 0.7390089352390633 0
outer loop
vertex 8.1291 7.41065 -7
vertex 6.62898 8.77819 0
vertex 8.1291 7.41065 0
endloop
endfacet
facet normal 0.6736956238813093 0.7390089352390629 0
outer loop
vertex 6.62898 8.77819 0
vertex 8.1291 7.41065 -7
vertex 6.62898 8.77819 -7
endloop
endfacet
facet normal 0.5264331349287968 0.8502165338600747 0
outer loop
vertex 6.62898 8.77819 -7
vertex 4.90312 9.8468 0
vertex 6.62898 8.77819 0
endloop
endfacet
facet normal 0.5264331349287973 0.8502165338600743 0
outer loop
vertex 4.90312 9.8468 0
vertex 6.62898 8.77819 -7
vertex 4.90312 9.8468 -7
endloop
endfacet
facet normal 0.361238989617977 0.9324732663083606 0
outer loop
vertex 4.90312 9.8468 -7
vertex 3.01029 10.58008 0
vertex 4.90312 9.8468 0
endloop
endfacet
facet normal 0.36124205046246766 0.932472080534729 9.51880338665436e-7
outer loop
vertex 3.4641 10.40428 -7
vertex 3.01029 10.58008 0
vertex 4.90312 9.8468 -7
endloop
endfacet
facet normal 0.36122928367998997 0.9324770263186334 0
outer loop
vertex 3.01029 10.58008 0
vertex 3.4641 10.40428 -7
vertex 3.01029 10.58008 -7
endloop
endfacet
facet normal 0.18375252174034615 0.9829725381484794 0
outer loop
vertex 3.01029 10.58008 -7
vertex 1.01495 10.95308 0
vertex 3.01029 10.58008 0
endloop
endfacet
facet normal 0.18375252174034606 0.9829725381484793 0
outer loop
vertex 1.01495 10.95308 0
vertex 3.01029 10.58008 -7
vertex 1.01495 10.95308 -7
endloop
endfacet
facet normal 0 1 0
outer loop
vertex 0 10.95308 -7
vertex 1.01495 10.95308 0
vertex 1.01495 10.95308 -7
endloop
endfacet
facet normal 0 1 0
outer loop
vertex -1.01495 10.95308 -7
vertex 1.01495 10.95308 0
vertex 0 10.95308 -7
endloop
endfacet
facet normal 0 1 0
outer loop
vertex 1.01495 10.95308 0
vertex -1.01495 10.95308 -7
vertex -1.01495 10.95308 0
endloop
endfacet
facet normal -0.18375252174034606 0.9829725381484793 0
outer loop
vertex -1.01495 10.95308 -7
vertex -3.01029 10.58008 0
vertex -1.01495 10.95308 0
endloop
endfacet
facet normal -0.18375167976972046 0.982972695542325 2.48389366711151e-7
outer loop
vertex -2 10.76894 -7
vertex -3.01029 10.58008 0
vertex -1.01495 10.95308 -7
endloop
endfacet
facet normal -0.1837533426756873 0.9829723846861168 0
outer loop
vertex -3.01029 10.58008 0
vertex -2 10.76894 -7
vertex -3.01029 10.58008 -7
endloop
endfacet
facet normal -0.36123898961797674 0.9324732663083609 0
outer loop
vertex -3.01029 10.58008 -7
vertex -4.90312 9.8468 0
vertex -3.01029 10.58008 0
endloop
endfacet
facet normal -0.36123699937388143 0.9324740373238127 6.189377060373147e-7
outer loop
vertex -4 10.19667 -7
vertex -4.90312 9.8468 0
vertex -3.01029 10.58008 -7
endloop
endfacet
facet normal -0.3612411706784065 0.9324724213653155 0
outer loop
vertex -4.90312 9.8468 0
vertex -4 10.19667 -7
vertex -4.90312 9.8468 -7
endloop
endfacet
facet normal -0.5264331349287973 0.8502165338600743 0
outer loop
vertex -4.90312 9.8468 -7
vertex -6.62898 8.77819 0
vertex -4.90312 9.8468 0
endloop
endfacet
facet normal -0.5264331349287968 0.8502165338600747 0
outer loop
vertex -6.62898 8.77819 0
vertex -4.90312 9.8468 -7
vertex -6.62898 8.77819 -7
endloop
endfacet
facet normal -0.6736956238813093 0.7390089352390629 0
outer loop
vertex -6.62898 8.77819 -7
vertex -8.1291 7.41065 0
vertex -6.62898 8.77819 0
endloop
endfacet
facet normal -0.6736956238813088 0.7390089352390633 0
outer loop
vertex -8.1291 7.41065 0
vertex -6.62898 8.77819 -7
vertex -8.1291 7.41065 -7
endloop
endfacet
facet normal -0.7980176291080611 0.6026341042728571 0
outer loop
vertex -8.1291 7.41065 -7
vertex -9.35239 5.79075 0
vertex -8.1291 7.41065 0
endloop
endfacet
facet normal -0.7980176291080616 0.6026341042728565 0
outer loop
vertex -9.35239 5.79075 0
vertex -8.1291 7.41065 -7
vertex -9.35239 5.79075 -7
endloop
endfacet
facet normal 0 -1 0
outer loop
vertex 10.24408 4 0
vertex 0 4 -7
vertex 10.24408 4 -7
endloop
endfacet
facet normal 0 -1 0
outer loop
vertex 0 4 0
vertex 0 4 -7
vertex 10.24408 4 0
endloop
endfacet
facet normal 0 -1 0
outer loop
vertex -10.24408 4 0
vertex 0 4 -7
vertex 0 4 0
endloop
endfacet
facet normal 0 -1 0
outer loop
vertex 0 4 -7
vertex -10.24408 4 0
vertex -10.24408 4 -7
endloop
endfacet
facet normal 7.888164121902297e-16 0 -1
outer loop
vertex -3.4641 2 -7
vertex -4 10.19667 -7
vertex -3.4641 10.40428 -7
endloop
endfacet
facet normal 0 0 -0.9999999999999999
outer loop
vertex -4 10.19667 -7
vertex -3.4641 2 -7
vertex -4 0 -7
endloop
endfacet
facet normal 0 0 -1
outer loop
vertex 2 10.76894 -7
vertex 0 10.95308 -7
vertex 1.01495 10.95308 -7
endloop
endfacet
facet normal 0 0 -1
outer loop
vertex 2 10.76894 -7
vertex 0 4 -7
vertex 0 10.95308 -7
endloop
endfacet
facet normal 0 0 -0.9999999999999999
outer loop
vertex 0 4 -7
vertex 2 10.76894 -7
vertex 2 3.4641 -7
endloop
endfacet
facet normal 0 0 -1
outer loop
vertex 3.4641 10.40428 -7
vertex 2 10.76894 -7
vertex 3.01029 10.58008 -7
endloop
endfacet
facet normal 0 0 -1
outer loop
vertex 3.4641 10.40428 -7
vertex 2 3.4641 -7
vertex 2 10.76894 -7
endloop
endfacet
facet normal 0 0 -1
outer loop
vertex 2 3.4641 -7
vertex 3.4641 10.40428 -7
vertex 3.4641 2 -7
endloop
endfacet
facet normal 0 0 -1
outer loop
vertex -2 10.76894 -7
vertex -3.4641 10.40428 -7
vertex -3.01029 10.58008 -7
endloop
endfacet
facet normal 0 0 -1
outer loop
vertex -2 3.4641 -7
vertex -3.4641 10.40428 -7
vertex -2 10.76894 -7
endloop
endfacet
facet normal -2.887280344872234e-16 0 -1
outer loop
vertex -3.4641 10.40428 -7
vertex -2 3.4641 -7
vertex -3.4641 2 -7
endloop
endfacet
facet normal 0 0 -1
outer loop
vertex 0 10.95308 -7
vertex -2 10.76894 -7
vertex -1.01495 10.95308 -7
endloop
endfacet
facet normal 0 0 -1
outer loop
vertex 0 4 -7
vertex -2 10.76894 -7
vertex 0 10.95308 -7
endloop
endfacet
facet normal 2.43175324771008e-16 0 -0.9999999999999999
outer loop
vertex -2 10.76894 -7
vertex 0 4 -7
vertex -2 3.4641 -7
endloop
endfacet
facet normal 0 0 -1
outer loop
vertex 4 10.19667 -7
vertex 3.4641 2 -7
vertex 3.4641 10.40428 -7
endloop
endfacet
facet normal 0 0 -0.9999999999999999
outer loop
vertex 3.4641 2 -7
vertex 4 10.19667 -7
vertex 4 0 -7
endloop
endfacet
facet normal 0 0 -1
outer loop
vertex -2 -3.4641 -7
vertex -3.4641 -10.40428 -7
vertex -3.4641 -2 -7
endloop
endfacet
facet normal 1.0427958863462582e-15 0 -0.9999999999999999
outer loop
vertex -2 -3.4641 -7
vertex -3.01029 -10.58008 -7
vertex -3.4641 -10.40428 -7
endloop
endfacet
facet normal 0 0 -1
outer loop
vertex -3.01029 -10.58008 -7
vertex -2 -3.4641 -7
vertex -2 -10.76894 -7
endloop
endfacet
facet normal 0 0 -0.9999999999999999
outer loop
vertex 0 -4 -7
vertex -2 -10.76894 -7
vertex -2 -3.4641 -7
endloop
endfacet
facet normal 0 0 -1
outer loop
vertex 0 -10.95308 -7
vertex -2 -10.76894 -7
vertex 0 -4 -7
endloop
endfacet
facet normal 0 0 -1
outer loop
vertex -2 -10.76894 -7
vertex 0 -10.95308 -7
vertex -1.01495 -10.95308 -7
endloop
endfacet
facet normal -2.43175324771008e-16 0 -0.9999999999999999
outer loop
vertex 2 -10.76894 -7
vertex 0 -4 -7
vertex 2 -3.4641 -7
endloop
endfacet
facet normal 0 0 -1
outer loop
vertex 1.01495 -10.95308 -7
vertex 0 -4 -7
vertex 2 -10.76894 -7
endloop
endfacet
facet normal 0 0 -1
outer loop
vertex 0 -4 -7
vertex 1.01495 -10.95308 -7
vertex 0 -10.95308 -7
endloop
endfacet
facet normal 0 0 -1
outer loop
vertex 6.62898 8.77819 -7
vertex 4 10.19667 -7
vertex 4.90312 9.8468 -7
endloop
endfacet
facet normal -2.4211848318016435e-15 0 -1
outer loop
vertex 8.1291 7.41065 -7
vertex 4 10.19667 -7
vertex 6.62898 8.77819 -7
endloop
endfacet
facet normal 2.1658802931965014e-15 0 -1
outer loop
vertex 9.35239 5.79075 -7
vertex 4 10.19667 -7
vertex 8.1291 7.41065 -7
endloop
endfacet
facet normal -2.4760615132294498e-15 0 -1
outer loop
vertex 10.25719 3.97366 -7
vertex 4 10.19667 -7
vertex 9.35239 5.79075 -7
endloop
endfacet
facet normal 6.216092505569531e-15 0 -1
outer loop
vertex 10.40218 3.4641 -7
vertex 4 10.19667 -7
vertex 10.25719 3.97366 -7
endloop
endfacet
facet normal -2.1952029989140388e-15 0 -1
outer loop
vertex 10.8127 2.02124 -7
vertex 4 10.19667 -7
vertex 10.40218 3.4641 -7
endloop
endfacet
facet normal 1.1050762107375816e-13 0 -1
outer loop
vertex 10.81467 2 -7
vertex 4 10.19667 -7
vertex 10.8127 2.02124 -7
endloop
endfacet
facet normal 0 0 -0.9999999999999999
outer loop
vertex 11 0 -7
vertex 4 10.19667 -7
vertex 10.81467 2 -7
endloop
endfacet
facet normal 0 0 -1
outer loop
vertex 11 0 -7
vertex 4 0 -7
vertex 4 10.19667 -7
endloop
endfacet
facet normal 0 0 -1
outer loop
vertex 10.81467 -2 -7
vertex 4 0 -7
vertex 11 0 -7
endloop
endfacet
facet normal 0 0 -1
outer loop
vertex 10.8127 -2.02124 -7
vertex 4 0 -7
vertex 10.81467 -2 -7
endloop
endfacet
facet normal -3.3328984391844716e-16 0 -1
outer loop
vertex 10.40218 -3.4641 -7
vertex 4 0 -7
vertex 10.8127 -2.02124 -7
endloop
endfacet
facet normal 1.8874549380245415e-15 0 -0.9999999999999999
outer loop
vertex 10.25719 -3.97366 -7
vertex 4 0 -7
vertex 10.40218 -3.4641 -7
endloop
endfacet
facet normal 0 0 -1
outer loop
vertex 10.24408 -4 -7
vertex 4 0 -7
vertex 10.25719 -3.97366 -7
endloop
endfacet
facet normal -4.817779046096928e-16 0 -1
outer loop
vertex 9.35239 -5.79075 -7
vertex 4 0 -7
vertex 10.24408 -4 -7
endloop
endfacet
facet normal 0 0 -0.9999999999999999
outer loop
vertex 8.1291 -7.41065 -7
vertex 4 0 -7
vertex 9.35239 -5.79075 -7
endloop
endfacet
facet normal 0 0 -1
outer loop
vertex 6.62898 -8.77819 -7
vertex 4 0 -7
vertex 8.1291 -7.41065 -7
endloop
endfacet
facet normal 0 0 -1
outer loop
vertex 4.90312 -9.8468 -7
vertex 4 0 -7
vertex 6.62898 -8.77819 -7
endloop
endfacet
facet normal 7.715896252702511e-16 0 -1
outer loop
vertex 4 0 -7
vertex 4.90312 -9.8468 -7
vertex 4 -10.19667 -7
endloop
endfacet
facet normal 0 0 -1
outer loop
vertex -4 10.19667 -7
vertex -6.62898 8.77819 -7
vertex -4.90312 9.8468 -7
endloop
endfacet
facet normal 2.4211848318016435e-15 0 -1
outer loop
vertex -4 10.19667 -7
vertex -8.1291 7.41065 -7
vertex -6.62898 8.77819 -7
endloop
endfacet
facet normal -2.165880293196499e-15 0 -1
outer loop
vertex -4 10.19667 -7
vertex -9.35239 5.79075 -7
vertex -8.1291 7.41065 -7
endloop
endfacet
facet normal 0 0 -1
outer loop
vertex -4 10.19667 -7
vertex -10.24408 4 -7
vertex -9.35239 5.79075 -7
endloop
endfacet
facet normal 2.027543347535915e-13 0 -1
outer loop
vertex -4 10.19667 -7
vertex -10.25719 3.97366 -7
vertex -10.24408 4 -7
endloop
endfacet
facet normal -8.111478998511587e-16 0 -1
outer loop
vertex -4 10.19667 -7
vertex -10.8127 2.02124 -7
vertex -10.25719 3.97366 -7
endloop
endfacet
facet normal -8.708454237849199e-16 0 -1
outer loop
vertex -4 10.19667 -7
vertex -11 0 -7
vertex -10.8127 2.02124 -7
endloop
endfacet
facet normal 0 0 -1
outer loop
vertex -4 0 -7
vertex -11 0 -7
vertex -4 10.19667 -7
endloop
endfacet
facet normal 0 0 -1
outer loop
vertex -4 0 -7
vertex -10.8127 -2.02124 -7
vertex -11 0 -7
endloop
endfacet
facet normal 3.332898439184471e-16 0 -1
outer loop
vertex -4 0 -7
vertex -10.40218 -3.4641 -7
vertex -10.8127 -2.02124 -7
endloop
endfacet
facet normal -1.6515230707714735e-15 0 -1
outer loop
vertex -4 0 -7
vertex -10.25719 -3.97366 -7
vertex -10.40218 -3.4641 -7
endloop
endfacet
facet normal 1.2284111925314735e-14 0 -1
outer loop
vertex -4 0 -7
vertex -10.24408 -4 -7
vertex -10.25719 -3.97366 -7
endloop
endfacet
facet normal 4.817779046096929e-16 0 -1
outer loop
vertex -4 0 -7
vertex -9.35239 -5.79075 -7
vertex -10.24408 -4 -7
endloop
endfacet
facet normal 0 0 -0.9999999999999999
outer loop
vertex -4 0 -7
vertex -8.1291 -7.41065 -7
vertex -9.35239 -5.79075 -7
endloop
endfacet
facet normal -2.119305670780657e-16 0 -1
outer loop
vertex -4 0 -7
vertex -6.62898 -8.77819 -7
vertex -8.1291 -7.41065 -7
endloop
endfacet
facet normal 0 0 -1
outer loop
vertex -4 0 -7
vertex -4.90312 -9.8468 -7
vertex -6.62898 -8.77819 -7
endloop
endfacet
facet normal 0 0 -1
outer loop
vertex -4.90312 -9.8468 -7
vertex -4 0 -7
vertex -4 -10.19667 -7
endloop
endfacet
facet normal 0 0 -0.9999999999999999
outer loop
vertex -3.4641 -2 -7
vertex -4 -10.19667 -7
vertex -4 0 -7
endloop
endfacet
facet normal 0 0 -1
outer loop
vertex -4 -10.19667 -7
vertex -3.4641 -2 -7
vertex -3.4641 -10.40428 -7
endloop
endfacet
facet normal 0 0 -0.9999999999999999
outer loop
vertex 4 -10.19667 -7
vertex 3.4641 -2 -7
vertex 4 0 -7
endloop
endfacet
facet normal -7.888164121902297e-16 0 -1
outer loop
vertex 3.4641 -2 -7
vertex 4 -10.19667 -7
vertex 3.4641 -10.40428 -7
endloop
endfacet
facet normal 2.887280344872234e-16 0 -1
outer loop
vertex 3.4641 -10.40428 -7
vertex 2 -3.4641 -7
vertex 3.4641 -2 -7
endloop
endfacet
facet normal 0 0 -0.9999999999999999
outer loop
vertex 3.01029 -10.58008 -7
vertex 2 -3.4641 -7
vertex 3.4641 -10.40428 -7
endloop
endfacet
facet normal 4.813970736541153e-16 0 -1
outer loop
vertex 2 -3.4641 -7
vertex 3.01029 -10.58008 -7
vertex 2 -10.76894 -7
endloop
endfacet
facet normal 0 0 1
outer loop
vertex -10.8127 2.02124 0
vertex -2 3.4641 0
vertex -10.40218 3.4641 0
endloop
endfacet
facet normal 0 0 1
outer loop
vertex -10.81467 2 0
vertex -2 3.4641 0
vertex -10.8127 2.02124 0
endloop
endfacet
facet normal 0 0 1
outer loop
vertex -2 3.4641 0
vertex -10.81467 2 0
vertex -3.4641 2 0
endloop
endfacet
facet normal 0 0 1
outer loop
vertex -3.01029 10.58008 0
vertex 1.01495 10.95308 0
vertex -1.01495 10.95308 0
endloop
endfacet
facet normal 0 0 0.9999999999999999
outer loop
vertex -3.01029 10.58008 0
vertex 3.01029 10.58008 0
vertex 1.01495 10.95308 0
endloop
endfacet
facet normal 0 0 1
outer loop
vertex -4.90312 9.8468 0
vertex 3.01029 10.58008 0
vertex -3.01029 10.58008 0
endloop
endfacet
facet normal 0 0 1
outer loop
vertex -4.90312 9.8468 0
vertex 4.90312 9.8468 0
vertex 3.01029 10.58008 0
endloop
endfacet
facet normal 0 0 1
outer loop
vertex -6.62898 8.77819 0
vertex 4.90312 9.8468 0
vertex -4.90312 9.8468 0
endloop
endfacet
facet normal 0 0 0.9999999999999999
outer loop
vertex -6.62898 8.77819 0
vertex 6.62898 8.77819 0
vertex 4.90312 9.8468 0
endloop
endfacet
facet normal 0 0 1
outer loop
vertex -8.1291 7.41065 0
vertex 6.62898 8.77819 0
vertex -6.62898 8.77819 0
endloop
endfacet
facet normal 0 0 0.9999999999999999
outer loop
vertex -8.1291 7.41065 0
vertex 8.1291 7.41065 0
vertex 6.62898 8.77819 0
endloop
endfacet
facet normal 0 0 0.9999999999999999
outer loop
vertex -9.35239 5.79075 0
vertex 8.1291 7.41065 0
vertex -8.1291 7.41065 0
endloop
endfacet
facet normal 0 0 1
outer loop
vertex -9.35239 5.79075 0
vertex 9.35239 5.79075 0
vertex 8.1291 7.41065 0
endloop
endfacet
facet normal 0 0 1
outer loop
vertex -10.24408 4 0
vertex 9.35239 5.79075 0
vertex -9.35239 5.79075 0
endloop
endfacet
facet normal 0 0 1
outer loop
vertex 0 4 0
vertex 9.35239 5.79075 0
vertex -10.24408 4 0
endloop
endfacet
facet normal 0 0 1
outer loop
vertex 9.35239 5.79075 0
vertex 0 4 0
vertex 10.24408 4 0
endloop
endfacet
facet normal 0 0 1
outer loop
vertex 0 4 0
vertex 10.25719 3.97366 0
vertex 10.24408 4 0
endloop
endfacet
facet normal 0 0 1
outer loop
vertex 2 3.4641 0
vertex 10.25719 3.97366 0
vertex 0 4 0
endloop
endfacet
facet normal 0 0 1
outer loop
vertex 10.25719 3.97366 0
vertex 2 3.4641 0
vertex 10.40218 3.4641 0
endloop
endfacet
facet normal 0 0 1
outer loop
vertex -10.25719 3.97366 0
vertex 0 4 0
vertex -10.24408 4 0
endloop
endfacet
facet normal 0 0 1
outer loop
vertex -10.40218 3.4641 0
vertex 0 4 0
vertex -10.25719 3.97366 0
endloop
endfacet
facet normal 0 0 1
outer loop
vertex 0 4 0
vertex -10.40218 3.4641 0
vertex -2 3.4641 0
endloop
endfacet
facet normal 0 0 1
outer loop
vertex 2 3.4641 0
vertex 10.8127 2.02124 0
vertex 10.40218 3.4641 0
endloop
endfacet
facet normal 0 0 1
outer loop
vertex 3.4641 2 0
vertex 10.8127 2.02124 0
vertex 2 3.4641 0
endloop
endfacet
facet normal 0 0 1
outer loop
vertex 10.8127 2.02124 0
vertex 3.4641 2 0
vertex 10.81467 2 0
endloop
endfacet
facet normal 0 0 1
outer loop
vertex 3.4641 2 0
vertex 11 0 0
vertex 10.81467 2 0
endloop
endfacet
facet normal 0 0 1
outer loop
vertex 11 0 0
vertex 3.4641 2 0
vertex 4 0 0
endloop
endfacet
facet normal 0 0 1
outer loop
vertex 3.4641 -2 0
vertex 11 0 0
vertex 4 0 0
endloop
endfacet
facet normal 0 0 1
outer loop
vertex 11 0 0
vertex 3.4641 -2 0
vertex 10.81467 -2 0
endloop
endfacet
facet normal 0 0 0.9999999999999999
outer loop
vertex 3.4641 -2 0
vertex 10.8127 -2.02124 0
vertex 10.81467 -2 0
endloop
endfacet
facet normal 0 0 1
outer loop
vertex 2 -3.4641 0
vertex 10.8127 -2.02124 0
vertex 3.4641 -2 0
endloop
endfacet
facet normal 0 0 1
outer loop
vertex 10.8127 -2.02124 0
vertex 2 -3.4641 0
vertex 10.40218 -3.4641 0
endloop
endfacet
facet normal 0 0 1
outer loop
vertex 2 -3.4641 0
vertex 10.25719 -3.97366 0
vertex 10.40218 -3.4641 0
endloop
endfacet
facet normal 0 0 1
outer loop
vertex 0 -4 0
vertex 10.25719 -3.97366 0
vertex 2 -3.4641 0
endloop
endfacet
facet normal 0 0 1
outer loop
vertex 10.25719 -3.97366 0
vertex 0 -4 0
vertex 10.24408 -4 0
endloop
endfacet
facet normal 0 0 1
outer loop
vertex -11 0 0
vertex -3.4641 2 0
vertex -10.81467 2 0
endloop
endfacet
facet normal 0 0 1
outer loop
vertex -3.4641 2 0
vertex -11 0 0
vertex -4 0 0
endloop
endfacet
facet normal 0 0 1
outer loop
vertex -10.81467 -2 0
vertex -4 0 0
vertex -11 0 0
endloop
endfacet
facet normal 0 0 1
outer loop
vertex -4 0 0
vertex -10.81467 -2 0
vertex -3.4641 -2 0
endloop
endfacet
facet normal 0 0 1
outer loop
vertex -10.8127 -2.02124 0
vertex -3.4641 -2 0
vertex -10.81467 -2 0
endloop
endfacet
facet normal 0 0 1
outer loop
vertex -10.40218 -3.4641 0
vertex -3.4641 -2 0
vertex -10.8127 -2.02124 0
endloop
endfacet
facet normal 0 0 1
outer loop
vertex -3.4641 -2 0
vertex -10.40218 -3.4641 0
vertex -2 -3.4641 0
endloop
endfacet
facet normal 0 0 1
outer loop
vertex -10.25719 -3.97366 0
vertex -2 -3.4641 0
vertex -10.40218 -3.4641 0
endloop
endfacet
facet normal 0 0 1
outer loop
vertex -10.24408 -4 0
vertex -2 -3.4641 0
vertex -10.25719 -3.97366 0
endloop
endfacet
facet normal 0 0 0.9999999999999999
outer loop
vertex -2 -3.4641 0
vertex -10.24408 -4 0
vertex 0 -4 0
endloop
endfacet
facet normal 0 0 1
outer loop
vertex -10.24408 -4 0
vertex 9.35239 -5.79075 0
vertex 10.24408 -4 0
endloop
endfacet
facet normal 0 0 1
outer loop
vertex -9.35239 -5.79075 0
vertex 9.35239 -5.79075 0
vertex -10.24408 -4 0
endloop
endfacet
facet normal 0 0 1
outer loop
vertex -8.1291 -7.41065 0
vertex 9.35239 -5.79075 0
vertex -9.35239 -5.79075 0
endloop
endfacet
facet normal 0 0 1
outer loop
vertex -8.1291 -7.41065 0
vertex 8.1291 -7.41065 0
vertex 9.35239 -5.79075 0
endloop
endfacet
facet normal 0 0 1
outer loop
vertex -6.62898 -8.77819 0
vertex 8.1291 -7.41065 0
vertex -8.1291 -7.41065 0
endloop
endfacet
facet normal 0 0 1
outer loop
vertex -6.62898 -8.77819 0
vertex 6.62898 -8.77819 0
vertex 8.1291 -7.41065 0
endloop
endfacet
facet normal 0 0 1
outer loop
vertex -4.90312 -9.8468 0
vertex 6.62898 -8.77819 0
vertex -6.62898 -8.77819 0
endloop
endfacet
facet normal 0 0 1
outer loop
vertex -4.90312 -9.8468 0
vertex 4.90312 -9.8468 0
vertex 6.62898 -8.77819 0
endloop
endfacet
facet normal 0 0 1
outer loop
vertex -3.01029 -10.58008 0
vertex 4.90312 -9.8468 0
vertex -4.90312 -9.8468 0
endloop
endfacet
facet normal 0 0 1
outer loop
vertex -3.01029 -10.58008 0
vertex 3.01029 -10.58008 0
vertex 4.90312 -9.8468 0
endloop
endfacet
facet normal 0 0 1
outer loop
vertex -1.01495 -10.95308 0
vertex 3.01029 -10.58008 0
vertex -3.01029 -10.58008 0
endloop
endfacet
facet normal 0 0 1
outer loop
vertex 3.01029 -10.58008 0
vertex -1.01495 -10.95308 0
vertex 1.01495 -10.95308 0
endloop
endfacet
endsolid JSxCAD
