<?xml version="1.0" encoding="UTF-8"?>
<!-- Generated by jsxcad -->
<!DOCTYPE svg PUBLIC "-//W3C//DTD SVG 1.1 Tiny//EN" "http://www.w3.org/Graphics/SVG/1.1/DTD/svg11-tiny.dtd">
<svg viewBox="-250 -250 500 500" width="500" height="500" xmlns="http://www.w3.org/2000/svg"><path d="M-23.440969329071528,-31.038748465569153L-20.118294033128688,-24.624565072133798L-19.944019235516226,-33.42992653476022zM-19.944019235516226,-33.42992653476022L-16.505630311332883,-25.581174065618242L-18.140451795659377,-34.663188613918685zM-18.140451795659377,-34.663188613918685L-16.505630311332883,-25.581174065618242L-16.3625231650622,-34.386075678102635zM-26.81755924670998,-20.913860932284788L-23.440969329071528,-31.038748465569153L-26.608343227071227,-28.87293254722998zM-29.24575973009161,-27.06949466191321L-26.81755924670998,-20.913860932284788L-26.608343227071227,-28.87293254722998zM-31.185891730080453,-25.74285285060132L-29.496220544112347,-18.385193658375762L-29.24575973009161,-27.06949466191321zM-16.3625231650622,-34.386075678102635L-13.008776076457362,-25.84628859136805L-12.906257322592541,-33.84737400319096zM-32.30536426974229,-24.977367817440996L-31.497306292226636,-15.603583888077019L-31.185891730080453,-25.74285285060132zM-20.118294033128688,-24.624565072133798L-23.440969329071528,-31.038748465569153L-23.626678859871564,-23.036476312354548zM-23.440969329071528,-31.038748465569153L-26.81755924670998,-20.913860932284788L-23.626678859871564,-23.036476312354548zM-16.505630311332883,-25.581174065618242L-19.944019235516226,-33.42992653476022L-20.118294033128688,-24.624565072133798zM-32.532887070282406,-24.82179064896125L-32.69446387864886,-12.738550678070316L-32.30536426974229,-24.977367817440996zM-26.81755924670998,-20.913860932284788L-29.24575973009161,-27.06949466191321L-29.496220544112347,-18.385193658375762zM-13.008776076457362,-25.84628859136805L-16.3625231650622,-34.386075678102635L-16.505630311332883,-25.581174065618242zM-12.906257322592541,-33.84737400319096L-9.8425190266701,-25.400561341717427L-9.76541131759033,-33.357831243948546zM-29.496220544112347,-18.385193658375762L-31.185891730080453,-25.74285285060132L-31.497306292226636,-15.603583888077019zM-9.8425190266701,-25.400561341717427L-12.906257322592541,-33.84737400319096L-13.008776076457362,-25.84628859136805zM-31.497306292226636,-15.603583888077019L-32.30536426974229,-24.977367817440996L-32.69446387864886,-12.738550678070316zM-9.76541131759033,-33.357831243948546L-7.204069605756425,-24.267163685444714L-7.142561276608293,-32.94902809027006zM-32.69446387864886,-12.738550678070316L-32.532887070282406,-24.82179064896125L-33.00841922149856,-9.966647543860752zM-7.142561276608293,-32.94902809027006L-5.261119723998586,-22.511496463750266L-5.2087663932439305,-32.64762112668078zM-7.204069605756425,-24.267163685444714L-9.76541131759033,-33.357831243948546L-9.8425190266701,-25.400561341717427zM-41.90691443522653,-18.411927269761332L-33.45311528097173,3.9252193284311163L-32.532887070282406,-24.82179064896125z" style="fill:rgb(83,212,212)"/><path d="M18.348480542359802,-5.08690247024114L5.65789584593412,-10.349667340849164L18.71384014066133,15.542791113073124z" style="fill:rgb(247,158,158)"/><path d="M-5.2087663932439305,-32.64762112668078L-4.140882194902469,-20.23848621005132L-4.091254825827281,-32.47344307162361zM-5.261119723998586,-22.511496463750266L-7.142561276608293,-32.94902809027006L-7.204069605756425,-24.267163685444714zM-4.091254825827281,-32.47344307162361L-3.920868179340239,-17.58734534708433L-3.8639792151866676,-32.43801668064544z" style="fill:rgb(83,212,212)"/><path d="M5.65789584593412,-10.349667340849164L18.348480542359802,-5.08690247024114L5.544701988705965,-30.971552868014534z" style="fill:rgb(247,158,158)"/><path d="M-4.140882194902469,-20.23848621005132L-5.2087663932439305,-32.64762112668078L-5.261119723998586,-22.511496463750266zM-3.920868179340239,-17.58734534708433L5.544701988705965,-30.971552868014534L-3.8639792151866676,-32.43801668064544zM-3.920868179340239,-17.58734534708433L-4.091254825827281,-32.47344307162361L-4.140882194902469,-20.23848621005132z" style="fill:rgb(83,212,212)"/><path d="M-18.884213742365382,6.601591888224191L-28.67070881418977,27.501861272253375L-5.168480663633602,32.18062361538797z" style="fill:rgb(67,34,190)"/><path d="M-33.45311528097173,3.9252193284311163L-41.90691443522653,-18.411927269761332L-42.75221406600838,2.216932888576329z" style="fill:rgb(83,212,212)"/><path d="M5.65789584593412,-10.349667340849164L-5.168480663633602,32.18062361538797L18.71384014066133,15.542791113073124z" style="fill:rgb(187,64,221)"/><path d="M-28.67070881418977,27.501861272253375L-18.884213742365382,6.601591888224191L-42.75221406600838,2.216932888576329z" style="fill:rgb(67,34,190)"/><path d="M-33.00841922149856,-9.966647543860752L-32.77386324205224,4.050000689713191L-32.41289878178821,-7.461245800190913zM-32.41289878178821,-7.461245800190913L-31.228098680610984,4.333964818148233L-30.937882245746753,-5.381866839458206zM5.544701988705965,-30.971552868014534L-3.920868179340239,-17.58734534708433L5.65789584593412,-10.349667340849164zM-32.77386324205224,4.050000689713191L-33.00841922149856,-9.966647543860752L-33.45311528097173,3.9252193284311163zM-30.937882245746753,-5.381866839458206L-28.907891739057312,4.76019687749583L-28.669529050144593,-3.86367477594653zM-31.228098680610984,4.333964818148233L-32.41289878178821,-7.461245800190913L-32.77386324205224,4.050000689713191zM-28.907891739057312,4.76019687749583L-30.937882245746753,-5.381866839458206L-31.228098680610984,4.333964818148233zM-28.669529050144593,-3.86367477594653L-25.95255299984611,5.303106263485741L-25.746429582634775,-3.0078911826864037zM-4.622268988917247,-14.72373556617237L-3.9740789579352978,-3.6968530712690915L-3.920868179340239,-17.58734534708433z" style="fill:rgb(83,212,212)"/><path d="M-48.776984021919475,-108.04875101177721L8.968838590727808,5.52900491966629L7.839931082953326,3.24067615217001z" style="fill:rgb(241,184,128)"/><path d="M-5.168480663633602,32.18062361538797L5.65789584593412,-10.349667340849164L-18.884213742365382,6.601591888224191z" style="fill:rgb(187,64,221)"/><path d="M-6.265366201942891,-2.114258570169161L-4.622268988917247,-14.72373556617237L-6.206780793888525,-11.829633060705492z" style="fill:rgb(83,212,212)"/><path d="M-17.163809506427672,20.050986888942568L-78.16374974477186,-91.88511979220253L-18.64050048728339,17.952910168942946z" style="fill:rgb(19,61,137)"/><path d="M-25.95255299984611,5.303106263485741L-28.669529050144593,-3.86367477594653L-28.907891739057312,4.76019687749583zM-25.746429582634775,-3.0078911826864037L-22.541431418009317,5.929744461716935L-22.351899462044205,-2.873986935484554zM-8.577540607284835,-9.091406133263156L-6.265366201942891,-2.114258570169161L-6.206780793888525,-11.829633060705492zM5.65789584593412,-10.349667340849164L-3.920868179340239,-17.58734534708433L-3.9740789579352978,-3.6968530712690915z" style="fill:rgb(83,212,212)"/><path d="M-47.69832331314316,-105.85174107150355L9.218207258536044,8.183855886998046L8.968838590727808,5.52900491966629z" style="fill:rgb(247,163,152)"/><path d="M-11.584499899305449,-6.68698808426225L-8.649215086901888,-0.46773167715175895L-8.577540607284835,-9.091406133263156zM-22.351899462044205,-2.873986935484554L-18.884213742365382,6.601591888224191L-18.702600873012084,-3.4745055701698435zM-22.541431418009317,5.929744461716935L-25.746429582634775,-3.0078911826864037L-25.95255299984611,5.303106263485741zM-15.03410134423511,-4.77321481710654L-11.677573571791118,1.623958370540728L-11.584499899305449,-6.68698808426225zM-18.702600873012084,-3.4745055701698435L-15.161816141004904,4.030528006440484L-15.03410134423511,-4.77321481710654z" style="fill:rgb(83,212,212)"/><path d="M-14.915312902010662,21.59754798736021L-76.7076671616201,-89.89254445170478L-17.163809506427672,20.050986888942568z" style="fill:rgb(35,46,161)"/><path d="M-3.9740789579352978,-3.6968530712690915L-4.622268988917247,-14.72373556617237L-4.674104976141018,-3.2133443949891776zM-4.622268988917247,-14.72373556617237L-6.265366201942891,-2.114258570169161L-4.674104976141018,-3.2133443949891776zM-6.265366201942891,-2.114258570169161L-8.577540607284835,-9.091406133263156L-8.649215086901888,-0.46773167715175895zM-18.884213742365382,6.601591888224191L-22.351899462044205,-2.873986935484554L-22.541431418009317,5.929744461716935zM-8.649215086901888,-0.46773167715175895L-11.584499899305449,-6.68698808426225L-11.677573571791118,1.623958370540728zM-11.677573571791118,1.623958370540728L-15.03410134423511,-4.77321481710654L-15.161816141004904,4.030528006440484z" style="fill:rgb(83,212,212)"/><path d="M-12.032593426671202,22.48977894902062L-74.38598151246644,-88.49202943042451L-14.915312902010662,21.59754798736021z" style="fill:rgb(57,36,182)"/><path d="M9.218207258536044,8.183855886998046L-48.462194841781816,-100.3683529780604L8.565319143495731,11.039216353525742z" style="fill:rgb(245,140,174)"/><path d="M-15.161816141004904,4.030528006440484L-18.702600873012084,-3.4745055701698435L-18.884213742365382,6.601591888224191z" style="fill:rgb(83,212,212)"/><path d="M8.565319143495731,11.039216353525742L-50.27168767521567,-97.42704232769958L7.0456453890831305,13.913606183402802z" style="fill:rgb(235,117,193)"/><path d="M-67.75966742695213,-87.8014373172816L-12.032593426671202,22.48977894902062L-8.696519044523415,22.66606226887652z" style="fill:rgb(83,32,199)"/><path d="M7.0456453890831305,13.913606183402802L-52.90590316507028,-94.60289560913431L4.752034354151414,16.621971215308104z" style="fill:rgb(219,93,208)"/><path d="M-63.874331353603374,-88.56514948453349L-8.696519044523415,22.66606226887652L-5.11999145510488,22.111251210154386z" style="fill:rgb(112,34,213)"/><path d="M4.752034354151414,16.621971215308104L-56.197792627074755,-92.07970841079445L1.8295703059450423,18.988408748315383z" style="fill:rgb(197,72,218)"/><path d="M-59.9349424809542,-90.02243133404518L-5.11999145510488,22.111251210154386L-1.5337645476476385,20.85866814445875z" style="fill:rgb(142,41,220)"/><path d="M-56.197792627074755,-92.07970841079445L-1.5337645476476385,20.85866814445875L1.8295703059450423,18.988408748315383z" style="fill:rgb(171,55,222)"/><path d="M8.968838590727808,5.52900491966629L-48.776984021919475,-108.04875101177721L-47.69832331314316,-105.85174107150355z" style="fill:rgb(241,184,128)"/><path d="M-78.16374974477186,-91.88511979220253L-17.163809506427672,20.050986888942568L-76.7076671616201,-89.89254445170478z" style="fill:rgb(19,61,137)"/><path d="M-68.14190679722726,-107.70859290027906L-174.60440531771113,-77.57965162421446L-174.72397526414744,-76.91981676576555zM-71.60965154570044,-105.46071442728429L-174.72397526414744,-76.91981676576555L-174.9560686096215,-75.6390288585349z" style="fill:rgb(83,212,212)"/><path d="M9.218207258536044,8.183855886998046L-47.69832331314316,-105.85174107150355L-47.58826815958691,-103.23730843783795z" style="fill:rgb(247,163,152)"/><path d="M-76.7076671616201,-89.89254445170478L-14.915312902010662,21.59754798736021L-74.38598151246644,-88.49202943042451z" style="fill:rgb(35,46,161)"/><path d="M-74.55699867885583,-102.83488297148304L-174.9560686096215,-75.6390288585349L-175.2869237877454,-73.81323745355199z" style="fill:rgb(83,212,212)"/><path d="M-48.462194841781816,-100.3683529780604L9.218207258536044,8.183855886998046L-47.58826815958691,-103.23730843783795z" style="fill:rgb(245,140,174)"/><path d="M-76.80241227274676,-99.98977383829393L-175.2869237877454,-73.81323745355199L-175.69673169893744,-71.55175324105971z" style="fill:rgb(83,212,212)"/><path d="M-74.38598151246644,-88.49202943042451L-12.032593426671202,22.48977894902062L-71.33974493831872,-87.77799131916952z" style="fill:rgb(57,36,182)"/><path d="M-50.27168767521567,-97.42704232769958L8.565319143495731,11.039216353525742L-48.462194841781816,-100.3683529780604z" style="fill:rgb(235,117,193)"/><path d="M-174.60440531771113,-77.57965162421446L137.22743344038463,-183.76390153282784L-171.7611986862991,-93.26960846009617z" style="fill:rgb(83,212,212)"/><path d="M-12.032593426671202,22.48977894902062L-67.75966742695213,-87.8014373172816L-71.33974493831872,-87.77799131916952z" style="fill:rgb(83,32,199)"/><path d="M-78.20439535333327,-97.09855396610159L-175.69673169893744,-71.55175324105971L-176.16064331514588,-68.99170311173097z" style="fill:rgb(83,212,212)"/><path d="M-52.90590316507028,-94.60289560913431L7.0456453890831305,13.913606183402802L-50.27168767521567,-97.42704232769958z" style="fill:rgb(219,93,208)"/><path d="M-8.696519044523415,22.66606226887652L-63.874331353603374,-88.56514948453349L-67.75966742695213,-87.8014373172816z" style="fill:rgb(112,34,213)"/><path d="M-56.197792627074755,-92.07970841079445L4.752034354151414,16.621971215308104L-52.90590316507028,-94.60289560913431z" style="fill:rgb(197,72,218)"/><path d="M-5.11999145510488,22.111251210154386L-59.9349424809542,-90.02243133404518L-63.874331353603374,-88.56514948453349z" style="fill:rgb(142,41,220)"/><path d="M-1.5337645476476385,20.85866814445875L-56.197792627074755,-92.07970841079445L-59.9349424809542,-90.02243133404518z" style="fill:rgb(171,55,222)"/><path d="M-174.60440531771113,-77.57965162421446L-68.14190679722726,-107.70859290027906L-64.36480435209644,-109.4427943514039zM-174.72397526414744,-76.91981676576555L-71.60965154570044,-105.46071442728429L-68.14190679722726,-107.70859290027906zM-78.67040072894311,-94.33939383034816L-176.16064331514588,-68.99170311173097L-176.65010784008513,-66.29064569496256zM-174.9560686096215,-75.6390288585349L-74.55699867885583,-102.83488297148304L-71.60965154570044,-105.46071442728429zM-175.2869237877454,-73.81323745355199L-76.80241227274676,-99.98977383829393L-74.55699867885583,-102.83488297148304zM-78.16374974477186,-91.88511979220253L-176.65010784008513,-66.29064569496256L-177.13451595051203,-63.61748380139043zM-175.69673169893744,-71.55175324105971L-78.20439535333327,-97.09855396610159L-76.80241227274676,-99.98977383829393zM-76.7076671616201,-89.89254445170478L-177.13451595051203,-63.61748380139043L-177.58308263690353,-61.142117060944564zM-176.16064331514588,-68.99170311173097L-78.67040072894311,-94.33939383034816L-78.20439535333327,-97.09855396610159zM-74.38598151246644,-88.49202943042451L-177.58308263690353,-61.142117060944564L-177.96685786283157,-59.02429164223519zM-71.33974493831872,-87.77799131916952L-177.96685786283157,-59.02429164223519L-178.26073744336767,-57.402546402703244zM-176.65010784008513,-66.29064569496256L-78.16374974477186,-91.88511979220253L-78.67040072894311,-94.33939383034816zM137.22743344038463,-183.76390153282784L-174.60440531771113,-77.57965162421446L-64.36480435209644,-109.4427943514039zM-67.75966742695213,-87.8014373172816L-178.26073744336767,-57.402546402703244L-178.4452861104399,-56.3841289980139zM-63.874331353603374,-88.56514948453349L-178.4452861104399,-56.3841289980139L-178.50820586141253,-56.036916547894805zM-177.13451595051203,-63.61748380139043L-76.7076671616201,-89.89254445170478L-78.16374974477186,-91.88511979220253zM-74.55699867885583,-102.83488297148304L-74.38598151246644,-88.49202943042451L-71.60965154570044,-105.46071442728429zM-76.80241227274676,-99.98977383829393L-76.7076671616201,-89.89254445170478L-74.55699867885583,-102.83488297148304zM-71.60965154570044,-105.46071442728429L-71.33974493831872,-87.77799131916952L-68.14190679722726,-107.70859290027906zM-78.20439535333327,-97.09855396610159L-78.16374974477186,-91.88511979220253L-76.80241227274676,-99.98977383829393zM-177.58308263690353,-61.142117060944564L-74.38598151246644,-88.49202943042451L-76.7076671616201,-89.89254445170478zM-68.14190679722726,-107.70859290027906L-67.75966742695213,-87.8014373172816L-64.36480435209644,-109.4427943514039zM-64.36480435209644,-109.4427943514039L-63.874331353603374,-88.56514948453349L-60.50731818443148,-110.55774152039676zM-78.16374974477186,-91.88511979220253L-78.20439535333327,-97.09855396610159L-78.67040072894311,-94.33939383034816zM-60.50731818443148,-110.55774152039676L-59.9349424809542,-90.02243133404518L-56.80394744464238,-110.98382703923886zM-177.96685786283157,-59.02429164223519L-71.33974493831872,-87.77799131916952L-74.38598151246644,-88.49202943042451zM-76.80241227274676,-99.98977383829393L-78.16374974477186,-91.88511979220253L-76.7076671616201,-89.89254445170478zM-56.80394744464238,-110.98382703923886L-56.197792627074755,-92.07970841079445L-53.48190059868558,-110.691665646199zM137.22743344038463,-183.76390153282784L-64.36480435209644,-109.4427943514039L-60.50731818443148,-110.55774152039676zM-74.55699867885583,-102.83488297148304L-76.7076671616201,-89.89254445170478L-74.38598151246644,-88.49202943042451zM-178.26073744336767,-57.402546402703244L-67.75966742695213,-87.8014373172816L-71.33974493831872,-87.77799131916952zM-53.48190059868558,-110.691665646199L-52.90590316507028,-94.60289560913431L-50.7481693502982,-109.6945279044701zM-71.60965154570044,-105.46071442728429L-74.38598151246644,-88.49202943042451L-71.33974493831872,-87.77799131916952zM-178.4452861104399,-56.3841289980139L-63.874331353603374,-88.56514948453349L-67.75966742695213,-87.8014373172816zM-50.7481693502982,-109.6945279044701L-50.27168767521567,-97.42704232769958L-48.776984021919475,-108.04875101177721zM-91.68659953114216,-119.48866482612763L-93.06888591466912,-92.4703920635053L-88.79633385729858,-122.18482556671877zM-94.21110515823125,-116.67172827546867L-95.4378468412433,-93.87118527173797L-91.68659953114216,-119.48866482612763zM-88.79633385729858,-122.18482556671877L-90.27505588777436,-91.43408322528174L-85.59018923815063,-124.71558781793547zM-96.32530047929727,-113.78098880480437L-97.34246087006174,-95.60779873198966L-94.21110515823125,-116.67172827546867zM-85.59018923815063,-124.71558781793547L-87.10462458073998,-90.78446076908833L-82.12259229021062,-127.03924176555375zM-68.14190679722726,-107.70859290027906L-71.33974493831872,-87.77799131916952L-67.75966742695213,-87.8014373172816zM-97.99072035792368,-110.86514024296011L-98.75251179669172,-97.64584896403538L-96.32530047929727,-113.78098880480437zM-48.776984021919475,-108.04875101177721L-48.462194841781816,-100.3683529780604L-47.69832331314316,-105.85174107150355zM-82.12259229021062,-127.03924176555375L-83.61392293134182,-90.536555988806L-78.45175168577347,-129.1174765386703zM-99.17569751577118,-107.97392948995342L-99.64731046837849,-99.94611729466754L-97.99072035792368,-110.86514024296011zM-78.45175168577347,-129.1174765386703L-79.86633662687613,-90.69774408546887L-74.63888445363628,-130.91587416971262zM-64.36480435209644,-109.4427943514039L-67.75966742695213,-87.8014373172816L-63.874331353603374,-88.56514948453349zM-48.84454602968211,-108.10516404086474L16.11422502565394,-127.49900837661946L-49.46956561007437,-108.6270044641499z" style="fill:rgb(83,212,212)"/><path d="M-78.11100059605643,-101.15750125273475L-66.90784515751757,88.76245017687378L-57.88933233255658,-63.53403415516702zM-78.11100059605643,-101.15750125273475L-66.90784515751757,88.76245017687378L-57.88933233255658,-63.53403415516702z" style="fill:rgb(247,158,158)"/><path d="M-48.776984021919475,-108.04875101177721L12.104442447642901,-125.63278943089607L-48.84454602968211,-108.10516404086474zM-100.01572788134925,-102.46540081220111L-99.17569751577118,-107.97392948995342L-99.85605353955442,-105.15746884841595zM-74.63888445363628,-130.91587416971262L-75.93117495702583,-91.2673515523463L-70.74737777579445,-132.40433987223298zM-60.50731818443148,-110.55774152039676L-63.874331353603374,-88.56514948453349L-59.9349424809542,-90.02243133404518zM-47.98228216780197,-106.43010928267775L11.989185469036387,-125.52265644097668L-48.776984021919475,-108.04875101177721zM-47.69832331314316,-105.85174107150355L-48.462194841781816,-100.3683529780604L-47.58826815958691,-103.23730843783795zM-56.80394744464238,-110.98382703923886L-59.9349424809542,-90.02243133404518L-56.197792627074755,-92.07970841079445zM-70.74737777579445,-132.40433987223298L-71.88221168085828,-92.23653291464015L-66.84199905429797,-133.55750378736855zM-48.776984021919475,-108.04875101177721L-50.27168767521567,-97.42704232769958L-48.462194841781816,-100.3683529780604zM-53.48190059868558,-110.691665646199L-56.197792627074755,-92.07970841079445L-52.90590316507028,-94.60289560913431zM-50.7481693502982,-109.6945279044701L-52.90590316507028,-94.60289560913431L-50.27168767521567,-97.42704232769958z" style="fill:rgb(83,212,212)"/><path d="M-41.30284345899873,-127.40989920498092L-33.654067971557495,-111.24090188794791L-34.48203344354096,-113.60023339229757z" style="fill:rgb(244,178,136)"/><path d="M-99.17569751577118,-107.97392948995342L-100.01572788134925,-102.46540081220111L-99.64731046837849,-99.94611729466754z" style="fill:rgb(83,212,212)"/><path d="M-89.83508856941104,-82.12981383364466L-98.75251179669172,-97.64584896403538L-91.25137641468125,-84.18489953783345z" style="fill:rgb(18,61,137)"/><path d="M-47.69832331314316,-105.85174107150355L9.184416145749282,-122.84253539591394L-47.98228216780197,-106.43010928267775zM-66.84199905429797,-133.55750378736855L-67.79610888718804,-93.58828902160549L-62.988018471280995,-134.35508642496296zM-56.80394744464238,-110.98382703923886L139.68338058760216,-168.419941180945L-60.50731818443148,-110.55774152039676zM-97.99072035792368,-110.86514024296011L-99.64731046837849,-99.94611729466754L-98.75251179669172,-97.64584896403538zM-47.61595096451562,-103.89494459395783L8.921043068933178,-122.0976866573915L-47.69832331314316,-105.85174107150355zM-62.988018471280995,-134.35508642496296L-63.750778587866414,-95.29775862960193L-59.25040371364156,-134.78225822225144zM-53.48190059868558,-110.691665646199L139.78680674334652,-167.77376788283513L-56.80394744464238,-110.98382703923886zM-96.32530047929727,-113.78098880480437L-98.75251179669172,-97.64584896403538L-97.34246087006174,-95.60779873198966zM-59.25040371364156,-134.78225822225144L-59.82356200044873,-97.33271394482684L-55.69285603068122,-134.82990388827633z" style="fill:rgb(83,212,212)"/><path d="M-40.48608488021335,-125.06506286759891L-33.35087883025454,-108.6553610434765L-33.654067971557495,-111.24090188794791z" style="fill:rgb(246,167,149)"/><path d="M12.104442447642901,-125.63278943089607L-48.776984021919475,-108.04875101177721L11.989185469036387,-125.52265644097668zM16.11422502565394,-127.49900837661946L-48.84454602968211,-108.10516404086474L12.104442447642901,-125.63278943089607zM-47.58826815958691,-103.23730843783795L8.13083841931448,-119.86290566678083L-47.61595096451562,-103.89494459395783z" style="fill:rgb(83,212,212)"/><path d="M-87.93060837659573,-80.37343613217834L-97.34246087006174,-95.60779873198966L-89.83508856941104,-82.12981383364466z" style="fill:rgb(26,53,150)"/><path d="M-94.21110515823125,-116.67172827546867L-97.34246087006174,-95.60779873198966L-95.4378468412433,-93.87118527173797zM-55.69285603068122,-134.82990388827633L-56.0894792840169,-99.65426296226964L-52.37693162899507,-134.49491029868736zM11.989185469036387,-125.52265644097668L-47.98228216780197,-106.43010928267775L9.184416145749282,-122.84253539591394zM-50.7481693502982,-109.6945279044701L139.98759672627696,-166.51929258671322L-53.48190059868558,-110.691665646199z" style="fill:rgb(83,212,212)"/><path d="M16.11422502565394,-127.49900837661946L14.939534577937586,-119.31728200777401L18.92821998773689,-121.17205452264335z" style="fill:rgb(158,48,222)"/><path d="M-33.654067971557495,-111.24090188794791L-41.30284345899873,-127.40989920498092L-40.48608488021335,-125.06506286759891z" style="fill:rgb(244,178,136)"/><path d="M9.237985500987016,-117.48657809203348L-47.58826815958691,-103.23730843783795L-48.25230576962754,-101.05738478838126z" style="fill:rgb(83,212,212)"/><path d="M-98.75251179669172,-97.64584896403538L-89.83508856941104,-82.12981383364466L-97.34246087006174,-95.60779873198966z" style="fill:rgb(18,61,137)"/><path d="M9.184416145749282,-122.84253539591394L-47.69832331314316,-105.85174107150355L8.921043068933178,-122.0976866573915z" style="fill:rgb(83,212,212)"/><path d="M14.939534577937586,-119.31728200777401L9.184416145749282,-122.84253539591394L12.039268779054142,-116.5333737674619z" style="fill:rgb(212,85,213)"/><path d="M-91.68659953114216,-119.48866482612763L-95.4378468412433,-93.87118527173797L-93.06888591466912,-92.4703920635053zM-52.37693162899507,-134.49491029868736L-52.61953946598798,-102.21772908279898L-49.3610718084871,-133.7803390932915z" style="fill:rgb(83,212,212)"/><path d="M20.157016080465347,-127.94853228219L18.92821998773689,-121.17205452264335L22.954043481486405,-121.608007183323z" style="fill:rgb(96,32,206)"/><path d="M-85.56825160528832,-78.95043682532943L-95.4378468412433,-93.87118527173797L-87.93060837659573,-80.37343613217834z" style="fill:rgb(36,45,162)"/><path d="M10.20001994183076,-117.12321702865982L-48.25230576962754,-101.05738478838126L-48.462194841781816,-100.3683529780604z" style="fill:rgb(83,212,212)"/><path d="M14.939534577937586,-119.31728200777401L16.11422502565394,-127.49900837661946L12.104442447642901,-125.63278943089607z" style="fill:rgb(158,48,222)"/><path d="M-49.46956561007437,-108.6270044641499L140.2739030695805,-164.7305344224599L-50.7481693502982,-109.6945279044701z" style="fill:rgb(83,212,212)"/><path d="M9.184416145749282,-122.84253539591394L14.939534577937586,-119.31728200777401L12.104442447642901,-125.63278943089607z" style="fill:rgb(212,85,213)"/><path d="M-49.3610718084871,-133.7803390932915L-49.47911508939102,-104.97371266996792L-46.69960477445288,-132.6955946308419zM8.921043068933178,-122.0976866573915L-47.61595096451562,-103.89494459395783L8.13083841931448,-119.86290566678083zM-88.79633385729858,-122.18482556671877L-93.06888591466912,-92.4703920635053L-90.27505588777436,-91.43408322528174z" style="fill:rgb(83,212,212)"/><path d="M-33.35087883025454,-108.6553610434765L-40.45468761131573,-119.73086296996584L-33.58269922605321,-105.88864832294401z" style="fill:rgb(247,155,161)"/><path d="M18.92821998773689,-121.17205452264335L20.157016080465347,-127.94853228219L16.11422502565394,-127.49900837661946z" style="fill:rgb(96,32,206)"/><path d="M25.950324478678695,-120.5027686235889L20.157016080465347,-127.94853228219L22.954043481486405,-121.608007183323z" style="fill:rgb(42,41,169)"/><path d="M12.22707797166811,-116.3576127195436L-48.462194841781816,-100.3683529780604L-49.45045010679684,-98.76195126201351z" style="fill:rgb(83,212,212)"/><path d="M12.039268779054142,-116.5333737674619L8.13083841931448,-119.86290566678083L10.99891219332435,-113.55336138619654z" style="fill:rgb(243,133,180)"/><path d="M8.13083841931448,-119.86290566678083L-47.58826815958691,-103.23730843783795L8.408250316346875,-119.26748446445268z" style="fill:rgb(83,212,212)"/><path d="M-33.35087883025454,-108.6553610434765L-40.48608488021335,-125.06506286759891L-40.20002111670454,-122.49045319369998z" style="fill:rgb(246,167,149)"/><path d="M-46.69960477445288,-132.6955946308419L-46.726547963459446,-107.86922684667447L-44.44179597276245,-131.25648391902152z" style="fill:rgb(83,212,212)"/><path d="M-97.34246087006174,-95.60779873198966L-87.93060837659573,-80.37343613217834L-95.4378468412433,-93.87118527173797z" style="fill:rgb(26,53,150)"/><path d="M-85.59018923815063,-124.71558781793547L-90.27505588777436,-91.43408322528174L-87.10462458073998,-90.78446076908833z" style="fill:rgb(83,212,212)"/><path d="M8.13083841931448,-119.86290566678083L12.039268779054142,-116.5333737674619L9.184416145749282,-122.84253539591394z" style="fill:rgb(243,133,180)"/><path d="M16.30307879929071,-116.79169242326054L-49.45045010679684,-98.76195126201351L-49.985331451009806,-97.89251308671203z" style="fill:rgb(83,212,212)"/><path d="M-82.78746397065603,-77.8898231248999L-93.06888591466912,-92.4703920635053L-85.56825160528832,-78.95043682532943z" style="fill:rgb(47,39,173)"/><path d="M-47.58826815958691,-103.23730843783795L9.237985500987016,-117.48657809203348L8.408250316346875,-119.26748446445268zM-44.44179597276245,-131.25648391902152L-44.41192025120294,-110.84892135801648L-42.63082492659078,-129.48512975032375zM-82.12259229021062,-127.03924176555375L-87.10462458073998,-90.78446076908833L-83.61392293134182,-90.536555988806z" style="fill:rgb(83,212,212)"/><path d="M-33.58269922605321,-105.88864832294401L-41.25014260797673,-116.83533538760835L-34.34990036732675,-102.98998126980395z" style="fill:rgb(245,142,172)"/><path d="M-40.45468761131573,-119.73086296996584L-33.35087883025454,-108.6553610434765L-40.20002111670454,-122.49045319369998z" style="fill:rgb(247,155,161)"/><path d="M20.157016080465347,-127.94853228219L25.950324478678695,-120.5027686235889L23.161680815670138,-126.85537366562946z" style="fill:rgb(42,41,169)"/><path d="M27.10878379873279,-118.13952471452396L23.161680815670138,-126.85537366562946L25.950324478678695,-120.5027686235889z" style="fill:rgb(11,74,121)"/><path d="M137.22743344038463,-183.76390153282784L-60.50731818443148,-110.55774152039676L139.68338058760216,-168.419941180945zM-42.63082492659078,-129.48512975032375L-42.576118669956415,-113.85638272676837L-41.30284345899873,-127.40989920498092zM-48.25230576962754,-101.05738478838126L10.20001994183076,-117.12321702865982L9.237985500987016,-117.48657809203348zM-78.45175168577347,-129.1174765386703L-83.61392293134182,-90.536555988806L-79.86633662687613,-90.69774408546887z" style="fill:rgb(83,212,212)"/><path d="M-95.4378468412433,-93.87118527173797L-85.56825160528832,-78.95043682532943L-93.06888591466912,-92.4703920635053z" style="fill:rgb(36,45,162)"/><path d="M-79.63634296921369,-77.21418552326215L-90.27505588777436,-91.43408322528174L-82.78746397065603,-77.8898231248999z" style="fill:rgb(59,35,184)"/><path d="M-41.30284345899873,-127.40989920498092L-41.25014260797673,-116.83533538760835L-40.48608488021335,-125.06506286759891zM-48.462194841781816,-100.3683529780604L12.22707797166811,-116.3576127195436L10.20001994183076,-117.12321702865982zM-74.63888445363628,-130.91587416971262L-79.86633662687613,-90.69774408546887L-75.93117495702583,-91.2673515523463z" style="fill:rgb(83,212,212)"/><path d="M-34.34990036732675,-102.98998126980395L-42.576118669956415,-113.85638272676837L-35.642654610666334,-100.01192825768621z" style="fill:rgb(241,130,183)"/><path d="M-41.25014260797673,-116.83533538760835L-33.58269922605321,-105.88864832294401L-40.45468761131573,-119.73086296996584z" style="fill:rgb(245,142,172)"/><path d="M-40.48608488021335,-125.06506286759891L-40.45468761131573,-119.73086296996584L-40.20002111670454,-122.49045319369998z" style="fill:rgb(83,212,212)"/><path d="M23.161680815670138,-126.85537366562946L27.10878379873279,-118.13952471452396L24.317610535053902,-124.49940923954729z" style="fill:rgb(11,74,121)"/><path d="M-70.74737777579445,-132.40433987223298L-75.93117495702583,-91.2673515523463L-71.88221168085828,-92.23653291464015zM-49.45045010679684,-98.76195126201351L16.30307879929071,-116.79169242326054L12.22707797166811,-116.3576127195436z" style="fill:rgb(83,212,212)"/><path d="M-93.06888591466912,-92.4703920635053L-82.78746397065603,-77.8898231248999L-90.27505588777436,-91.43408322528174z" style="fill:rgb(47,39,173)"/><path d="M-66.84199905429797,-133.55750378736855L-71.88221168085828,-92.23653291464015L-67.79610888718804,-93.58828902160549z" style="fill:rgb(83,212,212)"/><path d="M-35.642654610666334,-100.01192825768621L-44.41192025120294,-110.84892135801648L-37.44080268785745,-97.00942248610339z" style="fill:rgb(236,117,193)"/><path d="M-40.48608488021335,-125.06506286759891L-41.25014260797673,-116.83533538760835L-40.45468761131573,-119.73086296996584z" style="fill:rgb(83,212,212)"/><path d="M-83.61392293134182,-90.536555988806L-79.63634296921369,-77.21418552326215L-76.17090912684017,-76.93898651652792z" style="fill:rgb(73,33,194)"/><path d="M-174.08361495751183,-73.52230518607793L-90.76122445943199,51.070663475541295L-78.11100059605643,-101.15750125273475zM-174.08361495751183,-73.52230518607793L-90.76122445943199,51.070663475541295L-78.11100059605643,-101.15750125273475zM-62.988018471280995,-134.35508642496296L-67.79610888718804,-93.58828902160549L-63.750778587866414,-95.29775862960193z" style="fill:rgb(83,212,212)"/><path d="M-42.576118669956415,-113.85638272676837L-34.34990036732675,-102.98998126980395L-41.25014260797673,-116.83533538760835z" style="fill:rgb(241,130,183)"/><path d="M-41.30284345899873,-127.40989920498092L-42.576118669956415,-113.85638272676837L-41.25014260797673,-116.83533538760835zM-59.25040371364156,-134.78225822225144L-63.750778587866414,-95.29775862960193L-59.82356200044873,-97.33271394482684zM-42.63082492659078,-129.48512975032375L-44.41192025120294,-110.84892135801648L-42.576118669956415,-113.85638272676837zM-55.69285603068122,-134.82990388827633L-59.82356200044873,-97.33271394482684L-56.0894792840169,-99.65426296226964z" style="fill:rgb(83,212,212)"/><path d="M-90.27505588777436,-91.43408322528174L-79.63634296921369,-77.21418552326215L-87.10462458073998,-90.78446076908833z" style="fill:rgb(59,35,184)"/><path d="M-44.44179597276245,-131.25648391902152L-46.726547963459446,-107.86922684667447L-44.41192025120294,-110.84892135801648z" style="fill:rgb(83,212,212)"/><path d="M-37.44080268785745,-97.00942248610339L-46.726547963459446,-107.86922684667447L-39.71400484508066,-94.0386342960069z" style="fill:rgb(228,104,202)"/><path d="M-52.37693162899507,-134.49491029868736L-56.0894792840169,-99.65426296226964L-52.61953946598798,-102.21772908279898zM-46.69960477445288,-132.6955946308419L-49.47911508939102,-104.97371266996792L-46.726547963459446,-107.86922684667447z" style="fill:rgb(83,212,212)"/><path d="M-79.86633662687613,-90.69774408546887L-76.17090912684017,-76.93898651652792L-72.45410046406954,-77.07206975393959z" style="fill:rgb(88,32,202)"/><path d="M-49.3610718084871,-133.7803390932915L-52.61953946598798,-102.21772908279898L-49.47911508939102,-104.97371266996792zM139.68338058760216,-168.419941180945L-56.80394744464238,-110.98382703923886L139.78680674334652,-167.77376788283513z" style="fill:rgb(83,212,212)"/><path d="M-44.41192025120294,-110.84892135801648L-35.642654610666334,-100.01192825768621L-42.576118669956415,-113.85638272676837z" style="fill:rgb(236,117,193)"/><path d="M-79.63634296921369,-77.21418552326215L-83.61392293134182,-90.536555988806L-87.10462458073998,-90.78446076908833z" style="fill:rgb(73,33,194)"/><path d="M-39.71400484508066,-94.0386342960069L-49.47911508939102,-104.97371266996792L-42.42212906016607,-91.15579304085281z" style="fill:rgb(218,92,209)"/><path d="M-75.93117495702583,-91.2673515523463L-72.45410046406954,-77.07206975393959L-68.55465150338128,-77.61326074834548z" style="fill:rgb(103,33,209)"/><path d="M139.78680674334652,-167.77376788283513L-53.48190059868558,-110.691665646199L139.98759672627696,-166.51929258671322zM20.157016080465347,-127.94853228219L140.50404374028463,-163.29270221330032L16.11422502565394,-127.49900837661946zM142.26331979711452,-152.30131647659664L-49.985331451009806,-97.89251308671203L-50.27168767521567,-97.42704232769958z" style="fill:rgb(83,212,212)"/><path d="M-42.42212906016607,-91.15579304085281L-52.61953946598798,-102.21772908279898L-45.515932738236735,-88.41598235236887z" style="fill:rgb(207,81,215)"/><path d="M-71.88221168085828,-92.23653291464015L-68.55465150338128,-77.61326074834548L-64.54562319194565,-78.5542357033069z" style="fill:rgb(119,35,215)"/><path d="M-46.726547963459446,-107.86922684667447L-37.44080268785745,-97.00942248610339L-44.41192025120294,-110.84892135801648z" style="fill:rgb(228,104,202)"/><path d="M-76.17090912684017,-76.93898651652792L-79.86633662687613,-90.69774408546887L-83.61392293134182,-90.536555988806z" style="fill:rgb(88,32,202)"/><path d="M139.98759672627696,-166.51929258671322L-50.7481693502982,-109.6945279044701L140.2739030695805,-164.7305344224599zM23.161680815670138,-126.85537366562946L140.61649983469098,-162.59011486492787L20.157016080465347,-127.94853228219z" style="fill:rgb(83,212,212)"/><path d="M-45.515932738236735,-88.41598235236887L-56.0894792840169,-99.65426296226964L-48.93798066543084,-85.87184838803147z" style="fill:rgb(195,70,219)"/><path d="M-67.79610888718804,-93.58828902160549L-64.54562319194565,-78.5542357033069L-60.502904184782416,-79.87852924845518z" style="fill:rgb(135,39,219)"/><path d="M142.59624169109307,-150.22132775740042L-50.27168767521567,-97.42704232769958L-52.90590316507028,-94.60289560913431z" style="fill:rgb(83,212,212)"/><path d="M-56.0894792840169,-99.65426296226964L-52.623852051109104,-83.57238601359371L-48.93798066543084,-85.87184838803147z" style="fill:rgb(181,60,221)"/><path d="M-63.750778587866414,-95.29775862960193L-60.502904184782416,-79.87852924845518L-56.50351075288883,-81.56181451654088z" style="fill:rgb(151,45,221)"/><path d="M-59.82356200044873,-97.33271394482684L-56.50351075288883,-81.56181451654088L-52.623852051109104,-83.57238601359371z" style="fill:rgb(166,52,222)"/><path d="M-49.47911508939102,-104.97371266996792L-39.71400484508066,-94.0386342960069L-46.726547963459446,-107.86922684667447z" style="fill:rgb(218,92,209)"/><path d="M-72.45410046406954,-77.07206975393959L-75.93117495702583,-91.2673515523463L-79.86633662687613,-90.69774408546887z" style="fill:rgb(103,33,209)"/><path d="M142.85126029338264,-148.62804518076553L-52.90590316507028,-94.60289560913431L-56.197792627074755,-92.07970841079445zM140.2739030695805,-164.7305344224599L-49.46956561007437,-108.6270044641499L140.50404374028463,-163.29270221330032zM143.06605902579545,-147.28605190047057L-59.9349424809542,-90.02243133404518L-63.874331353603374,-88.56514948453349zM143.01144155393524,-147.6272842690221L-56.197792627074755,-92.07970841079445L-59.9349424809542,-90.02243133404518z" style="fill:rgb(83,212,212)"/><path d="M-52.61953946598798,-102.21772908279898L-42.42212906016607,-91.15579304085281L-49.47911508939102,-104.97371266996792z" style="fill:rgb(207,81,215)"/><path d="M24.317610535053902,-124.49940923954729L140.924655129338,-160.6648556699879L23.161680815670138,-126.85537366562946z" style="fill:rgb(83,212,212)"/><path d="M-68.55465150338128,-77.61326074834548L-71.88221168085828,-92.23653291464015L-75.93117495702583,-91.2673515523463z" style="fill:rgb(119,35,215)"/><path d="M-56.0894792840169,-99.65426296226964L-45.515932738236735,-88.41598235236887L-52.61953946598798,-102.21772908279898z" style="fill:rgb(195,70,219)"/><path d="M-64.54562319194565,-78.5542357033069L-67.79610888718804,-93.58828902160549L-71.88221168085828,-92.23653291464015z" style="fill:rgb(135,39,219)"/><path d="M-49.985331451009806,-97.89251308671203L142.26331979711452,-152.30131647659664L16.30307879929071,-116.79169242326054z" style="fill:rgb(83,212,212)"/><path d="M-60.502904184782416,-79.87852924845518L-63.750778587866414,-95.29775862960193L-67.79610888718804,-93.58828902160549z" style="fill:rgb(151,45,221)"/><path d="M-52.623852051109104,-83.57238601359371L-56.0894792840169,-99.65426296226964L-59.82356200044873,-97.33271394482684z" style="fill:rgb(181,60,221)"/><path d="M-56.50351075288883,-81.56181451654088L-59.82356200044873,-97.33271394482684L-63.750778587866414,-95.29775862960193z" style="fill:rgb(166,52,222)"/><path d="M141.7734779503755,-155.36167781143254L24.317610535053902,-124.49940923954729L23.29724277721601,-121.50433644407887zM140.50404374028463,-163.29270221330032L20.157016080465347,-127.94853228219L140.61649983469098,-162.59011486492787zM142.08673069488788,-153.40458828661477L23.29724277721601,-121.50433644407887L20.361645133257216,-118.6782749311119zM142.2017352955498,-152.68607659856136L20.361645133257216,-118.6782749311119L16.30307879929071,-116.79169242326054zM140.61649983469098,-162.59011486492787L23.161680815670138,-126.85537366562946L140.924655129338,-160.6648556699879zM149.4235959294677,-107.5662050211675L-178.50820586141253,-56.036916547894805L-185.80694941489165,-15.759525066268727zM140.924655129338,-160.6648556699879L24.317610535053902,-124.49940923954729L141.3477920689688,-158.0212281797174zM24.317610535053902,-124.49940923954729L141.7734779503755,-155.36167781143254L141.3477920689688,-158.0212281797174zM-50.27168767521567,-97.42704232769958L142.59624169109307,-150.22132775740042L142.26331979711452,-152.30131647659664zM-52.90590316507028,-94.60289560913431L142.85126029338264,-148.62804518076553L142.59624169109307,-150.22132775740042zM23.29724277721601,-121.50433644407887L142.08673069488788,-153.40458828661477L141.7734779503755,-155.36167781143254zM-56.197792627074755,-92.07970841079445L143.01144155393524,-147.6272842690221L142.85126029338264,-148.62804518076553zM-59.9349424809542,-90.02243133404518L143.06605902579545,-147.28605190047057L143.01144155393524,-147.6272842690221zM20.361645133257216,-118.6782749311119L142.2017352955498,-152.68607659856136L142.08673069488788,-153.40458828661477zM16.30307879929071,-116.79169242326054L142.26331979711452,-152.30131647659664L142.2017352955498,-152.68607659856136zM100.00206903464523,-93.21186070571991L-185.80694941489165,-15.759525066268727L-185.9524673049081,-14.956499573844336zM96.96875966373851,-90.13705036149577L-185.9524673049081,-14.956499573844336L-186.35119395957852,-12.756165667294926zM-178.50820586141253,-56.036916547894805L149.4235959294677,-107.5662050211675L143.06605902579545,-147.28605190047057zM96.07745606359093,-86.8116030030033L-186.35119395957852,-12.756165667294926L-186.89863614863657,-9.735161417081668zM-81.51964258734183,-60.13915411694764L-1.0947994354424266,-22.0028955725375L-1.0298058482463124,-82.50334858691849zM-81.51964258734183,-60.13915411694764L-1.0947994354424266,-22.0028955725375L-1.0298058482463124,-82.50334858691849zM97.582371064267,-84.11931892195733L-186.89863614863657,-9.735161417081668L-187.4493040600056,-6.696354276584153zM101.10153872894026,-82.79014991377782L-187.4493040600056,-6.696354276584153L-187.85448279079515,-4.4604162608489935z" style="fill:rgb(83,212,212)"/><path d="M-1.0947994354424266,-22.0028955725375L1.9491456222416965,-76.26887476144593L-1.0298058482463124,-82.50334858691849zM-1.0947994354424266,-22.0028955725375L1.9491456222416965,-76.26887476144593L-1.0298058482463124,-82.50334858691849z" style="fill:rgb(247,158,158)"/><path d="M-188.00322666315526,-3.6395874743911127L101.10153872894026,-82.79014991377782L-187.85448279079515,-4.4604162608489935zM-90.76122445943199,51.070663475541295L-174.08361495751183,-73.52230518607793L-201.48761973136791,78.79508192772745zM-90.76122445943199,51.070663475541295L-174.08361495751183,-73.52230518607793L-201.48761973136791,78.79508192772745z" style="fill:rgb(83,212,212)"/><path d="M-66.90784515751757,88.76245017687378L-78.11100059605643,-101.15750125273475L-90.76122445943199,51.070663475541295zM-66.90784515751757,88.76245017687378L-78.11100059605643,-101.15750125273475L-90.76122445943199,51.070663475541295z" style="fill:rgb(247,158,158)"/><path d="M-1.0947994354424266,-22.0028955725375L-81.51964258734183,-60.13915411694764L-86.55585932561199,0.4648349508809886zM-1.0947994354424266,-22.0028955725375L-81.51964258734183,-60.13915411694764L-86.55585932561199,0.4648349508809886zM-1.0409290442684316,-72.14911671339496L46.96011293412803,-46.21655525401609L45.136049211947565,-84.86129319948606zM-1.0409290442684316,-72.14911671339496L46.96011293412803,-46.21655525401609L45.136049211947565,-84.86129319948606zM-185.80694941489165,-15.759525066268727L100.00206903464523,-93.21186070571991L104.37019835231,-95.22782282646871zM-185.9524673049081,-14.956499573844336L96.96875966373851,-90.13705036149577L100.00206903464523,-93.21186070571991z" style="fill:rgb(83,212,212)"/><path d="M46.96011293412803,-46.21655525401609L47.91942269623903,-78.47496770064652L45.136049211947565,-84.86129319948606zM46.96011293412803,-46.21655525401609L47.91942269623903,-78.47496770064652L45.136049211947565,-84.86129319948606z" style="fill:rgb(247,158,158)"/><path d="M-186.35119395957852,-12.756165667294926L96.07745606359093,-86.8116030030033L96.96875966373851,-90.13705036149577z" style="fill:rgb(83,212,212)"/><path d="M1.9491456222416965,-76.26887476144593L-1.0947994354424266,-22.0028955725375L2.0714358966741058,-15.733887643615434zM1.9491456222416965,-76.26887476144593L-1.0947994354424266,-22.0028955725375L2.0714358966741058,-15.733887643615434z" style="fill:rgb(247,158,158)"/><path d="M-186.89863614863657,-9.735161417081668L97.582371064267,-84.11931892195733L96.07745606359093,-86.8116030030033zM46.96011293412803,-46.21655525401609L-1.0409290442684316,-72.14911671339496L-1.0825019441728747,-33.45023276525098zM46.96011293412803,-46.21655525401609L-1.0409290442684316,-72.14911671339496L-1.0825019441728747,-33.45023276525098zM-187.4493040600056,-6.696354276584153L101.10153872894026,-82.79014991377782L97.582371064267,-84.11931892195733zM101.10153872894026,-82.79014991377782L-188.00322666315526,-3.6395874743911127L105.69778094739749,-83.19617367884193z" style="fill:rgb(83,212,212)"/><path d="M47.91942269623903,-78.47496770064652L46.96011293412803,-46.21655525401609L49.84454894180513,-39.80157064171095zM47.91942269623903,-78.47496770064652L46.96011293412803,-46.21655525401609L49.84454894180513,-39.80157064171095z" style="fill:rgb(247,158,158)"/><path d="M-82.96295805395216,6.472516533597592L-1.0947994354424266,-22.0028955725375L-86.55585932561199,0.4648349508809886zM-82.96295805395216,6.472516533597592L-1.0947994354424266,-22.0028955725375L-86.55585932561199,0.4648349508809886z" style="fill:rgb(127,37,217)"/><path d="M166.31672617105843,-2.023371559578324L139.4000808465284,-177.08901247446795L137.22743344038463,-183.76390153282784z" style="fill:rgb(247,158,158)"/><path d="M-1.0947994354424266,-22.0028955725375L-82.96295805395216,6.472516533597592L2.0714358966741058,-15.733887643615434zM-1.0947994354424266,-22.0028955725375L-82.96295805395216,6.472516533597592L2.0714358966741058,-15.733887643615434zM2.0483038163854856,-27.184509176058455L46.96011293412803,-46.21655525401609L-1.0825019441728747,-33.45023276525098zM2.0483038163854856,-27.184509176058455L46.96011293412803,-46.21655525401609L-1.0825019441728747,-33.45023276525098z" style="fill:rgb(127,37,217)"/><path d="M104.37019835231,-95.22782282646871L102.55918309438724,-86.55747627055302L106.90228157492338,-88.56007642340862z" style="fill:rgb(158,48,222)"/><path d="M-90.76122445943199,51.070663475541295L-174.17713374501886,114.44427946372822L-66.90784515751757,88.76245017687378zM-90.76122445943199,51.070663475541295L-174.17713374501886,114.44427946372822L-66.90784515751757,88.76245017687378z" style="fill:rgb(127,37,217)"/><path d="M102.55918309438724,-86.55747627055302L96.96875966373851,-90.13705036149577L99.54754744673886,-83.49070503676968z" style="fill:rgb(212,85,213)"/><path d="M108.9237001006965,-95.65339022880006L106.90228157492338,-88.56007642340862L111.43385348868148,-88.97042407385976z" style="fill:rgb(96,32,206)"/><path d="M46.96011293412803,-46.21655525401609L2.0483038163854856,-27.184509176058455L49.84454894180513,-39.80157064171095zM46.96011293412803,-46.21655525401609L2.0483038163854856,-27.184509176058455L49.84454894180513,-39.80157064171095z" style="fill:rgb(127,37,217)"/><path d="M102.55918309438724,-86.55747627055302L104.37019835231,-95.22782282646871L100.00206903464523,-93.21186070571991z" style="fill:rgb(158,48,222)"/><path d="M96.96875966373851,-90.13705036149577L102.55918309438724,-86.55747627055302L100.00206903464523,-93.21186070571991z" style="fill:rgb(212,85,213)"/><path d="M106.90228157492338,-88.56007642340862L108.9237001006965,-95.65339022880006L104.37019835231,-95.22782282646871z" style="fill:rgb(96,32,206)"/><path d="M114.95510799689053,-87.67152904451825L108.9237001006965,-95.65339022880006L111.43385348868148,-88.97042407385976z" style="fill:rgb(42,41,169)"/><path d="M99.54754744673886,-83.49070503676968L96.07745606359093,-86.8116030030033L98.66882720796356,-80.16591959499698z" style="fill:rgb(243,133,180)"/><path d="M-174.17713374501886,114.44427946372822L-90.76122445943199,51.070663475541295L-201.48761973136791,78.79508192772745zM-174.17713374501886,114.44427946372822L-90.76122445943199,51.070663475541295L-201.48761973136791,78.79508192772745z" style="fill:rgb(127,37,217)"/><path d="M96.07745606359093,-86.8116030030033L99.54754744673886,-83.49070503676968L96.96875966373851,-90.13705036149577z" style="fill:rgb(243,133,180)"/><path d="M108.9237001006965,-95.65339022880006L114.95510799689053,-87.67152904451825L112.4580530179767,-94.36751157876928z" style="fill:rgb(42,41,169)"/><path d="M116.51730242158673,-84.99579409064671L112.4580530179767,-94.36751157876928L114.95510799689053,-87.67152904451825z" style="fill:rgb(11,74,121)"/><path d="M159.5523864758895,-44.284798765690304L-188.00322666315526,-3.6395874743911127L-197.3333119784761,47.847559445079526zM108.9237001006965,-95.65339022880006L149.4235959294677,-107.5662050211675L104.37019835231,-95.22782282646871z" style="fill:rgb(83,212,212)"/><path d="M112.4580530179767,-94.36751157876928L116.51730242158673,-84.99579409064671L114.02091095485265,-91.69900242140008z" style="fill:rgb(11,74,121)"/><path d="M112.4580530179767,-94.36751157876928L149.55078936264624,-106.77154142366496L108.9237001006965,-95.65339022880006zM13.689935709886386,-5.718669584544365L-197.3333119784761,47.847559445079526L-197.4974516546765,48.75335228376363zM10.389332179879137,-2.372901914485204L-197.4974516546765,48.75335228376363L-197.94728566859925,51.235712195735516zM149.4235959294677,-107.5662050211675L108.9237001006965,-95.65339022880006L149.55078936264624,-106.77154142366496zM114.02091095485265,-91.69900242140008L149.89939608908566,-104.59356783634324L112.4580530179767,-94.36751157876928zM149.55078936264624,-106.77154142366496L112.4580530179767,-94.36751157876928L149.89939608908566,-104.59356783634324zM9.2007215813122,1.3587777436348547L-197.94728566859925,51.235712195735516L-198.56509269720306,54.64501884357972zM-188.00322666315526,-3.6395874743911127L159.5523864758895,-44.284798765690304L105.69778094739749,-83.19617367884193z" style="fill:rgb(83,212,212)"/><path d="M12.857660566913234,43.1991253296649L10.99891219332435,-113.55336138619654L12.43729530603641,7.748765262433017z" style="fill:rgb(0,127,127)"/><path d="M149.89939608908566,-104.59356783634324L114.02091095485265,-91.69900242140008L150.37823475371422,-101.60192916640216zM150.86014373046393,-98.59112611729412L114.02091095485265,-91.69900242140008L113.17235669474762,-88.35401226104094zM10.45793167384653,4.485798493287247L-198.56509269720306,54.64501884357972L-199.18676655367406,58.075668592636674zM114.02091095485265,-91.69900242140008L150.86014373046393,-98.59112611729412L150.37823475371422,-101.60192916640216zM151.21488738632098,-96.3747930299466L113.17235669474762,-88.35401226104094L110.12386440063825,-85.23590249864452zM151.34515002015485,-95.56095405543547L110.12386440063825,-85.23590249864452L105.69778094739749,-83.19617367884193zM13.847010405089838,6.161213651513414L-199.18676655367406,58.075668592636674L-199.64433864240831,60.60073026363764zM113.17235669474762,-88.35401226104094L151.21488738632098,-96.3747930299466L150.86014373046393,-98.59112611729412zM18.467401612403158,5.9175073964070375L-199.64433864240831,60.60073026363764L-199.8123470406607,61.52786790133963zM110.12386440063825,-85.23590249864452L151.34515002015485,-95.56095405543547L151.21488738632098,-96.3747930299466zM-197.3333119784761,47.847559445079526L13.689935709886386,-5.718669584544365L18.225448878817843,-7.800332138236069zM-197.4974516546765,48.75335228376363L10.389332179879137,-2.372901914485204L13.689935709886386,-5.718669584544365zM-197.94728566859925,51.235712195735516L9.2007215813122,1.3587777436348547L10.389332179879137,-2.372901914485204zM-198.56509269720306,54.64501884357972L10.45793167384653,4.485798493287247L9.2007215813122,1.3587777436348547zM-199.18676655367406,58.075668592636674L13.847010405089838,6.161213651513414L10.45793167384653,4.485798493287247zM-199.64433864240831,60.60073026363764L18.467401612403158,5.9175073964070375L13.847010405089838,6.161213651513414zM105.69778094739749,-83.19617367884193L159.5523864758895,-44.284798765690304L151.34515002015485,-95.56095405543547z" style="fill:rgb(83,212,212)"/><path d="M18.225448878817843,-7.800332138236069L16.88441381650268,0.6856893852521644L21.39295341097647,-1.381696788715935z" style="fill:rgb(158,48,222)"/><path d="M16.88441381650268,0.6856893852521644L10.389332179879137,-2.372901914485204L13.609042686398455,4.021020982278225z" style="fill:rgb(212,85,213)"/><path d="M22.803196998004797,-8.06927265774378L21.39295341097647,-1.381696788715935L25.948944622969535,-1.636219883428074z" style="fill:rgb(96,32,206)"/><path d="M16.88441381650268,0.6856893852521644L18.225448878817843,-7.800332138236069L13.689935709886386,-5.718669584544365z" style="fill:rgb(158,48,222)"/><path d="M10.389332179879137,-2.372901914485204L16.88441381650268,0.6856893852521644L13.689935709886386,-5.718669584544365z" style="fill:rgb(212,85,213)"/><path d="M21.39295341097647,-1.381696788715935L22.803196998004797,-8.06927265774378L18.225448878817843,-7.800332138236069z" style="fill:rgb(96,32,206)"/><path d="M29.347046155987105,-0.000643500511087492L22.803196998004797,-8.06927265774378L25.948944622969535,-1.636219883428074z" style="fill:rgb(42,41,169)"/><path d="M13.609042686398455,4.021020982278225L9.2007215813122,1.3587777436348547L12.43729530603641,7.748765262433017zM9.2007215813122,1.3587777436348547L13.609042686398455,4.021020982278225L10.389332179879137,-2.372901914485204z" style="fill:rgb(243,133,180)"/><path d="M9.2007215813122,1.3587777436348547L13.698347539353229,10.879393910294278L12.43729530603641,7.748765262433017z" style="fill:rgb(243,180,133)"/><path d="M22.803196998004797,-8.06927265774378L29.347046155987105,-0.000643500511087492L26.212144444518113,-6.444385674389118z" style="fill:rgb(42,41,169)"/><path d="M13.698347539353229,10.879393910294278L9.2007215813122,1.3587777436348547L10.45793167384653,4.485798493287247z" style="fill:rgb(243,180,133)"/><path d="M166.31672617105843,-2.023371559578324L-199.8123470406607,61.52786790133963L-204.9620930203257,89.94622443594172z" style="fill:rgb(83,212,212)"/><path d="M139.4000808465284,-177.08901247446795L166.31672617105843,-2.023371559578324L168.75505551385996,4.858592411953359z" style="fill:rgb(247,158,158)"/><path d="M22.803196998004797,-8.06927265774378L159.5523864758895,-44.284798765690304L18.225448878817843,-7.800332138236069z" style="fill:rgb(83,212,212)"/><path d="M-200.50337113867369,95.67194153185794L166.31672617105843,-2.023371559578324L-204.9620930203257,89.94622443594172z" style="fill:rgb(127,37,217)"/><path d="M26.212144444518113,-6.444385674389118L159.69741652414749,-43.37869775588274L22.803196998004797,-8.06927265774378zM-199.8123470406607,61.52786790133963L166.31672617105843,-2.023371559578324L18.467401612403158,5.9175073964070375zM27.53186659396524,-3.3426586202181428L160.09499201792474,-40.89475985209406L26.212144444518113,-6.444385674389118zM161.19135663111186,-34.045034134300124L27.53186659396524,-3.3426586202181428L26.385899549577257,0.41425388088119164zM159.5523864758895,-44.284798765690304L22.803196998004797,-8.06927265774378L159.69741652414749,-43.37869775588274zM161.59641783553116,-31.514347050185666L26.385899549577257,0.41425388088119164L23.065428848234053,3.810550646267135zM161.74518938930902,-30.584867905019745L23.065428848234053,3.810550646267135L18.467401612403158,5.9175073964070375zM159.69741652414749,-43.37869775588274L26.212144444518113,-6.444385674389118L160.09499201792474,-40.89475985209406zM160.09499201792474,-40.89475985209406L27.53186659396524,-3.3426586202181428L160.64130369515883,-37.481582872652105zM27.53186659396524,-3.3426586202181428L161.19135663111186,-34.045034134300124L160.64130369515883,-37.481582872652105zM26.385899549577257,0.41425388088119164L161.59641783553116,-31.514347050185666L161.19135663111186,-34.045034134300124zM23.065428848234053,3.810550646267135L161.74518938930902,-30.584867905019745L161.59641783553116,-31.514347050185666z" style="fill:rgb(83,212,212)"/><path d="M166.31672617105843,-2.023371559578324L-200.50337113867369,95.67194153185794L168.75505551385996,4.858592411953359z" style="fill:rgb(127,37,217)"/><path d="M18.467401612403158,5.9175073964070375L166.31672617105843,-2.023371559578324L161.74518938930902,-30.584867905019745z" style="fill:rgb(83,212,212)"/></svg>
