<?xml version="1.0" encoding="UTF-8"?>
<!-- Generated by jsxcad -->
<!DOCTYPE svg PUBLIC "-//W3C//DTD SVG 1.1 Tiny//EN" "http://www.w3.org/Graphics/SVG/1.1/DTD/svg11-tiny.dtd">
<svg viewBox="-250 -250 500 500" width="500" height="500" xmlns="http://www.w3.org/2000/svg"><path d="M-48.82969657032203,-59.917387102237115L1.0912272734263762,-34.48205759667566L1.0487569273157404,-73.66007544978409z" style="fill:rgb(83,212,212)"/><path d="M1.0912272734263762,-34.48205759667566L4.088070125936065,-67.32480347768536L1.0487569273157404,-73.66007544978409z" style="fill:rgb(247,158,158)"/><path d="M-170.89366673530597,-118.99304914845871L172.44526178258582,37.23785877715373L132.91355069070383,-209.96638659693681zM1.0912272734263762,-34.48205759667566L-48.82969657032203,-59.917387102237115L-50.781756777181265,-20.692074126091835z" style="fill:rgb(83,212,212)"/><path d="M4.088070125936065,-67.32480347768536L1.0912272734263762,-34.48205759667566L4.25264185625108,-28.123270194161687z" style="fill:rgb(247,158,158)"/><path d="M-47.35798149221759,-14.4947596691458L1.0912272734263762,-34.48205759667566L-50.781756777181265,-20.692074126091835z" style="fill:rgb(127,37,217)"/><path d="M132.91355069070383,-209.96638659693681L174.96775994587819,44.20498134684706L135.07259566850485,-203.26396218328478z" style="fill:rgb(247,158,158)"/><path d="M1.0912272734263762,-34.48205759667566L-47.35798149221759,-14.4947596691458L4.25264185625108,-28.123270194161687z" style="fill:rgb(127,37,217)"/><path d="M172.44526178258582,37.23785877715373L-170.89366673530597,-118.99304914845871L-217.02936590698667,129.95016853638083z" style="fill:rgb(83,212,212)"/><path d="M174.96775994587819,44.20498134684706L132.91355069070383,-209.96638659693681L172.44526178258582,37.23785877715373z" style="fill:rgb(247,158,158)"/><path d="M-212.28422196378023,135.6939941263748L172.44526178258582,37.23785877715373L-217.02936590698667,129.95016853638083zM172.44526178258582,37.23785877715373L-212.28422196378023,135.6939941263748L174.96775994587819,44.20498134684706z" style="fill:rgb(127,37,217)"/></svg>
