<?xml version="1.0" encoding="UTF-8"?>
<!-- Generated by jsxcad -->
<!DOCTYPE svg PUBLIC "-//W3C//DTD SVG 1.1 Tiny//EN" "http://www.w3.org/Graphics/SVG/1.1/DTD/svg11-tiny.dtd">
<svg viewBox="-250 -250 500 500" width="500" height="500" xmlns="http://www.w3.org/2000/svg"><path d="M-162.52253042948746,-105.25103003488744L44.85867150070843,-115.0047887235179L42.400367718501,-165.75671954069225z" style="fill:rgb(83,212,212)"/><path d="M-99.13875594547181,-83.38657886179766L-99.3834577455313,-75.46699417935903L-95.82185208429516,-77.51239785423168z" style="fill:rgb(175,57,222)"/><path d="M-95.35902377850472,-84.87122740339113L-95.82185208429516,-77.51239785423168L-92.06019058233308,-78.98632066691417z" style="fill:rgb(146,43,221)"/><path d="M-99.3834577455313,-75.46699417935903L-105.88476678182782,-78.83122997086494L-102.52865203502525,-72.97388300094379z" style="fill:rgb(200,75,217)"/><path d="M-91.60994383941926,-85.69469544401856L-92.06019058233308,-78.98632066691417L-88.32672028344611,-79.7983433780761z" style="fill:rgb(116,34,214)"/><path d="M-99.3834577455313,-75.46699417935903L-99.13875594547181,-83.38657886179766L-102.71983612845032,-81.3318070630429z" style="fill:rgb(175,57,222)"/><path d="M-95.82185208429516,-77.51239785423168L-95.35902377850472,-84.87122740339113L-99.13875594547181,-83.38657886179766z" style="fill:rgb(146,43,221)"/><path d="M-102.52865203502525,-72.97388300094379L-108.43972117842934,-76.03579826850462L-105.06478269642186,-70.18358743645072z" style="fill:rgb(222,96,207)"/><path d="M-105.88476678182782,-78.83122997086494L-99.3834577455313,-75.46699417935903L-102.71983612845032,-81.3318070630429z" style="fill:rgb(200,75,217)"/><path d="M-92.06019058233308,-78.98632066691417L-91.60994383941926,-85.69469544401856L-95.35902377850472,-84.87122740339113z" style="fill:rgb(116,34,214)"/><path d="M-88.12020865959863,-85.80441984594067L-88.32672028344611,-79.7983433780761L-84.84920911501013,-79.89660248388043z" style="fill:rgb(86,32,201)"/><path d="M-108.43972117842934,-76.03579826850462L-102.52865203502525,-72.97388300094379L-105.88476678182782,-78.83122997086494z" style="fill:rgb(222,96,207)"/><path d="M-88.32672028344611,-79.7983433780761L-88.12020865959863,-85.80441984594067L-91.60994383941926,-85.69469544401856z" style="fill:rgb(86,32,201)"/><path d="M-105.06478269642186,-70.18358743645072L-110.22547998901288,-73.1150955954274L-106.83377941534636,-67.26539758599496z" style="fill:rgb(237,120,191)"/><path d="M-81.84226713600599,-79.27118711010331L-88.12020865959863,-85.80441984594067L-84.84920911501013,-79.89660248388043z" style="fill:rgb(60,35,184)"/><path d="M-110.22547998901288,-73.1150955954274L-105.06478269642186,-70.18358743645072L-108.43972117842934,-76.03579826850462z" style="fill:rgb(237,120,191)"/><path d="M-106.83377941534636,-67.26539758599496L-111.1271123441546,-70.24813486132533L-107.72177113916564,-64.39818235636882z" style="fill:rgb(245,143,172)"/><path d="M-79.4948650013223,-77.95566738261729L-85.10518354457538,-85.18976719216582L-81.84226713600599,-79.27118711010331z" style="fill:rgb(37,44,163)"/><path d="M-88.12020865959863,-85.80441984594067L-81.84226713600599,-79.27118711010331L-85.10518354457538,-85.18976719216582z" style="fill:rgb(60,35,184)"/><path d="M-111.1271123441546,-70.24813486132533L-106.83377941534636,-67.26539758599496L-110.22547998901288,-73.1150955954274z" style="fill:rgb(245,143,172)"/><path d="M-111.1271123441546,-70.24813486132533L-107.66683805218315,-61.76027185845648L-107.72177113916564,-64.39818235636882z" style="fill:rgb(246,166,149)"/><path d="M-85.10518354457538,-85.18976719216582L-79.4948650013223,-77.95566738261729L-82.75434421341532,-83.88360785593186z" style="fill:rgb(37,44,163)"/><path d="M-77.95845090955376,-76.0263684637588L-82.75434421341532,-83.88360785593186L-79.4948650013223,-77.95566738261729z" style="fill:rgb(20,59,140)"/><path d="M45.006791561681624,-166.52629872509453L49.95261907424168,-123.60376284300446L47.574489927928305,-167.2844444297405zM49.95261907424168,-123.60376284300446L50.79036872313949,-168.23396423134346L47.574489927928305,-167.2844444297405zM42.400367718501,-165.75671954069225L45.6232117566413,-117.90040910637305L43.24592590429839,-166.00638373787015zM50.79036872313949,-168.23396423134346L57.0317725010462,-128.06082640563105L54.454873637549056,-169.315946763351z" style="fill:rgb(83,212,212)"/><path d="M-107.66683805218315,-61.76027185845648L-111.1271123441546,-70.24813486132533L-111.08179520218556,-67.61325777538562z" style="fill:rgb(246,166,149)"/><path d="M45.6232117566413,-117.90040910637305L45.006791561681624,-166.52629872509453L43.24592590429839,-166.00638373787015z" style="fill:rgb(83,212,212)"/><path d="M-111.08179520218556,-67.61325777538562L-106.66438777268706,-59.51874192492751L-107.66683805218315,-61.76027185845648z" style="fill:rgb(240,187,125)"/><path d="M57.0317725010462,-128.06082640563105L58.339492296949466,-170.46292170599347L54.454873637549056,-169.315946763351z" style="fill:rgb(83,212,212)"/><path d="M-82.75434421341532,-83.88360785593186L-77.95845090955376,-76.0263684637588L-81.21943487120923,-81.9616392312047z" style="fill:rgb(20,59,140)"/><path d="M61.086203736241806,-129.4712234178951L62.20066747465838,-171.6029676980375L58.339492296949466,-170.46292170599347zM65.16178107825932,-130.20905907458445L65.79497085250011,-172.6642226203659L62.20066747465838,-171.6029676980375z" style="fill:rgb(83,212,212)"/><path d="M-106.66438777268706,-59.51874192492751L-111.08179520218556,-67.61325777538562L-110.08425701262078,-65.37735783435579z" style="fill:rgb(240,187,125)"/><path d="M65.79497085250011,-172.6642226203659L72.39367082270319,-129.51802833858574L68.89458041088095,-173.57941754388227zM68.89458041088095,-173.57941754388227L75.09975211593853,-128.12194268924182L71.30210726441454,-174.29026862436749zM75.09975211593853,-128.12194268924182L72.86362267049874,-174.75133019425772L71.30210726441454,-174.29026862436749zM76.95370018340844,-126.11935298762309L73.47902166969172,-174.9330315767958L72.86362267049874,-174.75133019425772zM77.83103285645483,-123.63075446928971L138.05667293001684,-194.0002774264247L73.47902166969172,-174.9330315767958zM57.0317725010462,-128.06082640563105L50.79036872313949,-168.23396423134346L53.24406754901616,-126.06471427545502zM50.79036872313949,-168.23396423134346L49.95261907424168,-123.60376284300446L53.24406754901616,-126.06471427545502zM49.95261907424168,-123.60376284300446L45.006791561681624,-166.52629872509453L47.35853220542981,-120.82631069960117zM58.339492296949466,-170.46292170599347L57.0317725010462,-128.06082640563105L61.086203736241806,-129.4712234178951zM62.20066747465838,-171.6029676980375L61.086203736241806,-129.4712234178951L65.16178107825932,-130.20905907458445zM45.006791561681624,-166.52629872509453L45.6232117566413,-117.90040910637305L47.35853220542981,-120.82631069960117zM45.6232117566413,-117.90040910637305L42.400367718501,-165.75671954069225L44.85867150070843,-115.0047887235179zM65.79497085250011,-172.6642226203659L65.16178107825932,-130.20905907458445L69.01010359598465,-130.22648584529756zM72.39367082270319,-129.51802833858574L65.79497085250011,-172.6642226203659L69.01010359598465,-130.22648584529756zM75.09975211593853,-128.12194268924182L68.89458041088095,-173.57941754388227L72.39367082270319,-129.51802833858574zM72.86362267049874,-174.75133019425772L75.09975211593853,-128.12194268924182L76.95370018340844,-126.11935298762309zM73.47902166969172,-174.9330315767958L76.95370018340844,-126.11935298762309L77.83103285645483,-123.63075446928971z" style="fill:rgb(83,212,212)"/><path d="M57.0317725010462,-128.06082640563105L55.86411629476491,-119.72857945556929L59.63113875660164,-121.71417186859408z" style="fill:rgb(168,53,222)"/><path d="M61.086203736241806,-129.4712234178951L59.63113875660164,-121.71417186859408L63.665408711802904,-123.11237991648417z" style="fill:rgb(138,40,220)"/><path d="M55.86411629476491,-119.72857945556929L49.95261907424168,-123.60376284300446L52.59266424678341,-117.27586556059504z" style="fill:rgb(194,70,219)"/><path d="M65.16178107825932,-130.20905907458445L63.665408711802904,-123.11237991648417L67.72252558133785,-123.83708457739749z" style="fill:rgb(108,33,211)"/><path d="M55.86411629476491,-119.72857945556929L57.0317725010462,-128.06082640563105L53.24406754901616,-126.06471427545502z" style="fill:rgb(168,53,222)"/><path d="M52.59266424678341,-117.27586556059504L47.35853220542981,-120.82631069960117L50.016702379230566,-114.50389704107553z" style="fill:rgb(217,91,210)"/><path d="M59.63113875660164,-121.71417186859408L61.086203736241806,-129.4712234178951L57.0317725010462,-128.06082640563105z" style="fill:rgb(138,40,220)"/><path d="M49.95261907424168,-123.60376284300446L55.86411629476491,-119.72857945556929L53.24406754901616,-126.06471427545502z" style="fill:rgb(194,70,219)"/><path d="M63.665408711802904,-123.11237991648417L65.16178107825932,-130.20905907458445L61.086203736241806,-129.4712234178951z" style="fill:rgb(108,33,211)"/><path d="M47.35853220542981,-120.82631069960117L52.59266424678341,-117.27586556059504L49.95261907424168,-123.60376284300446z" style="fill:rgb(217,91,210)"/><path d="M69.01010359598465,-130.22648584529756L67.72252558133785,-123.83708457739749L71.55516755682459,-123.84124319966534z" style="fill:rgb(79,32,198)"/><path d="M50.016702379230566,-114.50389704107553L45.6232117566413,-117.90040910637305L48.296533950026074,-111.5804137828966z" style="fill:rgb(234,114,195)"/><path d="M67.72252558133785,-123.83708457739749L69.01010359598465,-130.22648584529756L65.16178107825932,-130.20905907458445z" style="fill:rgb(79,32,198)"/><path d="M45.6232117566413,-117.90040910637305L50.016702379230566,-114.50389704107553L47.35853220542981,-120.82631069960117z" style="fill:rgb(234,114,195)"/><path d="M74.92680156379413,-123.12021731567317L69.01010359598465,-130.22648584529756L71.55516755682459,-123.84124319966534z" style="fill:rgb(54,37,179)"/><path d="M48.296533950026074,-111.5804137828966L44.85867150070843,-115.0047887235179L47.54319910006334,-108.68400622131894zM44.85867150070843,-115.0047887235179L48.296533950026074,-111.5804137828966L45.6232117566413,-117.90040910637305z" style="fill:rgb(244,137,177)"/><path d="M69.01010359598465,-130.22648584529756L74.92680156379413,-123.12021731567317L72.39367082270319,-129.51802833858574z" style="fill:rgb(54,37,179)"/><path d="M77.62546001487094,-121.7130800990411L72.39367082270319,-129.51802833858574L74.92680156379413,-123.12021731567317z" style="fill:rgb(32,47,158)"/><path d="M44.85867150070843,-115.0047887235179L47.810811028258186,-105.99415453151298L47.54319910006334,-108.68400622131894z" style="fill:rgb(247,161,155)"/><path d="M72.39367082270319,-129.51802833858574L77.62546001487094,-121.7130800990411L75.09975211593853,-128.12194268924182z" style="fill:rgb(32,47,158)"/><path d="M79.4770226789628,-119.70169406475364L75.09975211593853,-128.12194268924182L77.62546001487094,-121.7130800990411z" style="fill:rgb(17,63,135)"/><path d="M47.810811028258186,-105.99415453151298L44.85867150070843,-115.0047887235179L45.119786207442736,-112.31889200940873z" style="fill:rgb(247,161,155)"/><path d="M75.09975211593853,-128.12194268924182L79.4770226789628,-119.70169406475364L76.95370018340844,-126.11935298762309z" style="fill:rgb(17,63,135)"/><path d="M-41.014409089990856,-45.1997338831266L8.616363789738138,-19.346192657937998L8.285552690157473,-58.57538872698625zM-162.52253042948746,-105.25103003488744L54.43929166883255,82.78811111069878L44.85867150070843,-115.0047887235179z" style="fill:rgb(83,212,212)"/><path d="M8.616363789738138,-19.346192657937998L11.243426718892708,-52.40986817214041L8.285552690157473,-58.57538872698625z" style="fill:rgb(247,158,158)"/><path d="M8.616363789738138,-19.346192657937998L-41.014409089990856,-45.1997338831266L-42.63126570482101,-5.939021183340614z" style="fill:rgb(83,212,212)"/><path d="M11.243426718892708,-52.40986817214041L8.616363789738138,-19.346192657937998L11.689718889359561,-13.164527029140267z" style="fill:rgb(247,158,158)"/><path d="M-39.30166458228541,0.08783148308542303L8.616363789738138,-19.346192657937998L-42.63126570482101,-5.939021183340614zM8.616363789738138,-19.346192657937998L-39.30166458228541,0.08783148308542303L11.689718889359561,-13.164527029140267z" style="fill:rgb(127,37,217)"/><path d="M178.44099419114352,53.798115526584375L140.16111692369296,-187.46732926065522L138.05667293001684,-194.0002774264247z" style="fill:rgb(247,158,158)"/><path d="M-112.50712509853948,36.258627411417656L-112.61448051659703,44.65138305405658L-108.70168753988266,42.157063025144325z" style="fill:rgb(181,61,221)"/><path d="M-108.29358257334951,34.46121252440626L-108.70168753988266,42.157063025144325L-104.51149935529307,40.372333414423366z" style="fill:rgb(153,46,222)"/><path d="M-104.05857508510181,33.482066338078226L-104.51149935529307,40.372333414423366L-100.29695281686386,39.40586085134584z" style="fill:rgb(123,36,216)"/><path d="M-112.61448051659703,44.65138305405658L-119.86816584514567,41.82947146883931L-116.01284876721712,47.70541458287756z" style="fill:rgb(206,80,215)"/><path d="M-108.70168753988266,42.157063025144325L-108.29358257334951,34.46121252440626L-112.50712509853948,36.258627411417656z" style="fill:rgb(153,46,222)"/><path d="M44.85867150070843,-115.0047887235179L54.59605013682555,82.7514676918251L45.119786207442736,-112.31889200940873z" style="fill:rgb(83,212,212)"/><path d="M-112.61448051659703,44.65138305405658L-112.50712509853948,36.258627411417656L-116.44481302529995,38.764901135202976z" style="fill:rgb(181,61,221)"/><path d="M-104.51149935529307,40.372333414423366L-104.05857508510181,33.482066338078226L-108.29358257334951,34.46121252440626z" style="fill:rgb(123,36,216)"/><path d="M-100.05894543298507,33.38341841759865L-100.29695281686386,39.40586085134584L-96.31369426932241,39.31909543846704z" style="fill:rgb(94,32,205)"/><path d="M-119.86816584514567,41.82947146883931L-112.61448051659703,44.65138305405658L-116.44481302529995,38.764901135202976z" style="fill:rgb(206,80,215)"/><path d="M-116.01284876721712,47.70541458287756L-122.56746666887256,45.268424661315336L-118.68856014702423,51.135838079861315z" style="fill:rgb(226,102,203)"/><path d="M-100.29695281686386,39.40586085134584L-100.05894543298507,33.38341841759865L-104.05857508510181,33.482066338078226z" style="fill:rgb(94,32,205)"/><path d="M45.119786207442736,-112.31889200940873L55.98889700363241,82.42583749529307L46.399230294133325,-110.0122793458731z" style="fill:rgb(83,212,212)"/><path d="M-122.56746666887256,45.268424661315336L-116.01284876721712,47.70541458287756L-119.86816584514567,41.82947146883931z" style="fill:rgb(226,102,203)"/><path d="M-96.54001980255498,34.1762624947612L-96.31369426932241,39.31909543846704L-92.80606246064795,40.122279258292075z" style="fill:rgb(66,34,189)"/><path d="M138.05667293001684,-194.0002774264247L77.83103285645483,-123.63075446928971L178.44099419114352,53.798115526584375z" style="fill:rgb(83,212,212)"/><path d="M-118.68856014702423,51.135838079861315L-124.37359371412852,48.873980834345154L-120.47393839204393,54.73535715402255z" style="fill:rgb(240,125,187)"/><path d="M55.98889700363241,82.42583749529307L48.6257197331785,-108.23377265364687L46.399230294133325,-110.0122793458731z" style="fill:rgb(83,212,212)"/><path d="M-96.31369426932241,39.31909543846704L-96.54001980255498,34.1762624947612L-100.05894543298507,33.38341841759865z" style="fill:rgb(66,34,189)"/><path d="M-124.37359371412852,48.873980834345154L-118.68856014702423,51.135838079861315L-122.56746666887256,45.268424661315336z" style="fill:rgb(240,125,187)"/><path d="M-89.99326984062363,41.77265923601686L-96.54001980255498,34.1762624947612L-92.80606246064795,40.122279258292075z" style="fill:rgb(42,41,169)"/><path d="M58.532689596873794,81.83113176923645L51.666239275809296,-107.10122256360579L48.6257197331785,-108.23377265364687z" style="fill:rgb(83,212,212)"/><path d="M-120.47393839204393,54.73535715402255L-125.16852904275322,52.42552930638244L-121.25229331092193,58.28371747295071zM-125.16852904275322,52.42552930638244L-120.47393839204393,54.73535715402255L-124.37359371412852,48.873980834345154z" style="fill:rgb(246,149,166)"/><path d="M-96.54001980255498,34.1762624947612L-89.99326984062363,41.77265923601686L-93.72173592888436,35.81854306904718z" style="fill:rgb(42,41,169)"/><path d="M-88.055944919591,44.17534632745136L-93.72173592888436,35.81854306904718L-89.99326984062363,41.77265923601686z" style="fill:rgb(24,55,146)"/><path d="M-125.16852904275322,52.42552930638244L-120.96623720737198,61.56007764473493L-121.25229331092193,58.28371747295071z" style="fill:rgb(245,172,143)"/><path d="M51.666239275809296,-107.10122256360579L66.38745035861301,79.99479068025349L55.332618385570115,-106.69258041632544zM77.66716540564451,-120.80978396960116L94.54628782753407,73.41161748095223L77.83103285645483,-123.63075446928971zM66.38745035861301,79.99479068025349L59.39259472864557,-107.03931905145845L55.332618385570115,-106.69258041632544zM54.43929166883255,82.78811111069878L-162.52253042948746,-105.25103003488744L-205.74059838231622,143.6148099286264zM76.46383051062325,-117.83431836737267L94.06747739897081,73.5235583489985L77.66716540564451,-120.80978396960116z" style="fill:rgb(83,212,212)"/><path d="M-93.72173592888436,35.81854306904718L-88.055944919591,44.17534632745136L-91.78513694700128,38.215939229851706z" style="fill:rgb(24,55,146)"/><path d="M-120.96623720737198,61.56007764473493L-125.16852904275322,52.42552930638244L-124.89377003920919,55.70201892110057z" style="fill:rgb(245,172,143)"/><path d="M59.39259472864557,-107.03931905145845L76.24820966139099,77.68947047616798L63.58483148162451,-108.12295988616822z" style="fill:rgb(83,212,212)"/><path d="M-124.89377003920919,55.70201892110057L-119.62335937293922,64.3563010052534L-120.96623720737198,61.56007764473493z" style="fill:rgb(237,191,119)"/><path d="M89.48982533423852,74.5937514002947L76.46383051062325,-117.83431836737267L74.29114373598482,-114.89514202132423zM85.68573399429941,75.48309882091222L74.29114373598482,-114.89514202132423L71.28459105787104,-112.18306419611253zM63.58483148162451,-108.12295988616822L81.17620735704666,76.53736857767517L67.63688416884996,-109.8753751647783zM67.63688416884996,-109.8753751647783L85.68573399429941,75.48309882091222L71.28459105787104,-112.18306419611253z" style="fill:rgb(83,212,212)"/><path d="M-119.62335937293922,64.3563010052534L-124.89377003920919,55.70201892110057L-123.55608136715857,58.4952604476957z" style="fill:rgb(237,191,119)"/><path d="M65.56972014571255,-9.890623198269358L64.09752797633107,-1.3794052527025473L68.4527554727522,-3.4477359667631884z" style="fill:rgb(160,49,222)"/><path d="M61.18811295645531,-7.808495239153888L60.245991321710214,1.3564409384128826L64.09752797633107,-1.3794052527025473z" style="fill:rgb(188,65,220)"/><path d="M70.19157491171157,-11.18081018894259L68.4527554727522,-3.4477359667631884L73.04919327376456,-4.723463563399011z" style="fill:rgb(131,38,218)"/><path d="M60.245991321710214,1.3564409384128826L54.17293032744985,-1.8107093636672846L57.131908872529806,4.595876968369559z" style="fill:rgb(212,85,213)"/><path d="M64.09752797633107,-1.3794052527025473L65.56972014571255,-9.890623198269358L61.18811295645531,-7.808495239153888z" style="fill:rgb(160,49,222)"/><path d="M74.77481177152328,-11.598625322479997L73.04919327376456,-4.723463563399011L77.60943686644475,-5.127026472088671z" style="fill:rgb(101,32,208)"/><path d="M60.245991321710214,1.3564409384128826L61.18811295645531,-7.808495239153888L57.31076019074388,-5.060316124623886z" style="fill:rgb(188,65,220)"/><path d="M68.4527554727522,-3.4477359667631884L70.19157491171157,-11.18081018894259L65.56972014571255,-9.890623198269358z" style="fill:rgb(131,38,218)"/><path d="M54.17293032744985,-1.8107093636672846L60.245991321710214,1.3564409384128826L57.31076019074388,-5.060316124623886z" style="fill:rgb(212,85,213)"/><path d="M57.131908872529806,4.595876968369559L51.96839046144057,1.745385794201016L54.9476044073393,8.14453407159391z" style="fill:rgb(230,108,199)"/><path d="M73.04919327376456,-4.723463563399011L74.77481177152328,-11.598625322479997L70.19157491171157,-11.18081018894259z" style="fill:rgb(101,32,208)"/><path d="M79.04043928840812,-11.113980739410833L77.60943686644475,-5.127026472088671L81.85586038993361,-4.629226647197156z" style="fill:rgb(73,33,193)"/><path d="M51.96839046144057,1.745385794201016L57.131908872529806,4.595876968369559L54.17293032744985,-1.8107093636672846z" style="fill:rgb(230,108,199)"/><path d="M77.60943686644475,-5.127026472088671L79.04043928840812,-11.113980739410833L74.77481177152328,-11.598625322479997z" style="fill:rgb(73,33,193)"/><path d="M54.9476044073393,8.14453407159391L50.83806397871397,5.392743981797445L53.83274009762731,11.787608818326262z" style="fill:rgb(242,131,182)"/><path d="M85.5258866668253,-3.2539524371202626L79.04043928840812,-11.113980739410833L81.85586038993361,-4.629226647197156z" style="fill:rgb(48,39,174)"/><path d="M50.83806397871397,5.392743981797445L54.9476044073393,8.14453407159391L51.96839046144057,1.745385794201016z" style="fill:rgb(242,131,182)"/><path d="M53.83274009762731,11.787608818326262L50.86068357151115,8.907370834207757L53.865007905386406,15.301365295595257z" style="fill:rgb(247,155,161)"/><path d="M79.04043928840812,-11.113980739410833L85.5258866668253,-3.2539524371202626L82.7247200548467,-9.7499014081951z" style="fill:rgb(48,39,174)"/><path d="M88.38738799814382,-1.0784356257170746L82.7247200548467,-9.7499014081951L85.5258866668253,-3.2539524371202626z" style="fill:rgb(28,51,152)"/><path d="M50.86068357151115,8.907370834207757L53.83274009762731,11.787608818326262L50.83806397871397,5.392743981797445z" style="fill:rgb(247,155,161)"/><path d="M50.86068357151115,8.907370834207757L55.05343602838338,18.465888497436858L53.865007905386406,15.301365295595257z" style="fill:rgb(244,177,137)"/><path d="M82.7247200548467,-9.7499014081951L88.38738799814382,-1.0784356257170746L85.59456818796077,-7.582854930215617z" style="fill:rgb(28,51,152)"/><path d="M90.2535859678214,1.7693757855365009L85.59456818796077,-7.582854930215617L88.38738799814382,-1.0784356257170746z" style="fill:rgb(14,67,129)"/><path d="M55.05343602838338,18.465888497436858L50.86068357151115,8.907370834207757L52.04601239952146,12.06926965616818z" style="fill:rgb(244,177,137)"/><path d="M85.59456818796077,-7.582854930215617L90.2535859678214,1.7693757855365009L87.4625904604624,-4.74017643024694z" style="fill:rgb(14,67,129)"/><path d="M54.59605013682555,82.7514676918251L44.85867150070843,-115.0047887235179L54.43929166883255,82.78811111069878zM55.98889700363241,82.42583749529307L45.119786207442736,-112.31889200940873L54.59605013682555,82.7514676918251zM48.6257197331785,-108.23377265364687L55.98889700363241,82.42583749529307L58.532689596873794,81.83113176923645zM51.666239275809296,-107.10122256360579L58.532689596873794,81.83113176923645L62.07150544136522,81.00379890112889zM66.38745035861301,79.99479068025349L51.666239275809296,-107.10122256360579L62.07150544136522,81.00379890112889zM59.39259472864557,-107.03931905145845L66.38745035861301,79.99479068025349L71.21327886284244,78.86657144439613z" style="fill:rgb(83,212,212)"/><path d="M140.16111692369296,-187.46732926065522L178.44099419114352,53.798115526584375L180.88125827813107,60.53813573372173z" style="fill:rgb(247,158,158)"/><path d="M76.24820966139099,77.68947047616798L59.39259472864557,-107.03931905145845L71.21327886284244,78.86657144439613zM81.17620735704666,76.53736857767517L63.58483148162451,-108.12295988616822L76.24820966139099,77.68947047616798zM85.68573399429941,75.48309882091222L67.63688416884996,-109.8753751647783L81.17620735704666,76.53736857767517zM94.54628782753407,73.41161748095223L77.66716540564451,-120.80978396960116L94.06747739897081,73.5235583489985zM74.29114373598482,-114.89514202132423L85.68573399429941,75.48309882091222L89.48982533423852,74.5937514002947zM76.46383051062325,-117.83431836737267L89.48982533423852,74.5937514002947L92.34493973163485,73.92626193380804zM94.06747739897081,73.5235583489985L76.46383051062325,-117.83431836737267L92.34493973163485,73.92626193380804zM178.44099419114352,53.798115526584375L77.83103285645483,-123.63075446928971L94.54628782753407,73.41161748095223z" style="fill:rgb(83,212,212)"/><path d="M-201.13621287028104,149.18825254278042L178.44099419114352,53.798115526584375L-205.74059838231622,143.6148099286264zM178.44099419114352,53.798115526584375L-201.13621287028104,149.18825254278042L180.88125827813107,60.53813573372173z" style="fill:rgb(127,37,217)"/></svg>
